<?xml version="1.0" encoding="utf-8"?>
<!-- Generator: Adobe Illustrator 20.0.0, SVG Export Plug-In . SVG Version: 6.00 Build 0)  -->
<svg version="1.1" id="Layer_1" xmlns="http://www.w3.org/2000/svg" xmlns:xlink="http://www.w3.org/1999/xlink" x="0px" y="0px"
	 width="17px" height="32px" viewBox="0 0 17 32" style="enable-background:new 0 0 17 32;" xml:space="preserve">
<style type="text/css">
	.st0{fill:#FFCF2E;}
</style>
<path class="st0" d="M17,8.3C17,3.7,13.2,0,8.5,0C3.8,0,0,3.7,0,8.3c0,3.8,2.6,7,6.1,8v13.4C6.1,31,7.2,32,8.5,32
	c1.3,0,2.4-1,2.4-2.3v-2.8h2.4v-3.4h-2.4v-1.8h2.4v-3.4h-2.4v-2C14.4,15.3,17,12.1,17,8.3z M3.9,8.2c0-2.5,2-4.5,4.6-4.5
	c2.5,0,4.6,2,4.6,4.5c0,2.5-2,4.5-4.6,4.5C6,12.7,3.9,10.7,3.9,8.2z"/>
</svg>
