<?xml version="1.0" encoding="UTF-8" standalone="no"?>
<!-- Generator: Adobe Illustrator 19.2.1, SVG Export Plug-In . SVG Version: 6.00 Build 0)  -->

<svg
   xmlns:dc="http://purl.org/dc/elements/1.1/"
   xmlns:cc="http://creativecommons.org/ns#"
   xmlns:rdf="http://www.w3.org/1999/02/22-rdf-syntax-ns#"
   xmlns:svg="http://www.w3.org/2000/svg"
   xmlns="http://www.w3.org/2000/svg"
   xmlns:sodipodi="http://sodipodi.sourceforge.net/DTD/sodipodi-0.dtd"
   xmlns:inkscape="http://www.inkscape.org/namespaces/inkscape"
   version="1.1"
   id="Layer_1"
   x="0px"
   y="0px"
   width="15"
   height="12"
   viewBox="0 0 15 12"
   xml:space="preserve"
   inkscape:version="0.91 r13725"
   sodipodi:docname="Arrow_ICON2.svg"
   inkscape:export-filename="/Users/Lela/Downloads/SVGs/Arrow_ICON2.png"
   inkscape:export-xdpi="90"
   inkscape:export-ydpi="90"><metadata
     id="metadata9"><rdf:RDF><cc:Work
         rdf:about=""><dc:format>image/svg+xml</dc:format><dc:type
           rdf:resource="http://purl.org/dc/dcmitype/StillImage" /><dc:title></dc:title></cc:Work></rdf:RDF></metadata><defs
     id="defs7" /><sodipodi:namedview
     pagecolor="#ffffff"
     bordercolor="#666666"
     borderopacity="1"
     objecttolerance="10"
     gridtolerance="10"
     guidetolerance="10"
     inkscape:pageopacity="0"
     inkscape:pageshadow="2"
     inkscape:window-width="1405"
     inkscape:window-height="808"
     id="namedview5"
     showgrid="false"
     inkscape:zoom="13.111111"
     inkscape:cx="-5.7074154"
     inkscape:cy="5.9999999"
     inkscape:window-x="0"
     inkscape:window-y="0"
     inkscape:window-maximized="0"
     inkscape:current-layer="Layer_1"
     fit-margin-top="0"
     fit-margin-left="0"
     fit-margin-right="0"
     fit-margin-bottom="0" /><path
     d="m 14.673558,5.6666667 -13.6452664,0 4.8966268,-5.06666669 c 0.1305766,-0.1333333 0.1305766,-0.3333333 0,-0.4666667 C 5.7943417,-0.06666669 5.5984766,1.2500003e-8 5.4678999,0.06666671 L 0.0489663,5.6666667 C -0.0163221,5.8 -0.0163221,6 0.0489663,6.1333333 l 0,0 c 0,0 0.065288,0.066667 0.065288,0.066667 L 5.5331879,11.866667 C 5.663765,11.933333 5.7290533,12 5.7943417,12 c 0.065288,0 0.1958653,0 0.1958653,-0.06667 0.130576,-0.133333 0.130576,-0.333333 0,-0.466666 l -4.8313387,-5.1333337 13.5146897,0 C 14.869423,6.3333333 15,6.2 15,6 15,5.8 14.869423,5.6666667 14.673558,5.6666667 Z"
     id="path3"
     style="fill:#ffffff"
     inkscape:connector-curvature="0"
     inkscape:export-xdpi="90"
     inkscape:export-ydpi="90" /></svg>