<svg xmlns="http://www.w3.org/2000/svg" viewBox="0 0 1536 2048"><defs><style>.cls-1{isolation:isolate;}.cls-2{fill:#f4f0ec;}.cls-3,.cls-46{fill:#c4c4c4;}.cls-4{opacity:0.53;}.cls-44,.cls-5,.cls-6,.cls-7,.cls-8,.cls-9{fill:none;}.cls-5,.cls-6,.cls-7,.cls-8,.cls-9{stroke:#f2f2f3;stroke-width:1.81px;}.cls-43,.cls-44,.cls-5,.cls-6,.cls-7,.cls-8,.cls-9{stroke-miterlimit:10;}.cls-6{stroke-dasharray:12.15 23.04;}.cls-7{stroke-dasharray:12.19 23.1;}.cls-8{stroke-linecap:round;}.cls-8,.cls-9{stroke-dasharray:12.05 22.84;}.cls-10{fill:#e3e8e7;}.cls-11{fill:#e1ddd9;}.cls-12{fill:#d8d4d1;}.cls-13{fill:#f79f8b;}.cls-14,.cls-41{fill:#fbccc5;}.cls-15,.cls-16,.cls-19,.cls-33,.cls-38,.cls-40,.cls-48,.cls-49,.cls-51{fill:#f0515a;}.cls-16{opacity:0.51;}.cls-16,.cls-33,.cls-35,.cls-37,.cls-39,.cls-41,.cls-42,.cls-46,.cls-48,.cls-49,.cls-50{mix-blend-mode:multiply;}.cls-17,.cls-20{fill:#24518f;}.cls-18{fill:#494b53;}.cls-19{opacity:0.22;}.cls-20{opacity:0.54;}.cls-21{fill:#ddd9d5;}.cls-22{fill:#f8f5f0;}.cls-23{fill:#dbd8d4;}.cls-24{fill:#f3efed;}.cls-25{fill:#dfdbd7;}.cls-26{fill:#d6d3cf;}.cls-27{fill:#d3cfcb;}.cls-28{fill:#d9d5d2;}.cls-29{fill:#f3f0ec;}.cls-30{fill:#dcd9d4;}.cls-31{fill:#f5f1ed;}.cls-32{fill:#e4e1dc;}.cls-33{opacity:0.99;}.cls-34,.cls-37,.cls-38{opacity:0.58;}.cls-36,.cls-43{fill:#dc2539;}.cls-39{opacity:0.52;}.cls-40,.cls-48{opacity:0.48;}.cls-42{opacity:0.75;}.cls-43,.cls-44{stroke:#f0515a;stroke-width:1px;}.cls-45{fill:#e5b5b1;}.cls-47{fill:#e5525f;}.cls-49{opacity:0.71;}.cls-50{fill:#c94454;opacity:0.57;}.cls-51{opacity:0.7;}</style></defs><title>FUTURE_SKYLINE_ILLUS_TALL</title><g class="cls-1"><g id="Layer_5" data-name="Layer 5"><rect class="cls-2" y="1472.53" width="1534.39" height="575.47"/><path class="cls-3" d="M1534.39,1537.9c-45.8-8.84-172.22-33.47-219.79-45-40.61-9.88-116-39.79-155.67-49.21-41.61-9.87-128.41-17.61-168.84-27.57-27.83-6.86-77.58-30.41-104.48-37.1-32.2-8-100.26-11.22-131.4-18.71-27.14-6.53-106.3-32.85-106.3-32.85l-15.6,5s80.93,26.76,108.61,33.68c31.91,8,101.39,13.11,134.38,21.41,26.42,6.65,75.66,28.7,103.07,35.32,41,9.9,128.68,18.25,170.75,28.39,39.81,9.59,115.37,39.68,156.08,49.7,49.31,12.14,179,38,229.19,47.88Z"/><path class="cls-3" d="M1473.5,1773.22l-20.53-7.05s-205.24-55.85-272.17-79.12C1123,1667,954.2,1594.9,954.2,1594.9s-136-31.8-179.76-47.38c-33.54-11.94-129.69-58.88-129.69-58.88s-108.69-24.75-144.32-35.21c-31.58-9.28-67.61-9.62-62.39-27.62l-3.83-5.78s25.24.27,27.89,1.68c9.06,4.79,31.73,16.31,55.23,24.53,33.27,11.64,137.12,32.91,137.12,32.91s98.47,47.91,132.81,60.15c44.25,15.77,181.6,48.24,181.6,48.24s162.55,70.1,218.21,89.59c66.92,23.43,272.26,79.49,272.26,79.49l48.22,16.62Z"/><path class="cls-3" d="M1534.39,1379c-27.91-4.23-56.59-8.81-72-11.94-41.66-8.47-123.88-31.2-165.62-38.59-53.21-9.42-161.41-15.5-214.19-26.75-22.47-4.79-65.89-21.31-88.37-25.3-25.68-4.56-103.83-10.13-103.83-10.13l-16.69,5.15s79.5,6.31,105.62,11.07c23.83,4.34,69.9,21.72,93.73,26.87,50.84,11,155,17.7,206.32,26.67,44.59,7.79,132.67,30.79,177.23,39.42,16.46,3.19,48.18,8,77.78,12.26Z"/><path class="cls-3" d="M1191.54,2048c80.65-103.71,211.84-274.23,220.17-296.57,15.56-41.7,35.7-128.71,53.45-169.83,14.71-34.08,54.56-98.93,67.52-133.72.57-1.52,1.14-3.12,1.72-4.78v-83.63c-9.8,29.86-20,62.13-29.36,81.49-16.59,34.4-67,97.08-85.52,131.08-21,38.59-43.7,122.69-61.33,162.57-10,22.52-161.66,205.12-252.42,313.41Z"/><g class="cls-4"><path class="cls-5" d="M1151.84,2041.54q1.86-2.36,3.76-4.7"/><path class="cls-6" d="M1169.93,2018.8c14.94-20.92,28.92-39.87,44.87-60.82,25.1-33.13,47.18-63.24,73.28-95.36,9-13,18.07-24.09,27.1-37.14a322.41,322.41,0,0,1,21.08-30.11c6-7,12-13,17.06-21.08,9-15.06,18.07-27.1,27.1-41.16,1-1,0-3,1-4A68.56,68.56,0,0,0,1398.5,1701c18.07-52.2,32.12-104.4,59.23-153.58,9-15.06,17.06-30.11,28.11-43.16,12.46-24.93,25.61-49.16,37.07-74.69"/><path class="cls-5" d="M1527.5,1419q1.17-2.77,2.31-5.56"/></g><path class="cls-3" d="M1343.88,1290.85c-34.74,23.61-100.77,53.52-129.24,75.18s-71,76.91-99.1,98.91c-40.46,31.71-136.67,79.77-177.2,111.39-30.55,23.83-78.08,83-108.95,106.4-29.82,22.63-359.47,227.66-359.47,227.66l-54.28,85.56s421.63-270.45,448-291.88c31.3-25.44,78.5-89.28,109.34-115.28,38.57-32.53,131.43-82.64,169.87-115.32,27-23,66.89-80.25,94.25-102.82,24.88-20.52,80.65-48.49,115.52-71.9A68.83,68.83,0,0,1,1343.88,1290.85Z"/><g class="cls-4"><path class="cls-5" d="M435,1956.67q2.13-1.5,5-3.42"/><path class="cls-7" d="M459.21,1940.51c92.6-60.25,368.46-231,411.4-266.58,4.68-4.68,9.35-8.18,14-14,24.55-37.41,51.44-65.47,84.18-93.53,11.69-9.35,22.21-17.54,35.08-24.55,18.71-9.35,36.24-17.54,55-28.06l17.54-10.52c22.21-14,40.92-26.89,62-42.09,22.21-16.37,35.08-38.58,53.78-57.29,40.17-41.23,86.08-71.95,135.37-97"/><path class="cls-5" d="M1337.86,1301.74l5.43-2.62"/></g><path class="cls-3" d="M1119.87,1266.52a8.94,8.94,0,0,1-7.14-3.09c-29.79,16.84-72.66,55.91-99.39,69.92-35.5,18.6-115.86,39.42-151.34,58.06-28.76,15.11-77,58.24-105.79,73.25-33.52,17.47-109.63,36.48-143.18,53.89-32.36,16.79-87,65-120,80.5-20.21,9.5-85.24,26.7-85.24,26.7l30.93,17.07s75.17-23.35,95.18-33.39c31.63-15.87,82.93-64.82,113.91-81.93,32.73-18.07,107.83-37.95,140.49-56.15,26.85-15,70.65-57.91,97.43-73,34.75-19.56,114.47-41.47,149.28-60.92,25.57-14.29,65.74-53.88,94.14-71.09C1126.06,1266.43,1123,1266.51,1119.87,1266.52Z"/><path class="cls-8" d="M430.14,1632.32a370.91,370.91,0,0,0,89.72-34.39c59.63-46.77,123.93-91.2,198.76-108.73,30.4-11.69,60.8-22.21,86.52-42.09,33.91-37.41,79.5-58.46,125.1-77.17,2.34-1.17,3.51,0,5.85-1.17,3.51-1.17,5.85-3.51,9.35-4.68,44.43-15.2,92.37-25.72,126.27-62,11.69-14,24.55-23.38,39.65-31.44"/><path class="cls-3" d="M1037.43,1216.39c-29,10.88-60.25,22.37-71.08,27.12-35.92,15.73-101.65,48.41-138.85,60.79-44.18,14.7-142.9,26.9-186.81,46.6-23.41,10.51-62.19,44.73-87,54.42-37,14.43-122.64,21.85-161,37.1-30.56,12.13-68.5,57.28-100.6,68.4-22.21,7.7-124.53,12.25-124.53,12.25l18.94,16.84s109.71-8.61,129.9-15.62c33.35-11.58,65-65.57,96.7-78.38,38-15.36,123-23.32,159.61-37.9,25.6-10.2,65.66-45.75,89.88-56.67,42-19,136.63-30.81,178.8-45.18,36.67-12.49,101.3-45.53,136.62-61.44,9.85-4.44,37.21-14.72,63.9-24.93Q1039.59,1218.13,1037.43,1216.39Z"/><path class="cls-9" d="M186.42,1530.06c41.72.76,88.66,1.58,125.35-19.13,41.91-27.88,103.75-72.81,149.52-83.07,15.85-3.56,31.36-4.14,47.34-5.92a258.19,258.19,0,0,0,42.61-8.28c4.73-1.78,10.06-3.55,14.79-5.33,13.61-5.33,26.63-12.43,37.87-22.49.59-.59,1.78-.59,2.37-1.18,31.36-29,69.83-45.56,112.43-52.07,24.26-4.14,45.56-11.24,70.42-16,.59,0,1.78-1.18,2.37-1.18,22.49-4.73,43.2-10.06,65.09-16,5.33-1.18,10.06-3.55,14.79-5.33C914,1274,954.8,1253.29,998,1235.54c4.73-1.78,10.06-3.55,14.79-5.33,7.69-2.37,14.79-5.33,22.22-7.18"/><path class="cls-3" d="M1273,1883.39c-65.45-20.66-132.61-28.63-199.15-44.39,0,0-98.34-30.15-129.65-43.28-38.45-16.12-104.49-63.29-142-79.85-42.23-18.65-134.73-37.23-176.19-55.29-36.12-15.74-98.2-62.94-133.93-77.93-32.15-13.48-103.24-23.95-134.37-37.33-18.8-8.08-58.31-30.18-86.54-46.35v17.17c25.4,14.11,52.47,28.62,67.38,35,31.33,13.47,102.74,24.37,135,38,36.08,15.27,98.82,63.07,135.29,79.09,41.68,18.31,134.71,37.3,177.13,56.27,37.7,16.86,104.29,66.57,143.12,82.48,10.31,4.23,60.85,27.75,141.47,40.63,24.6,3.93,289.25,75.48,289.25,75.48l27.36-18.3Z"/><polygon class="cls-2" points="464.65 1574.86 479.01 1579.57 485.39 1602.73 471.11 1607.38 468.6 1607.6 464.65 1574.86"/><polygon class="cls-10" points="781.14 1272.62 814.43 1282.39 834.78 1262.85 802.41 1248.2 781.14 1272.62"/><polygon class="cls-11" points="781.14 1272.62 814.43 1282.39 827.23 1538.29 776.19 1493.47 781.14 1272.62"/><polyline class="cls-2" points="836.18 1262.66 814.43 1282.39 813.83 1506.43 827.23 1538.29 834.78 1262.85"/><polygon class="cls-10" points="433.46 1436.19 466.75 1438.44 487.1 1433.93 454.73 1430.55 433.46 1436.19"/><polygon class="cls-11" points="433.46 1436.19 466.75 1438.44 479.55 1497.47 430.14 1470.36 433.46 1436.19"/><polyline class="cls-2" points="488.5 1433.89 466.75 1438.44 466.15 1490.12 479.55 1497.47 487.1 1433.93"/><polygon class="cls-2" points="375.57 1235.29 437.49 1211.47 439.23 1464.05 404.62 1562.01 385.94 1483.1 375.57 1235.29"/><polygon class="cls-10" points="437.49 1211.47 375.6 1235.92 295.49 1227.02 437.49 1211.47"/><path class="cls-12" d="M297.52,1460s32.25,13.66,44,16.66c10.56,2.69,44.39,6.43,44.39,6.43l-9.68-247.44-81.28-8.6Z"/><polygon class="cls-10" points="824.32 1150.13 866.95 1144.72 910.63 1236.33 868.85 1121.09 824.32 1150.13"/><polygon class="cls-11" points="824.32 1150.13 869.72 1142.82 888.86 1379.85 833.51 1364.99 824.32 1150.13"/><polyline class="cls-2" points="866.95 1144.72 888.84 1380.49 971.62 1352.71"/><polygon class="cls-10" points="881.16 1368.84 903.63 1375.28 917.36 1362.4 895.52 1352.74 881.16 1368.84"/><polygon class="cls-11" points="881.16 1368.84 903.63 1375.28 901.13 1471.85 878.92 1466.49 881.16 1368.84"/><polyline class="cls-2" points="918.31 1362.27 903.63 1375.28 901.13 1471.85 914.55 1458.31 917.36 1362.4"/><polygon class="cls-10" points="765.24 1246.67 812.91 1255.87 831.21 1239.05 807.09 1236.43 765.24 1246.67"/><polygon class="cls-11" points="765.24 1246.67 812.91 1255.87 809.59 1382.04 762.26 1374.25 765.24 1246.67"/><polyline class="cls-2" points="832.48 1238.88 812.91 1255.87 809.59 1382.04 833.51 1364.99 831.21 1239.05"/><polygon class="cls-10" points="1025.57 1870.84 1073.24 1880.03 1091.54 1863.21 1067.41 1860.6 1025.57 1870.84"/><polygon class="cls-11" points="1025.57 1870.84 1073.24 1880.03 1069.91 2006.2 1022.58 1998.41 1025.57 1870.84"/><polyline class="cls-2" points="1092.8 1863.04 1073.24 1880.03 1069.91 2006.2 1093.83 1989.15 1091.54 1863.21"/><polygon class="cls-10" points="548.85 1242.95 598.74 1256.76 629.22 1229.13 598.74 1216.1 548.85 1242.95"/><path class="cls-11" d="M548.85,1242.95l49.89,13.82-5.59,209.1s-17.7-3.63-23.28-5c-6.76-1.61-26-6.93-26-6.93Z"/><polyline class="cls-2" points="629.22 1229.13 595.86 1256.76 590.32 1464.01 620.11 1434.96 629.22 1229.13"/><polygon class="cls-10" points="1186.95 1240.54 1216.73 1248.11 1236.18 1232.83 1205.98 1221.63 1186.95 1240.54"/><polygon class="cls-11" points="1186.95 1240.54 1216.73 1248.11 1213.61 1366.83 1196.06 1382.5 1183.98 1355.26 1186.95 1240.54"/><polyline class="cls-2" points="1236.18 1232.83 1216.73 1248.11 1213.61 1366.83 1231.2 1345.66 1236.18 1232.83"/><polygon class="cls-10" points="1156.58 1287.61 1179.06 1294.17 1193.73 1280.91 1170.94 1271.2 1156.58 1287.61"/><polygon class="cls-11" points="1156.58 1287.61 1193.73 1280.91 1165.45 1418.75 1154.34 1387.17 1156.58 1287.61"/><polyline class="cls-2" points="1193.73 1280.91 1165.45 1418.75 1195.9 1382.72"/><polygon class="cls-10" points="1086.32 1252.17 1156.94 1267.35 1180.71 1246.6 1129.17 1218.7 1086.32 1252.17"/><polygon class="cls-11" points="1103.52 1250.13 1156.94 1267.35 1150.74 1443.35 1104.72 1416 1103.52 1250.13"/><path class="cls-2" d="M1180.71,1246.6l-23.77,20.75-6.2,176s12.74-19.55,16.63-26.63c2.72-5,10.11-20.94,10.11-20.94l3.23-149.18"/><polygon class="cls-10" points="1148.91 1452.52 1171.38 1456.27 1185.12 1448.78 1163.27 1443.16 1148.91 1452.52"/><polygon class="cls-11" points="1148.91 1452.52 1171.38 1456.27 1168.89 1512.45 1146.67 1509.33 1148.91 1452.52"/><polyline class="cls-10" points="1186.07 1448.7 1171.38 1456.27 1168.89 1512.45 1182.31 1504.57 1185.12 1448.78"/><polygon class="cls-2" points="1335.2 1278.6 1335.2 1304.85 1306.26 1338.51 1312.31 1302.83 1335.2 1278.6"/><polygon class="cls-13" points="1028.41 1130.02 1063.88 1104.16 1061.19 1177.12 1041.51 1188.2 1028.41 1130.02"/><polygon class="cls-14" points="1063.88 1073.51 1011.02 1112.35 931.65 1097.11 980.72 1067.81 1063.88 1073.51"/><polygon class="cls-14" points="957.96 1021.47 1003.58 1032.61 1032.28 1015.2 986.57 1004.43 957.96 1021.47"/><polygon class="cls-13" points="1003.58 1032.61 1003.58 1100.66 1032.28 1081.52 1032.28 1015.07 1003.58 1032.61"/><polygon class="cls-15" points="957.86 1021.45 957.86 1092.2 1003.58 1100.66 1003.58 1032.61 957.86 1021.45"/><polygon class="cls-14" points="1074.67 1109.72 1092.69 1098.94 1062.59 1095.42 1010.14 1132.08 999.1 1129.41 987.93 1134.92 1029 1141.95 1047.01 1131.7 1032.28 1128.13 1061.59 1107.76 1074.67 1109.72"/><polygon class="cls-14" points="997.23 1109.7 988.21 1116.61 923.72 1101.57 931.57 1097.09 997.23 1109.7"/><polygon class="cls-15" points="992.1 1135.04 991.83 1193.93 1032.57 1203.47 1031.69 1140.79 992.1 1135.04"/><polygon class="cls-14" points="992.65 1135.86 985.74 1139.69 903.89 1122.93 923.72 1116.61 992.65 1135.86"/><polygon class="cls-13" points="987.44 1116.61 987.93 1134.92 998.21 1129.89 997.97 1109.04 987.44 1116.61"/><polygon class="cls-15" points="923.72 1120.16 923.72 1101.57 988.21 1116.61 988.04 1134.56 923.72 1120.16"/><polygon class="cls-15" points="1061.82 1107.6 1059.27 1171.56 1075.45 1173.1 1074.67 1109.72 1061.82 1107.6"/><polygon class="cls-14" points="1048.42 1190.97 1075.45 1173.1 1059.29 1171.26 1041.51 1179.45 1048.42 1190.97"/><polygon class="cls-14" points="1091.85 1161.03 1101.22 1155.1 1085.27 1154.12 1091.85 1161.03"/><path class="cls-13" d="M1101.41,1177.5l-.35-22.39-9.21,5.92.49-61.85-17.67,9,.87,64.66-27.12,18.1-1.79-58.89-14.93,8.72.6,61.39-8.82,5.55-.32,303.1,82.52-60.47-4.19-269.13A4,4,0,0,1,1101.41,1177.5Z"/><polygon class="cls-15" points="903.89 1122.93 911.09 1472.64 1023.13 1510.82 1023.73 1210.61 982.17 1200.97 982.94 1138.33 903.89 1122.93"/><polygon class="cls-14" points="991.83 1193.93 982.17 1200.97 1023.46 1207.73 1032.28 1202.18 991.83 1193.93"/><polygon class="cls-13" points="992.1 1135.04 982.7 1138.63 982.17 1200.97 991.83 1193.93 992.1 1135.04"/><polygon class="cls-13" points="669.67 1253.66 645.6 1261.17 645.13 1297.36 669.66 1291.14 669.67 1253.66"/><polygon class="cls-15" points="1009.9 1112.13 997.37 1109.16 997.89 1129.84 1010.14 1132.08 1009.9 1112.13"/><polygon class="cls-16" points="1003.3 1066.22 958.11 1056.49 957.86 1050.29 1003.3 1059.82 1003.3 1066.22"/><polygon class="cls-16" points="1074.99 1135.38 1060.9 1133.42 1061.17 1127.29 1074.95 1128.95 1074.99 1135.38"/><polygon class="cls-16" points="982.65 1144.79 982.96 1138.45 903.89 1122.93 904.02 1129.11 982.65 1144.79"/><polygon class="cls-17" points="909.9 1412.3 910.03 1418.75 1023.13 1449.2 1023.13 1442.7 909.9 1412.3"/><polygon class="cls-16" points="908.65 1352.27 908.79 1358.75 1023.37 1390.89 1023.37 1384.34 908.65 1352.27"/><polygon class="cls-16" points="907.43 1293.52 907.57 1299.99 1023.49 1331.22 1023.49 1324.37 907.43 1293.52"/><polygon class="cls-16" points="906.25 1236.33 906.38 1242.74 1023.64 1269.88 1023.64 1262.97 906.25 1236.33"/><polygon class="cls-16" points="905.15 1183.5 905.28 1189.68 1023.64 1213.24 1023.64 1206.86 905.15 1183.5"/><polygon class="cls-18" points="1023.13 1499.1 910.97 1465.5 910.9 1463.81 1023.13 1497.81 1023.13 1499.1"/><polygon class="cls-18" points="1023.25 1437.74 909.91 1408.37 909.78 1406.68 1023.2 1436.45 1023.25 1437.74"/><polygon class="cls-16" points="1023.41 1379.7 908.65 1348.83 908.54 1347.13 1023.37 1378.41 1023.41 1379.7"/><polygon class="cls-16" points="1023.51 1320.06 907.34 1288.77 907.27 1286.92 1023.47 1318.77 1023.51 1320.06"/><polygon class="cls-16" points="1023.74 1258.01 906.13 1231.78 906.1 1230.05 1023.65 1256.72 1023.74 1258.01"/><polygon class="cls-16" points="991.83 1187.81 1032.08 1195.54 1031.95 1194.26 991.83 1186.39 991.83 1187.81"/><polygon class="cls-16" points="1075.45 1168.58 1059.47 1166.52 1059.32 1167.93 1075.45 1169.92 1075.45 1168.58"/><polygon class="cls-16" points="982.32 1190.72 905.15 1175.97 905.24 1177.7 982.32 1192.14 982.32 1190.72"/><polygon class="cls-16" points="988.17 1130.95 923.79 1116.23 923.72 1114.56 988.24 1129.69 988.17 1130.95"/><polygon class="cls-16" points="1074.7 1123.83 1061.1 1122.04 1061.33 1123.69 1074.7 1125.37 1074.7 1123.83"/><polygon class="cls-16" points="1010.07 1127.13 997.75 1125.03 997.81 1126.68 1010.09 1128.7 1010.07 1127.13"/><polygon class="cls-16" points="1003.47 1054.34 957.86 1043.98 958.04 1045.67 1003.47 1055.83 1003.47 1054.34"/><path class="cls-16" d="M945.47,1125.11l-.33-18.54-1-.24.33,18.54Z"/><path class="cls-16" d="M979,1132.71l-.24-18.3-1-.25.24,18.26C978.27,1132.45,978.61,1132.68,979,1132.71Z"/><polygon class="cls-16" points="967.69 1094.2 967.39 1024.56 966.34 1024.31 966.7 1093.92 967.69 1094.2"/><path class="cls-16" d="M996.23,1098.78l.14-67.93-1.25-.27.07,67.93C995.54,1098.64,995.89,1098.66,996.23,1098.78Z"/><polygon class="cls-16" points="1004.09 1131.22 1003.62 1110.77 1002.6 1110.77 1003.03 1131.14 1004.09 1131.22"/><polygon class="cls-16" points="1014.05 1199.06 1013.63 1139.44 1012.61 1139.45 1013.03 1198.8 1014.05 1199.06"/><polygon class="cls-16" points="1068.67 1172.21 1068.24 1108.62 1067.22 1108.62 1067.64 1171.94 1068.67 1172.21"/><rect class="cls-16" x="913.7" y="1125.01" width="1.02" height="352.81" transform="translate(-22.48 16.08) rotate(-1)"/><path class="cls-16" d="M944.46,1133.67l5.76,349.67,1,0-5.75-349.43Z"/><path class="cls-16" d="M978,1139.72l5.73,355.91,1,0L979,1139.82Z"/><polygon class="cls-16" points="1013.33 1205.16 1015.28 1504.9 1016.3 1504.89 1014.35 1205.16 1013.33 1205.16"/><path class="cls-17" d="M1021.15,1104.06l.27,20.09,1-1.16-.27-19.7Z"/><polygon class="cls-19" points="1012.25 1027.15 1013.24 1094.2 1014.22 1093.58 1013.38 1026.48 1012.25 1027.15"/><polygon class="cls-19" points="1032.06 1043.09 1003.71 1060.92 1003.34 1066.99 1032.06 1048.36 1032.06 1043.09"/><polygon class="cls-19" points="992.31 1135.38 982.96 1138.45 982.65 1144.79 992.24 1141.46 992.31 1135.38"/><polygon class="cls-16" points="1047.01 1131.7 1030.16 1141.41 1030.16 1147.23 1046.83 1137.54 1047.01 1131.7"/><polygon class="cls-19" points="1061.68 1107.6 1031.69 1128.15 1038.12 1129.89 1061.68 1112.74 1061.68 1107.6"/><polygon class="cls-16" points="1031.75 1147.35 992.24 1141.46 991.99 1135.27 1031.69 1140.79 1031.75 1147.35"/><polygon class="cls-19" points="1045.63 1136.43 1046.65 1136.41 1051.4 1489.94 1050.38 1489.96 1045.63 1136.43"/><polygon class="cls-13" points="1010.25 1132.08 1009.9 1112.13 1063.88 1073.51 1062.61 1095.53 1010.25 1132.08"/><polygon class="cls-19" points="1063.01 1089.79 1009.97 1127.33 1009.9 1128.7 1062.88 1091.79 1063.01 1089.79"/><polygon class="cls-19" points="1032.17 1037.17 1003.49 1054.24 1003.3 1055.6 1032.17 1038.71 1032.17 1037.17"/><polygon class="cls-19" points="1059.66 1163.35 1047.77 1170.67 1047.86 1172.28 1059.66 1165.11 1059.66 1163.35"/><polygon class="cls-19" points="1091.92 1152.27 1075.37 1163.99 1075.37 1165.8 1091.92 1154.26 1091.92 1152.27"/><polygon class="cls-19" points="1092.35 1111.36 1074.7 1123.71 1074.7 1125.51 1092.35 1113.35 1092.35 1111.36"/><polygon class="cls-19" points="1047.86 1183.42 1032.65 1194.17 1032.57 1195.54 1047.86 1184.91 1047.86 1183.42"/><path class="cls-19" d="M1084.26,1464l-3.67-359.4-1,.31,3.68,360.37C1083.58,1464.87,1083.92,1464.45,1084.26,1464Z"/><polygon class="cls-19" points="1058.41 1077.27 1058.72 1098.12 1059.77 1097.39 1059.56 1076.6 1058.41 1077.27"/><polygon class="cls-19" points="1023.5 1207.55 1101.22 1155.12 1101.22 1159.54 1023.49 1213.63 1023.5 1207.55"/><polygon class="cls-19" points="1074.99 1129.88 1074.99 1135 1092.35 1122.63 1092.35 1118.21 1074.99 1129.88"/><polygon class="cls-20" points="1105.51 1441.71 1023.13 1499.1 1023.21 1497.73 1105.65 1439.84 1105.51 1441.71"/><polygon class="cls-19" points="1104.77 1381.1 1023.13 1437.74 1023.21 1436.37 1104.55 1379.48 1104.77 1381.1"/><polygon class="cls-19" points="1103.78 1323.79 1023.49 1379.7 1023.57 1378.33 1103.92 1321.91 1103.78 1323.79"/><polygon class="cls-19" points="1102.79 1264.48 1023.49 1319.69 1023.57 1318.32 1102.93 1262.61 1102.79 1264.48"/><polygon class="cls-19" points="1101.97 1203.24 1023.49 1257.81 1023.57 1256.44 1101.97 1201.04 1101.97 1203.24"/><polygon class="cls-20" points="1023.15 1504.9 1105.65 1445.94 1105.65 1450.35 1041.94 1497.16 1023.13 1510.98 1023.15 1504.9"/><polygon class="cls-19" points="1023.27 1443.12 1104.72 1384.95 1104.72 1389.36 1023.25 1449.2 1023.27 1443.12"/><polygon class="cls-19" points="1023.42 1384.81 1103.85 1327.34 1103.85 1331.76 1023.41 1390.89 1023.42 1384.81"/><polygon class="cls-19" points="1023.5 1324.94 1102.86 1268.22 1102.86 1272.63 1023.49 1331.02 1023.5 1324.94"/><polygon class="cls-19" points="1024.32 1263.8 1102.04 1211.37 1102.04 1215.78 1024.31 1269.88 1024.32 1263.8"/><polygon class="cls-19" points="1060.65 1485.55 1045.21 1496.54 1040.92 1136.22 1047.61 1132.71 1049.08 1191.1 1058.47 1185.78 1060.65 1485.55"/><polygon class="cls-19" points="1032.57 1116.61 1032.17 1096.2 1016 1107.38 1016.75 1127.29 1032.57 1116.61"/><polygon class="cls-19" points="1022.07 1088.41 1020.89 1022.48 1008.06 1030.32 1007.57 1098.2 1022.07 1088.41"/><polygon class="cls-21" points="1105.73 1498.91 1018.56 1472.6 1027.39 1598.51 1110.67 1627.08 1105.73 1498.91"/><polygon class="cls-22" points="1131.85 1475.23 1135.73 1591.75 1110.67 1627.08 1105.73 1498.91 1131.85 1475.23"/><polygon class="cls-22" points="1141.38 1478.99 1154.43 1466.96 1155.14 1569.57 1143.49 1581.6 1141.38 1478.99"/><polygon class="cls-22" points="1114.91 1454.18 1138.9 1462.47 1151.96 1465.84 1151.61 1421.86 1114.91 1454.18"/><polygon class="cls-23" points="1131.85 1475.23 1141.38 1478.99 1143.49 1581.6 1135.33 1579.71 1131.85 1475.23"/><polygon class="cls-10" points="1018.56 1472.6 1105.73 1498.91 1131.85 1475.23 1141.38 1478.99 1154.08 1467.71 1114.91 1454.18 1151.61 1421.86 1097.97 1407.95 1018.56 1472.6"/><path class="cls-24" d="M790.94,1346.52l38.43-14.06,5.25,76.64s-15,11.22-20.28,15c-5.66,4.11-23.4,17.57-23.4,17.57Z"/><polygon class="cls-25" points="698.13 1329.77 791.09 1347.16 791.74 1452.07 686.53 1435.83 698.13 1329.77"/><polygon class="cls-10" points="719.42 1321.47 698.13 1329.77 790.94 1346.52 829.37 1332.46 719.42 1321.47"/><polygon class="cls-14" points="699.53 1305.22 679.2 1311.09 643.73 1297.22 669.43 1290.85 699.53 1305.22"/><polygon class="cls-14" points="643.73 1269.12 624.2 1277.85 589.97 1261 615.97 1259.16 643.73 1269.12"/><polygon class="cls-14" points="669.27 1253.94 645.6 1261.17 614.97 1245.35 647.79 1240.94 669.27 1253.94"/><polygon class="cls-14" points="700.95 1202.63 647.03 1173.57 674.36 1165.42 757.51 1179.71 700.95 1202.63"/><polygon class="cls-13" points="679.2 1678.37 678.99 1310.94 699.88 1305.22 699.88 1202.67 739.94 1186.52 757.35 1179.66 759.7 1416.93 811.18 1398.45 813.4 1592.94 679.2 1678.37"/><path class="cls-15" d="M679.2,1678.37l-.2-367.42-33.66-13.71.26-36.07L615,1245.46l-.44,27.72L590.18,1261l-4.64,371.66s27.26,20.26,37,25.25C636.14,1664.84,679.2,1678.37,679.2,1678.37Z"/><polygon class="cls-15" points="699.88 1305.22 669.66 1291.14 669.07 1254.23 647.79 1240.94 647.03 1173.57 700.95 1202.42 699.88 1305.22"/><polygon class="cls-14" points="811.18 1398.45 759.44 1389.87 760.16 1416.6 811.18 1398.45"/><polygon class="cls-17" points="911.09 1469.48 911.22 1476.03 1023.13 1510.98 1023.13 1504.48 911.09 1469.48"/><polygon class="cls-10" points="875.43 1408.61 957.36 1431.34 991.92 1413.25 961.37 1405.4 875.43 1408.61"/><polygon class="cls-11" points="875.43 1408.61 957.36 1431.34 957.36 1586.37 922.07 1590.61 914.5 1514.57 875.43 1515.37 875.43 1408.61"/><polyline class="cls-2" points="991.92 1413.25 957.36 1431.34 951.33 1567.01 983.73 1547.99"/><polygon class="cls-10" points="1112.37 1547.52 1134.85 1553.34 1148.58 1541.69 1126.73 1532.96 1112.37 1547.52"/><polygon class="cls-11" points="1112.37 1547.52 1134.85 1553.34 1132.35 1640.71 1110.13 1635.86 1112.37 1547.52"/><polyline class="cls-22" points="1149.53 1541.58 1134.85 1553.34 1132.35 1640.71 1145.77 1628.47 1148.58 1541.69"/><polygon class="cls-10" points="981.51 1830.49 1003.98 1834.23 1017.71 1826.74 995.87 1821.13 981.51 1830.49"/><polygon class="cls-11" points="981.51 1830.49 1003.98 1834.23 1001.48 1890.41 979.27 1887.29 981.51 1830.49"/><polyline class="cls-10" points="1018.66 1826.67 1003.98 1834.23 1001.48 1890.41 1014.9 1882.54 1017.71 1826.74"/><polygon class="cls-10" points="980.98 1444.03 1003.45 1449.86 1023.25 1437.74 995.34 1429.47 980.98 1444.03"/><polygon class="cls-11" points="980.98 1444.03 1003.45 1449.86 1000.96 1537.23 978.31 1549.51 980.98 1444.03"/><polyline class="cls-2" points="1023.25 1437.74 1003.45 1449.86 1000.96 1537.23 1023.73 1524.28"/><path class="cls-2" d="M507.89,1532.88l19.95-15.1,1.61-20.91,54.69-23.7,2.32,61.55s-24.14,20.13-32.61,26.28c-10.67,7.75-45.48,29.62-45.48,29.62Z"/><polygon class="cls-10" points="529.44 1496.87 584.13 1473.17 481.24 1441.7 459.83 1456.98 427.31 1464.7 410.42 1475.15 529.44 1496.87"/><polygon class="cls-26" points="412.34 1561.1 410.42 1475.15 529.44 1496.87 527.83 1517.78 527.83 1517.78 457.19 1571.79 412.34 1561.1"/><path class="cls-27" d="M452.76,1523.07l55.12,9.81.48,57.73s-21.36-9.9-28.86-12.51c-5.44-1.9-22.31-6.31-22.31-6.31Z"/><polygon class="cls-10" points="528.34 1517.78 467.49 1508.92 452.76 1523.07 488.43 1529.42 507.89 1532.88 528.34 1517.78"/><polygon class="cls-10" points="820.88 1364.99 859.3 1375.63 882.79 1354.35 845.43 1338.38 820.88 1364.99"/><polygon class="cls-11" points="820.88 1364.99 859.3 1375.63 855.04 1535.26 817.05 1526.39 820.88 1364.99"/><polyline class="cls-2" points="884.41 1354.13 859.3 1375.63 855.04 1535.26 877.98 1512.88 882.79 1354.35"/><polygon class="cls-10" points="824.11 1486.37 894.72 1497.47 918.49 1482.29 866.95 1461.87 824.11 1486.37"/><polygon class="cls-11" points="841.3 1484.87 894.72 1497.47 888.53 1626.27 842.5 1606.25 841.3 1484.87"/><path class="cls-2" d="M918.49,1482.29l-23.77,15.18-6.2,128.8s13.32-14.35,17.21-19.54c2.72-3.63,18.2-17.14,18.2-17.14l-5.44-107.31"/><polygon class="cls-28" points="918.03 1572.82 924.73 1787.12 969.73 1590.63 918.03 1572.82"/><path class="cls-28" d="M1008.65,1818.36l12.78-139L914.5,1646.25s.74,134.83.74,134.89c0,.74,8.75,5.62,9.49,6,5.88,2.86,11.68,5.87,17.62,8.6,13.39,6.16,27.28,10.28,41,15.51A229.82,229.82,0,0,0,1008.65,1818.36Z"/><polygon class="cls-22" points="1098.97 1579.14 1021.43 1679.37 1008.65 1818.36 1067.68 1722.99 1098.97 1579.14"/><polygon class="cls-28" points="1060.27 1667.01 1103.81 1679.37 1095.11 1760.6 1053.38 1747.32 1060.27 1667.01"/><polygon class="cls-22" points="1142.87 1631.29 1103.81 1679.37 1095.2 1759.72 1135.73 1743.06 1142.87 1631.29"/><polygon class="cls-10" points="1093.48 1614.38 1149.53 1640.71 1103.81 1679.37 1060.27 1667.01 1093.48 1614.38"/><polygon class="cls-10" points="1098.97 1579.14 960.54 1528.01 918.03 1572.82 969.73 1590.63 914.5 1646.25 1021.43 1679.37 1098.97 1579.14"/><polygon class="cls-10" points="1015.06 1748.65 1078.86 1755.03 1119.03 1745.49 1056.65 1738.5 1015.06 1748.65"/><polygon class="cls-11" points="1015.06 1748.65 1078.86 1755.03 1073.83 1839 1008.65 1818.36 1015.06 1748.65"/><polyline class="cls-22" points="1119.03 1745.49 1078.86 1755.03 1073.83 1839 1102.79 1845.03 1108.75 1815.94 1119.03 1745.49"/><polygon class="cls-10" points="826.12 1431.28 848.59 1442.64 862.32 1419.92 840.47 1402.88 826.12 1431.28"/><polygon class="cls-11" points="826.12 1431.28 848.59 1442.64 846.09 1613.03 823.87 1603.57 826.12 1431.28"/><polyline class="cls-29" points="863.27 1419.69 848.59 1442.64 846.09 1613.03 859.51 1589.15 862.32 1419.92"/><polygon class="cls-10" points="846.79 1559.92 874.29 1565.74 891.09 1554.09 864.36 1545.35 846.79 1559.92"/><polygon class="cls-11" points="846.79 1559.92 874.29 1565.74 871.23 1653.11 844.04 1648.26 846.79 1559.92"/><polyline class="cls-22" points="892.25 1553.97 874.29 1565.74 871.23 1653.11 888.21 1626.71 891.09 1554.09"/><polygon class="cls-10" points="483.32 1571.88 516.61 1581.65 536.95 1562.12 504.59 1547.47 483.32 1571.88"/><polyline class="cls-2" points="538.36 1561.92 516.61 1581.65 516.01 1805.69 529.4 1837.55 536.95 1562.12"/><polygon class="cls-11" points="483.32 1571.88 516.61 1581.65 529.4 1837.55 478.37 1792.73 483.32 1571.88"/><path class="cls-24" d="M809.51,1774.77l38.43-14.06,5.25,76.64s-15,11.22-20.28,15c-5.66,4.11-23.4,17.57-23.4,17.57Z"/><polygon class="cls-25" points="716.7 1758.02 809.66 1775.41 810.31 1880.32 705.1 1864.08 716.7 1758.02"/><polygon class="cls-10" points="737.99 1749.72 716.7 1758.02 809.51 1774.77 847.94 1760.71 737.99 1749.72"/><polygon class="cls-10" points="534.01 1615.83 556.48 1627.19 570.21 1604.47 548.36 1587.43 534.01 1615.83"/><polygon class="cls-11" points="534.01 1615.83 556.48 1627.19 553.98 1797.59 531.77 1788.12 534.01 1615.83"/><polyline class="cls-29" points="571.16 1604.24 556.48 1627.19 553.98 1797.59 567.4 1773.7 570.21 1604.47"/><polygon class="cls-10" points="726.07 1816.45 753.57 1822.28 770.38 1810.63 743.64 1801.89 726.07 1816.45"/><polygon class="cls-11" points="726.07 1816.45 753.57 1822.28 750.51 1909.65 723.33 1904.79 726.07 1816.45"/><polyline class="cls-22" points="771.54 1810.51 753.57 1822.28 750.51 1909.65 767.5 1883.25 770.38 1810.63"/><polygon class="cls-30" points="843.02 1712.58 836.44 2000.61 783.77 1995.67 792.82 1710.93 843.02 1712.58"/><polygon class="cls-22" points="865.24 1705.17 843.02 1715.05 836.44 2000.61 858.66 1989.91 865.24 1705.17"/><polygon class="cls-30" points="914.8 1707.26 865.24 1705.17 858.66 1989.91 903.13 1989.91 914.8 1707.26"/><polygon class="cls-22" points="936.92 1701.73 914.8 1707.26 903.13 1989.91 927.09 1976.96 936.92 1701.73"/><polygon class="cls-10" points="814.97 1696.2 793.47 1710.95 843.98 1714.62 865.66 1704.18 914.18 1707.23 937.54 1700.81 893.3 1695.58 909.28 1686.98 854.9 1682.37 838.63 1689.13 791.93 1684.83 775.04 1692.51 814.97 1696.2"/><polygon class="cls-30" points="766.13 1975.42 771.35 1692.51 814.97 1696.2 792.82 1710.93 784.42 1975.12 766.13 1975.42"/><polygon class="cls-21" points="944.06 1887.15 856.9 1860.85 865.72 1986.76 949 2015.32 944.06 1887.15"/><polygon class="cls-22" points="970.18 1863.48 974.06 1979.99 949 2015.32 944.06 1887.15 970.18 1863.48"/><polygon class="cls-22" points="979.71 1867.23 992.76 1855.21 993.47 1957.82 981.82 1969.85 979.71 1867.23"/><polygon class="cls-22" points="953.24 1842.43 977.23 1850.71 990.29 1854.08 989.94 1810.1 953.24 1842.43"/><polygon class="cls-23" points="970.18 1863.48 979.71 1867.23 981.82 1969.85 973.66 1967.95 970.18 1863.48"/><polygon class="cls-10" points="856.9 1860.85 944.06 1887.15 970.18 1863.48 979.71 1867.23 992.41 1855.96 953.24 1842.43 989.94 1810.1 936.3 1796.2 856.9 1860.85"/><polygon class="cls-10" points="951.35 1915.85 973.82 1923.04 987.56 1908.67 965.71 1897.89 951.35 1915.85"/><polygon class="cls-11" points="951.35 1915.85 973.82 1923.04 971.33 2030.8 949.11 2024.81 951.35 1915.85"/><polyline class="cls-22" points="988.5 1908.53 973.82 1923.04 971.33 2030.8 984.74 2015.69 987.56 1908.67"/><polygon class="cls-10" points="840.22 1913.99 885.76 1921.24 915.51 1906.72 869.32 1895.87 840.22 1913.99"/><polygon class="cls-11" points="840.22 1913.99 885.76 1921.24 880.57 2032.76 835.24 2034.45 840.22 1913.99"/><polyline class="cls-22" points="915.51 1906.6 885.76 1921.24 880.7 2029.97 908.82 1997.12 915.37 1906.67"/><polygon class="cls-10" points="848.8 1979.28 906.78 1989.49 942.21 1969.07 885.84 1953.75 848.8 1979.28"/><polygon class="cls-11" points="904.32 2048 906.78 1989.49 848.8 1979.28 846.1 2048 904.32 2048"/><polygon class="cls-22" points="941.26 2048 942.21 1969.07 942.18 1969.6 906.78 1989.49 904.32 2048 941.26 2048"/><polygon class="cls-10" points="761.69 1875.17 821.56 1890.82 860.67 1859.46 799.94 1836.07 761.69 1875.17"/><polygon class="cls-11" points="817.1 2048 821.56 1890.82 761.69 1875.17 756.45 2048 817.1 2048"/><polygon class="cls-22" points="858.72 2048 860.49 1859.36 821.56 1890.82 817.1 2048 858.72 2048"/><polygon class="cls-10" points="413.88 1550.81 447.17 1553.06 467.51 1548.55 435.15 1545.17 413.88 1550.81"/><polygon class="cls-11" points="413.88 1550.81 447.17 1553.06 460.44 1610.74 438.02 1617.37 407.97 1625.74 413.88 1550.81"/><polyline class="cls-2" points="468.92 1548.51 447.17 1553.06 444.64 1615.38 462.98 1609.88 468.74 1548.54"/><polygon class="cls-10" points="398.09 1972.53 457.96 1993.15 497.07 1951.82 436.34 1920.98 398.09 1972.53"/><polygon class="cls-11" points="456.78 2048 457.96 1993.15 398.09 1972.53 396.35 2048 456.78 2048"/><polygon class="cls-22" points="496.2 2048 496.89 1951.68 457.96 1993.15 456.78 2048 496.2 2048"/><polygon class="cls-19" points="701.76 1551.65 688.55 1577.77 688.55 1308.29 699.88 1305.22 701.76 1551.65"/><polygon class="cls-19" points="728.1 1523.04 714.88 1549.15 714.88 1196.32 727.15 1192.26 728.1 1523.04"/><polygon class="cls-19" points="752.98 1492.97 739.76 1519.09 740.49 1186.29 750.7 1182.3 752.98 1492.97"/><polygon class="cls-19" points="779.34 1587.14 766.13 1598.73 765.18 1415.33 778.26 1410.79 779.34 1587.14"/><polygon class="cls-19" points="804.05 1583.18 790.83 1594.77 790.83 1405.92 802.93 1401.7 804.05 1583.18"/><polygon class="cls-16" points="596.9 1529.64 610.12 1541.23 610.12 1271.37 598.26 1265.07 596.9 1529.64"/><polygon class="cls-16" points="622.97 1536.42 636.18 1550.91 636.18 1256.31 624.33 1250.27 622.97 1536.42"/><polygon class="cls-16" points="653.79 1587.34 667.01 1600.38 667.01 1307.31 654.88 1301.41 653.79 1587.34"/><polygon class="cls-16" points="676.58 1294.72 688.19 1299.78 690.23 1196.7 677.67 1189.96 676.58 1294.72"/><polygon class="cls-16" points="652.14 1243.45 663.16 1250.54 664.77 1183.21 652.21 1176.47 652.14 1243.45"/><polygon class="cls-21" points="773.15 1576.42 657.66 1550.11 669.35 1676.02 785.32 1709.77 773.15 1576.42"/><polygon class="cls-22" points="808.44 1552.74 828.16 1683.41 786.36 1711.19 773.84 1576.42 808.44 1552.74"/><polygon class="cls-22" points="820.38 1556.5 837.68 1544.47 856.9 1669.1 826.82 1684.83 820.38 1556.5"/><polygon class="cls-22" points="785.31 1531.69 817.1 1539.98 834.4 1543.34 833.93 1499.37 785.31 1531.69"/><polygon class="cls-23" points="807.75 1552.74 820.38 1556.5 826.82 1684.83 816.21 1692.1 807.75 1552.74"/><polygon class="cls-10" points="657.66 1550.11 773.15 1576.42 807.75 1552.74 820.38 1556.5 837.21 1545.22 785.31 1531.69 833.93 1499.37 762.86 1485.46 657.66 1550.11"/><polygon class="cls-10" points="851.3 1624.74 933.23 1638.61 967.78 1627.57 939.96 1631.34 851.3 1624.74"/><polyline class="cls-2" points="941.46 1632.36 919.11 1636.42 917.43 1712.39 934.2 1718.49"/><path class="cls-11" d="M851.3,1624.74,919,1636.21l-1.32,76.19s-23.51-8.62-34.64-12.68c-9-3.28-36-13.07-36-13.07Z"/><rect class="cls-16" x="1377.05" y="1340.85" width="28.03" height="4.62"/><polygon class="cls-13" points="1396.27 1504.94 1352.31 1557.88 1348.28 1556.79 1392.64 1504.14 1396.27 1504.94"/><line class="cls-25" x1="1334.43" y1="1603.57" x2="1295.96" y2="1596.98"/><polygon class="cls-10" points="1403.97 1052.84 1466.45 1055.41 1482.72 1062.69 1462.39 1074.03 1453.4 1072.32 1433.5 1072.28 1398.19 1069.75 1398.19 1065.04 1383.43 1062.47 1403.97 1052.84"/><polygon class="cls-2" points="1455.17 1150.25 1494.6 1133.68 1488.59 1392.09 1450.53 1430.82 1455.17 1150.25"/><polygon class="cls-12" points="1455.39 1111.49 1380.89 1094.93 1373.15 1383.37 1450.73 1432.23 1455.39 1111.49"/><polygon class="cls-2" points="1490.2 1098.29 1444.68 1109.55 1455.17 1171.66 1482.58 1158.39 1490.2 1098.29"/><polygon class="cls-12" points="1395.42 1069.32 1394.75 1105.65 1453.4 1110.17 1453.4 1072.32 1395.42 1069.32"/><polygon class="cls-2" points="1383.43 1062.47 1397.76 1063.97 1397.55 1106.56 1382.14 1100.35 1383.43 1062.47"/><polygon class="cls-2" points="1381.5 1095.43 1375.51 1096.5 1373.15 1383.46 1448.97 1431.25 1381.5 1095.43"/><polygon class="cls-2" points="1438.85 1051.35 1438.42 1067.18 1452.97 1060.98 1452.97 1045.57 1438.85 1051.35"/><polygon class="cls-10" points="1421.3 1049.63 1438.85 1051.35 1453.4 1044.93 1436.28 1044.07 1421.3 1049.63"/><polygon class="cls-10" points="1451.69 1102.61 1461.54 1108.92 1490.2 1098.6 1466.67 1097.05 1451.69 1102.61"/><polygon class="cls-12" points="1419.16 1066.11 1418.95 1049.85 1438.85 1051.35 1438.42 1067.18 1419.16 1066.11"/><polygon class="cls-25" points="1460.68 1108.91 1461.54 1074.03 1453.4 1072.32 1451.69 1109.55 1460.68 1108.91"/><polygon class="cls-2" points="1475.62 1099.45 1483.57 1062.47 1461.14 1074 1460.93 1105.64 1475.62 1099.45"/><polygon class="cls-10" points="1494.93 1134.31 1482.72 1124.84 1482.8 1138.97 1494.93 1134.31"/><polygon class="cls-10" points="1461 1103.07 1444.53 1109.55 1463.32 1116.03 1461 1103.07"/><polygon class="cls-10" points="1397.6 1096.14 1382.35 1094.36 1375.51 1096.5 1397.91 1107.89 1397.6 1096.14"/><polygon class="cls-10" points="1234.4 1144.04 1294.77 1129.94 1347.7 1103.77 1280.92 1115.99 1234.4 1144.04"/><polygon class="cls-2" points="1303.87 1370.28 1294.77 1129.94 1349.83 1104.2 1361.19 1328.46 1303.87 1370.28"/><polygon class="cls-12" points="1253.24 1381.13 1232.89 1142.92 1294.77 1129.94 1303.87 1370.28 1253.24 1381.13"/><polygon class="cls-2" points="1208.94 1166.26 1230 1368.28 1253.53 1382.28 1233.33 1161.43 1208.94 1166.26"/><polygon class="cls-10" points="1232.83 1151.03 1208.94 1166.26 1233.33 1161.43 1232.83 1151.03"/><polygon class="cls-15" points="1207.75 1304.12 1264.26 1318.81 1271.16 1234.87 1314.46 1246.35 1308.81 1293.18 1416.74 1317.04 1390.11 1560.29 1202.14 1405.39 1207.75 1304.12"/><polygon class="cls-14" points="1335.79 1214.79 1314.46 1246.6 1271.16 1235.12 1297.51 1205.08 1335.79 1214.79"/><polygon class="cls-14" points="1242.54 1276.65 1267.11 1283.72 1264.93 1318.81 1208.59 1304.43 1242.54 1276.65"/><polygon class="cls-14" points="1334.43 1253.85 1308.81 1293.43 1416.74 1317.29 1444.35 1276.65 1334.43 1253.85"/><polygon class="cls-13" points="1444.35 1276.65 1433.05 1393.28 1397.21 1481.29 1416.74 1317.29 1444.35 1276.65"/><polygon class="cls-11" points="1210.11 1393.93 1232.7 1398.14 1230.19 1461.38 1206.63 1459.77 1210.11 1393.93"/><polygon class="cls-30" points="1534.39 1407.38 1517.47 1404.53 1516.84 1501.65 1534.39 1503.37 1534.39 1407.38"/><polygon class="cls-10" points="1534.39 1380.99 1517.47 1404.53 1534.39 1407.38 1534.39 1380.99"/><polygon class="cls-25" points="1534.39 1486.88 1525.79 1485.08 1514.18 1603.57 1534.39 1607.05 1534.39 1486.88"/><polygon class="cls-10" points="1534.39 1481.33 1525.79 1485.08 1534.39 1486.81 1534.39 1481.33"/><polygon class="cls-31" points="1242.07 1705.84 1272.98 1715.54 1257.52 1728.9 1230.78 1721.58 1242.07 1705.84"/><polygon class="cls-11" points="1395.57 1414.11 1418.04 1420.42 1415.54 1515.1 1393.33 1509.84 1395.57 1414.11"/><polyline class="cls-29" points="1432.72 1407.67 1418.04 1420.42 1415.54 1515.1 1428.96 1501.83 1431.77 1407.8"/><polygon class="cls-10" points="1204.92 1464.68 1227.39 1468.42 1241.13 1460.93 1219.28 1455.32 1204.92 1464.68"/><polygon class="cls-11" points="1204.92 1464.68 1227.39 1468.42 1224.9 1524.6 1202.68 1521.48 1204.92 1464.68"/><polyline class="cls-29" points="1241.13 1460.93 1227.39 1468.42 1224.9 1524.6 1254.85 1491.41 1241.13 1460.93"/><polygon class="cls-10" points="538.6 1576.38 571.89 1578.63 592.23 1574.13 559.87 1570.74 538.6 1576.38"/><polygon class="cls-11" points="538.6 1576.38 571.89 1578.63 584.68 1637.66 535.27 1610.55 538.6 1576.38"/><polyline class="cls-2" points="593.64 1574.08 571.89 1578.63 571.29 1630.31 584.68 1637.66 592.23 1574.13"/><polygon class="cls-10" points="478.25 1396.19 515.79 1398.45 545.26 1393.9 503.77 1390.57 478.25 1396.19"/><path class="cls-11" d="M478.25,1396.19l51.2.16-2.51,53.51s-19.4-7.3-25.8-9.91c-5.53-2.26-22.88-10.42-22.88-10.42Z"/><polyline class="cls-2" points="545.26 1393.9 529.44 1396.35 526.93 1449.86 543.84 1453.97 545.26 1393.9"/><polygon class="cls-10" points="1173.43 1414.97 1195.9 1421.41 1209.98 1408.8 1187.79 1398.88 1173.43 1414.97"/><polygon class="cls-11" points="1173.43 1414.97 1195.9 1421.41 1193.4 1517.99 1171.19 1512.63 1173.43 1414.97"/><polyline class="cls-29" points="1209.63 1408.8 1195.9 1421.41 1193.4 1517.99 1206.82 1504.45 1209.63 1408.54"/><polygon class="cls-15" points="1143.77 1679.79 1147.58 1521.75 1356.01 1575.15 1357.6 1740.05 1143.77 1679.79"/><polygon class="cls-21" points="244.05 1510.63 237 1389.95 351.43 1413.93 361.51 1570.81 244.05 1510.63"/><polygon class="cls-29" points="395.01 1398.38 352.1 1413.93 361.55 1572.2 410.36 1553.05 395.01 1398.38"/><polygon class="cls-10" points="232.06 1391.83 245.73 1390.36 286.38 1386.9 297.06 1372.94 395.01 1398.38 352.1 1413.93 232.06 1391.83"/><polygon class="cls-21" points="1137.67 1852.38 1162.89 1718.8 1272.98 1743.06 1260.87 1879.71 1137.67 1852.38"/><polygon class="cls-31" points="1272.98 1743.06 1300.93 1721.14 1324.23 1797.61 1260.87 1879.71 1272.98 1743.06"/><polygon class="cls-21" points="1329.36 1726.77 1300.65 1720.01 1304.63 1823 1324.23 1797.61 1329.36 1726.77"/><polygon class="cls-29" points="1351.17 1705.84 1329.36 1726.77 1324.23 1797.61 1356.69 1739.48 1351.17 1705.84"/><polygon class="cls-11" points="1105.78 1603.57 1135.7 1619.01 1132.37 1850.61 1101.16 1844.69 1105.78 1603.57"/><polygon class="cls-10" points="1041.6 1849.53 1064.08 1855.47 1077.81 1843.58 1055.96 1834.66 1041.6 1849.53"/><polygon class="cls-11" points="1041.6 1849.53 1064.08 1855.47 1061.58 1944.68 1039.36 1939.72 1041.6 1849.53"/><polyline class="cls-29" points="1077.81 1843.58 1064.08 1855.47 1061.58 1944.68 1091.54 1891.97 1077.81 1843.58"/><polygon class="cls-10" points="1011.76 1810.11 1034.23 1819.31 1047.97 1800.92 1026.12 1787.12 1011.76 1810.11"/><polygon class="cls-11" points="1011.76 1810.11 1034.23 1819.31 1031.74 1957.24 1009.52 1949.57 1011.76 1810.11"/><polyline class="cls-29" points="1048.91 1800.73 1034.23 1819.31 1031.74 1957.24 1045.15 1937.9 1047.97 1800.92"/><polygon class="cls-10" points="991.19 1873.9 1013.66 1880.34 1027.39 1867.46 1005.55 1857.81 991.19 1873.9"/><polygon class="cls-11" points="991.19 1873.9 1013.66 1880.34 1011.17 1976.92 988.95 1971.55 991.19 1873.9"/><polyline class="cls-29" points="1028.34 1867.33 1013.66 1880.34 1011.17 1976.92 1024.58 1963.38 1027.39 1867.46"/><polygon class="cls-10" points="1079.99 1803.84 1167.71 1813.2 1247.42 1793.47 1136.03 1780.44 1079.99 1803.84"/><polygon class="cls-11" points="1079.99 1803.84 1167.71 1813.2 1162.89 1983 1068.88 1960.34 1079.99 1803.84"/><polyline class="cls-22" points="1247.42 1793.47 1167.71 1813.2 1161.65 1982.36 1178.66 1962.02 1236.25 1892.26 1247.42 1793.47"/><polygon class="cls-11" points="1435.71 1503.07 1442.6 1504.11 1436.67 1544.57 1434.83 1521.54 1435.71 1503.07"/><polygon class="cls-10" points="1435.71 1503.07 1441.77 1503.98 1447.97 1500.23 1441.07 1498.62 1435.71 1503.07"/><polygon class="cls-2" points="1478.13 1360.26 1497.28 1349.78 1473.24 1492 1452.18 1523.39 1478.13 1360.26"/><polygon class="cls-10" points="1465.66 1346.11 1497.28 1349.78 1478.1 1359.51 1434.96 1356.53 1465.66 1346.11"/><polygon class="cls-25" points="1412.42 1515.47 1452.18 1523.39 1478.1 1359.51 1434.96 1356.53 1412.42 1515.47"/><polygon class="cls-10" points="1461.09 1486.81 1499.51 1494.3 1523 1479.31 1485.64 1468.07 1461.09 1486.81"/><polygon class="cls-11" points="1461.09 1486.81 1499.51 1494.3 1495.24 1606.73 1457.26 1600.49 1461.09 1486.81"/><polyline class="cls-2" points="1523 1479.31 1499.51 1494.3 1495.24 1606.73 1518.19 1590.97 1523 1479.31"/><polygon class="cls-11" points="1405.01 1488.25 1424.13 1508.66 1406.64 1597.01 1397.83 1625.32 1405.01 1488.25"/><path class="cls-29" d="M1448,1504.14l-23.85,4.68-19.55,97s13.88-29,18.07-37.73c2-4.22,23.15-36.59,23.15-36.59l2.18-27.36"/><polygon class="cls-10" points="1405.01 1488.43 1424.11 1508.82 1448.12 1504.34 1431.41 1495.04 1405.01 1488.43"/><polygon class="cls-25" points="1534.39 1582.12 1449.21 1566.17 1437.61 1672.24 1534.39 1687.17 1534.39 1582.12"/><polygon class="cls-10" points="1534.39 1564.27 1470.5 1557.88 1449.21 1566.17 1534.39 1581.55 1534.39 1564.27"/><polygon class="cls-10" points="1420.4 1626.07 1461.49 1630.02 1486.61 1622.12 1446.65 1616.19 1420.4 1626.07"/><polygon class="cls-11" points="1420.4 1626.07 1461.49 1630.02 1477.28 1733.51 1414.29 1715.38 1420.4 1626.07"/><polyline class="cls-2" points="1488.34 1622.04 1461.49 1630.02 1460.75 1720.63 1477.28 1733.51 1486.61 1622.12"/><polygon class="cls-12" points="1534.39 1601.19 1520 1598.48 1513.3 1656.37 1473.69 1649.06 1467.44 1708.01 1534.39 1724.02 1534.39 1601.19"/><polygon class="cls-10" points="1534.39 1586.84 1520 1598.48 1534.39 1601.19 1534.39 1586.84"/><polygon class="cls-32" points="1495.63 1624.08 1516.47 1628.96 1513.3 1656.37 1473.69 1649.06 1495.63 1624.08"/><polygon class="cls-10" points="1482.77 1701.36 1508.43 1705.64 1524.12 1697.09 1499.17 1690.67 1482.77 1701.36"/><polygon class="cls-11" points="1482.77 1701.36 1508.43 1705.64 1505.58 1769.8 1480.21 1766.23 1482.77 1701.36"/><polygon class="cls-29" points="1534.39 1719.89 1524.12 1697.09 1508.43 1705.64 1505.58 1769.8 1534.39 1737.88 1534.39 1719.89"/><polygon class="cls-30" points="1534.39 1719.24 1514.18 1714.32 1509.21 1770.93 1534.39 1777.84 1534.39 1719.24"/><polygon class="cls-10" points="1534.39 1698.57 1527.31 1696.97 1514.18 1714.32 1534.39 1718.34 1534.39 1698.57"/><polygon class="cls-10" points="1534.39 1753.3 1530.37 1752.58 1488.77 1768.84 1534.39 1776.15 1534.39 1753.3"/><polygon class="cls-11" points="1534.39 1776.15 1488.77 1768.84 1482.36 1880.52 1534.39 1906.91 1534.39 1776.15"/><polygon class="cls-21" points="1428.19 1797.28 1331.79 1774.16 1338.35 1907.5 1434.99 1932.97 1428.19 1797.28"/><polygon class="cls-22" points="1464.17 1772.21 1469.52 1895.57 1434.99 1932.97 1428.19 1797.28 1464.17 1772.21"/><polygon class="cls-22" points="1477.3 1776.19 1495.29 1763.46 1496.26 1872.09 1480.21 1884.83 1477.3 1776.19"/><polygon class="cls-22" points="1440.83 1749.93 1473.88 1758.7 1494.05 1774.57 1491.4 1715.7 1440.83 1749.93"/><polygon class="cls-23" points="1464.17 1772.21 1477.3 1776.19 1480.21 1884.83 1468.96 1882.82 1464.17 1772.21"/><polygon class="cls-10" points="1331.79 1774.92 1428.19 1797.28 1464.17 1772.21 1477.3 1776.19 1495.29 1763.65 1440.83 1749.93 1491.4 1715.7 1397.32 1692.1 1331.79 1774.92"/><path class="cls-2" d="M1528.2,2048l6.18-5.31v-80.79L1518.57,1978l.43,70Z"/><polygon class="cls-10" points="1534.39 1872.71 1491.92 1855.22 1470.52 1875.8 1437.99 1886.2 1421.1 1900.28 1534.39 1928.12 1534.39 1872.71"/><polygon class="cls-26" points="1534.39 1928.12 1421.1 1900.28 1423.02 2016.05 1467.88 2030.45 1534.39 1961.95 1534.39 1928.12"/><path class="cls-27" d="M1490.19,2038.94c3.52,1.66,10.1,5.47,16.09,9.06H1519l-.43-70-55.12-13.21,4.43,65.62S1484.75,2036.39,1490.19,2038.94Z"/><polygon class="cls-10" points="1534.39 1956.79 1478.17 1945.76 1463.45 1964.83 1499.11 1973.37 1518.57 1978.04 1534.39 1962.31 1534.39 1956.79"/><polygon class="cls-10" points="6.97 1463.07 79.39 1474.68 124.98 1457.33 54.18 1444.62 6.97 1463.07"/><polygon class="cls-11" points="6.97 1463.07 0 1584.57 0 1589.98 73.67 1627.36 79.39 1474.68 6.97 1463.07"/><polyline class="cls-22" points="124.98 1457.33 79.39 1474.68 73.67 1627.36 125.76 1556.73 124.98 1457.33"/><polygon class="cls-30" points="182.22 1470.94 174.75 1695.36 114.97 1691.51 125.24 1469.66 182.22 1470.94"/><polygon class="cls-22" points="207.44 1465.17 182.22 1472.86 174.75 1695.36 199.96 1687.03 207.44 1465.17"/><polygon class="cls-30" points="263.69 1466.79 207.44 1465.17 199.96 1687.03 250.44 1687.03 263.69 1466.79"/><polygon class="cls-22" points="288.79 1462.48 263.69 1466.79 250.44 1687.03 277.63 1676.94 288.79 1462.48"/><polygon class="cls-10" points="150.38 1458.18 125.97 1469.67 183.3 1472.53 207.9 1464.4 262.98 1466.77 289.49 1461.77 239.28 1457.7 257.41 1451 195.7 1447.41 177.22 1452.67 124.23 1449.32 105.06 1455.3 150.38 1458.18"/><polygon class="cls-30" points="94.95 1675.74 100.87 1455.3 150.38 1458.18 125.24 1469.66 115.71 1675.5 94.95 1675.74"/><path class="cls-2" d="M40.8,1700.51l22.64-23.09,1.83-32,62.07-36.23,2.63,94.09s-27.4,30.77-37,40.18c-12.11,11.84-51.62,45.28-51.62,45.28Z"/><polygon class="cls-10" points="10.55 1561.11 0 1571.26 0 1629.41 65.26 1645.45 127.34 1609.22 10.55 1561.11"/><polygon class="cls-26" points="0 1629.41 0 1742.75 63.44 1677.42 65.26 1645.45 0 1629.41"/><path class="cls-27" d="M40.8,1700.51,0,1690.73v75.39c3.47,1.33,6.66,2.61,8.59,3.51,8.51,4,32.75,19.13,32.75,19.13Z"/><polygon class="cls-10" points="0 1664.87 0 1690.73 18.71 1695.21 40.8 1700.51 64.01 1677.42 0 1664.87"/><polygon class="cls-21" points="261.24 1679.42 162.31 1638.84 172.32 1833.06 266.84 1877.12 261.24 1679.42"/><polygon class="cls-22" points="290.88 1642.9 295.28 1822.62 266.84 1877.12 261.24 1679.42 290.88 1642.9"/><polygon class="cls-22" points="301.69 1648.69 316.51 1630.14 317.31 1788.41 304.09 1806.97 301.69 1648.69"/><polygon class="cls-22" points="271.65 1610.43 298.88 1623.21 313.71 1628.4 313.31 1560.57 271.65 1610.43"/><polygon class="cls-23" points="290.88 1642.9 301.69 1648.69 304.09 1806.97 294.83 1804.05 290.88 1642.9"/><polygon class="cls-10" points="162.31 1638.84 261.24 1679.42 290.88 1642.9 301.69 1648.69 316.11 1631.3 271.65 1610.43 313.31 1560.57 252.43 1539.12 162.31 1638.84"/><path class="cls-24" d="M1151.28,2048c6.68-22,11.28-39.12,11.28-39.12L1131,1938.33l-79,59.06,2,50.61Z"/><polygon class="cls-25" points="1054.09 2048 1052.19 1998.53 905.72 1967.77 897.9 2048 1054.09 2048"/><polygon class="cls-10" points="939.26 1953.11 905.72 1967.77 1051.94 1997.39 1129.36 1939.52 939.26 1953.11"/><path class="cls-24" d="M1359.17,1920.78l38.43-14.06,5.25,76.64s-15,11.22-20.28,15c-5.66,4.11-23.4,17.57-23.4,17.57Z"/><polygon class="cls-15" points="1266.36 1904.03 1359.32 1921.43 1356 2044.57 1254.76 2010.09 1266.36 1904.03"/><polygon class="cls-14" points="1287.65 1895.74 1266.36 1904.03 1359.17 1920.78 1397.6 1906.72 1287.65 1895.74"/><polygon class="cls-2" points="1459.46 2048 1438.88 1819.74 1385.29 1851.7 1406.25 2048 1459.46 2048"/><polygon class="cls-12" points="1409.81 2048 1386 1838.17 1309.05 1804.07 1321.88 2048 1409.81 2048"/><polygon class="cls-2" points="669.09 1625.84 689.51 1617.55 694.95 1718.04 682.67 1725.67 677.34 1724.6 669.09 1625.84"/><polygon class="cls-10" points="689.51 1617.55 669.11 1626.09 641.93 1621.02 689.51 1617.55"/><path class="cls-12" d="M647.08,1713.72s11.14,6.05,15.17,7.47c3.61,1.27,15.09,3.41,15.09,3.41l-8-98.6-27.57-5Z"/><polygon class="cls-10" points="478.37 1579.36 464.67 1574.94 451.88 1576.2 478.37 1579.36"/><polygon class="cls-12" points="454.81 1612.57 470.09 1607.6 464.77 1574.89 451.8 1576.22 454.81 1612.57"/><polygon class="cls-2" points="704.67 1628.76 725.1 1620.48 730.53 1720.97 718.26 1728.6 712.93 1727.52 704.67 1628.76"/><polygon class="cls-10" points="725.1 1620.48 704.7 1629.02 677.51 1623.94 725.1 1620.48"/><path class="cls-12" d="M682.67,1716.64s11.14,6.05,15.17,7.47c3.61,1.27,15.09,3.41,15.09,3.41l-8-98.6-27.57-5Z"/><polygon class="cls-2" points="673.02 1642.7 693.45 1634.41 698.88 1734.9 686.61 1742.54 681.27 1741.46 673.02 1642.7"/><polygon class="cls-10" points="693.45 1634.41 673.04 1642.95 645.86 1637.88 693.45 1634.41"/><path class="cls-12" d="M651,1730.58s11.14,6.05,15.17,7.47c3.61,1.27,15.09,3.41,15.09,3.41l-8-98.6-27.57-5Z"/><polygon class="cls-10" points="584.38 1470.81 632.33 1472.78 644.82 1478.36 629.21 1487.07 622.32 1485.75 607.04 1485.73 579.94 1483.78 579.94 1480.17 568.61 1478.2 584.38 1470.81"/><polygon class="cls-2" points="623.67 1545.57 653.93 1532.85 649.32 1731.19 620.11 1760.91 623.67 1545.57"/><polygon class="cls-12" points="623.84 1515.82 566.66 1503.11 560.73 1724.49 620.27 1761.99 623.84 1515.82"/><polygon class="cls-2" points="650.56 1505.69 615.62 1514.33 623.67 1562.01 644.71 1551.82 650.56 1505.69"/><polygon class="cls-12" points="577.81 1483.45 577.3 1511.34 622.32 1514.81 622.32 1485.75 577.81 1483.45"/><polygon class="cls-2" points="568.61 1478.2 579.61 1479.35 579.45 1512.03 567.62 1507.27 568.61 1478.2"/><polygon class="cls-2" points="567.13 1503.49 562.53 1504.31 560.73 1724.56 618.91 1761.24 567.13 1503.49"/><polygon class="cls-2" points="611.15 1469.66 610.82 1481.81 621.99 1477.05 621.99 1465.22 611.15 1469.66"/><polygon class="cls-10" points="597.68 1468.35 611.15 1469.66 622.32 1464.73 609.18 1464.08 597.68 1468.35"/><polygon class="cls-10" points="621 1509.01 628.56 1513.85 650.56 1505.93 632.5 1504.73 621 1509.01"/><polygon class="cls-12" points="596.04 1480.99 595.87 1468.51 611.15 1469.66 610.82 1481.81 596.04 1480.99"/><polygon class="cls-25" points="627.9 1513.84 628.56 1487.07 622.32 1485.75 621 1514.33 627.9 1513.84"/><polygon class="cls-2" points="639.37 1506.58 645.47 1478.2 628.25 1487.05 628.09 1511.33 639.37 1506.58"/><polygon class="cls-10" points="654.19 1533.33 644.82 1526.07 644.88 1536.91 654.19 1533.33"/><polygon class="cls-10" points="628.15 1509.36 615.51 1514.33 629.93 1519.3 628.15 1509.36"/><polygon class="cls-10" points="579.49 1504.04 567.78 1502.67 562.53 1504.31 579.72 1513.06 579.49 1504.04"/><polygon class="cls-10" points="679.94 1668.53 707.44 1674.36 724.25 1662.71 697.51 1653.97 679.94 1668.53"/><polygon class="cls-11" points="679.94 1668.53 707.44 1674.36 704.39 1761.73 677.2 1756.87 679.94 1668.53"/><polyline class="cls-22" points="725.41 1662.59 707.44 1674.36 704.39 1761.73 770.03 1719.42 724.25 1662.71"/><polygon class="cls-10" points="580.91 1688.6 662.84 1704.37 697.4 1691.82 666.86 1686.37 580.91 1688.6"/><polygon class="cls-11" points="580.91 1688.6 662.84 1704.37 656.81 1798.49 627.55 1814.86 619.99 1762.1 580.91 1762.66 580.91 1688.6"/><polyline class="cls-2" points="697.4 1691.82 662.84 1704.37 656.81 1798.49 704.39 1763.46"/><polygon class="cls-10" points="567.67 1660.47 606.1 1671.11 629.58 1649.83 592.22 1633.87 567.67 1660.47"/><polygon class="cls-11" points="567.67 1660.47 606.1 1671.11 601.83 1830.74 563.84 1821.88 567.67 1660.47"/><polyline class="cls-2" points="631.2 1649.61 606.1 1671.11 601.83 1830.74 629.58 1812.17 629.58 1649.83"/><polygon class="cls-2" points="104.39 1676.82 101.76 1748.82 72.08 1820.82 73.96 1708.63 104.39 1676.82"/><polygon class="cls-21" points="52.62 1826.94 54.61 1658.54 291.18 1719.13 296.51 1893.64 52.62 1826.94"/><path class="cls-29" d="M369.73,1625.07l-78.56,94.06,5.39,176.54s27.84-77,34.47-95.3c6.86-18.94,38-38.47,38-38.47Z"/><polygon class="cls-10" points="54.61 1658.54 100.97 1631.18 143.66 1640.36 187.66 1605.85 368.87 1626.1 291.18 1719.13 54.61 1658.54"/><polygon class="cls-10" points="241.42 1811.69 266.93 1824.16 282.51 1799.22 257.72 1780.51 241.42 1811.69"/><polygon class="cls-11" points="241.42 1811.69 266.93 1824.16 264.09 2011.26 238.88 2000.87 241.42 1811.69"/><polyline class="cls-29" points="283.59 1798.96 266.93 1824.16 264.09 2011.26 279.32 1985.03 282.51 1799.22"/><polygon class="cls-10" points="124.51 1771.16 199.53 1785.97 245.38 1756.34 172.44 1734.11 124.51 1771.16"/><polygon class="cls-11" points="124.51 1771.16 199.53 1785.97 191.2 2008.25 117.03 1995.9 124.51 1771.16"/><polyline class="cls-29" points="248.54 1756.04 199.53 1785.97 191.2 2008.25 235.99 1977.09 245.38 1756.34"/><polygon class="cls-10" points="27.12 2048 19.94 2037.64 0 2046.19 0 2048 27.12 2048"/><polygon class="cls-10" points="382 1946.67 374.22 1943.54 349.67 1968.59 382 1977.02 382 1946.67"/><polygon class="cls-11" points="382 2048 382 1977.02 349.67 1968.59 347.67 2048 382 2048"/><polygon class="cls-25" points="367.22 1783.6 312.28 1772.11 299.11 1906.59 367.22 1918.33 367.22 1783.6"/><polygon class="cls-10" points="367.22 1765.03 336.44 1761.6 312.28 1772.11 367.22 1783.19 367.22 1765.03"/><polygon class="cls-10" points="257.19 1901.44 313.81 1922.4 348.42 1880.48 313.81 1860.72 257.19 1901.44"/><polygon class="cls-11" points="311.3 2048 313.81 1922.4 257.19 1901.44 254.59 2048 311.3 2048"/><polygon class="cls-2" points="342.86 2048 348.42 1880.48 310.55 1922.4 308.04 2048 342.86 2048"/><polygon class="cls-30" points="260.78 2048 261.35 2017.95 198.27 2015.44 197.41 2048 260.78 2048"/><polygon class="cls-22" points="288.48 2048 289.27 2006.67 261.35 2021.71 260.85 2048 288.48 2048"/><polygon class="cls-30" points="350.25 2048 351.55 2009.85 289.27 2006.67 288.48 2048 350.25 2048"/><polygon class="cls-22" points="367.4 2048 367.4 2005.04 351.55 2009.85 350.25 2048 367.4 2048"/><polygon class="cls-10" points="367.4 1998.2 324.53 1992.07 344.6 1978.97 276.28 1971.95 255.82 1982.24 197.15 1975.69 175.91 1987.39 226.1 1993 199.08 2015.47 262.55 2021.06 289.79 2005.17 350.76 2009.81 367.4 2004.26 367.4 1998.2"/><polygon class="cls-30" points="197.41 2048 198.27 2015.44 226.1 1993 171.28 1987.39 170.36 2048 197.41 2048"/><polygon class="cls-10" points="1438.88 1816 1385.42 1841.25 1305.91 1805.82 1438.88 1816"/><polygon class="cls-10" points="1172.05 2048 1153.17 2036.04 1145.72 2048 1172.05 2048"/><polygon class="cls-10" points="425.68 1729.68 537.57 1742.28 590.4 1723.27 479.41 1706.68 425.68 1729.68"/><polygon class="cls-11" points="425.68 1729.68 540.61 1738.45 526.81 1875.44 439.9 1930.76 425.68 1729.68"/><path class="cls-2" d="M590.4,1723.27l-49.79,15.18-13.8,137s30.12-19.23,38.26-24.41c5.71-3.63,36.73-20.45,36.73-20.45l-11.4-107.31"/><polygon class="cls-10" points="627.6 1755.17 698.22 1767.71 721.98 1750.57 670.44 1727.52 627.6 1755.17"/><polygon class="cls-11" points="627.99 1753.92 698.22 1767.71 692.02 1913.11 646 1890.51 627.99 1753.92"/><path class="cls-2" d="M722,1750.57l-23.77,17.14L692,1913.1s13.32-16.2,17.21-22.05c2.72-4.1,18.2-19.34,18.2-19.34L722,1750.57"/><polygon class="cls-21" points="664.01 2048 659.43 1992.49 476.96 1946.5 485.48 2048 664.01 2048"/><polygon class="cls-22" points="728.4 2048 715.19 1951.1 660.52 1992.49 665.18 2048 728.4 2048"/><polygon class="cls-22" points="776.9 2048 761.38 1936.65 734.04 1957.67 738.14 2048 776.9 2048"/><polygon class="cls-22" points="678.64 1914.31 728.86 1928.8 756.21 1934.68 755.47 1857.82 678.64 1914.31"/><polygon class="cls-23" points="738.14 2048 734.04 1957.67 714.1 1951.1 719.41 2048 738.14 2048"/><polygon class="cls-10" points="476.96 1946.5 659.43 1992.49 714.1 1951.1 734.04 1957.67 760.64 1937.96 678.64 1914.31 755.47 1857.82 643.18 1833.51 476.96 1946.5"/><polygon class="cls-30" points="384.56 1569.06 390.36 1895.99 330.41 1892.82 327.55 1569.51 384.56 1569.06"/><polygon class="cls-22" points="409.41 1559.64 384.67 1571.86 390.36 1895.99 415.07 1882.84 409.41 1559.64"/><polygon class="cls-30" points="465.71 1559.72 409.41 1559.64 415.07 1882.84 465.5 1880.79 465.71 1559.72"/><polygon class="cls-22" points="490.54 1552.43 465.71 1559.72 465.5 1880.79 492.08 1865 490.54 1552.43"/><polygon class="cls-10" points="351.99 1551.78 328.29 1569.5 385.74 1571.33 409.84 1558.5 465 1559.72 491.19 1551.36 440.79 1547.47 458.51 1536.98 396.64 1534.26 378.49 1542.68 325.34 1539.95 306.54 1549.44 351.99 1551.78"/><polygon class="cls-30" points="309.47 1870.68 302.36 1549.61 351.99 1551.78 327.55 1569.51 330.2 1869.49 309.47 1870.68"/><polygon class="cls-10" points="388.44 1849.58 445.25 1852.06 479.96 1847.11 424.73 1843.39 388.44 1849.58"/><polygon class="cls-11" points="388.44 1849.58 445.25 1852.06 467.89 1915.48 429.64 1922.78 378.36 1931.98 388.44 1849.58"/><polyline class="cls-2" points="482.36 1847.06 445.25 1852.06 440.93 1920.59 472.23 1914.54 482.05 1847.1"/><polygon class="cls-10" points="371.5 1870.59 425.76 1913.37 458.93 1871.02 406.17 1839.26 371.5 1870.59"/><polygon class="cls-11" points="423.21 2048 425.76 1913.37 371.5 1870.59 368.71 2048 423.21 2048"/><polygon class="cls-31" points="455.12 2048 458.88 1873.42 425.76 1913.37 423.21 2048 455.12 2048"/><polygon class="cls-22" points="0 1741.9 8.31 1730.18 3.91 1597.93 0 1601.48 0 1741.9"/><polygon class="cls-22" points="14.72 1602.2 29.54 1588.55 30.34 1705.01 17.12 1718.66 14.72 1602.2"/><polygon class="cls-22" points="26.34 1537.36 0 1560.55 0 1579.34 11.91 1583.45 26.74 1587.27 26.34 1537.36"/><polygon class="cls-23" points="3.91 1597.93 14.72 1602.2 17.12 1718.66 7.86 1716.51 3.91 1597.93"/><polygon class="cls-10" points="0 1560.55 26.34 1537.36 0 1530.53 0 1560.55"/><polygon class="cls-10" points="0 1579.34 0 1601.48 3.91 1597.93 14.72 1602.2 29.14 1589.4 0 1579.34"/><polygon class="cls-22" points="0 1795.26 0 1905.33 8.31 1901.91 16.42 1775.05 0 1795.26"/><polygon class="cls-10" points="0 1806.02 23.97 1785.75 0 1774.49 0 1806.02"/><polygon class="cls-13" points="1335.79 1214.79 1334.43 1253.85 1308.81 1293.43 1314.46 1246.6 1335.79 1214.79"/><polygon class="cls-33" points="1349.51 1417.45 1329.04 1412.85 1329.89 1406 1350.77 1410.5 1349.51 1417.45"/><polygon class="cls-10" points="1265.17 1433.44 1278.68 1414.22 1289.59 1416.86 1287.82 1439.96 1265.17 1433.44"/><polygon class="cls-15" points="1319.23 1317.78 1318.17 1317.52 1319.66 1306.79 1320.73 1307.01 1319.23 1317.78"/><polygon class="cls-15" points="1314.97 1345.87 1313.92 1345.6 1315.41 1334.88 1316.47 1335.1 1314.97 1345.87"/><polygon class="cls-15" points="1381.06 1390.5 1380 1390.24 1381.5 1379.51 1382.56 1379.73 1381.06 1390.5"/><polygon class="cls-15" points="1345.15 1382.14 1344.1 1381.88 1345.59 1371.15 1346.66 1371.37 1345.15 1382.14"/><polygon class="cls-15" points="1310.37 1373.37 1309.31 1373.1 1310.81 1362.38 1311.87 1362.6 1310.37 1373.37"/><polygon class="cls-15" points="1277.21 1355.6 1276.16 1355.34 1277.65 1344.61 1278.72 1344.83 1277.21 1355.6"/><polygon class="cls-15" points="1283.22 1322.81 1282.17 1322.54 1283.66 1311.82 1284.73 1312.04 1283.22 1322.81"/><polygon class="cls-15" points="1291.59 1261.81 1290.53 1261.54 1292.02 1250.82 1293.09 1251.04 1291.59 1261.81"/><g class="cls-34"><g class="cls-35"><polygon class="cls-36" points="1272.38 1267.36 1274.49 1243.24 1308.67 1251.4 1305.79 1275.3 1272.38 1267.36"/><path class="cls-15" d="M1275.39,1244.49l32.17,7.68-2.64,21.9-31.48-7.49,1.94-22.09m-1.8-2.49-2.3,26.14,35.35,8.41,3.12-25.91L1273.6,1242Z"/></g><polygon class="cls-15" points="1290.05 1270.14 1288.48 1269.81 1290.81 1245.89 1293.12 1246.65 1290.05 1270.14"/></g><g class="cls-34"><g class="cls-35"><polygon class="cls-36" points="1269.98 1318.79 1271.76 1295.86 1304.35 1302.96 1302.2 1326.31 1269.98 1318.79"/><path class="cls-15" d="M1272.67,1297.09l30.59,6.66-2,21.31-30.25-7.06,1.62-20.92m-1.82-2.45-1.94,24.93,34.18,8,2.34-25.38-34.58-7.53Z"/></g><polygon class="cls-15" points="1287.66 1321.62 1286.09 1321.29 1287.35 1297.64 1289.49 1298.18 1287.66 1321.62"/></g><g class="cls-37"><polygon class="cls-36" points="1316.62 1330.08 1318.4 1307.15 1350.98 1314.25 1348.83 1337.59 1316.62 1330.08"/><path class="cls-15" d="M1319.31,1308.38l30.59,6.66-2,21.31-30.25-7.06,1.62-20.92m-1.82-2.45-1.94,24.93,34.18,8,2.34-25.38-34.58-7.53Z"/></g><polygon class="cls-15" points="1334.29 1332.91 1332.73 1332.58 1333.99 1308.93 1336.13 1309.47 1334.29 1332.91"/><g class="cls-37"><polygon class="cls-36" points="1365.56 1340.86 1367.34 1317.94 1399.92 1325.04 1397.77 1348.38 1365.56 1340.86"/><path class="cls-15" d="M1368.25,1319.16l30.59,6.66-2,21.31-30.25-7.06,1.62-20.92m-1.82-2.45-1.94,24.93,34.18,8,2.34-25.38-34.58-7.53Z"/></g><polygon class="cls-38" points="1383.23 1343.7 1381.66 1343.37 1382.93 1319.72 1385.07 1320.25 1383.23 1343.7"/><g class="cls-34"><g class="cls-35"><polygon class="cls-36" points="1361.24 1380.62 1363.02 1357.7 1395.6 1364.8 1393.45 1388.14 1361.24 1380.62"/><path class="cls-15" d="M1363.93,1358.92l30.59,6.66-2,21.31-30.25-7.06,1.62-20.92m-1.82-2.45-1.94,24.93,34.18,8,2.34-25.38-34.58-7.53Z"/></g><polygon class="cls-15" points="1378.91 1383.46 1377.35 1383.13 1378.61 1359.48 1380.75 1360.01 1378.91 1383.46"/></g><g class="cls-34"><g class="cls-35"><polygon class="cls-36" points="1357.38 1422.24 1359.16 1399.32 1391.74 1406.42 1389.59 1429.76 1357.38 1422.24"/><path class="cls-15" d="M1360.07,1400.54l30.59,6.66-2,21.31-30.25-7.06,1.62-20.92m-1.82-2.45-1.94,24.93,34.18,8,2.34-25.38-34.58-7.53Z"/></g><polygon class="cls-15" points="1375.05 1425.08 1373.49 1424.75 1374.75 1401.1 1376.89 1401.63 1375.05 1425.08"/></g><g class="cls-34"><g class="cls-35"><polygon class="cls-36" points="1314.26 1370.26 1316.04 1347.34 1348.62 1354.44 1346.47 1377.78 1314.26 1370.26"/><path class="cls-15" d="M1316.95,1348.56l30.59,6.66-2,21.31-30.25-7.06,1.62-20.92m-1.82-2.45-1.94,24.93,34.18,8,2.34-25.38-34.58-7.53Z"/></g><polygon class="cls-15" points="1331.93 1373.1 1330.36 1372.77 1331.63 1349.12 1333.77 1349.65 1331.93 1373.1"/></g><g class="cls-34"><g class="cls-35"><polygon class="cls-36" points="1309.8 1411.8 1311.58 1388.88 1344.16 1395.97 1342.01 1419.32 1309.8 1411.8"/><path class="cls-15" d="M1312.49,1390.1l30.59,6.66-2,21.31-30.25-7.06,1.62-20.92m-1.82-2.45-1.94,24.93,34.18,8,2.34-25.38-34.58-7.53Z"/></g><polygon class="cls-15" points="1327.47 1414.64 1325.91 1414.31 1327.17 1390.66 1329.31 1391.19 1327.47 1414.64"/><polygon class="cls-33" points="1345.81 1421.41 1306.5 1412.23 1306.57 1406.56 1346.32 1414.83 1345.81 1421.41"/></g><g class="cls-34"><g class="cls-35"><polygon class="cls-36" points="1265.28 1359.1 1267.06 1336.17 1299.64 1343.27 1297.49 1366.62 1265.28 1359.1"/><path class="cls-15" d="M1268,1337.4l30.59,6.66-2,21.31-30.25-7.06,1.62-20.92m-1.82-2.45-1.94,24.93,34.18,8,2.34-25.38-34.58-7.53Z"/></g><polygon class="cls-15" points="1282.96 1361.93 1281.39 1361.6 1282.65 1337.96 1284.79 1338.49 1282.96 1361.93"/></g><g class="cls-34"><g class="cls-35"><polygon class="cls-36" points="1258.77 1400.8 1260.55 1377.88 1293.13 1384.97 1290.98 1408.32 1258.77 1400.8"/><path class="cls-15" d="M1261.46,1379.1l30.59,6.66-2,21.31-30.25-7.06,1.62-20.92m-1.82-2.45-1.94,24.93,34.18,8,2.34-25.38-34.58-7.53Z"/></g><polygon class="cls-15" points="1276.44 1403.64 1274.87 1403.31 1276.13 1379.66 1278.28 1380.19 1276.44 1403.64"/><polygon class="cls-33" points="1294.78 1410.42 1255.47 1401.23 1255.54 1395.56 1295.28 1403.83 1294.78 1410.42"/></g><g class="cls-34"><g class="cls-35"><polygon class="cls-36" points="1216.3 1347.14 1217.99 1324.21 1250.6 1331.19 1248.54 1354.54 1216.3 1347.14"/><path class="cls-15" d="M1218.91,1325.43l30.61,6.56-1.89,21.32-30.28-7,1.55-20.92m-1.83-2.45-1.85,24.94,34.2,7.85,2.25-25.38-34.6-7.41Z"/></g><polygon class="cls-15" points="1233.98 1349.91 1232.41 1349.59 1233.59 1325.93 1235.73 1326.46 1233.98 1349.91"/></g><g class="cls-34"><g class="cls-35"><polygon class="cls-36" points="1214.16 1392.61 1215.94 1369.68 1248.53 1376.78 1246.38 1400.13 1214.16 1392.61"/><path class="cls-15" d="M1216.86,1370.91l30.59,6.66-2,21.31-30.25-7.06,1.62-20.92m-1.82-2.45-1.94,24.93,34.18,8,2.34-25.38-34.58-7.53Z"/></g><polygon class="cls-15" points="1231.84 1395.45 1230.27 1395.12 1231.54 1371.47 1233.68 1372 1231.84 1395.45"/></g><polygon class="cls-10" points="1243.37 1373.4 1265.84 1379.84 1279.76 1367.19 1257.72 1357.31 1243.37 1373.4"/><polyline class="cls-29" points="1279.76 1367.19 1265.84 1379.84 1263.34 1476.41 1276.76 1462.88 1279.57 1366.96"/><polygon class="cls-10" points="1292.31 1391.63 1307.27 1375.94 1328.48 1383.73 1315.6 1399.48 1292.31 1391.63"/><polygon class="cls-30" points="1265.17 1433.44 1287.18 1439.21 1292.31 1391.63 1315.86 1398.84 1312.78 1422.63 1371.15 1439.21 1366.82 1498.6 1264.03 1475.72 1265.17 1433.44"/><polygon class="cls-10" points="1327.01 1402.88 1312.78 1422.63 1371.39 1439.96 1386 1416.86 1327.01 1402.88"/><polygon class="cls-32" points="1328.66 1383.52 1316.03 1397.8 1312.78 1422.63 1327.01 1402.88 1328.66 1383.52"/><polygon class="cls-2" points="1384.97 1416.86 1371.15 1439.21 1366.82 1498.6 1374.73 1495.44 1384.97 1416.86"/><polygon class="cls-10" points="1364.69 1452.52 1387.16 1456.27 1400.9 1448.78 1379.05 1443.16 1364.69 1452.52"/><polygon class="cls-11" points="1364.69 1452.52 1387.16 1456.27 1385.12 1502.37 1361.69 1497.21 1364.69 1452.52"/><polyline class="cls-29" points="1401.84 1448.7 1387.16 1456.27 1385.09 1502.87 1398.05 1505.35 1400.9 1448.78"/><g class="cls-39"><polygon class="cls-36" points="1420.66 1320.83 1438.37 1296.05 1434.44 1325.88 1417.72 1346.34 1420.66 1320.83"/><path class="cls-15" d="M1436.85,1299.9l-3.36,25.57L1419.11,1343l2.52-21.84,15.22-21.31m3-7.71-20.19,28.27-3.37,29.16,19.07-23.33,4.49-34.1Z"/></g><g class="cls-39"><polygon class="cls-36" points="1416.68 1371.4 1434.39 1346.61 1430.46 1376.44 1413.74 1396.9 1416.68 1371.4"/><path class="cls-15" d="M1432.87,1350.46l-3.36,25.57-14.38,17.58,2.52-21.84,15.22-21.31m3-7.71L1415.72,1371l-3.37,29.16,19.07-23.33,4.49-34.1Z"/></g><polygon class="cls-13" points="1429.01 1330.77 1427.18 1333.48 1429.86 1302.04 1431.73 1303.61 1429.01 1330.77"/><polygon class="cls-13" points="1425.55 1381.03 1423.71 1383.74 1426.39 1352.3 1428.6 1351.5 1425.55 1381.03"/><polygon class="cls-10" points="1395.57 1414.11 1418.04 1420.42 1431.77 1407.8 1409.92 1398.33 1395.57 1414.11"/><path class="cls-13" d="M1409.64,1508.13,1355.11,1574l1.58,165.5s7.38-18.74,14.88-39.79c7.75-21.74,15.69-45.94,18.66-54.13,6-16.69,17.6-47.75,17.6-47.75Z"/><polygon class="cls-14" points="1146.67 1521.75 1187.52 1497.66 1225.14 1505.74 1263.9 1475.34 1409.66 1507.94 1355.11 1575.15 1146.67 1521.75"/><path class="cls-40" d="M1372.62,1694.35v-73.84s-1.92-44.09,12.62-53.86c12.46-8.37,13.17,16.59,13.17,16.59l1,36.16Z"/><g class="cls-39"><polygon class="cls-36" points="1379.37 1608.25 1393.95 1592.61 1396.09 1628.2 1378.38 1672.18 1379.37 1608.25"/><path class="cls-15" d="M1393.09,1595l2,33-15.61,38.76.9-58.15,12.72-13.64m1.72-4.79-16.44,17.63-1.08,69.73,19.81-49.21-2.29-38.15Z"/></g><g class="cls-39"><path class="cls-36" d="M1378.77,1601.1c.41-6.32,2-21.66,7.7-27.77,1.18-1.26,2-1.53,2.4-1.53,2.43,0,3.78,8,4,13.65Z"/><path class="cls-15" d="M1388.87,1572.81c.78,0,2.65,4.62,2.95,12.28L1380,1598.23c.65-7.15,2.43-19.12,7.21-24.21.9-1,1.48-1.21,1.67-1.21m0-2c-.88,0-1.92.55-3.13,1.84-7.61,8.11-8.11,31.22-8.11,31.22l16.23-18s-.36-15-5-15Z"/></g><g class="cls-39"><polygon class="cls-36" points="1350.62 1703.49 1348.5 1573.11 1354.16 1574.64 1355.36 1724.47 1350.62 1703.49"/><path class="cls-15" d="M1349.53,1574.43l3.63,1,1.12,139.74-2.66-11.77-2.09-128.95m-2.05-2.63,2.14,131.82,6.82,30.19-1.28-159.94-7.68-2.07Z"/></g><g class="cls-39"><polygon class="cls-36" points="1146.37 1575.49 1148.02 1522.02 1151.31 1523 1150.97 1578.45 1146.37 1575.49"/><path class="cls-15" d="M1149,1523.35l1.31.39-.32,52.88-2.58-1.67,1.59-51.6m-1.93-2.67-1.71,55.35,6.61,4.26.35-58-5.25-1.57Z"/></g><polygon class="cls-10" points="1105.78 1603.57 1135.7 1619.01 1162.89 1586.47 1124.89 1564.97 1105.78 1603.57"/><polyline class="cls-15" points="1355.35 1575.34 1355.19 1564.83 1146.67 1512.88 1146.67 1521.75 1355.35 1575.34"/><line class="cls-15" x1="1409.49" y1="1508.13" x2="1408.63" y2="1489.34"/><polygon class="cls-13" points="1409.57 1498.91 1409.49 1508.13 1355.35 1575.48 1354.57 1564.97 1409.57 1498.91"/><polygon class="cls-14" points="1354.69 1564.58 1352.65 1559.26 1155.14 1509.94 1146.21 1513.08 1354.69 1564.58"/><polygon class="cls-14" points="1351.02 1559.06 1355.13 1554.16 1168.33 1508.6 1160.42 1511.68 1351.02 1559.06"/><polygon class="cls-41" points="1338.59 1555.68 1342.35 1551.19 1168.22 1508.57 1160.42 1511.68 1338.59 1555.68"/><polygon class="cls-14" points="1409.89 1499.41 1402.22 1497.79 1347.94 1562.55 1354.86 1564.63 1409.89 1499.41"/><polygon class="cls-41" points="1396.34 1504.96 1383.14 1502.01 1338.57 1555.74 1351.02 1559.06 1396.34 1504.96"/><g class="cls-39"><polygon class="cls-36" points="1148.02 1519.11 1147.76 1514.95 1354.33 1567.99 1354.21 1573.29 1148.02 1519.11"/><path class="cls-15" d="M1148.85,1516.26l204.46,52.5-.07,3.23L1149,1518.32l-.13-2.06m-2.17-2.63.39,6.26,208.13,54.69.16-7.37-208.68-53.59Z"/></g><g class="cls-39"><polygon class="cls-36" points="1355.3 1566.56 1408.72 1500.73 1408.84 1504.78 1355.36 1572.52 1355.3 1566.56"/><path class="cls-15" d="M1408.26,1502.09l.08,2.52-52.49,66.48,0-4.36,52.45-64.65m.92-2.73-54.38,67,.08,7.56,54.48-69-.17-5.58Z"/></g><g class="cls-39"><polygon class="cls-36" points="1404.71 1512.18 1408.75 1507.04 1408.54 1595.32 1405.49 1602.02 1404.71 1512.18"/><path class="cls-15" d="M1408.24,1508.49l-.2,86.71-2.07,4.54-.76-87.39,3-3.86m1-2.91-5,6.43.8,92.28,4-8.86.21-89.85Z"/></g><g class="cls-39"><polygon class="cls-36" points="1355.64 1573.49 1359.23 1568.7 1359.88 1730.75 1357.17 1737.51 1355.64 1573.49"/><path class="cls-15" d="M1358.74,1570.2l.64,160.45-1.73,4.32-1.51-161.31,2.6-3.46m1-3-4.6,6.13,1.56,166.72,3.69-9.21-.66-163.64Z"/></g><g class="cls-42"><path class="cls-36" d="M1294.85,1620.46l.36-27c0-.57.55-14.16,14.45-14.16a27.41,27.41,0,0,1,5.36.58c19.48,3.91,19.66,23.21,19.66,24l-.35,26Z"/><path class="cls-15" d="M1309.66,1580.32a26.42,26.42,0,0,1,5.16.56c18.64,3.74,18.85,22.26,18.85,23l-.33,24.75-37.48-9,.35-26.16c0-.54.47-13.2,13.45-13.2m0-2c-15.08,0-15.45,15.15-15.45,15.15l-.38,27.78,41.48,9.93.37-27.26s.08-20.89-20.46-25a28.27,28.27,0,0,0-5.55-.6Z"/></g><line class="cls-43" x1="1333.57" y1="1601.48" x2="1296.17" y2="1593.89"/><line class="cls-43" x1="1333.66" y1="1611.27" x2="1296.26" y2="1603.68"/><line class="cls-43" x1="1333.35" y1="1622.18" x2="1295.96" y2="1613.62"/><path class="cls-44" d="M1306.48,1595.69s-.46-9.22,7.5-7.46c7.48,1.65,6.31,10.73,6.31,10.73"/><line class="cls-43" x1="1306.87" y1="1591.66" x2="1300.03" y2="1584.22"/><line class="cls-43" x1="1320.19" y1="1594.4" x2="1329.36" y2="1590.12"/><line class="cls-43" x1="1313.55" y1="1588.53" x2="1313.55" y2="1580.65"/><line class="cls-43" x1="1302.52" y1="1595.44" x2="1301.99" y2="1621.08"/><line class="cls-43" x1="1313.31" y1="1597.16" x2="1312.77" y2="1623.59"/><line class="cls-43" x1="1325.2" y1="1600.28" x2="1324.97" y2="1626.97"/><g class="cls-42"><path class="cls-36" d="M1226.22,1602.39l.37-27c0-.57.55-14.16,14.45-14.16a27.42,27.42,0,0,1,5.36.58c19.51,3.92,19.66,23.83,19.66,24l-.35,26Z"/><path class="cls-15" d="M1241,1562.25a26.43,26.43,0,0,1,5.16.56c18.64,3.74,18.85,22.26,18.85,23l-.33,24.75-37.48-9,.35-26.15c0-.54.55-13.2,13.45-13.2m0-2c-15.08,0-15.45,15.15-15.45,15.15l-.38,27.78,41.48,9.93.37-27.26s.08-20.89-20.46-25a28.27,28.27,0,0,0-5.55-.6Z"/></g><line class="cls-43" x1="1264.95" y1="1583.41" x2="1227.55" y2="1575.82"/><line class="cls-43" x1="1265.03" y1="1593.2" x2="1227.63" y2="1585.61"/><line class="cls-43" x1="1264.73" y1="1604.11" x2="1227.33" y2="1595.56"/><path class="cls-44" d="M1237.86,1577.62s-.46-9.22,7.5-7.46c7.48,1.65,6.31,10.73,6.31,10.73"/><line class="cls-43" x1="1238.24" y1="1573.59" x2="1231.41" y2="1566.15"/><line class="cls-43" x1="1251.56" y1="1576.33" x2="1260.74" y2="1572.05"/><line class="cls-43" x1="1244.92" y1="1570.46" x2="1244.92" y2="1562.58"/><line class="cls-43" x1="1233.9" y1="1577.37" x2="1233.37" y2="1603.01"/><line class="cls-43" x1="1244.69" y1="1579.09" x2="1244.14" y2="1605.53"/><line class="cls-43" x1="1256.58" y1="1582.21" x2="1256.34" y2="1608.9"/><g class="cls-42"><path class="cls-36" d="M1162.85,1586.51l.37-27c0-.57.55-14.16,14.45-14.16a27.41,27.41,0,0,1,5.36.58c19.48,3.91,19.66,23.21,19.66,24l-.35,26Z"/><path class="cls-15" d="M1177.66,1546.37a26.43,26.43,0,0,1,5.16.56c18.64,3.74,18.85,22.26,18.85,23l-.33,24.75-37.48-9,.35-26.16c0-.54.47-13.19,13.45-13.19m0-2c-15.08,0-15.45,15.15-15.45,15.15l-.38,27.78,41.48,9.93.37-27.26s.08-20.89-20.46-25a28.27,28.27,0,0,0-5.55-.6Z"/></g><line class="cls-43" x1="1201.57" y1="1567.53" x2="1164.18" y2="1559.95"/><line class="cls-43" x1="1201.66" y1="1577.32" x2="1164.26" y2="1569.74"/><line class="cls-43" x1="1201.36" y1="1588.24" x2="1163.96" y2="1579.68"/><path class="cls-44" d="M1174.48,1561.74s-.46-9.22,7.5-7.46c7.48,1.65,6.31,10.73,6.31,10.73"/><line class="cls-43" x1="1174.87" y1="1557.72" x2="1168.03" y2="1550.27"/><line class="cls-43" x1="1188.19" y1="1560.46" x2="1197.36" y2="1556.17"/><line class="cls-43" x1="1181.55" y1="1554.59" x2="1181.55" y2="1546.71"/><line class="cls-43" x1="1170.53" y1="1561.5" x2="1170" y2="1587.14"/><line class="cls-43" x1="1181.32" y1="1563.22" x2="1180.77" y2="1589.65"/><line class="cls-43" x1="1193.21" y1="1566.33" x2="1192.97" y2="1593.03"/><g class="cls-42"><path class="cls-36" d="M1287.07,1695.2l.37-27c0-.57.55-14.16,14.45-14.16a27.41,27.41,0,0,1,5.36.58c19.51,3.92,19.66,23.83,19.66,24l-.35,26Z"/><path class="cls-15" d="M1301.88,1655.06a26.42,26.42,0,0,1,5.16.56c18.64,3.74,18.85,22.26,18.85,23l-.33,24.75-37.48-9,.35-26.15c0-.54.55-13.2,13.45-13.2m0-2c-15.08,0-15.45,15.15-15.45,15.15l-.38,27.78,41.48,9.93.37-27.26s.08-20.89-20.46-25a28.27,28.27,0,0,0-5.55-.6Z"/></g><line class="cls-43" x1="1325.79" y1="1676.22" x2="1288.4" y2="1668.63"/><line class="cls-43" x1="1325.88" y1="1686.01" x2="1288.48" y2="1678.43"/><line class="cls-43" x1="1325.58" y1="1696.93" x2="1288.18" y2="1688.37"/><path class="cls-44" d="M1298.7,1670.43s-.46-9.22,7.5-7.46c7.48,1.65,6.31,10.73,6.31,10.73"/><line class="cls-43" x1="1299.09" y1="1666.41" x2="1292.25" y2="1658.96"/><line class="cls-43" x1="1312.41" y1="1669.15" x2="1321.58" y2="1664.86"/><line class="cls-43" x1="1305.77" y1="1663.27" x2="1305.77" y2="1655.4"/><line class="cls-43" x1="1294.75" y1="1670.18" x2="1294.22" y2="1695.83"/><line class="cls-43" x1="1305.54" y1="1671.9" x2="1304.99" y2="1698.34"/><line class="cls-43" x1="1317.43" y1="1675.02" x2="1317.19" y2="1701.72"/><g class="cls-42"><path class="cls-36" d="M1218.45,1677.13l.36-27c0-.57.55-14.16,14.45-14.16a27.41,27.41,0,0,1,5.36.58c19.48,3.91,19.66,23.21,19.66,24l-.35,26Z"/><path class="cls-15" d="M1233.26,1637a26.42,26.42,0,0,1,5.16.56c18.64,3.74,18.85,22.26,18.85,23l-.33,24.75-37.48-9,.35-26.15c0-.54.55-13.2,13.45-13.2m0-2c-15.08,0-15.45,15.15-15.45,15.15l-.38,27.78,41.48,9.93.37-27.26s.08-20.89-20.46-25a28.27,28.27,0,0,0-5.55-.6Z"/></g><line class="cls-43" x1="1257.17" y1="1658.15" x2="1219.77" y2="1650.57"/><line class="cls-43" x1="1257.25" y1="1667.94" x2="1219.86" y2="1660.36"/><line class="cls-43" x1="1256.95" y1="1678.86" x2="1219.56" y2="1670.3"/><path class="cls-44" d="M1230.08,1652.36s-.46-9.22,7.5-7.46c7.48,1.65,6.31,10.73,6.31,10.73"/><line class="cls-43" x1="1230.47" y1="1648.34" x2="1223.63" y2="1640.89"/><line class="cls-43" x1="1243.79" y1="1651.08" x2="1252.96" y2="1646.79"/><line class="cls-43" x1="1237.14" y1="1645.21" x2="1237.14" y2="1637.33"/><line class="cls-43" x1="1226.12" y1="1652.12" x2="1225.59" y2="1677.76"/><line class="cls-43" x1="1236.91" y1="1653.84" x2="1236.37" y2="1680.27"/><line class="cls-43" x1="1248.8" y1="1656.95" x2="1248.57" y2="1683.65"/><g class="cls-42"><path class="cls-36" d="M1154.42,1659.81l.36-27c0-.57.55-14.16,14.45-14.16a27.41,27.41,0,0,1,5.36.58c19.51,3.92,19.66,23.82,19.66,24l-.35,26Z"/><path class="cls-15" d="M1169.24,1619.67a26.43,26.43,0,0,1,5.16.56c18.64,3.74,18.85,22.26,18.85,23l-.33,24.75-37.48-9,.35-26.15c0-.54.55-13.2,13.45-13.2m0-2c-15.08,0-15.45,15.15-15.45,15.15l-.38,27.78,41.48,9.93.37-27.26s.08-20.89-20.46-25a28.27,28.27,0,0,0-5.55-.6Z"/></g><line class="cls-43" x1="1193.15" y1="1640.83" x2="1155.75" y2="1633.24"/><line class="cls-43" x1="1193.23" y1="1650.62" x2="1155.83" y2="1643.03"/><line class="cls-43" x1="1192.93" y1="1661.53" x2="1155.53" y2="1652.97"/><path class="cls-44" d="M1166.06,1635s-.46-9.22,7.5-7.46c7.48,1.65,6.31,10.73,6.31,10.73"/><line class="cls-43" x1="1166.44" y1="1631.01" x2="1159.61" y2="1623.57"/><line class="cls-43" x1="1179.76" y1="1633.75" x2="1188.94" y2="1629.47"/><line class="cls-43" x1="1173.12" y1="1627.88" x2="1173.12" y2="1620"/><line class="cls-43" x1="1162.1" y1="1634.79" x2="1161.57" y2="1660.43"/><line class="cls-43" x1="1172.89" y1="1636.51" x2="1172.34" y2="1662.94"/><line class="cls-43" x1="1184.78" y1="1639.63" x2="1184.54" y2="1666.32"/><polyline class="cls-22" points="1162.89 1586.47 1135.7 1619.01 1133.37 1781.2 1150.76 1782.16 1162.89 1718.8 1162.89 1586.47"/><polygon class="cls-16" points="1348.57 1634.25 1163.15 1587.19 1162.9 1589.87 1348.78 1637.04 1348.57 1634.25"/><polygon class="cls-16" points="1348.57 1709.63 1163.15 1662.56 1162.9 1665.24 1348.78 1712.41 1348.57 1709.63"/><polygon class="cls-10" points="1351.17 1705.84 1329.36 1726.77 1300.93 1721.14 1272.98 1743.06 1162.89 1718.8 1215.75 1671.61 1246.13 1677.57 1210.77 1710.69 1259.89 1721.86 1291.53 1693.94 1351.17 1705.84"/><polyline class="cls-31" points="1246.13 1677.57 1244.87 1718.44 1210.77 1710.69 1246.13 1677.57"/><polygon class="cls-45" points="1266.66 1290.85 1247.09 1314.37 1264.87 1319.28 1266.66 1290.85"/><polygon class="cls-10" points="1210.11 1393.93 1232.7 1398.14 1253.22 1389.26 1224.54 1383.39 1210.11 1393.93"/><polyline class="cls-22" points="1253.22 1389.26 1232.7 1398.14 1230.19 1461.38 1234.19 1461.87 1248.73 1436.57 1253.22 1389.26"/><polygon class="cls-11" points="1243.37 1373.4 1265.84 1379.84 1263.92 1476.84 1241.13 1471.05 1243.37 1373.4"/><polygon class="cls-46" points="1356.69 1740.05 1359.38 1740.05 1397.32 1692.1 1416.33 1695.83 1420.31 1627.29 1434.83 1621.14 1409.04 1595.43 1356.69 1740.05"/><polygon class="cls-14" points="1235.53 1970.74 1336.93 2009.89 1432.93 1944.35 1301.6 1911.19 1235.53 1970.74"/><polygon class="cls-15" points="1340.38 2048 1340.67 2010.07 1237.24 1968.64 1235.74 2048 1340.38 2048"/><polygon class="cls-22" points="1396.3 2042.43 1402.47 1987.89 1308.49 2011.15 1307.37 2042.43 1396.3 2042.43"/><polygon class="cls-14" points="1335.81 1808.6 1397.01 1811.23 1412.94 1818.68 1393.03 1830.28 1384.22 1828.53 1364.73 1828.5 1330.15 1825.9 1330.15 1821.09 1315.69 1818.46 1335.81 1808.6"/><polygon class="cls-13" points="1421.09 2048 1424.57 1891.33 1385.95 1908.29 1383.74 2048 1421.09 2048"/><polygon class="cls-15" points="1384.09 2048 1386.55 1870.84 1313.59 1853.89 1308.61 2048 1384.09 2048"/><polygon class="cls-13" points="1420.26 1855.11 1375.68 1866.63 1385.95 1930.2 1412.8 1916.61 1420.26 1855.11"/><polygon class="cls-15" points="1327.43 1825.47 1326.78 1862.64 1384.23 1867.27 1384.23 1828.53 1327.43 1825.47"/><polygon class="cls-47" points="1315.69 1818.46 1329.73 1819.99 1329.52 1863.57 1314.43 1857.22 1315.69 1818.46"/><polygon class="cls-13" points="1351.46 2048 1313.8 1852.18 1307.93 1853.28 1306.41 2048 1351.46 2048"/><polygon class="cls-13" points="1369.97 1807.07 1369.55 1823.28 1383.81 1816.93 1383.81 1801.16 1369.97 1807.07"/><polygon class="cls-14" points="1350.7 1805.56 1369.97 1807.07 1383.88 1801.16 1367.46 1799.63 1350.7 1805.56"/><polygon class="cls-14" points="1383.58 1859.49 1392.19 1865.99 1420.26 1855.43 1397.22 1853.84 1383.58 1859.49"/><polygon class="cls-15" points="1350.69 1822.18 1350.48 1805.54 1369.97 1807.07 1369.55 1823.28 1350.69 1822.18"/><polygon class="cls-15" points="1391.35 1865.98 1392.19 1830.28 1384.22 1828.53 1382.55 1866.63 1391.35 1865.98"/><polygon class="cls-13" points="1405.99 1856.3 1413.78 1818.46 1391.8 1830.25 1391.6 1862.64 1405.99 1856.3"/><polygon class="cls-14" points="1424.9 1891.97 1412.94 1882.28 1413.01 1896.74 1424.9 1891.97"/><polygon class="cls-14" points="1391.67 1860.01 1375.54 1866.63 1393.94 1873.26 1391.67 1860.01"/><polygon class="cls-14" points="1329.57 1852.91 1314.63 1851.09 1307.93 1853.28 1329.87 1864.94 1329.57 1852.91"/><polygon class="cls-48" points="1359.44 2048 1323.49 1861.2 1321.17 1861.65 1357.02 2048 1359.44 2048"/><polygon class="cls-48" points="1366.37 2048 1331.69 1867.38 1328.92 1865.42 1363.97 2048 1366.37 2048"/><polygon class="cls-48" points="1375.6 2048 1332.98 1825.76 1330.5 1825.63 1373.24 2048 1375.6 2048"/><polygon class="cls-48" points="1383.95 2048 1384.09 2044.62 1342.58 1826.23 1340.07 1826.15 1382.38 2048 1383.95 2048"/><polygon class="cls-48" points="1384.28 2014.33 1348.28 1826.59 1350.88 1826.73 1384.57 2002.96 1384.28 2014.33"/><polygon class="cls-48" points="1384.84 1978.47 1356.19 1827.1 1358.52 1827.18 1384.99 1965.95 1384.84 1978.47"/><polygon class="cls-48" points="1385.47 1938.74 1364.18 1827.45 1366.73 1827.64 1385.63 1928.38 1385.47 1938.74"/><polygon class="cls-48" points="1379.57 1864.98 1372.35 1827.95 1374.77 1828.02 1381.65 1864.18 1379.57 1864.98"/><polygon class="cls-48" points="1387.9 1861.55 1381.37 1828.38 1383.91 1828.53 1390.02 1860.68 1387.9 1861.55"/><polygon class="cls-14" points="48.66 1618.87 139.22 1643.94 194.56 1593.79 139.22 1570.14 48.66 1618.87"/><path class="cls-15" d="M48.66,1618.87l90.56,25.08L129.07,2023.5s-32.13-6.59-42.25-9c-12.28-2.93-47.25-12.57-47.25-12.57Z"/><polyline class="cls-13" points="194.56 1593.79 133.99 1643.94 123.93 2020.14 178 1967.41 194.56 1593.79"/><polygon class="cls-16" points="61.54 1636.82 53.24 2007.07 107.34 2020.14 119.91 1653.41 61.54 1636.82"/><polygon class="cls-49" points="86.64 1643.95 77.2 2012.86 53.24 2007.07 61.54 1636.82 86.64 1643.95"/><polygon class="cls-15" points="60.89 1666 60.67 1675.79 118.63 1690.77 118.95 1681.55 60.89 1666"/><polygon class="cls-15" points="59.73 1703.83 59.52 1713.62 117.48 1728.6 117.8 1719.38 59.73 1703.83"/><polygon class="cls-15" points="58.39 1741.27 58.17 1751.07 116.14 1766.05 116.45 1756.83 58.39 1741.27"/><polygon class="cls-15" points="58.39 1780.06 58.17 1789.86 116.14 1804.84 116.45 1795.62 58.39 1780.06"/><polygon class="cls-15" points="57.05 1817.51 56.83 1827.3 114.79 1842.28 115.11 1833.06 57.05 1817.51"/><polygon class="cls-15" points="54.93 1854.95 54.72 1864.75 112.68 1879.73 113 1870.51 54.93 1854.95"/><polygon class="cls-15" points="54.55 1892.97 54.33 1902.77 112.3 1917.75 112.61 1908.53 54.55 1892.97"/><polygon class="cls-15" points="52.3 1929.84 52.09 1939.64 110.05 1954.62 110.36 1945.4 52.3 1929.84"/><polygon class="cls-15" points="52.3 1968.25 52.09 1978.05 110.05 1993.02 110.36 1983.81 52.3 1968.25"/><polygon class="cls-50" points="117.8 1681.62 60.67 1676.47 60.89 1666 117.8 1681.62"/><polygon class="cls-50" points="117.22 1719.25 60.09 1714.1 60.31 1703.63 117.22 1719.25"/><polygon class="cls-50" points="116.64 1756.89 59.52 1751.74 59.73 1741.27 116.64 1756.89"/><polygon class="cls-50" points="115.3 1795.29 58.17 1790.15 58.39 1779.67 115.3 1795.29"/><polygon class="cls-50" points="114.53 1833.13 57.4 1827.98 57.62 1817.51 114.53 1833.13"/><polygon class="cls-50" points="113.75 1870.86 56.63 1865.71 56.84 1855.24 113.75 1870.86"/><polygon class="cls-50" points="113 1908.59 55.87 1903.44 56.09 1892.97 113 1908.59"/><polygon class="cls-50" points="111.84 1945.46 54.72 1940.31 54.93 1929.84 111.84 1945.46"/><polygon class="cls-50" points="111.24 1984.67 54.11 1979.52 54.33 1969.05 111.24 1984.67"/><polygon class="cls-19" points="188.08 1625.44 170.41 1977.06 134.46 2009.87 146.77 1657.93 188.08 1625.44"/><polygon class="cls-19" points="162.67 1644.73 150.75 1994.63 170.53 1977.96 187.51 1625.58 162.67 1644.73"/><polygon class="cls-13" points="186.14 1659.81 185.88 1670.92 144.32 1696.84 144.46 1685.76 186.14 1659.81"/><polygon class="cls-51" points="145.31 1684.95 185.58 1671.01 185.86 1659.81 145.31 1684.95"/><polygon class="cls-13" points="185.25 1692.01 184.99 1703.13 143.42 1729.05 143.57 1717.97 185.25 1692.01"/><polygon class="cls-51" points="143.78 1717.63 184.06 1703.68 184.33 1692.48 143.78 1717.63"/><polygon class="cls-13" points="183.1 1734.05 182.84 1745.17 141.28 1771.09 141.42 1760.01 183.1 1734.05"/><polygon class="cls-51" points="141.83 1759.29 182.11 1745.34 182.39 1734.14 141.83 1759.29"/><polygon class="cls-13" points="181.04 1774.53 180.78 1785.65 139.22 1811.57 139.36 1800.49 181.04 1774.53"/><polygon class="cls-51" points="139.78 1799.97 180.05 1786.03 180.33 1774.82 139.78 1799.97"/><polygon class="cls-13" points="179.39 1811.86 179.14 1822.97 137.57 1848.89 137.71 1837.81 179.39 1811.86"/><polygon class="cls-51" points="137.85 1837.51 178.13 1823.56 178.4 1812.36 137.85 1837.51"/><polygon class="cls-13" points="177.48 1849.18 177.23 1860.29 135.66 1886.21 135.8 1875.14 177.48 1849.18"/><polygon class="cls-51" points="136.01 1874.97 176.29 1861.02 176.56 1849.82 136.01 1874.97"/><polygon class="cls-13" points="175.43 1887.23 175.17 1898.35 133.6 1924.27 133.75 1913.19 175.43 1887.23"/><polygon class="cls-51" points="134.09 1912.95 174.37 1899.01 174.65 1887.81 134.09 1912.95"/><polygon class="cls-13" points="173.66 1924.27 173.41 1935.38 131.84 1961.3 131.98 1950.23 173.66 1924.27"/><polygon class="cls-51" points="132.4 1950.23 172.68 1936.28 172.95 1925.08 132.4 1950.23"/><polygon class="cls-13" points="172.23 1957.92 171.97 1969.03 130.4 1994.95 130.55 1983.88 172.23 1957.92"/><polygon class="cls-51" points="130.89 1983.36 171.17 1969.41 171.45 1958.21 130.89 1983.36"/><path class="cls-29" d="M92.43,2048c6.76-24.58,14.91-55.11,14.91-55.11l2.61-130.65L48,1960.09,50.12,2048Z"/><polygon class="cls-10" points="0 1830.68 0 1944.31 48.02 1960.09 109.94 1862.24 0 1830.68"/><polygon class="cls-22" points="187.64 2048 187.61 2041.24 182.12 2048 187.64 2048"/><polygon class="cls-22" points="142.75 2021.85 169.98 2034.42 184.81 2039.53 184.41 1972.82 142.75 2021.85"/><polygon class="cls-10" points="182.47 2048 187.21 2042.38 142.75 2021.85 184.41 1972.82 123.52 1951.72 35.05 2048 182.47 2048"/><polygon class="cls-21" points="50.12 2048 48.02 1960.09 0 1944.31 0 2048 50.12 2048"/><polygon class="cls-48" points="1241.79 2048 1236.28 2019.82 1235.96 2028.99 1239.61 2048 1241.79 2048"/><polygon class="cls-48" points="1249.05 2048 1236.93 1985.08 1236.73 1996.09 1246.7 2048 1249.05 2048"/><polygon class="cls-48" points="1258.27 2048 1243.63 1971.19 1240.79 1970.1 1255.76 2048 1258.27 2048"/><polygon class="cls-48" points="1267.68 2048 1253.85 1975.24 1251.14 1974.15 1265.23 2048 1267.68 2048"/><polygon class="cls-48" points="1276.03 2048 1262.82 1978.88 1260.09 1978.07 1273.5 2048 1276.03 2048"/><polygon class="cls-48" points="1283.65 2048 1271.07 1982.05 1268.6 1981.23 1281.24 2048 1283.65 2048"/><polygon class="cls-48" points="1291.48 2048 1279.73 1985.56 1276.91 1984.53 1288.98 2048 1291.48 2048"/><polygon class="cls-48" points="1299.4 2048 1288.41 1989.21 1285.58 1988 1296.8 2048 1299.4 2048"/><path class="cls-48" d="M1275.08,1934.67c.15-.27-5.78-30.16-5.78-30.16l-2.73-.81L1273,1937A6.81,6.81,0,0,0,1275.08,1934.67Z"/><path class="cls-48" d="M1281.81,1928.87l-4.26-22.31-2.47-.82,4.73,25C1280.39,1930.2,1280.95,1929.06,1281.81,1928.87Z"/><polygon class="cls-48" points="1269.06 1940.59 1264.64 1919.77 1264.11 1925.66 1267.07 1942.42 1269.06 1940.59"/><polygon class="cls-48" points="1329.57 1852.91 1322.89 1819.43 1320.16 1818.95 1326.91 1852.59 1329.57 1852.91"/><polygon class="cls-48" points="1321.67 1851.95 1315.64 1823.78 1315.22 1832.78 1319.19 1851.57 1321.67 1851.95"/><path class="cls-48" d="M1360.31,1806.31l3.52,16.9,2.67.32-3.25-17C1362.38,1806.57,1361.17,1806.27,1360.31,1806.31Z"/><path class="cls-48" d="M1352.55,1805.7l3.56,16.5,2.48.37-3.42-16.75C1354.37,1805.81,1353.34,1805.77,1352.55,1805.7Z"/><path class="cls-48" d="M1288.93,1922.49l-2.72-14.44-2.82-1,3.35,17.61C1287.38,1924.13,1288,1922.62,1288.93,1922.49Z"/><path class="cls-48" d="M1295.77,1916.83l-1.41-7.22-2.82-1,1.94,9.8A4.74,4.74,0,0,1,1295.77,1916.83Z"/><line class="cls-48" x1="1312.29" y1="2021.83" x2="1292.06" y2="1913.63"/><polygon class="cls-48" points="1306.41 2047.54 1295.79 1992.09 1298.62 1993.31 1306.59 2036.32 1306.41 2047.54"/></g></g></svg>