<svg xmlns="http://www.w3.org/2000/svg" viewBox="0 0 640 1191"><defs><style>.cls-1{isolation:isolate;}.cls-2{fill:#e4e1dc;}.cls-3,.cls-46{fill:#c4c4c4;}.cls-4{opacity:0.53;}.cls-44,.cls-47,.cls-5,.cls-6,.cls-7,.cls-8,.cls-9{fill:none;}.cls-5,.cls-6,.cls-7,.cls-8,.cls-9{stroke:#f2f2f3;stroke-width:0.8px;}.cls-43,.cls-44,.cls-47,.cls-5,.cls-6,.cls-7,.cls-8,.cls-9{stroke-miterlimit:10;}.cls-6{stroke-dasharray:5.44 10.31;}.cls-7{stroke-dasharray:5.42 10.27;}.cls-8{stroke-linecap:round;}.cls-8,.cls-9{stroke-dasharray:5.36 10.15;}.cls-10{fill:#f4f0ec;}.cls-11{fill:#e3e8e7;}.cls-12{fill:#e1ddd9;}.cls-13{fill:#d8d4d1;}.cls-14{fill:#f79f8b;}.cls-15,.cls-41{fill:#fbccc5;}.cls-16,.cls-17,.cls-20,.cls-33,.cls-38,.cls-40,.cls-49,.cls-50,.cls-52{fill:#f0515a;}.cls-17{opacity:0.51;}.cls-17,.cls-33,.cls-35,.cls-37,.cls-39,.cls-41,.cls-42,.cls-46,.cls-49,.cls-50,.cls-51{mix-blend-mode:multiply;}.cls-18,.cls-21{fill:#24518f;}.cls-19{fill:#494b53;}.cls-20{opacity:0.22;}.cls-21{opacity:0.54;}.cls-22{fill:#ddd9d5;}.cls-23{fill:#f8f5f0;}.cls-24{fill:#dbd8d4;}.cls-25{fill:#f3efed;}.cls-26{fill:#dfdbd7;}.cls-27{fill:#d6d3cf;}.cls-28{fill:#d3cfcb;}.cls-29{fill:#d9d5d2;}.cls-30{fill:#f3f0ec;}.cls-31{fill:#dcd9d4;}.cls-32{fill:#f5f1ed;}.cls-33{opacity:0.99;}.cls-34,.cls-37,.cls-38{opacity:0.58;}.cls-36,.cls-43{fill:#dc2539;}.cls-39{opacity:0.52;}.cls-40,.cls-49{opacity:0.48;}.cls-42{opacity:0.75;}.cls-43,.cls-44,.cls-47{stroke:#f0515a;}.cls-43,.cls-44{stroke-width:0.45px;}.cls-45{fill:#e5b5b1;}.cls-47{stroke-width:1.34px;}.cls-48{fill:#e5525f;}.cls-50{opacity:0.71;}.cls-51{fill:#c94454;opacity:0.57;}.cls-52{opacity:0.7;}</style></defs><title>FUTURE_SKYLINE_ILLUS_SMALL</title><g class="cls-1"><g id="Layer_5" data-name="Layer 5"><rect class="cls-2" y="905.01" width="640" height="285.05"/><path class="cls-3" d="M639.72,926.24c-25.47-5-65.36-12.91-82.43-17.06-18.06-4.39-51.55-17.69-69.21-21.88-18.5-4.39-57.09-7.83-75.06-12.26-12.37-3-34.49-13.52-46.45-16.49-14.32-3.56-44.57-5-58.42-8.32-12.06-2.9-47.26-14.61-47.26-14.61L254,837.87s36,11.9,48.28,15c14.19,3.54,45.07,5.83,59.74,9.52,11.74,3,33.64,12.76,45.82,15.7,18.21,4.4,57.21,8.11,75.91,12.62,17.7,4.26,51.29,17.64,69.39,22.1,17.93,4.41,59.76,12.9,86.61,18.26Z"/><path class="cls-3" d="M639.72,1032.67l-18.09-6.24s-91.29-24.92-121-35.34c-24.74-8.66-97-39.83-97-39.83s-61.06-14.43-80.73-21.45c-15.26-5.44-59-26.74-59-26.74s-46.17-9.45-61-14.63a192.27,192.27,0,0,1-24.55-10.91c-1.18-.62-12.4-.75-12.4-.75l1.7,2.57c-2.32,8,13.7,8.16,27.74,12.28,15.84,4.65,64.16,15.66,64.16,15.66s42.74,20.87,57.66,26.18c19.47,6.93,79.92,21.07,79.92,21.07s75.06,32,100.74,41c29.76,10.34,121,35.17,121,35.17l9.13,3.13h11.78Z"/><path class="cls-3" d="M639.72,856.18C633,855.09,627,854.06,623,853.25c-18.52-3.77-55.07-13.87-73.63-17.15-23.66-4.19-71.76-6.89-95.22-11.89-10-2.13-29.29-9.47-39.29-11.25-11.42-2-46.16-4.5-46.16-4.5l-7.42,2.29s35.34,2.81,47,4.92c10.59,1.93,31.08,9.66,41.67,11.94,22.6,4.88,68.91,7.87,91.72,11.86,19.82,3.46,59,13.69,78.79,17.53,4.48.87,11.5,2,19.3,3.19Z"/><path class="cls-3" d="M639.72,890.34c-8.91,15.78-28.26,40.23-35.79,54-9.36,17.16-19.43,54.55-27.27,72.27-4.53,10.24-75,94.9-114.92,142.55h38.33c35.57-45.71,96.59-124.9,100.39-135.07,6.92-18.54,15.87-57.22,23.76-75.5,3.31-7.66,9.47-18.81,15.49-30Z"/><g class="cls-4"><path class="cls-5" d="M480.5,1158.74l1.6-2.15"/><path class="cls-6" d="M488.29,1148.34c20.13-26.82,40.68-53.65,61.23-80.12,13.39-19.64,28.12-37.49,41.06-58.91,1.34-2.23,3.12-4.46,4.46-7.14.45-1.79,1.79-3.57,2.23-5.35,6.25-25,13.83-47.31,27.22-69.17,2.63-4.82,5.26-9.64,9.15-14"/><path class="cls-5" d="M636.25,909.16a20.69,20.69,0,0,0,1.06-2.46"/></g><path class="cls-3" d="M570.31,819.38c-15.44,10.49-44.8,23.79-57.46,33.43s-31.58,34.19-44.06,44c-18,14.1-60.76,35.46-78.78,49.52-13.58,10.59-34.71,36.89-48.43,47.3-13.26,10.06-159.81,101.21-159.81,101.21l-24.13,38s187.45-120.23,199.17-129.76c13.92-11.31,34.9-39.69,48.61-51.25,17.15-14.46,58.43-36.74,75.52-51.27,12-10.21,29.74-35.68,41.9-45.71,11.06-9.12,35.85-21.56,51.36-32A30.6,30.6,0,0,1,570.31,819.38Z"/><g class="cls-4"><path class="cls-5" d="M166.24,1115.38l2.2-1.52"/><path class="cls-7" d="M177,1108.2c41.17-26.78,163.81-102.69,182.9-118.52,2.08-2.08,4.16-3.64,6.24-6.24,10.92-16.63,22.87-29.11,37.42-41.58a105.22,105.22,0,0,1,15.59-10.92c8.32-4.16,16.11-7.8,24.43-12.48l7.8-4.68c9.88-6.24,18.19-12,27.55-18.71,9.88-7.28,15.59-17.15,23.91-25.47,17.86-18.33,38.27-32,60.18-43.11"/><path class="cls-5" d="M567.63,824.22l2.41-1.16"/></g><path class="cls-3" d="M470.72,808.56a4,4,0,0,1-3.17-1.37c-13.25,7.49-32.3,24.85-44.19,31.08-15.78,8.27-51.51,17.53-67.28,25.81-12.79,6.72-34.22,25.89-47,32.57-14.9,7.76-48.74,16.22-63.65,24-14.38,7.46-38.68,28.9-53.34,35.79-9,4.22-37.9,11.87-37.9,11.87l13.75,7.59s33.42-10.38,42.31-14.84c14.06-7.06,36.87-28.82,50.64-36.42,14.55-8,47.94-16.87,62.46-25,11.94-6.65,31.41-25.74,43.32-32.45,15.45-8.7,50.89-18.43,66.36-27.08,11.37-6.35,29.23-24,41.85-31.61C473.47,808.52,472.09,808.56,470.72,808.56Z"/><path class="cls-8" d="M164.09,971.19A164.9,164.9,0,0,0,204,955.9c26.51-20.79,55.1-40.54,88.36-48.34,13.51-5.2,27-9.88,38.46-18.71,15.07-16.63,35.35-26,55.62-34.31,1-.52,1.56,0,2.6-.52,1.56-.52,2.6-1.56,4.16-2.08,19.75-6.76,41.06-11.44,56.14-27.55a56.36,56.36,0,0,1,17.63-14"/><path class="cls-3" d="M434.07,786.28c-12.89,4.84-26.78,9.95-31.6,12.06-16,7-45.19,21.52-61.73,27-19.64,6.54-63.53,12-83.05,20.72C247.28,850.75,230,866,219,870.27c-16.45,6.42-54.52,9.72-71.6,16.49-13.58,5.39-30.45,25.46-44.72,30.41-9.87,3.42-55.36,5.45-55.36,5.45l8.42,7.49s48.77-3.83,57.75-6.95c14.83-5.15,28.88-29.15,43-34.85,16.91-6.83,54.67-10.37,71-16.85,11.38-4.53,29.19-20.34,40-25.19,18.68-8.43,60.74-13.7,79.49-20.08,16.3-5.55,45-20.24,60.74-27.31,4.38-2,16.54-6.54,28.41-11.08Q435,787.05,434.07,786.28Z"/><path class="cls-9" d="M55.73,925.73c18.55.34,39.42.7,55.73-8.51,18.63-12.39,46.12-32.37,66.47-36.93,7-1.58,13.94-1.84,21-2.63A114.79,114.79,0,0,0,217.92,874c2.1-.79,4.47-1.58,6.58-2.37a54.89,54.89,0,0,0,16.84-10c.26-.26.79-.26,1.05-.53,13.94-12.89,31-20.26,50-23.15,10.79-1.84,20.26-5,31.31-7.1.26,0,.79-.53,1.05-.53,10-2.1,19.2-4.47,28.94-7.1a48.43,48.43,0,0,0,6.58-2.37c18.94-8.94,37.09-18.15,56.3-26,2.1-.79,4.47-1.58,6.58-2.37,3.42-1.05,6.58-2.37,9.88-3.19"/><path class="cls-3" d="M538.79,1082.81c-29.1-9.18-59-12.73-88.54-19.73,0,0-43.72-13.41-57.64-19.24-17.09-7.17-46.46-28.14-63.14-35.5-18.78-8.29-59.9-16.55-78.33-24.58-16.06-7-43.66-28-59.54-34.64-14.29-6-45.9-10.65-59.74-16.6-8.36-3.59-25.93-13.42-38.47-20.6v7.63c11.29,6.27,23.33,12.73,30,15.58,13.93,6,45.68,10.83,60,16.91,16,6.79,43.93,28,60.14,35.16,18.53,8.14,59.89,16.58,78.75,25,16.76,7.5,46.37,29.59,63.63,36.67,4.58,1.88,27.05,12.34,62.9,18.06,10.94,1.75,128.59,33.56,128.59,33.56l12.16-8.14Z"/><polygon class="cls-10" points="179.43 945.64 185.81 947.74 188.65 958.03 182.3 960.1 181.18 960.2 179.43 945.64"/><polygon class="cls-11" points="320.13 811.27 334.93 815.62 343.98 806.93 329.59 800.42 320.13 811.27"/><polygon class="cls-12" points="320.13 811.27 334.93 815.62 340.62 929.38 317.93 909.46 320.13 811.27"/><polyline class="cls-10" points="344.6 806.84 334.93 815.62 334.67 915.22 340.62 929.38 343.98 806.93"/><polygon class="cls-11" points="165.56 883.99 180.36 884.99 189.41 882.99 175.02 881.49 165.56 883.99"/><polygon class="cls-12" points="165.56 883.99 180.36 884.99 186.05 911.24 164.09 899.18 165.56 883.99"/><polyline class="cls-10" points="190.03 882.97 180.36 884.99 180.1 907.97 186.05 911.24 189.41 882.99"/><polygon class="cls-10" points="139.82 794.68 167.35 784.09 168.13 896.38 151.42 905.72 144.44 904.85 139.82 794.68"/><polygon class="cls-11" points="167.35 784.09 139.84 794.96 104.22 791 167.35 784.09"/><path class="cls-13" d="M105.13,894.58s14.34,6.07,19.57,7.41c4.7,1.2,19.74,2.86,19.74,2.86l-4.3-110L104,791Z"/><polygon class="cls-11" points="339.33 756.82 358.28 754.41 377.7 795.14 359.12 743.91 339.33 756.82"/><polygon class="cls-12" points="339.33 756.82 359.51 753.57 368.02 858.94 343.41 852.34 339.33 756.82"/><polyline class="cls-10" points="358.28 754.41 368.01 859.23 404.81 846.88"/><polygon class="cls-11" points="364.6 854.05 374.59 856.91 380.69 851.19 370.98 846.89 364.6 854.05"/><polygon class="cls-12" points="364.6 854.05 374.59 856.91 373.48 899.85 363.6 897.46 364.6 854.05"/><polyline class="cls-10" points="381.11 851.13 374.59 856.91 373.48 899.85 379.44 893.83 380.69 851.19"/><polygon class="cls-11" points="313.06 799.74 334.26 803.83 342.39 796.35 331.67 795.19 313.06 799.74"/><polygon class="cls-12" points="313.06 799.74 334.26 803.83 332.78 859.92 311.74 856.46 313.06 799.74"/><polyline class="cls-10" points="342.95 796.27 334.26 803.83 332.78 859.92 343.41 852.34 342.39 796.35"/><polygon class="cls-11" points="428.8 1077.23 449.99 1081.32 458.13 1073.84 447.4 1072.67 428.8 1077.23"/><polygon class="cls-12" points="428.8 1077.23 449.99 1081.32 448.51 1137.41 427.47 1133.94 428.8 1077.23"/><polyline class="cls-10" points="458.69 1073.76 449.99 1081.32 448.51 1137.41 459.14 1129.83 458.13 1073.84"/><polygon class="cls-11" points="216.86 798.08 239.04 804.23 252.59 791.94 239.04 786.15 216.86 798.08"/><path class="cls-12" d="M216.86,798.08,239,804.22l-2.49,93s-7.87-1.61-10.35-2.21c-3-.72-11.57-3.08-11.57-3.08Z"/><polyline class="cls-10" points="252.59 791.94 237.76 804.23 235.29 896.36 248.54 883.45 252.59 791.94"/><polygon class="cls-11" points="500.55 797.01 513.78 800.38 522.43 793.58 509 788.61 500.55 797.01"/><polygon class="cls-12" points="500.55 797.01 513.78 800.38 512.39 853.16 504.59 860.12 499.23 848.01 500.55 797.01"/><polyline class="cls-10" points="522.43 793.58 513.78 800.38 512.39 853.16 520.22 843.74 522.43 793.58"/><polygon class="cls-11" points="487.04 817.94 497.03 820.86 503.56 814.96 493.43 810.64 487.04 817.94"/><polygon class="cls-12" points="487.04 817.94 503.56 814.96 490.99 876.24 486.05 862.2 487.04 817.94"/><polyline class="cls-10" points="503.56 814.96 490.99 876.24 504.52 860.22"/><polygon class="cls-11" points="455.81 802.18 487.2 808.93 497.77 799.71 474.86 787.3 455.81 802.18"/><polygon class="cls-12" points="463.45 801.28 487.2 808.93 484.45 887.17 463.99 875.01 463.45 801.28"/><path class="cls-10" d="M497.77,799.71l-10.57,9.22-2.75,78.25s5.66-8.69,7.39-11.84c1.21-2.2,4.49-9.31,4.49-9.31l1.44-66.32"/><polygon class="cls-11" points="483.63 891.25 493.62 892.92 499.73 889.59 490.02 887.09 483.63 891.25"/><polygon class="cls-12" points="483.63 891.25 493.62 892.92 492.51 917.89 482.64 916.51 483.63 891.25"/><polyline class="cls-11" points="500.15 889.56 493.62 892.92 492.51 917.89 498.48 914.39 499.73 889.59"/><polygon class="cls-10" points="566.45 813.93 566.45 825.6 553.58 840.57 556.28 824.71 566.45 813.93"/><polygon class="cls-14" points="430.06 747.88 445.83 736.38 444.63 768.82 435.88 773.74 430.06 747.88"/><polygon class="cls-15" points="445.83 722.75 422.33 740.02 387.04 733.25 408.86 720.22 445.83 722.75"/><polygon class="cls-15" points="398.74 699.62 419.02 704.57 431.78 696.83 411.46 692.04 398.74 699.62"/><polygon class="cls-14" points="419.02 704.57 419.02 734.82 431.78 726.32 431.78 696.77 419.02 704.57"/><polygon class="cls-16" points="398.69 699.61 398.69 731.06 419.02 734.82 419.02 704.57 398.69 699.61"/><polygon class="cls-15" points="450.63 738.85 458.64 734.06 445.25 732.5 421.94 748.79 417.03 747.6 412.06 750.05 430.32 753.18 438.33 748.62 431.78 747.04 444.81 737.98 450.63 738.85"/><polygon class="cls-15" points="416.2 738.85 412.19 741.92 383.52 735.23 387.01 733.24 416.2 738.85"/><polygon class="cls-16" points="413.92 750.11 413.8 776.29 431.91 780.53 431.52 752.67 413.92 750.11"/><polygon class="cls-15" points="414.17 750.47 411.09 752.17 374.7 744.72 383.52 741.92 414.17 750.47"/><polygon class="cls-14" points="411.85 741.92 412.06 750.05 416.63 747.82 416.53 738.55 411.85 741.92"/><polygon class="cls-16" points="383.52 743.5 383.52 735.23 412.19 741.92 412.11 749.89 383.52 743.5"/><polygon class="cls-16" points="444.91 737.91 443.78 766.34 450.97 767.03 450.63 738.85 444.91 737.91"/><polygon class="cls-15" points="438.95 774.97 450.97 767.03 443.79 766.21 435.88 769.85 438.95 774.97"/><polygon class="cls-15" points="458.26 761.66 462.43 759.03 455.34 758.59 458.26 761.66"/><path class="cls-14" d="M462.51,769l-.15-10-4.1,2.63.22-27.5-7.85,4,.38,28.75L439,775l-.8-26.18-6.64,3.88.26,27.29-3.92,2.47-.14,134.75,36.69-26.88-1.86-119.65A1.76,1.76,0,0,1,462.51,769Z"/><polygon class="cls-16" points="374.7 744.72 377.9 900.2 427.72 917.17 427.98 783.71 409.5 779.42 409.85 751.57 374.7 744.72"/><polygon class="cls-15" points="413.8 776.29 409.5 779.42 427.86 782.42 431.78 779.96 413.8 776.29"/><polygon class="cls-14" points="413.92 750.11 409.74 751.7 409.5 779.42 413.8 776.29 413.92 750.11"/><polygon class="cls-14" points="270.57 802.85 259.87 806.18 259.66 822.27 270.57 819.51 270.57 802.85"/><polygon class="cls-16" points="421.83 739.93 416.26 738.6 416.49 747.8 421.94 748.79 421.83 739.93"/><polygon class="cls-17" points="418.9 719.51 398.81 715.19 398.69 712.43 418.9 716.67 418.9 719.51"/><polygon class="cls-17" points="450.77 750.26 444.51 749.39 444.63 746.67 450.75 747.4 450.77 750.26"/><polygon class="cls-17" points="409.72 754.44 409.86 751.63 374.7 744.72 374.76 747.48 409.72 754.44"/><polygon class="cls-18" points="377.38 873.37 377.43 876.24 427.71 889.78 427.71 886.89 377.38 873.37"/><polygon class="cls-17" points="376.82 846.68 376.88 849.57 427.82 863.85 427.82 860.94 376.82 846.68"/><polygon class="cls-17" points="376.28 820.57 376.34 823.44 427.87 837.33 427.87 834.28 376.28 820.57"/><polygon class="cls-17" points="375.75 795.14 375.81 797.99 427.94 810.06 427.94 806.99 375.75 795.14"/><polygon class="cls-17" points="375.26 771.65 375.32 774.4 427.94 784.88 427.94 782.04 375.26 771.65"/><polygon class="cls-19" points="427.71 911.96 377.85 897.02 377.82 896.27 427.71 911.39 427.71 911.96"/><polygon class="cls-19" points="427.77 884.68 377.38 871.63 377.32 870.88 427.75 884.11 427.77 884.68"/><polygon class="cls-17" points="427.84 858.88 376.82 845.15 376.77 844.4 427.82 858.31 427.84 858.88"/><polygon class="cls-17" points="427.88 832.37 376.24 818.45 376.2 817.63 427.86 831.79 427.88 832.37"/><polygon class="cls-17" points="427.99 804.78 375.7 793.12 375.68 792.35 427.94 804.21 427.99 804.78"/><polygon class="cls-17" points="413.8 773.57 431.69 777.01 431.63 776.44 413.8 772.94 413.8 773.57"/><polygon class="cls-17" points="450.97 765.02 443.87 764.11 443.8 764.73 450.97 765.62 450.97 765.02"/><polygon class="cls-17" points="409.57 774.87 375.26 768.31 375.3 769.08 409.57 775.5 409.57 774.87"/><polygon class="cls-17" points="412.17 748.29 383.55 741.75 383.52 741.01 412.2 747.73 412.17 748.29"/><polygon class="cls-17" points="450.64 745.12 444.6 744.33 444.7 745.07 450.64 745.81 450.64 745.12"/><polygon class="cls-17" points="421.91 746.6 416.43 745.66 416.46 746.39 421.92 747.29 421.91 746.6"/><polygon class="cls-17" points="418.97 714.23 398.69 709.63 398.78 710.38 418.97 714.89 418.97 714.23"/><path class="cls-17" d="M393.19,745.69l-.15-8.24-.46-.11.15,8.24Z"/><path class="cls-17" d="M408.07,749.07l-.11-8.14-.45-.11.11,8.12C407.77,749,407.92,749.06,408.07,749.07Z"/><polygon class="cls-17" points="403.07 731.95 402.93 700.99 402.46 700.88 402.63 731.83 403.07 731.95"/><path class="cls-17" d="M415.75,734l.06-30.2-.55-.12,0,30.2C415.45,733.93,415.6,733.94,415.75,734Z"/><polygon class="cls-17" points="419.25 748.41 419.04 739.32 418.59 739.32 418.78 748.37 419.25 748.41"/><polygon class="cls-17" points="423.68 778.57 423.49 752.07 423.04 752.07 423.22 778.46 423.68 778.57"/><polygon class="cls-17" points="447.96 766.63 447.77 738.36 447.32 738.37 447.5 766.51 447.96 766.63"/><rect class="cls-17" x="379.06" y="745.65" width="0.45" height="156.85" transform="translate(-14.26 6.71) rotate(-1)"/><path class="cls-17" d="M392.74,749.5,395.3,905h.45L393.2,749.6Z"/><path class="cls-17" d="M407.63,752.19l2.55,158.23h.45l-2.54-158.17Z"/><polygon class="cls-17" points="423.36 781.28 424.23 914.54 424.68 914.54 423.81 781.28 423.36 781.28"/><path class="cls-18" d="M426.83,736.34l.12,8.93.45-.52-.12-8.76Z"/><polygon class="cls-20" points="422.88 702.14 423.31 731.95 423.75 731.68 423.38 701.85 422.88 702.14"/><polygon class="cls-20" points="431.69 709.23 419.08 717.16 418.91 719.86 431.69 711.58 431.69 709.23"/><polygon class="cls-20" points="414.01 750.26 409.86 751.63 409.72 754.44 413.98 752.97 414.01 750.26"/><polygon class="cls-17" points="438.33 748.62 430.84 752.94 430.84 755.53 438.25 751.22 438.33 748.62"/><polygon class="cls-20" points="444.85 737.91 431.52 747.05 434.38 747.82 444.85 740.2 444.85 737.91"/><polygon class="cls-17" points="431.55 755.58 413.98 752.97 413.87 750.21 431.52 752.67 431.55 755.58"/><rect class="cls-20" x="438.77" y="750.72" width="0.45" height="157.18" transform="matrix(1, -0.02, 0.02, 1, -17.93, 9.74)"/><polygon class="cls-14" points="421.99 748.79 421.83 739.93 445.83 722.75 445.27 732.54 421.99 748.79"/><polygon class="cls-20" points="445.44 729.99 421.87 746.68 421.83 747.29 445.39 730.88 445.44 729.99"/><polygon class="cls-20" points="431.73 706.6 418.98 714.19 418.9 714.79 431.73 707.28 431.73 706.6"/><polygon class="cls-20" points="443.95 762.7 438.67 765.95 438.71 766.66 443.95 763.48 443.95 762.7"/><polygon class="cls-20" points="458.3 757.77 450.94 762.98 450.94 763.78 458.3 758.65 458.3 757.77"/><polygon class="cls-20" points="458.49 739.58 450.64 745.07 450.64 745.87 458.49 740.47 458.49 739.58"/><polygon class="cls-20" points="438.71 771.62 431.94 776.4 431.91 777.01 438.71 772.28 438.71 771.62"/><path class="cls-20" d="M454.89,896.37l-1.63-159.78-.45.14,1.64,160.21Z"/><polygon class="cls-20" points="443.4 724.42 443.54 733.7 444 733.37 443.91 724.13 443.4 724.42"/><polygon class="cls-20" points="427.88 782.35 462.43 759.04 462.43 761 427.87 785.05 427.88 782.35"/><polygon class="cls-20" points="450.77 747.82 450.77 750.09 458.49 744.59 458.49 742.63 450.77 747.82"/><polygon class="cls-21" points="464.34 886.45 427.71 911.96 427.75 911.35 464.4 885.62 464.34 886.45"/><polygon class="cls-20" points="464.01 859.5 427.71 884.68 427.75 884.08 463.91 858.78 464.01 859.5"/><polygon class="cls-20" points="463.57 834.02 427.87 858.88 427.91 858.27 463.63 833.19 463.57 834.02"/><polygon class="cls-20" points="463.13 807.65 427.87 832.2 427.91 831.59 463.19 806.82 463.13 807.65"/><polygon class="cls-20" points="462.76 780.43 427.87 804.69 427.91 804.08 462.76 779.45 462.76 780.43"/><polygon class="cls-21" points="427.72 914.54 464.4 888.33 464.4 890.29 436.08 911.1 427.71 917.25 427.72 914.54"/><polygon class="cls-20" points="427.77 887.08 463.99 861.21 463.99 863.17 427.77 889.78 427.77 887.08"/><polygon class="cls-20" points="427.84 861.15 463.6 835.6 463.6 837.56 427.84 863.85 427.84 861.15"/><polygon class="cls-20" points="427.88 834.53 463.16 809.32 463.16 811.28 427.87 837.24 427.88 834.53"/><polygon class="cls-20" points="428.24 807.35 462.8 784.04 462.8 786.01 428.24 810.06 428.24 807.35"/><polygon class="cls-20" points="444.39 905.94 437.53 910.82 435.62 750.63 438.6 749.07 439.25 775.03 443.42 772.67 444.39 905.94"/><polygon class="cls-20" points="431.91 741.92 431.73 732.84 424.54 737.81 424.88 746.67 431.91 741.92"/><polygon class="cls-20" points="427.24 729.38 426.72 700.07 421.01 703.55 420.79 733.73 427.24 729.38"/><polygon class="cls-22" points="464.44 911.88 425.68 900.18 429.61 956.16 466.63 968.86 464.44 911.88"/><polygon class="cls-23" points="476.05 901.35 477.77 953.15 466.63 968.86 464.44 911.88 476.05 901.35"/><polygon class="cls-23" points="480.28 903.02 486.09 897.67 486.4 943.29 481.22 948.64 480.28 903.02"/><polygon class="cls-23" points="468.51 891.99 479.18 895.68 484.99 897.17 484.83 877.62 468.51 891.99"/><polygon class="cls-24" points="476.05 901.35 480.28 903.02 481.22 948.64 477.59 947.8 476.05 901.35"/><polygon class="cls-11" points="425.68 900.18 464.44 911.88 476.05 901.35 480.28 903.02 485.93 898.01 468.51 891.99 484.83 877.62 460.98 871.44 425.68 900.18"/><path class="cls-25" d="M324.49,844.13l17.09-6.25,2.33,34.07s-6.68,5-9,6.69c-2.52,1.83-10.4,7.81-10.4,7.81Z"/><polygon class="cls-26" points="283.23 836.68 324.56 844.41 324.85 891.05 278.07 883.83 283.23 836.68"/><polygon class="cls-11" points="292.69 832.99 283.23 836.68 324.49 844.13 341.57 837.88 292.69 832.99"/><polygon class="cls-15" points="283.85 825.77 274.81 828.38 259.04 822.21 270.47 819.38 283.85 825.77"/><polygon class="cls-15" points="259.04 809.72 250.36 813.6 235.14 806.11 246.7 805.29 259.04 809.72"/><polygon class="cls-15" points="270.4 802.97 259.87 806.18 246.25 799.15 260.85 797.19 270.4 802.97"/><polygon class="cls-15" points="284.48 780.16 260.51 767.24 272.66 763.61 309.62 769.97 284.48 780.16"/><polygon class="cls-14" points="274.81 991.66 274.72 828.31 284 825.77 284 780.17 301.81 773 309.55 769.95 310.6 875.43 333.49 867.22 334.47 953.68 274.81 991.66"/><path class="cls-16" d="M274.81,991.66l-.09-163.35-15-6.09.12-16-13.63-7-.2,12.33-10.82-5.41-2.06,165.23s12.12,9,16.46,11.22C255.67,985.65,274.81,991.66,274.81,991.66Z"/><polygon class="cls-16" points="284 825.77 270.57 819.51 270.31 803.1 260.85 797.19 260.51 767.24 284.48 780.06 284 825.77"/><polygon class="cls-15" points="333.49 867.22 310.48 863.4 310.8 875.29 333.49 867.22"/><polygon class="cls-18" points="377.9 898.79 377.96 901.7 427.71 917.25 427.71 914.36 377.9 898.79"/><polygon class="cls-11" points="362.05 871.73 398.47 881.84 413.84 873.79 400.26 870.3 362.05 871.73"/><polygon class="cls-12" points="362.05 871.73 398.47 881.84 398.47 950.76 382.79 952.64 379.42 918.84 362.05 919.2 362.05 871.73"/><polyline class="cls-10" points="413.84 873.79 398.47 881.84 395.79 942.15 410.2 933.7"/><polygon class="cls-11" points="467.39 933.49 477.38 936.08 483.48 930.9 473.77 927.01 467.39 933.49"/><polygon class="cls-12" points="467.39 933.49 477.38 936.08 476.27 974.92 466.39 972.76 467.39 933.49"/><polyline class="cls-23" points="483.9 930.85 477.38 936.08 476.27 974.92 482.23 969.48 483.48 930.9"/><polygon class="cls-11" points="409.21 1059.29 419.2 1060.95 425.31 1057.62 415.59 1055.13 409.21 1059.29"/><polygon class="cls-12" points="409.21 1059.29 419.2 1060.95 418.09 1085.93 408.21 1084.54 409.21 1059.29"/><polyline class="cls-11" points="425.73 1057.59 419.2 1060.95 418.09 1085.93 424.06 1082.43 425.31 1057.62"/><polygon class="cls-11" points="408.98 887.48 418.97 890.07 427.77 884.68 415.36 881 408.98 887.48"/><polygon class="cls-12" points="408.98 887.48 418.97 890.07 417.86 928.91 407.79 934.37 408.98 887.48"/><polyline class="cls-10" points="427.77 884.68 418.97 890.07 417.86 928.91 427.98 923.16"/><path class="cls-10" d="M198.65,927l8.87-6.71.72-9.3,24.31-10.54,1,27.36s-10.73,8.95-14.5,11.68c-4.74,3.44-20.22,13.17-20.22,13.17Z"/><polygon class="cls-11" points="208.23 910.97 232.55 900.43 186.8 886.44 177.29 893.24 162.82 896.67 155.32 901.32 208.23 910.97"/><polygon class="cls-27" points="156.17 939.53 155.32 901.32 208.23 910.97 207.52 920.26 207.52 920.26 176.11 944.28 156.17 939.53"/><path class="cls-28" d="M174.14,922.62,198.65,927l.21,25.66s-9.5-4.4-12.83-5.56c-2.42-.84-9.92-2.8-9.92-2.8Z"/><polygon class="cls-11" points="207.74 920.27 180.69 916.33 174.14 922.62 190 925.44 198.65 926.98 207.74 920.27"/><polygon class="cls-11" points="337.8 852.34 354.88 857.07 365.32 847.61 348.71 840.51 337.8 852.34"/><polygon class="cls-12" points="337.8 852.34 354.88 857.07 352.98 928.04 336.09 924.1 337.8 852.34"/><polyline class="cls-10" points="366.04 847.51 354.88 857.07 352.98 928.04 363.18 918.09 365.32 847.61"/><polygon class="cls-11" points="339.23 906.3 370.63 911.24 381.19 904.49 358.28 895.41 339.23 906.3"/><polygon class="cls-12" points="346.88 905.64 370.63 911.24 367.87 968.5 347.41 959.6 346.88 905.64"/><path class="cls-10" d="M381.19,904.49l-10.57,6.75-2.75,57.26s5.92-6.38,7.65-8.69c1.21-1.61,8.09-7.62,8.09-7.62l-2.42-47.71"/><polygon class="cls-29" points="380.99 944.74 383.97 1040.01 403.97 952.65 380.99 944.74"/><path class="cls-29" d="M421.27,1053.9,427,992.11l-47.54-14.72s.33,59.94.33,60c0,.33,3.89,2.5,4.22,2.66,2.61,1.27,5.19,2.61,7.83,3.82,6,2.74,12.13,4.57,18.22,6.89A102.17,102.17,0,0,0,421.27,1053.9Z"/><polygon class="cls-23" points="461.43 947.54 426.96 992.11 421.27 1053.9 447.52 1011.5 461.43 947.54"/><polygon class="cls-29" points="444.22 986.61 463.58 992.11 459.71 1028.22 441.16 1022.31 444.22 986.61"/><polygon class="cls-23" points="480.95 970.73 463.58 992.11 459.75 1027.83 477.77 1020.42 480.95 970.73"/><polygon class="cls-11" points="458.99 963.21 483.9 974.92 463.58 992.11 444.22 986.61 458.99 963.21"/><polygon class="cls-11" points="461.43 947.54 399.89 924.82 380.99 944.74 403.97 952.65 379.42 977.38 426.96 992.11 461.43 947.54"/><polygon class="cls-11" points="424.12 1022.91 452.49 1025.74 470.35 1021.5 442.62 1018.39 424.12 1022.91"/><polygon class="cls-12" points="424.12 1022.91 452.49 1025.74 450.25 1063.07 421.27 1053.9 424.12 1022.91"/><polyline class="cls-23" points="470.35 1021.5 452.49 1025.74 450.25 1063.07 463.13 1065.75 465.78 1052.82 470.35 1021.5"/><polygon class="cls-11" points="340.13 881.81 350.12 886.86 356.22 876.76 346.51 869.18 340.13 881.81"/><polygon class="cls-12" points="340.13 881.81 350.12 886.86 349 962.61 339.13 958.4 340.13 881.81"/><polyline class="cls-30" points="356.64 876.66 350.12 886.86 349 962.61 354.97 951.99 356.22 876.76"/><polygon class="cls-11" points="349.32 939 361.54 941.59 369.01 936.41 357.13 932.52 349.32 939"/><polygon class="cls-12" points="349.32 939 361.54 941.59 360.18 980.43 348.1 978.27 349.32 939"/><polyline class="cls-23" points="369.53 936.36 361.54 941.59 360.18 980.43 367.73 968.7 369.01 936.41"/><polygon class="cls-11" points="187.73 944.32 202.53 948.66 211.57 939.98 197.18 933.46 187.73 944.32"/><polyline class="cls-10" points="212.19 939.89 202.53 948.66 202.26 1048.27 208.21 1062.43 211.57 939.98"/><polygon class="cls-12" points="187.73 944.32 202.53 948.66 208.21 1062.43 185.53 1042.5 187.73 944.32"/><path class="cls-25" d="M332.74,1034.52l17.09-6.25,2.33,34.07s-6.68,5-9,6.69c-2.52,1.83-10.4,7.81-10.4,7.81Z"/><polygon class="cls-26" points="291.48 1027.07 332.81 1034.8 333.1 1081.44 286.32 1074.22 291.48 1027.07"/><polygon class="cls-11" points="300.95 1023.38 291.48 1027.07 332.74 1034.52 349.83 1028.27 300.95 1023.38"/><polygon class="cls-11" points="210.26 963.86 220.25 968.91 226.36 958.81 216.64 951.23 210.26 963.86"/><polygon class="cls-12" points="210.26 963.86 220.25 968.91 219.14 1044.66 209.27 1040.45 210.26 963.86"/><polyline class="cls-30" points="226.78 958.71 220.25 968.91 219.14 1044.66 225.11 1034.04 226.36 958.81"/><polygon class="cls-11" points="295.65 1053.05 307.87 1055.64 315.35 1050.46 303.46 1046.57 295.65 1053.05"/><polygon class="cls-12" points="295.65 1053.05 307.87 1055.64 306.52 1094.48 294.43 1092.32 295.65 1053.05"/><polyline class="cls-23" points="315.86 1050.41 307.87 1055.64 306.52 1094.48 314.06 1082.74 315.35 1050.46"/><polygon class="cls-31" points="347.64 1006.87 344.72 1134.92 321.3 1132.72 325.32 1006.14 347.64 1006.87"/><polygon class="cls-23" points="357.52 1003.58 347.64 1007.97 344.72 1134.92 354.59 1130.16 357.52 1003.58"/><polygon class="cls-31" points="379.56 1004.5 357.52 1003.58 354.59 1130.16 374.37 1130.16 379.56 1004.5"/><polygon class="cls-23" points="389.39 1002.04 379.56 1004.5 374.37 1130.16 385.02 1124.4 389.39 1002.04"/><polygon class="cls-11" points="335.17 999.59 325.61 1006.14 348.07 1007.78 357.7 1003.14 379.28 1004.49 389.66 1001.63 370 999.31 377.1 995.49 352.93 993.44 345.69 996.45 324.93 994.53 317.42 997.95 335.17 999.59"/><polygon class="cls-31" points="313.46 1123.72 315.78 997.95 335.17 999.59 325.32 1006.14 321.59 1123.59 313.46 1123.72"/><polygon class="cls-22" points="392.56 1084.48 353.81 1072.78 357.73 1128.76 394.76 1141.46 392.56 1084.48"/><polygon class="cls-23" points="404.17 1073.95 405.9 1125.76 394.76 1141.46 392.56 1084.48 404.17 1073.95"/><polygon class="cls-23" points="408.41 1075.63 414.21 1070.28 414.53 1115.9 409.35 1121.24 408.41 1075.63"/><polygon class="cls-23" points="396.64 1064.6 407.31 1068.28 413.12 1069.78 412.96 1050.23 396.64 1064.6"/><polygon class="cls-24" points="404.17 1073.95 408.41 1075.63 409.35 1121.24 405.72 1120.4 404.17 1073.95"/><polygon class="cls-11" points="353.81 1072.78 392.56 1084.48 404.17 1073.95 408.41 1075.63 414.06 1070.61 396.64 1064.6 412.96 1050.23 389.11 1044.04 353.81 1072.78"/><polygon class="cls-11" points="395.8 1097.24 405.79 1100.43 411.9 1094.05 402.19 1089.26 395.8 1097.24"/><polygon class="cls-12" points="395.8 1097.24 405.79 1100.43 404.68 1148.34 394.81 1145.68 395.8 1097.24"/><polyline class="cls-23" points="412.32 1093.98 405.79 1100.43 404.68 1148.34 410.65 1141.63 411.9 1094.05"/><polygon class="cls-11" points="639.72 1143.6 628.84 1141.94 610.35 1148.07 638.71 1151.93 639.72 1151.6 639.72 1143.6"/><polygon class="cls-12" points="637.03 1190.05 638.71 1151.93 610.35 1148.07 607.51 1190.05 637.03 1190.05"/><polygon class="cls-23" points="639.72 1151.62 638.71 1151.93 637.03 1190.05 639.72 1190.05 639.72 1151.62"/><polygon class="cls-11" points="346.4 1096.41 366.64 1099.63 379.87 1093.18 359.33 1088.36 346.4 1096.41"/><polygon class="cls-12" points="346.4 1096.41 366.64 1099.63 364.33 1149.21 344.18 1149.97 346.4 1096.41"/><polyline class="cls-23" points="379.87 1093.13 366.64 1099.63 364.39 1147.97 376.89 1133.37 379.81 1093.16"/><polygon class="cls-11" points="350.21 1125.44 375.99 1129.98 391.74 1120.9 366.68 1114.09 350.21 1125.44"/><polygon class="cls-12" points="373.46 1190.05 375.99 1129.98 350.21 1125.44 347.67 1190.05 373.46 1190.05"/><polygon class="cls-23" points="378.74 1190.05 391.12 1172.39 391.74 1120.9 391.73 1121.13 375.99 1129.98 373.46 1190.05 378.74 1190.05"/><polygon class="cls-11" points="311.48 1079.15 338.1 1086.11 355.49 1072.17 328.49 1061.77 311.48 1079.15"/><polygon class="cls-12" points="335.15 1190.05 338.1 1086.11 311.48 1079.15 308.12 1190.05 335.15 1190.05"/><polygon class="cls-23" points="354.3 1190.05 355.41 1072.12 338.1 1086.11 335.15 1190.05 354.3 1190.05"/><polygon class="cls-11" points="156.85 934.95 171.66 935.95 180.7 933.95 166.31 932.44 156.85 934.95"/><polygon class="cls-12" points="156.85 934.95 171.66 935.95 177.56 961.59 167.59 964.54 154.23 968.26 156.85 934.95"/><polyline class="cls-10" points="181.32 933.93 171.66 935.95 170.53 963.66 178.69 961.21 181.25 933.94"/><polygon class="cls-11" points="149.84 1122.44 176.45 1131.6 193.84 1113.23 166.84 1099.52 149.84 1122.44"/><polygon class="cls-12" points="175.19 1190.05 176.45 1131.6 149.84 1122.44 148.28 1190.05 175.19 1190.05"/><polygon class="cls-23" points="175.19 1190.05 193.21 1190.05 193.76 1113.17 176.45 1131.6 175.19 1190.05"/><polygon class="cls-20" points="284.84 935.32 278.97 946.93 278.97 827.13 284 825.77 284.84 935.32"/><polygon class="cls-20" points="296.55 922.6 290.67 934.21 290.67 777.35 296.13 775.55 296.55 922.6"/><polygon class="cls-20" points="307.61 909.24 301.74 920.85 302.06 772.89 306.6 771.12 307.61 909.24"/><polygon class="cls-20" points="319.33 951.1 313.46 956.26 313.03 874.72 318.85 872.7 319.33 951.1"/><polygon class="cls-20" points="330.31 949.34 324.44 954.49 324.44 870.53 329.82 868.66 330.31 949.34"/><polygon class="cls-17" points="238.22 925.54 244.1 930.69 244.1 810.72 238.83 807.92 238.22 925.54"/><polygon class="cls-17" points="249.81 928.55 255.69 934.99 255.69 804.02 250.41 801.34 249.81 928.55"/><polygon class="cls-17" points="263.52 951.19 269.39 956.99 269.39 826.7 264 824.08 263.52 951.19"/><polygon class="cls-17" points="273.64 821.1 278.81 823.35 279.71 777.52 274.13 774.53 273.64 821.1"/><polygon class="cls-17" points="262.78 798.31 267.68 801.46 268.39 771.52 262.81 768.53 262.78 798.31"/><polygon class="cls-22" points="316.58 946.33 265.23 934.64 270.43 990.62 321.99 1005.62 316.58 946.33"/><polygon class="cls-23" points="332.27 935.81 341.03 993.9 322.45 1006.25 316.88 946.33 332.27 935.81"/><polygon class="cls-23" points="337.57 937.48 345.26 932.13 353.81 987.54 340.44 994.53 337.57 937.48"/><polygon class="cls-23" points="321.98 926.45 336.12 930.13 343.81 931.63 343.6 912.08 321.98 926.45"/><polygon class="cls-24" points="331.96 935.81 337.57 937.48 340.44 994.53 335.72 997.76 331.96 935.81"/><polygon class="cls-11" points="265.23 934.64 316.58 946.33 331.96 935.81 337.57 937.48 345.06 932.47 321.98 926.45 343.6 912.08 312 905.9 265.23 934.64"/><polygon class="cls-11" points="351.32 967.82 387.74 973.98 403.11 969.08 390.74 970.75 351.32 967.82"/><polyline class="cls-10" points="391.4 971.2 381.47 973.01 380.72 1006.78 388.18 1009.5"/><path class="cls-12" d="M351.32,967.82l30.12,5.1-.58,33.87-15.4-5.64-16-5.81Z"/><rect class="cls-17" x="585.06" y="841.61" width="12.46" height="2.05"/><polygon class="cls-14" points="593.6 914.56 574.06 938.09 572.26 937.61 591.99 914.2 593.6 914.56"/><line class="cls-26" x1="566.11" y1="958.41" x2="549" y2="955.48"/><polygon class="cls-11" points="597.02 713.57 624.8 714.71 632.03 717.94 623 722.99 619 722.22 610.15 722.21 594.46 721.08 594.46 718.99 587.89 717.85 597.02 713.57"/><polygon class="cls-10" points="619.79 756.87 637.32 749.51 634.64 864.39 617.72 881.61 619.79 756.87"/><polygon class="cls-13" points="619.88 739.64 586.76 732.28 583.33 860.51 617.82 882.23 619.88 739.64"/><polygon class="cls-10" points="635.36 733.77 615.12 738.78 619.79 766.39 631.97 760.49 635.36 733.77"/><polygon class="cls-13" points="593.22 720.89 592.93 737.04 619 739.05 619 722.22 593.22 720.89"/><polygon class="cls-10" points="587.89 717.85 594.27 718.51 594.17 737.45 587.32 734.69 587.89 717.85"/><polygon class="cls-10" points="587.04 732.5 584.37 732.98 583.33 860.55 617.03 881.8 587.04 732.5"/><polygon class="cls-10" points="612.53 712.9 612.34 719.94 618.81 717.18 618.81 710.33 612.53 712.9"/><polygon class="cls-11" points="604.73 712.14 612.53 712.9 619 710.05 611.39 709.67 604.73 712.14"/><polygon class="cls-11" points="618.24 735.69 622.62 738.5 635.36 733.91 624.9 733.22 618.24 735.69"/><polygon class="cls-13" points="603.78 719.47 603.68 712.24 612.53 712.9 612.34 719.94 603.78 719.47"/><polygon class="cls-26" points="622.24 738.49 622.62 722.99 619 722.22 618.24 738.78 622.24 738.49"/><polygon class="cls-10" points="628.88 734.29 632.41 717.85 622.44 722.97 622.35 737.04 628.88 734.29"/><polygon class="cls-11" points="637.47 749.78 632.03 745.57 632.07 751.86 637.47 749.78"/><polygon class="cls-11" points="622.38 735.9 615.06 738.78 623.41 741.66 622.38 735.9"/><polygon class="cls-11" points="594.19 732.82 587.41 732.02 584.37 732.98 594.33 738.04 594.19 732.82"/><polygon class="cls-11" points="521.64 754.11 548.48 747.84 572.01 736.21 542.32 741.64 521.64 754.11"/><polygon class="cls-10" points="552.52 854.69 548.48 747.84 572.96 736.4 578.01 836.1 552.52 854.69"/><polygon class="cls-13" points="530.01 859.51 520.97 753.61 548.48 747.84 552.52 854.69 530.01 859.51"/><polygon class="cls-10" points="510.32 763.99 519.68 853.8 530.14 860.02 521.16 761.84 510.32 763.99"/><polygon class="cls-11" points="520.94 757.22 510.32 763.99 521.16 761.84 520.94 757.22"/><polygon class="cls-16" points="509.79 825.28 534.91 831.81 537.98 794.49 557.23 799.6 554.72 820.42 602.7 831.02 590.86 939.16 507.3 870.3 509.79 825.28"/><polygon class="cls-15" points="566.71 785.57 557.23 799.71 537.98 794.6 549.7 781.25 566.71 785.57"/><polygon class="cls-15" points="525.26 813.07 536.18 816.21 535.21 831.81 510.17 825.42 525.26 813.07"/><polygon class="cls-15" points="566.11 802.93 554.72 820.53 602.7 831.13 614.98 813.06 566.11 802.93"/><polygon class="cls-14" points="614.98 813.06 609.96 864.92 594.02 904.04 602.7 831.13 614.98 813.06"/><polygon class="cls-12" points="510.84 865.2 520.88 867.08 519.77 895.19 509.29 894.48 510.84 865.2"/><path class="cls-26" d="M639.72,797.77,624,910.42s9.23-10.46,15.74-19.13Z"/><polygon class="cls-32" points="525.05 1003.87 538.79 1008.18 531.92 1014.13 520.03 1010.87 525.05 1003.87"/><polygon class="cls-12" points="593.29 874.18 603.28 876.98 602.17 919.07 592.29 916.74 593.29 874.18"/><polyline class="cls-30" points="609.81 871.31 603.28 876.98 602.17 919.07 608.13 913.17 609.38 871.37"/><polygon class="cls-11" points="508.53 896.66 518.52 898.32 524.63 894.99 514.92 892.5 508.53 896.66"/><polygon class="cls-12" points="508.53 896.66 518.52 898.32 517.41 923.3 507.54 921.91 508.53 896.66"/><polyline class="cls-30" points="524.63 894.99 518.52 898.32 517.41 923.3 530.73 908.54 524.63 894.99"/><polygon class="cls-11" points="212.3 946.32 227.1 947.32 236.15 945.32 221.76 943.81 212.3 946.32"/><polygon class="cls-12" points="212.3 946.32 227.1 947.32 232.79 973.56 210.82 961.51 212.3 946.32"/><polyline class="cls-10" points="236.77 945.29 227.1 947.32 226.84 970.3 232.79 973.56 236.15 945.32"/><polygon class="cls-11" points="185.47 866.21 202.16 867.22 215.27 865.19 196.82 863.71 185.47 866.21"/><path class="cls-12" d="M185.47,866.21l22.76.07-1.12,23.79s-8.62-3.24-11.47-4.4c-2.46-1-10.17-4.63-10.17-4.63Z"/><polyline class="cls-10" points="215.27 865.19 208.23 866.28 207.12 890.07 214.63 891.9 215.27 865.19"/><polygon class="cls-11" points="494.53 874.56 504.52 877.42 510.78 871.82 500.92 867.41 494.53 874.56"/><polygon class="cls-12" points="494.53 874.56 504.52 877.42 503.41 920.36 493.54 917.97 494.53 874.56"/><polyline class="cls-30" points="510.63 871.82 504.52 877.42 503.41 920.36 509.38 914.34 510.63 871.7"/><polygon class="cls-16" points="481.35 992.29 483.04 922.03 575.71 945.77 576.41 1019.08 481.35 992.29"/><polygon class="cls-22" points="81.35 917.09 78.22 863.44 129.09 874.1 133.57 943.84 81.35 917.09"/><polygon class="cls-30" points="148.47 867.19 129.39 874.1 133.59 944.46 155.29 935.95 148.47 867.19"/><polygon class="cls-11" points="76.02 864.27 82.1 863.62 100.17 862.08 104.92 855.87 148.47 867.19 129.39 874.1 76.02 864.27"/><polygon class="cls-22" points="478.63 1069.02 489.85 1009.64 538.79 1020.42 533.41 1081.17 478.63 1069.02"/><polygon class="cls-32" points="538.79 1020.42 551.22 1010.67 561.57 1044.67 533.41 1081.17 538.79 1020.42"/><polygon class="cls-22" points="563.86 1013.18 551.09 1010.17 552.86 1055.96 561.57 1044.67 563.86 1013.18"/><polygon class="cls-30" points="573.55 1003.87 563.86 1013.18 561.57 1044.67 576.01 1018.83 573.55 1003.87"/><polygon class="cls-12" points="464.46 958.41 477.76 965.27 476.28 1068.23 462.4 1065.6 464.46 958.41"/><polygon class="cls-11" points="435.93 1067.75 445.92 1070.4 452.02 1065.11 442.31 1061.14 435.93 1067.75"/><polygon class="cls-12" points="435.93 1067.75 445.92 1070.4 444.81 1110.06 434.93 1107.85 435.93 1067.75"/><polyline class="cls-30" points="452.02 1065.11 445.92 1070.4 444.81 1110.06 458.13 1086.62 452.02 1065.11"/><polygon class="cls-11" points="422.66 1050.23 432.65 1054.32 438.75 1046.14 429.04 1040.01 422.66 1050.23"/><polygon class="cls-12" points="422.66 1050.23 432.65 1054.32 431.54 1115.64 421.66 1112.23 422.66 1050.23"/><polyline class="cls-30" points="439.18 1046.06 432.65 1054.32 431.54 1115.64 437.5 1107.04 438.75 1046.14"/><polygon class="cls-11" points="413.51 1078.59 423.5 1081.45 429.61 1075.73 419.9 1071.43 413.51 1078.59"/><polygon class="cls-12" points="413.51 1078.59 423.5 1081.45 422.39 1124.39 412.52 1122 413.51 1078.59"/><polyline class="cls-30" points="430.03 1075.67 423.5 1081.45 422.39 1124.39 428.36 1118.37 429.61 1075.73"/><polygon class="cls-11" points="452.99 1047.44 491.99 1051.6 527.43 1042.83 477.91 1037.04 452.99 1047.44"/><polygon class="cls-12" points="452.99 1047.44 491.99 1051.6 489.85 1127.09 448.05 1117.02 452.99 1047.44"/><polyline class="cls-23" points="527.43 1042.83 491.99 1051.6 489.3 1126.81 496.86 1117.77 522.46 1086.75 527.43 1042.83"/><polygon class="cls-12" points="611.13 913.73 614.2 914.19 611.56 932.17 610.74 921.94 611.13 913.73"/><polygon class="cls-11" points="611.13 913.73 613.83 914.13 616.59 912.46 613.52 911.75 611.13 913.73"/><polygon class="cls-10" points="630 850.24 638.51 845.58 627.82 908.8 618.46 922.76 630 850.24"/><polygon class="cls-11" points="624.45 843.95 638.51 845.58 629.98 849.9 610.8 848.58 624.45 843.95"/><polygon class="cls-26" points="600.78 919.24 618.46 922.76 629.98 849.9 610.8 848.58 600.78 919.24"/><polygon class="cls-11" points="639.72 900.09 633.33 898.16 622.42 906.5 639.5 909.83 639.72 909.69 639.72 900.09"/><polygon class="cls-12" points="622.42 906.5 639.5 909.83 637.6 959.81 620.72 957.04 622.42 906.5"/><polygon class="cls-10" points="639.72 909.69 639.5 909.83 637.6 959.81 639.72 958.36 639.72 909.69"/><polygon class="cls-12" points="597.49 907.14 605.99 916.21 598.21 955.49 594.29 968.08 597.49 907.14"/><path class="cls-30" d="M616.59,914.2,606,916.28l-8.69,43.12s6.17-12.91,8-16.77c.91-1.88,10.29-16.27,10.29-16.27l1-12.16"/><polygon class="cls-11" points="597.49 907.22 605.98 916.28 616.65 914.29 609.23 910.15 597.49 907.22"/><polygon class="cls-26" points="639.72 946.01 617.14 941.78 611.98 988.93 639.72 993.22 639.72 946.01"/><polygon class="cls-11" points="639.72 939.4 626.6 938.09 617.14 941.78 639.72 945.86 639.72 939.4"/><polygon class="cls-11" points="604.33 968.41 622.6 970.16 633.76 966.65 616 964.02 604.33 968.41"/><polygon class="cls-12" points="604.33 968.41 622.6 970.16 629.62 1016.17 601.61 1008.12 604.33 968.41"/><polyline class="cls-10" points="634.53 966.62 622.6 970.16 622.27 1010.45 629.62 1016.17 633.76 966.65"/><polygon class="cls-13" points="639.72 980.79 628.02 978.63 625.24 1004.84 639.72 1008.3 639.72 980.79"/><polygon class="cls-2" points="639.72 967.98 637.77 967.52 628.02 978.63 639.72 980.79 639.72 967.98"/><polygon class="cls-11" points="639.72 997.23 639.35 997.13 632.06 1001.88 639.72 1003.16 639.72 997.23"/><polygon class="cls-12" points="639.72 1003.16 632.06 1001.88 630.92 1030.72 639.72 1031.96 639.72 1003.16"/><polygon class="cls-11" points="639.72 1029.93 634.73 1031.88 639.72 1032.68 639.72 1029.93"/><polygon class="cls-12" points="639.72 1032.68 634.73 1031.88 631.88 1081.53 639.72 1085.51 639.72 1032.68"/><polygon class="cls-22" points="607.79 1044.53 564.93 1034.25 567.85 1093.53 610.82 1104.85 607.79 1044.53"/><polygon class="cls-23" points="623.79 1033.38 626.17 1088.22 610.82 1104.85 607.79 1044.53 623.79 1033.38"/><polygon class="cls-23" points="629.62 1035.15 637.62 1029.49 638.05 1077.78 630.92 1083.44 629.62 1035.15"/><polygon class="cls-23" points="613.41 1023.47 628.11 1027.37 637.07 1034.43 635.89 1008.26 613.41 1023.47"/><polygon class="cls-24" points="623.79 1033.38 629.62 1035.15 630.92 1083.44 625.92 1082.56 623.79 1033.38"/><polygon class="cls-11" points="564.93 1034.58 607.79 1044.53 623.79 1033.38 629.62 1035.15 637.62 1029.58 613.41 1023.47 635.89 1008.26 594.07 997.76 564.93 1034.58"/><polygon class="cls-11" points="639.72 1071.76 636.13 1070.28 626.61 1079.43 612.15 1084.06 604.64 1090.32 639.72 1098.94 639.72 1071.76"/><polygon class="cls-27" points="639.72 1098.94 604.64 1090.32 605.5 1141.79 625.44 1148.18 639.72 1133.47 639.72 1098.94"/><path class="cls-28" d="M639.72,1122.91l-16.25-3.9,2,29.17s7.5,2.64,9.92,3.78c1,.48,2.63,1.37,4.36,2.38Z"/><polygon class="cls-11" points="639.72 1112.44 630.01 1110.54 623.47 1119.01 639.32 1122.81 639.72 1122.91 639.72 1112.44"/><polygon class="cls-11" points="0 888.29 0 899.8 8.15 901.1 28.42 893.39 0 888.29"/><polygon class="cls-12" points="0 899.8 0 966.14 5.61 968.98 8.15 901.1 0 899.8"/><polyline class="cls-23" points="28.42 893.39 8.15 901.1 5.61 968.98 28.77 937.58 28.42 893.39"/><polygon class="cls-31" points="53.86 899.44 50.54 999.21 23.97 997.5 28.54 898.87 53.86 899.44"/><polygon class="cls-23" points="65.08 896.88 53.86 900.3 50.54 999.21 61.75 995.51 65.08 896.88"/><polygon class="cls-31" points="90.08 897.6 65.08 896.88 61.75 995.51 84.19 995.51 90.08 897.6"/><polygon class="cls-23" points="101.24 895.68 90.08 897.6 84.19 995.51 96.28 991.02 101.24 895.68"/><polygon class="cls-11" points="39.71 893.77 28.86 898.88 54.35 900.15 65.28 896.53 89.77 897.59 101.55 895.36 79.23 893.55 87.29 890.58 59.86 888.98 51.65 891.32 28.09 889.83 19.56 892.49 39.71 893.77"/><polygon class="cls-31" points="15.07 990.49 17.7 892.49 39.71 893.77 28.54 898.87 24.3 990.39 15.07 990.49"/><path class="cls-10" d="M29.47,960.92,1.87,977l-.81,14.21L0,992.32v40.93c5.22-4.5,11.37-9.88,14.18-12.63,4.27-4.18,16.45-17.86,16.45-17.86Z"/><polygon class="cls-11" points="0 948.78 0 976.57 1.87 977.02 29.47 960.92 0 948.78"/><polygon class="cls-27" points="0 976.57 0 992.33 1.06 991.24 1.87 977.02 0 976.57"/><polygon class="cls-11" points="0 992.54 1.31 991.24 0 990.98 0 992.54"/><polygon class="cls-22" points="89 992.13 45.01 974.09 49.46 1060.43 91.49 1080.02 89 992.13"/><polygon class="cls-23" points="102.17 975.89 104.13 1055.79 91.49 1080.02 89 992.13 102.17 975.89"/><polygon class="cls-23" points="106.98 978.47 113.57 970.22 113.92 1040.58 108.05 1048.83 106.98 978.47"/><polygon class="cls-23" points="93.62 961.46 105.73 967.14 112.32 969.45 112.14 939.29 93.62 961.46"/><polygon class="cls-24" points="102.17 975.89 106.98 978.47 108.05 1048.83 103.93 1047.53 102.17 975.89"/><polygon class="cls-11" points="45.01 974.09 89 992.13 102.17 975.89 106.98 978.47 113.39 970.74 93.62 961.46 112.14 939.29 85.08 929.75 45.01 974.09"/><path class="cls-25" d="M472.36,1190.05c7.78-15.8,17.34-51.45,17.34-51.45l-14.05-31.37-35.12,26.26,2.28,56.56Z"/><polygon class="cls-26" points="442.79 1190.05 440.63 1134 375.52 1120.32 368.72 1190.05 442.79 1190.05"/><polygon class="cls-11" points="390.43 1113.8 375.52 1120.32 440.52 1133.49 474.94 1107.76 390.43 1113.8"/><path class="cls-25" d="M577.11,1099.43l17.09-6.25,2.33,34.07s-6.68,5-9,6.69c-2.52,1.83-10.4,7.81-10.4,7.81Z"/><polygon class="cls-16" points="535.85 1091.98 577.18 1099.72 575.7 1154.46 530.69 1139.14 535.85 1091.98"/><polygon class="cls-15" points="545.31 1088.3 535.85 1091.98 577.11 1099.43 594.19 1093.18 545.31 1088.3"/><polygon class="cls-10" points="624.77 1190.05 612.54 1054.51 588.72 1068.72 601.67 1190.05 624.77 1190.05"/><polygon class="cls-13" points="603.49 1190.05 589.03 1062.71 554.82 1047.54 562.32 1190.05 603.49 1190.05"/><polygon class="cls-10" points="270.32 968.31 279.4 964.62 281.81 1009.3 276.36 1012.69 273.99 1012.21 270.32 968.31"/><polygon class="cls-11" points="279.4 964.62 270.33 968.42 258.24 966.16 279.4 964.62"/><path class="cls-13" d="M260.53,1007.37s5,2.69,6.74,3.32c1.61.57,6.71,1.52,6.71,1.52l-3.56-43.83-12.26-2.21Z"/><polygon class="cls-11" points="185.53 947.64 179.43 945.68 173.75 946.24 185.53 947.64"/><polygon class="cls-13" points="175.05 962.41 181.84 960.2 179.48 945.65 173.71 946.25 175.05 962.41"/><polygon class="cls-10" points="286.14 969.61 295.21 965.92 297.63 1010.6 292.18 1013.99 289.8 1013.51 286.14 969.61"/><polygon class="cls-11" points="295.21 965.92 286.14 969.72 274.06 967.46 295.21 965.92"/><path class="cls-13" d="M276.35,1008.67s5,2.69,6.74,3.32c1.61.57,6.71,1.52,6.71,1.52l-3.56-43.83L274,967.46Z"/><polygon class="cls-10" points="272.06 975.8 281.14 972.12 283.56 1016.79 278.1 1020.19 275.73 1019.71 272.06 975.8"/><polygon class="cls-11" points="281.14 972.12 272.07 975.91 259.99 973.66 281.14 972.12"/><path class="cls-13" d="M262.28,1014.87s5,2.69,6.74,3.32c1.61.57,6.71,1.52,6.71,1.52l-3.56-43.83-12.26-2.21Z"/><polygon class="cls-11" points="232.65 899.38 253.97 900.26 259.52 902.74 252.59 906.61 249.52 906.03 242.73 906.02 230.68 905.15 230.68 903.55 225.65 902.67 232.65 899.38"/><polygon class="cls-10" points="250.12 932.62 263.58 926.97 261.53 1015.14 248.54 1028.36 250.12 932.62"/><polygon class="cls-13" points="250.2 919.39 224.78 913.75 222.14 1012.16 248.61 1028.84 250.2 919.39"/><polygon class="cls-10" points="262.08 914.89 246.54 918.73 250.12 939.93 259.48 935.4 262.08 914.89"/><polygon class="cls-13" points="229.74 905.01 229.51 917.4 249.52 918.94 249.52 906.03 229.74 905.01"/><polygon class="cls-10" points="225.65 902.67 230.54 903.18 230.46 917.71 225.21 915.59 225.65 902.67"/><polygon class="cls-10" points="224.99 913.91 222.94 914.28 222.14 1012.2 248.01 1028.5 224.99 913.91"/><polygon class="cls-10" points="244.56 898.87 244.41 904.28 249.38 902.16 249.38 896.9 244.56 898.87"/><polygon class="cls-11" points="238.57 898.29 244.56 898.87 249.52 896.68 243.68 896.39 238.57 898.29"/><polygon class="cls-11" points="248.94 916.37 252.3 918.52 262.08 915 254.05 914.47 248.94 916.37"/><polygon class="cls-13" points="237.84 903.91 237.76 898.36 244.56 898.87 244.41 904.28 237.84 903.91"/><polygon class="cls-26" points="252 918.51 252.3 906.61 249.52 906.03 248.94 918.73 252 918.51"/><polygon class="cls-10" points="257.1 915.29 259.82 902.67 252.16 906.6 252.09 917.4 257.1 915.29"/><polygon class="cls-11" points="263.69 927.18 259.52 923.95 259.55 928.77 263.69 927.18"/><polygon class="cls-11" points="252.12 916.52 246.5 918.73 252.91 920.94 252.12 916.52"/><polygon class="cls-11" points="230.48 914.16 225.28 913.55 222.94 914.28 230.59 918.17 230.48 914.16"/><polygon class="cls-11" points="275.14 987.29 287.37 989.88 294.84 984.7 282.95 980.81 275.14 987.29"/><polygon class="cls-12" points="275.14 987.29 287.37 989.88 286.01 1028.72 273.92 1026.56 275.14 987.29"/><polyline class="cls-23" points="295.35 984.64 287.37 989.88 286.01 1028.72 315.19 1009.91 294.84 984.7"/><polygon class="cls-11" points="231.12 996.21 267.54 1003.22 282.9 997.64 269.32 995.22 231.12 996.21"/><polygon class="cls-12" points="231.12 996.21 267.54 1003.22 264.86 1045.06 251.85 1052.34 248.49 1028.89 231.12 1029.13 231.12 996.21"/><polyline class="cls-10" points="282.9 997.64 267.54 1003.22 264.86 1045.06 286.01 1029.49"/><polygon class="cls-11" points="225.23 983.7 242.31 988.43 252.75 978.97 236.14 971.88 225.23 983.7"/><polygon class="cls-12" points="225.23 983.7 242.31 988.43 240.41 1059.4 223.52 1055.46 225.23 983.7"/><polyline class="cls-10" points="253.47 978.88 242.31 988.43 240.41 1059.4 252.75 1051.14 252.75 978.97"/><polygon class="cls-10" points="19.26 990.97 18.09 1022.98 4.9 1054.99 5.74 1005.11 19.26 990.97"/><polygon class="cls-22" points="0 1058.74 104.68 1087.36 102.31 1009.78 0 983.58 0 1058.74"/><path class="cls-30" d="M137.23,968l-34.92,41.82,2.4,78.48S117.08,1054,120,1045.9c3.05-8.42,16.91-17.1,16.91-17.1Z"/><polygon class="cls-11" points="56.28 959.42 36.72 974.76 17.74 970.68 0 981.15 0 983.58 102.31 1009.78 136.85 968.42 56.28 959.42"/><polygon class="cls-11" points="80.19 1050.93 91.52 1056.48 98.45 1045.39 87.43 1037.07 80.19 1050.93"/><polygon class="cls-12" points="80.19 1050.93 91.52 1056.48 90.26 1139.65 79.06 1135.03 80.19 1050.93"/><polyline class="cls-30" points="98.93 1045.27 91.52 1056.48 90.26 1139.65 97.03 1127.99 98.45 1045.39"/><polygon class="cls-11" points="28.21 1032.91 61.56 1039.5 81.95 1026.32 49.52 1016.44 28.21 1032.91"/><polygon class="cls-12" points="28.21 1032.91 61.56 1039.5 57.86 1138.32 24.89 1132.83 28.21 1032.91"/><polyline class="cls-30" points="83.35 1026.19 61.56 1039.5 57.86 1138.32 77.77 1124.46 81.95 1026.32"/><polygon class="cls-11" points="142.68 1110.94 139.22 1109.55 128.31 1120.68 142.68 1124.43 142.68 1110.94"/><polygon class="cls-12" points="142.68 1190.05 142.68 1124.43 128.31 1120.68 126.61 1188.23 134.87 1190.05 142.68 1190.05"/><polygon class="cls-26" points="136.11 1038.44 111.69 1033.34 105.83 1093.12 136.11 1098.34 136.11 1038.44"/><polygon class="cls-11" points="136.11 1030.19 122.43 1028.66 111.69 1033.34 136.11 1038.26 136.11 1030.19"/><polygon class="cls-11" points="87.2 1090.83 112.37 1100.15 127.75 1081.51 112.37 1072.73 87.2 1090.83"/><polygon class="cls-12" points="110.57 1190.05 112.37 1100.15 87.2 1090.83 85.43 1190.05 110.57 1190.05"/><polygon class="cls-10" points="124.15 1190.05 127.75 1081.51 110.92 1100.15 109.12 1190.05 124.15 1190.05"/><polygon class="cls-31" points="88.15 1190.05 89.04 1142.63 61 1141.52 59.73 1190.05 88.15 1190.05"/><polygon class="cls-23" points="100.46 1190.05 101.46 1137.61 89.04 1144.3 88.17 1190.05 100.46 1190.05"/><polygon class="cls-31" points="127.41 1190.05 129.15 1139.03 101.46 1137.61 100.46 1190.05 127.41 1190.05"/><polygon class="cls-23" points="136.19 1190.05 136.19 1136.89 129.15 1139.03 127.41 1190.05 136.19 1190.05"/><polygon class="cls-11" points="136.19 1133.85 117.13 1131.12 126.06 1125.3 95.68 1122.18 86.59 1126.76 60.5 1123.84 51.06 1129.04 73.37 1131.54 61.36 1141.53 89.58 1144.01 101.69 1136.95 128.8 1139.01 136.19 1136.54 136.19 1133.85"/><polygon class="cls-31" points="59.73 1190.05 61 1141.52 73.37 1131.54 49 1129.04 48.07 1190.05 59.73 1190.05"/><polygon class="cls-11" points="612.54 1052.85 588.78 1064.07 553.43 1048.32 612.54 1052.85"/><polygon class="cls-11" points="469.06 1177.14 494.83 1187.72 510.58 1166.55 485.52 1150.67 469.06 1177.14"/><polygon class="cls-12" points="494.79 1190.05 494.83 1187.72 469.06 1177.14 468.84 1190.05 494.79 1190.05"/><polygon class="cls-23" points="510.46 1190.05 510.58 1166.55 510.57 1167.1 494.83 1187.72 494.79 1190.05 510.46 1190.05"/><polygon class="cls-11" points="162.1 1014.47 211.85 1020.07 235.33 1011.62 185.99 1004.25 162.1 1014.47"/><polygon class="cls-12" points="162.1 1014.47 213.2 1018.37 207.06 1079.27 168.42 1103.87 162.1 1014.47"/><path class="cls-10" d="M235.33,1011.62l-22.13,6.75-6.14,60.9,17-10.85c2.54-1.61,16.33-9.09,16.33-9.09l-5.07-47.71"/><polygon class="cls-11" points="251.87 1025.81 283.26 1031.38 293.83 1023.76 270.92 1013.51 251.87 1025.81"/><polygon class="cls-12" points="252.04 1025.25 283.26 1031.38 280.51 1096.02 260.05 1085.97 252.04 1025.25"/><path class="cls-10" d="M293.83,1023.76l-10.57,7.62L280.51,1096s5.92-7.2,7.65-9.8c1.21-1.82,8.09-8.6,8.09-8.6l-2.42-53.86"/><polygon class="cls-22" points="270.87 1190.05 266.02 1131.31 184.9 1110.87 191.54 1190.05 270.87 1190.05"/><polygon class="cls-23" points="301.33 1190.05 290.81 1112.91 266.5 1131.31 271.44 1190.05 301.33 1190.05"/><polygon class="cls-23" points="322.99 1190.05 311.34 1106.48 299.19 1115.83 302.56 1190.05 322.99 1190.05"/><polygon class="cls-23" points="274.56 1096.55 296.89 1102.99 309.05 1105.61 308.72 1071.44 274.56 1096.55"/><polygon class="cls-24" points="302.56 1190.05 299.19 1115.83 290.32 1112.91 294.56 1190.05 302.56 1190.05"/><polygon class="cls-11" points="184.9 1110.87 266.02 1131.31 290.32 1112.91 299.19 1115.83 311.02 1107.07 274.56 1096.55 308.72 1071.44 258.8 1060.63 184.9 1110.87"/><polygon class="cls-31" points="143.82 943.06 146.4 1088.41 119.75 1087 118.48 943.26 143.82 943.06"/><polygon class="cls-23" points="154.87 938.87 143.87 944.31 146.4 1088.41 157.38 1082.56 154.87 938.87"/><polygon class="cls-31" points="179.9 938.91 154.87 938.87 157.38 1082.56 179.81 1081.65 179.9 938.91"/><polygon class="cls-23" points="190.94 935.67 179.9 938.91 179.81 1081.65 191.62 1074.63 190.94 935.67"/><polygon class="cls-11" points="129.34 935.38 118.8 943.26 144.34 944.08 155.06 938.37 179.58 938.91 191.23 935.19 168.82 933.47 176.7 928.8 149.19 927.59 141.12 931.33 117.49 930.12 109.13 934.34 129.34 935.38"/><polygon class="cls-31" points="110.44 1077.15 107.28 934.42 129.34 935.38 118.48 943.26 119.66 1076.63 110.44 1077.15"/><polygon class="cls-11" points="145.55 1067.78 170.8 1068.88 186.23 1066.68 161.68 1065.02 145.55 1067.78"/><polygon class="cls-12" points="145.55 1067.78 170.8 1068.88 180.87 1097.08 163.86 1100.32 141.06 1104.41 145.55 1067.78"/><polyline class="cls-10" points="187.3 1066.65 170.8 1068.88 168.88 1099.35 182.8 1096.66 187.16 1066.67"/><polygon class="cls-11" points="138.01 1077.12 162.14 1096.13 176.88 1077.31 153.43 1063.19 138.01 1077.12"/><polygon class="cls-12" points="160.36 1190.05 162.14 1096.13 138.01 1077.12 136.24 1190.05 160.36 1190.05"/><polygon class="cls-32" points="174.46 1190.05 176.86 1078.37 162.14 1096.13 160.36 1190.05 174.46 1190.05"/><polygon class="cls-14" points="566.71 785.57 566.11 802.93 554.72 820.53 557.23 799.71 566.71 785.57"/><polygon class="cls-33" points="572.81 875.66 563.71 873.62 564.09 870.57 573.37 872.57 572.81 875.66"/><polygon class="cls-11" points="535.32 882.77 541.33 874.23 546.17 875.4 545.39 885.67 535.32 882.77"/><polygon class="cls-16" points="559.35 831.35 558.88 831.23 559.54 826.47 560.02 826.56 559.35 831.35"/><polygon class="cls-16" points="557.46 843.84 556.99 843.72 557.65 838.95 558.13 839.05 557.46 843.84"/><polygon class="cls-16" points="586.84 863.68 586.37 863.56 587.03 858.8 587.51 858.89 586.84 863.68"/><polygon class="cls-16" points="570.88 859.97 570.41 859.85 571.07 855.08 571.54 855.18 570.88 859.97"/><polygon class="cls-16" points="555.41 856.06 554.94 855.95 555.61 851.18 556.08 851.27 555.41 856.06"/><polygon class="cls-16" points="540.67 848.16 540.2 848.05 540.87 843.28 541.34 843.38 540.67 848.16"/><polygon class="cls-16" points="543.35 833.59 542.88 833.47 543.54 828.7 544.01 828.8 543.35 833.59"/><polygon class="cls-16" points="547.06 806.47 546.59 806.35 547.26 801.58 547.73 801.68 547.06 806.47"/><g class="cls-34"><g class="cls-35"><polygon class="cls-36" points="538.52 808.93 539.46 798.21 554.66 801.84 553.38 812.47 538.52 808.93"/><path class="cls-16" d="M539.86,798.77l14.3,3.42L553,811.92l-14-3.33.86-9.82m-.8-1.11-1,11.62L553.76,813l1.39-11.52-16.08-3.84Z"/></g><polygon class="cls-16" points="546.38 810.17 545.68 810.02 546.72 799.39 547.74 799.73 546.38 810.17"/></g><g class="cls-34"><g class="cls-35"><polygon class="cls-36" points="537.46 831.8 538.25 821.61 552.74 824.76 551.78 835.14 537.46 831.8"/><path class="cls-16" d="M538.65,822.15l13.6,3-.87,9.48-13.45-3.14.72-9.3m-.81-1.09L537,832.15l15.19,3.55,1-11.28-15.37-3.35Z"/></g><polygon class="cls-16" points="545.32 833.06 544.62 832.91 545.18 822.4 546.13 822.64 545.32 833.06"/></g><g class="cls-37"><polygon class="cls-36" points="558.19 836.82 558.98 826.63 573.47 829.78 572.51 840.16 558.19 836.82"/><path class="cls-16" d="M559.39,827.17l13.6,3-.87,9.48-13.45-3.14.72-9.3m-.81-1.09-.86,11.08,15.19,3.55,1-11.28-15.37-3.35Z"/></g><polygon class="cls-16" points="566.05 838.08 565.35 837.93 565.91 827.42 566.87 827.65 566.05 838.08"/><g class="cls-37"><polygon class="cls-36" points="579.95 841.61 580.74 831.42 595.23 834.58 594.27 844.96 579.95 841.61"/><path class="cls-16" d="M581.14,832l13.6,3-.87,9.48-13.45-3.14.72-9.3m-.81-1.09L579.47,842l15.19,3.55,1-11.28-15.37-3.35Z"/></g><polygon class="cls-38" points="587.81 842.87 587.11 842.73 587.67 832.21 588.62 832.45 587.81 842.87"/><g class="cls-34"><g class="cls-35"><polygon class="cls-36" points="578.03 859.29 578.82 849.1 593.31 852.25 592.35 862.63 578.03 859.29"/><path class="cls-16" d="M579.23,849.64l13.6,3-.87,9.48-13.45-3.14.72-9.3m-.81-1.09-.86,11.08,15.19,3.55,1-11.28-15.37-3.35Z"/></g><polygon class="cls-16" points="585.89 860.55 585.19 860.4 585.75 849.89 586.7 850.13 585.89 860.55"/></g><g class="cls-34"><g class="cls-35"><polygon class="cls-36" points="576.31 877.79 577.1 867.6 591.59 870.76 590.63 881.14 576.31 877.79"/><path class="cls-16" d="M577.51,868.15l13.6,3-.87,9.48-13.45-3.14.72-9.3m-.81-1.09-.86,11.08L591,881.69l1-11.28-15.37-3.35Z"/></g><polygon class="cls-16" points="584.17 879.05 583.47 878.91 584.03 868.39 584.99 868.63 584.17 879.05"/></g><g class="cls-34"><g class="cls-35"><polygon class="cls-36" points="557.14 854.68 557.93 844.49 572.42 847.65 571.46 858.03 557.14 854.68"/><path class="cls-16" d="M558.34,845l13.6,3-.87,9.48-13.45-3.14.72-9.3m-.81-1.09L556.67,855l15.19,3.55,1-11.28-15.37-3.35Z"/></g><polygon class="cls-16" points="565 855.94 564.3 855.8 564.86 845.28 565.82 845.52 565 855.94"/></g><g class="cls-34"><g class="cls-35"><polygon class="cls-36" points="555.16 873.15 555.95 862.96 570.44 866.11 569.48 876.49 555.16 873.15"/><path class="cls-16" d="M556.36,863.5l13.6,3-.87,9.48-13.45-3.14.72-9.3m-.81-1.09-.86,11.08L569.88,877l1-11.28-15.37-3.35Z"/></g><polygon class="cls-16" points="563.02 874.41 562.32 874.26 562.88 863.75 563.83 863.99 563.02 874.41"/><polygon class="cls-33" points="571.17 877.42 553.69 873.34 553.72 870.82 571.39 874.5 571.17 877.42"/></g><g class="cls-34"><g class="cls-35"><polygon class="cls-36" points="535.37 849.72 536.16 839.53 550.64 842.68 549.69 853.06 535.37 849.72"/><path class="cls-16" d="M536.56,840.07l13.6,3-.87,9.48-13.45-3.14.72-9.3m-.81-1.09-.86,11.08,15.19,3.55,1-11.28L535.75,839Z"/></g><polygon class="cls-16" points="543.23 850.98 542.53 850.83 543.09 840.32 544.04 840.56 543.23 850.98"/></g><g class="cls-34"><g class="cls-35"><polygon class="cls-36" points="532.47 868.26 533.26 858.07 547.75 861.22 546.79 871.6 532.47 868.26"/><path class="cls-16" d="M533.67,858.61l13.6,3-.87,9.48-13.45-3.14.72-9.3m-.81-1.09L532,868.61l15.19,3.55,1-11.28-15.37-3.35Z"/></g><polygon class="cls-16" points="540.33 869.52 539.63 869.37 540.19 858.86 541.14 859.1 540.33 869.52"/><polygon class="cls-33" points="548.48 872.53 531 868.45 531.03 865.93 548.71 869.6 548.48 872.53"/></g><g class="cls-34"><g class="cls-35"><polygon class="cls-36" points="513.59 844.4 514.35 834.21 528.84 837.31 527.92 847.69 513.59 844.4"/><path class="cls-16" d="M514.75,834.75l13.61,2.91-.84,9.48-13.46-3.09.69-9.3m-.81-1.09-.82,11.09,15.21,3.49,1-11.29-15.38-3.29Z"/></g><polygon class="cls-16" points="521.45 845.63 520.76 845.49 521.28 834.98 522.23 835.21 521.45 845.63"/></g><g class="cls-34"><g class="cls-35"><polygon class="cls-36" points="512.64 864.62 513.43 854.43 527.92 857.58 526.96 867.96 512.64 864.62"/><path class="cls-16" d="M513.84,855l13.6,3-.87,9.48-13.45-3.14.72-9.3m-.81-1.09L512.17,865l15.19,3.55,1-11.28L513,853.88Z"/></g><polygon class="cls-16" points="520.5 865.88 519.8 865.73 520.37 855.22 521.32 855.46 520.5 865.88"/></g><polygon class="cls-11" points="525.63 856.08 535.62 858.94 541.8 853.32 532.01 848.92 525.63 856.08"/><polyline class="cls-30" points="541.8 853.32 535.62 858.94 534.5 901.88 540.47 895.86 541.72 853.22"/><polygon class="cls-11" points="547.38 864.18 554.04 857.21 563.47 860.67 557.74 867.67 547.38 864.18"/><polygon class="cls-31" points="535.32 882.77 545.11 885.34 547.38 864.18 557.85 867.39 556.49 877.96 582.43 885.34 580.51 911.74 534.81 901.57 535.32 882.77"/><polygon class="cls-11" points="562.81 869.18 556.49 877.96 582.54 885.67 589.04 875.4 562.81 869.18"/><polygon class="cls-2" points="563.54 860.58 557.93 866.92 556.49 877.96 562.81 869.18 563.54 860.58"/><polygon class="cls-10" points="588.58 875.4 582.43 885.34 580.51 911.74 584.03 910.34 588.58 875.4"/><polygon class="cls-11" points="579.56 891.25 589.55 892.92 595.66 889.59 585.95 887.09 579.56 891.25"/><polygon class="cls-12" points="579.56 891.25 589.55 892.92 588.64 913.41 578.23 911.12 579.56 891.25"/><polyline class="cls-30" points="596.08 889.56 589.55 892.92 588.63 913.64 594.39 914.74 595.66 889.59"/><g class="cls-39"><polygon class="cls-36" points="604.45 832.71 612.32 821.69 610.57 834.95 603.14 844.05 604.45 832.71"/><path class="cls-16" d="M611.64,823.4l-1.5,11.37-6.39,7.82,1.12-9.71,6.77-9.47M613,820l-9,12.57-1.5,13L611,835.14,613,820Z"/></g><g class="cls-39"><polygon class="cls-36" points="602.68 855.19 610.55 844.17 608.8 857.43 601.37 866.52 602.68 855.19"/><path class="cls-16" d="M609.87,845.88l-1.5,11.37L602,865.06l1.12-9.71,6.77-9.47m1.35-3.43-9,12.57-1.5,13,8.48-10.37,2-15.16Z"/></g><polygon class="cls-14" points="608.16 837.13 607.34 838.33 608.53 824.35 609.37 825.05 608.16 837.13"/><polygon class="cls-14" points="606.62 859.47 605.8 860.68 606.99 846.7 607.97 846.34 606.62 859.47"/><polygon class="cls-11" points="593.29 874.18 603.28 876.98 609.38 871.37 599.67 867.16 593.29 874.18"/><path class="cls-14" d="M599.55,916,575.3,945.25l.7,73.58s3.28-8.33,6.62-17.69c3.45-9.67,7-20.43,8.3-24.07,2.69-7.42,7.82-21.23,7.82-21.23Z"/><polygon class="cls-15" points="482.64 922.03 500.8 911.32 517.52 914.91 534.75 901.4 599.56 915.89 575.3 945.77 482.64 922.03"/><path class="cls-40" d="M583.09,998.77V965.94s-.85-19.6,5.61-23.94c5.54-3.72,5.85,7.38,5.85,7.38l.47,16.08Z"/><g class="cls-39"><polygon class="cls-36" points="586.09 960.49 592.57 953.53 593.52 969.36 585.65 988.91 586.09 960.49"/><path class="cls-16" d="M592.19,954.6l.88,14.68-6.94,17.23.4-25.85,5.66-6.06m.77-2.13-7.31,7.84-.48,31L594,969.43l-1-17Z"/></g><g class="cls-39"><path class="cls-36" d="M585.82,957.31c.18-2.81.88-9.63,3.42-12.34.53-.56.87-.68,1.07-.68,1.08,0,1.68,3.56,1.76,6.07Z"/><path class="cls-16" d="M590.31,944.73c.45,0,1.19,2.42,1.31,5.46L586.36,956c.33-3.49,1.21-8.64,3.21-10.77.4-.42.66-.54.74-.54m0-.89a2.07,2.07,0,0,0-1.39.82c-3.38,3.61-3.61,13.88-3.61,13.88l7.21-8s-.16-6.68-2.21-6.68Z"/></g><g class="cls-39"><polygon class="cls-36" points="573.3 1002.78 572.37 944.86 574.88 945.54 575.41 1012.16 573.3 1002.78"/><path class="cls-16" d="M572.82,945.45l1.61.44.5,62.12-1.18-5.23-.93-57.33m-.91-1.17,1,58.6,3,13.42-.57-71.1-3.41-.92Z"/></g><g class="cls-39"><polygon class="cls-36" points="482.5 945.92 483.24 922.15 484.7 922.59 484.55 947.24 482.5 945.92"/><path class="cls-16" d="M483.67,922.74l.58.17-.14,23.51-1.15-.74.71-22.94m-.86-1.19-.76,24.61,2.94,1.9.16-25.8-2.34-.7Z"/></g><polygon class="cls-11" points="464.46 958.41 477.76 965.27 489.85 950.8 472.95 941.25 464.46 958.41"/><polyline class="cls-16" points="575.41 945.86 575.34 941.18 482.64 918.09 482.64 922.03 575.41 945.86"/><line class="cls-16" x1="599.48" y1="915.97" x2="599.1" y2="907.62"/><polygon class="cls-14" points="599.52 911.88 599.48 915.97 575.41 945.92 575.07 941.25 599.52 911.88"/><polygon class="cls-15" points="575.12 941.07 574.21 938.71 486.4 916.78 482.43 918.18 575.12 941.07"/><polygon class="cls-15" points="573.49 938.62 575.31 936.44 492.26 916.18 488.75 917.56 573.49 938.62"/><polygon class="cls-41" points="567.96 937.12 569.63 935.12 492.22 916.17 488.75 917.56 567.96 937.12"/><polygon class="cls-15" points="599.66 912.1 596.25 911.38 572.12 940.17 575.19 941.1 599.66 912.1"/><polygon class="cls-41" points="593.63 914.57 587.76 913.25 567.95 937.14 573.49 938.62 593.63 914.57"/><g class="cls-39"><polygon class="cls-36" points="483.24 920.86 483.12 919.01 574.96 942.59 574.9 944.95 483.24 920.86"/><path class="cls-16" d="M483.6,919.59l90.9,23.34,0,1.44-90.81-23.86-.06-.91m-1-1.17.17,2.78,92.53,24.32.07-3.28-92.77-23.82Z"/></g><g class="cls-39"><polygon class="cls-36" points="575.39 941.95 599.14 912.68 599.19 914.49 575.42 944.6 575.39 941.95"/><path class="cls-16" d="M598.93,913.29l0,1.12L575.63,944l0-1.94,23.32-28.74m.41-1.21-24.18,29.8,0,3.36,24.22-30.68-.08-2.48Z"/></g><g class="cls-39"><polygon class="cls-36" points="597.35 917.78 599.15 915.49 599.06 954.78 597.7 957.73 597.35 917.78"/><path class="cls-16" d="M598.92,916.14l-.09,38.55-.92,2-.34-38.85,1.35-1.72m.45-1.3-2.24,2.86.36,41,1.79-3.94.09-39.94Z"/></g><g class="cls-39"><polygon class="cls-36" points="575.54 945.03 577.14 942.9 577.43 1014.99 576.22 1017.96 575.54 945.03"/><path class="cls-16" d="M576.92,943.57l.29,71.33-.77,1.92-.67-71.71,1.16-1.54m.44-1.33-2,2.72.69,74.12,1.64-4.09-.29-72.75Z"/></g><g class="cls-42"><path class="cls-36" d="M548.51,965.91l.16-12c0-.25.24-6.3,6.42-6.3a12.17,12.17,0,0,1,2.38.26c8.68,1.74,8.74,10.59,8.74,10.68l-.16,11.56Z"/><path class="cls-16" d="M555.1,948.07a11.77,11.77,0,0,1,2.29.25c8.29,1.66,8.38,9.89,8.38,10.23l-.15,11-16.66-4,.16-11.63c0-.24.24-5.87,6-5.87m0-.89c-6.71,0-6.87,6.74-6.87,6.74l-.17,12.35,18.44,4.42.16-12.12s0-9.29-9.1-11.12a12.58,12.58,0,0,0-2.47-.26Z"/></g><line class="cls-43" x1="565.73" y1="957.48" x2="549.1" y2="954.1"/><line class="cls-43" x1="565.77" y1="961.83" x2="549.14" y2="958.46"/><line class="cls-43" x1="565.63" y1="966.68" x2="549" y2="962.88"/><path class="cls-44" d="M553.68,954.9s-.2-4.1,3.34-3.32c3.33.73,2.8,4.77,2.8,4.77"/><line class="cls-43" x1="553.86" y1="953.11" x2="550.82" y2="949.8"/><line class="cls-43" x1="559.78" y1="954.33" x2="563.86" y2="952.43"/><line class="cls-43" x1="556.82" y1="951.72" x2="556.82" y2="948.22"/><line class="cls-43" x1="551.92" y1="954.79" x2="551.69" y2="966.19"/><line class="cls-43" x1="556.72" y1="955.56" x2="556.48" y2="967.31"/><line class="cls-43" x1="562.01" y1="956.94" x2="561.9" y2="968.81"/><g class="cls-42"><path class="cls-36" d="M518,957.88l.16-12c0-.25.24-6.3,6.42-6.3a12.18,12.18,0,0,1,2.38.26c8.66,1.74,8.74,10.32,8.74,10.68l-.16,11.56Z"/><path class="cls-16" d="M524.59,940a11.74,11.74,0,0,1,2.29.25c8.29,1.66,8.38,9.89,8.38,10.23l-.15,11-16.66-4,.16-11.63c0-.24.24-5.87,6-5.87m0-.89c-6.71,0-6.87,6.74-6.87,6.74l-.17,12.35L536,962.65l.16-12.12s0-9.29-9.1-11.12a12.55,12.55,0,0,0-2.47-.26Z"/></g><line class="cls-43" x1="535.22" y1="949.44" x2="518.59" y2="946.07"/><line class="cls-43" x1="535.26" y1="953.8" x2="518.63" y2="950.42"/><line class="cls-43" x1="535.12" y1="958.65" x2="518.5" y2="954.84"/><path class="cls-44" d="M523.17,946.87s-.2-4.1,3.34-3.32c3.33.73,2.8,4.77,2.8,4.77"/><line class="cls-43" x1="523.35" y1="945.08" x2="520.31" y2="941.77"/><line class="cls-43" x1="529.27" y1="946.3" x2="533.35" y2="944.39"/><line class="cls-43" x1="526.32" y1="943.69" x2="526.32" y2="940.19"/><line class="cls-43" x1="521.42" y1="946.76" x2="521.18" y2="958.16"/><line class="cls-43" x1="526.21" y1="947.52" x2="525.97" y2="959.28"/><line class="cls-43" x1="531.5" y1="948.91" x2="531.39" y2="960.78"/><g class="cls-42"><path class="cls-36" d="M489.83,950.82l.16-12c0-.25.24-6.3,6.42-6.3a12.18,12.18,0,0,1,2.38.26c8.68,1.74,8.74,10.59,8.74,10.68L507.38,955Z"/><path class="cls-16" d="M496.42,933a11.74,11.74,0,0,1,2.29.25c8.29,1.66,8.38,9.89,8.38,10.23l-.15,11-16.66-4,.16-11.63c0-.24.24-5.87,6-5.87m0-.89c-6.71,0-6.87,6.74-6.87,6.74l-.17,12.35,18.44,4.42.16-12.12s0-9.29-9.1-11.12a12.55,12.55,0,0,0-2.47-.26Z"/></g><line class="cls-43" x1="507.05" y1="942.38" x2="490.42" y2="939.01"/><line class="cls-43" x1="507.08" y1="946.74" x2="490.46" y2="943.37"/><line class="cls-43" x1="506.95" y1="951.59" x2="490.32" y2="947.79"/><path class="cls-44" d="M495,939.81s-.2-4.1,3.34-3.32c3.33.73,2.8,4.77,2.8,4.77"/><line class="cls-43" x1="495.17" y1="938.02" x2="492.13" y2="934.71"/><line class="cls-43" x1="501.1" y1="939.24" x2="505.17" y2="937.33"/><line class="cls-43" x1="498.14" y1="936.63" x2="498.14" y2="933.13"/><line class="cls-43" x1="493.24" y1="939.7" x2="493.01" y2="951.1"/><line class="cls-43" x1="498.04" y1="940.47" x2="497.8" y2="952.22"/><line class="cls-43" x1="503.32" y1="941.85" x2="503.22" y2="953.72"/><g class="cls-42"><path class="cls-36" d="M545.05,999.14l.16-12c0-.25.24-6.3,6.42-6.3a12.17,12.17,0,0,1,2.38.26c8.66,1.74,8.74,10.32,8.74,10.68l-.16,11.56Z"/><path class="cls-16" d="M551.64,981.3a11.74,11.74,0,0,1,2.29.25c8.29,1.66,8.38,9.89,8.38,10.23l-.15,11-16.66-4,.16-11.63c0-.24.24-5.87,6-5.87m0-.89c-6.71,0-6.87,6.74-6.87,6.74l-.17,12.35,18.44,4.42.16-12.12s0-9.29-9.1-11.12a12.55,12.55,0,0,0-2.47-.26Z"/></g><line class="cls-43" x1="562.27" y1="990.7" x2="545.64" y2="987.33"/><line class="cls-43" x1="562.31" y1="995.06" x2="545.68" y2="991.69"/><line class="cls-43" x1="562.17" y1="999.91" x2="545.55" y2="996.11"/><path class="cls-44" d="M550.23,988.13s-.2-4.1,3.34-3.32c3.33.73,2.8,4.77,2.8,4.77"/><line class="cls-43" x1="550.4" y1="986.34" x2="547.36" y2="983.03"/><line class="cls-43" x1="556.32" y1="987.56" x2="560.4" y2="985.66"/><line class="cls-43" x1="553.37" y1="984.95" x2="553.37" y2="981.45"/><line class="cls-43" x1="548.47" y1="988.02" x2="548.23" y2="999.42"/><line class="cls-43" x1="553.26" y1="988.79" x2="553.02" y2="1000.54"/><line class="cls-43" x1="558.55" y1="990.17" x2="558.45" y2="1002.04"/><g class="cls-42"><path class="cls-36" d="M514.55,991.11l.16-12c0-.25.24-6.3,6.42-6.3a12.18,12.18,0,0,1,2.38.26c8.66,1.74,8.74,10.32,8.74,10.68l-.16,11.56Z"/><path class="cls-16" d="M521.13,973.27a11.74,11.74,0,0,1,2.29.25c8.29,1.66,8.38,9.89,8.38,10.23l-.15,11-16.66-4,.16-11.63c0-.24.24-5.87,6-5.87m0-.89c-6.71,0-6.87,6.74-6.87,6.74l-.17,12.35,18.44,4.42.16-12.12s0-9.29-9.1-11.12a12.55,12.55,0,0,0-2.47-.26Z"/></g><line class="cls-43" x1="531.76" y1="982.67" x2="515.14" y2="979.3"/><line class="cls-43" x1="531.8" y1="987.03" x2="515.17" y2="983.65"/><line class="cls-43" x1="531.67" y1="991.88" x2="515.04" y2="988.07"/><path class="cls-44" d="M519.72,980.1s-.2-4.1,3.34-3.32c3.33.73,2.8,4.77,2.8,4.77"/><line class="cls-43" x1="519.89" y1="978.31" x2="516.85" y2="975"/><line class="cls-43" x1="525.81" y1="979.53" x2="529.89" y2="977.62"/><line class="cls-43" x1="522.86" y1="976.92" x2="522.86" y2="973.41"/><line class="cls-43" x1="517.96" y1="979.99" x2="517.72" y2="991.39"/><line class="cls-43" x1="522.76" y1="980.75" x2="522.51" y2="992.51"/><line class="cls-43" x1="528.04" y1="982.14" x2="527.94" y2="994.01"/><g class="cls-42"><path class="cls-36" d="M486.08,983.41l.16-12c0-.25.24-6.3,6.42-6.3a12.17,12.17,0,0,1,2.38.26c8.68,1.74,8.74,10.59,8.74,10.68l-.16,11.56Z"/><path class="cls-16" d="M492.67,965.56a11.74,11.74,0,0,1,2.29.25c8.29,1.66,8.38,9.89,8.38,10.23l-.15,11-16.66-4,.16-11.63c0-.24.24-5.87,6-5.87m0-.89c-6.71,0-6.87,6.74-6.87,6.74l-.17,12.35,18.44,4.42.16-12.12s0-9.29-9.1-11.12a12.55,12.55,0,0,0-2.47-.26Z"/></g><line class="cls-43" x1="503.3" y1="974.97" x2="486.67" y2="971.6"/><line class="cls-43" x1="503.34" y1="979.32" x2="486.71" y2="975.95"/><line class="cls-43" x1="503.2" y1="984.17" x2="486.58" y2="980.37"/><path class="cls-44" d="M491.25,972.4s-.2-4.1,3.34-3.32c3.33.73,2.8,4.77,2.8,4.77"/><line class="cls-43" x1="491.43" y1="970.61" x2="488.39" y2="967.3"/><line class="cls-43" x1="497.35" y1="971.82" x2="501.43" y2="969.92"/><line class="cls-43" x1="494.4" y1="969.21" x2="494.4" y2="965.71"/><line class="cls-43" x1="489.5" y1="972.29" x2="489.26" y2="983.69"/><line class="cls-43" x1="494.29" y1="973.05" x2="494.05" y2="984.8"/><line class="cls-43" x1="499.58" y1="974.44" x2="499.47" y2="986.3"/><polyline class="cls-23" points="489.85 950.8 477.76 965.27 476.72 1037.38 484.45 1037.8 489.85 1009.64 489.85 950.8"/><polygon class="cls-17" points="572.4 972.05 489.96 951.12 489.85 952.32 572.49 973.29 572.4 972.05"/><polygon class="cls-17" points="572.4 1005.55 489.96 984.63 489.85 985.83 572.49 1006.79 572.4 1005.55"/><polygon class="cls-11" points="573.55 1003.87 563.86 1013.18 551.22 1010.67 538.79 1020.42 489.85 1009.64 513.35 988.66 526.85 991.3 511.13 1006.03 532.97 1010.99 547.04 998.58 573.55 1003.87"/><polyline class="cls-32" points="526.85 991.3 526.29 1009.48 511.13 1006.03 526.85 991.3"/><polygon class="cls-45" points="535.98 819.38 527.28 829.84 535.18 832.02 535.98 819.38"/><polygon class="cls-11" points="510.84 865.2 520.88 867.08 530 863.13 517.26 860.52 510.84 865.2"/><polyline class="cls-23" points="530 863.13 520.88 867.08 519.77 895.19 521.54 895.41 528.01 884.16 530 863.13"/><polygon class="cls-12" points="525.63 856.08 535.62 858.94 534.76 902.07 524.63 899.49 525.63 856.08"/><polygon class="cls-46" points="576.01 1019.08 577.2 1019.08 594.07 997.76 602.52 999.42 604.29 968.95 610.74 966.22 599.28 954.79 576.01 1019.08"/><line class="cls-47" x1="587.5" y1="1187.49" x2="575.48" y2="1165.35"/><polygon class="cls-15" points="522.14 1121.64 567.22 1139.05 609.9 1109.91 551.51 1095.16 522.14 1121.64"/><polygon class="cls-16" points="568.5 1189.88 568.88 1139.12 522.9 1120.71 521.6 1189.88 568.5 1189.88"/><polygon class="cls-23" points="593.62 1153.52 596.36 1129.26 554.58 1139.61 554.08 1153.52 593.62 1153.52"/><polygon class="cls-15" points="566.72 1049.56 593.93 1050.73 601.01 1054.04 592.16 1059.2 588.25 1058.42 579.58 1058.4 564.21 1057.25 564.21 1055.11 557.78 1053.94 566.72 1049.56"/><polygon class="cls-14" points="603.88 1189.88 606.18 1086.34 589.02 1093.88 587.5 1189.88 603.88 1189.88"/><polygon class="cls-16" points="587.7 1190.87 589.28 1077.23 556.85 1069.69 553.73 1190.87 587.7 1190.87"/><polygon class="cls-14" points="604.27 1070.24 584.45 1075.36 589.02 1103.62 600.95 1097.58 604.27 1070.24"/><polygon class="cls-16" points="563 1057.06 562.71 1073.58 588.25 1075.64 588.25 1058.42 563 1057.06"/><polygon class="cls-48" points="557.78 1053.94 564.02 1054.62 563.93 1073.99 557.22 1071.17 557.78 1053.94"/><polygon class="cls-14" points="580.2 1189.88 556.94 1068.93 554.33 1069.42 553.38 1189.88 580.2 1189.88"/><polygon class="cls-14" points="581.91 1048.88 581.72 1056.08 588.06 1053.26 588.06 1046.25 581.91 1048.88"/><polygon class="cls-15" points="573.34 1048.2 581.91 1048.88 588.09 1046.25 580.79 1045.57 573.34 1048.2"/><polygon class="cls-15" points="587.96 1072.18 591.79 1075.07 604.27 1070.38 594.02 1069.67 587.96 1072.18"/><polygon class="cls-16" points="573.34 1055.6 573.25 1048.2 581.91 1048.88 581.72 1056.08 573.34 1055.6"/><polygon class="cls-16" points="591.41 1075.07 591.79 1059.2 588.25 1058.42 587.5 1075.36 591.41 1075.07"/><polygon class="cls-14" points="597.92 1070.76 601.38 1053.94 591.62 1059.18 591.52 1073.58 597.92 1070.76"/><polygon class="cls-15" points="606.33 1086.62 601.01 1082.31 601.05 1088.74 606.33 1086.62"/><polygon class="cls-15" points="591.56 1072.41 584.38 1075.36 592.57 1078.31 591.56 1072.41"/><polygon class="cls-15" points="563.95 1069.26 557.31 1068.45 554.33 1069.42 564.08 1074.6 563.95 1069.26"/><polygon class="cls-49" points="582.86 1190.87 560.21 1073.14 561.25 1072.94 583.94 1190.87 582.86 1190.87"/><polygon class="cls-49" points="585.96 1191 563.66 1074.82 564.89 1075.69 587 1190.85 585.96 1191"/><polygon class="cls-49" points="587.71 1178.57 564.36 1057.13 565.47 1057.19 587.85 1173.92 587.71 1178.57"/><polygon class="cls-49" points="588 1158.98 568.62 1057.36 569.73 1057.4 588.19 1154.49 588 1158.98"/><polygon class="cls-49" points="588.27 1141.02 572.27 1057.56 573.42 1057.62 588.4 1135.97 588.27 1141.02"/><polygon class="cls-49" points="588.52 1125.08 575.78 1057.78 576.82 1057.82 588.59 1119.51 588.52 1125.08"/><polygon class="cls-49" points="588.8 1107.41 579.34 1057.94 580.47 1058.02 588.87 1102.81 588.8 1107.41"/><polygon class="cls-49" points="586.18 1074.62 582.97 1058.16 584.05 1058.19 587.1 1074.27 586.18 1074.62"/><polygon class="cls-49" points="589.88 1073.1 586.98 1058.35 588.11 1058.42 590.82 1072.71 589.88 1073.1"/><polygon class="cls-15" points="34.75 943.54 0 962.24 0 966.73 34.75 976.36 59.35 954.06 34.75 943.54"/><path class="cls-16" d="M0,966.73v171.37c4.29,1.16,8.94,2.39,11.45,3,4.5,1.07,18.78,4,18.78,4l4.51-168.74Z"/><polyline class="cls-14" points="59.35 954.06 32.42 976.36 27.95 1143.61 51.99 1120.16 59.35 954.06"/><polygon class="cls-17" points="0.21 973.19 0 982.78 0 1138.63 20.58 1143.61 26.16 980.57 0.21 973.19"/><polygon class="cls-50" points="0.21 973.19 0 982.78 0 1138.63 7.18 1140.37 11.37 976.36 0.21 973.19"/><polygon class="cls-16" points="0 986.18 0 990.56 25.6 997.17 25.74 993.08 0 986.18"/><polygon class="cls-16" points="0 1003.13 0 1007.51 25.08 1013.99 25.22 1009.89 0 1003.13"/><polygon class="cls-16" points="0 1019.94 0 1024.31 24.49 1030.64 24.63 1026.54 0 1019.94"/><polygon class="cls-16" points="0 1037.19 0 1041.56 24.49 1047.88 24.63 1043.79 0 1037.19"/><polygon class="cls-16" points="0 1053.99 0 1058.36 23.89 1064.53 24.03 1060.43 0 1053.99"/><polygon class="cls-16" points="0 1070.89 0 1075.25 22.95 1081.18 23.09 1077.08 0 1070.89"/><polygon class="cls-16" points="0 1087.84 0 1092.2 22.78 1098.08 22.92 1093.98 0 1087.84"/><polygon class="cls-16" points="0 1104.5 0 1108.85 21.78 1114.47 21.92 1110.38 0 1104.5"/><polygon class="cls-16" points="0 1121.58 0 1125.92 21.78 1131.55 21.92 1127.45 0 1121.58"/><polygon class="cls-51" points="0 986.18 0 990.83 25.22 993.1 0 986.18"/><polygon class="cls-51" points="0 1002.98 0 1007.59 24.97 1009.84 0 1002.98"/><polygon class="cls-51" points="0 1019.79 0 1024.34 24.71 1026.57 0 1019.79"/><polygon class="cls-51" points="0 1037.02 0 1041.47 24.11 1043.64 0 1037.02"/><polygon class="cls-51" points="0 1053.94 0 1058.32 23.77 1060.46 0 1053.94"/><polygon class="cls-51" points="0 1070.81 0 1075.13 23.43 1077.24 0 1070.81"/><polygon class="cls-51" points="0 1087.67 0 1091.93 23.09 1094.01 0 1087.67"/><polygon class="cls-51" points="0 1104.21 0 1108.37 22.58 1110.4 0 1104.21"/><polygon class="cls-51" points="0 1121.71 0 1125.82 22.31 1127.83 0 1121.71"/><polygon class="cls-20" points="56.47 968.13 48.62 1124.45 32.63 1139.04 38.11 982.57 56.47 968.13"/><polygon class="cls-20" points="45.17 976.71 39.88 1132.26 48.67 1124.85 56.22 968.19 45.17 976.71"/><polygon class="cls-14" points="55.61 983.41 55.49 988.35 37.02 999.87 37.08 994.95 55.61 983.41"/><polygon class="cls-52" points="37.45 994.59 55.36 988.39 55.48 983.41 37.45 994.59"/><polygon class="cls-14" points="55.21 997.72 55.1 1002.67 36.62 1014.19 36.68 1009.26 55.21 997.72"/><polygon class="cls-52" points="36.77 1009.11 54.68 1002.91 54.8 997.93 36.77 1009.11"/><polygon class="cls-14" points="54.26 1016.42 54.14 1021.36 35.66 1032.88 35.73 1027.96 54.26 1016.42"/><polygon class="cls-52" points="35.91 1027.63 53.82 1021.43 53.94 1016.45 35.91 1027.63"/><polygon class="cls-14" points="53.34 1034.41 53.23 1039.35 34.75 1050.88 34.81 1045.95 53.34 1034.41"/><polygon class="cls-52" points="35 1045.72 52.9 1039.52 53.03 1034.54 35 1045.72"/><polygon class="cls-14" points="52.61 1051.01 52.49 1055.95 34.02 1067.47 34.08 1062.55 52.61 1051.01"/><polygon class="cls-52" points="34.14 1062.41 52.05 1056.21 52.17 1051.23 34.14 1062.41"/><polygon class="cls-14" points="51.76 1067.6 51.65 1072.54 33.17 1084.06 33.23 1079.14 51.76 1067.6"/><polygon class="cls-52" points="33.32 1079.06 51.23 1072.86 51.35 1067.88 33.32 1079.06"/><polygon class="cls-14" points="50.84 1084.52 50.73 1089.46 32.25 1100.98 32.32 1096.06 50.84 1084.52"/><polygon class="cls-52" points="32.47 1095.95 50.38 1089.75 50.5 1084.77 32.47 1095.95"/><polygon class="cls-14" points="50.06 1100.98 49.95 1105.92 31.47 1117.45 31.53 1112.52 50.06 1100.98"/><polygon class="cls-52" points="31.72 1112.52 49.62 1106.32 49.75 1101.34 31.72 1112.52"/><polygon class="cls-14" points="49.42 1115.94 49.31 1120.88 30.83 1132.4 30.89 1127.48 49.42 1115.94"/><polygon class="cls-52" points="31.05 1127.25 48.95 1121.05 49.08 1116.07 31.05 1127.25"/><path class="cls-30" d="M0,1107.75v82.3H4.37l7.56-26.81c3.05-10.8,8.64-31.76,8.64-31.76l1.16-58.08Z"/><polygon class="cls-11" points="0 1107.75 21.73 1073.4 0 1067.17 0 1107.75"/><polygon class="cls-22" points="0 1190.05 32.14 1190.05 31.69 1174.53 0 1161.74 0 1190.05"/><polygon class="cls-23" points="45.65 1190.05 44.87 1158.56 31.69 1174.53 32.14 1190.05 45.65 1190.05"/><polygon class="cls-23" points="56.45 1190.05 56.26 1152.98 49.67 1161.1 50.12 1190.05 56.45 1190.05"/><polygon class="cls-23" points="36.32 1144.37 48.42 1149.95 55.02 1152.22 54.84 1122.57 36.32 1144.37"/><polygon class="cls-24" points="50.12 1190.05 49.67 1161.1 44.87 1158.56 45.65 1190.05 50.12 1190.05"/><polygon class="cls-11" points="36.32 1144.37 54.84 1122.57 27.77 1113.19 0 1143.41 0 1161.74 31.69 1174.53 44.87 1158.56 49.67 1161.1 56.08 1153.49 36.32 1144.37"/><polygon class="cls-49" points="531.54 1189.81 522.47 1143.46 522.33 1147.54 530.46 1189.81 531.54 1189.81"/><polygon class="cls-49" points="522.16 1161.87 522 1166.66 526.46 1189.81 527.53 1189.81 522.16 1161.87"/><path class="cls-49" d="M523.85,1189.88l-2.07-9.72a35,35,0,0,0,.06,4.86l.94,4.87A4.63,4.63,0,0,1,523.85,1189.88Z"/><polygon class="cls-49" points="534.66 1189.81 522.76 1128.02 522.68 1132.91 533.6 1189.81 534.66 1189.81"/><polygon class="cls-49" points="538.7 1189.81 525.74 1121.84 524.48 1121.36 537.63 1189.81 538.7 1189.81"/><polygon class="cls-49" points="542.86 1189.81 530.29 1123.64 529.08 1123.16 541.8 1189.81 542.86 1189.81"/><polygon class="cls-49" points="546.61 1189.81 534.27 1125.26 533.06 1124.9 545.5 1189.81 546.61 1189.81"/><polygon class="cls-49" points="548.86 1189.79 536.84 1126.3 537.94 1126.67 549.98 1189.79 548.86 1189.79"/><polygon class="cls-49" points="552.32 1189.72 540.54 1127.77 541.79 1128.23 553.36 1189.71 552.32 1189.72"/><polygon class="cls-49" points="553.38 1177.42 544.39 1129.31 545.65 1129.85 553.68 1172.81 553.38 1177.42"/><path class="cls-49" d="M539.73,1105.61c.07-.12-2.57-13.41-2.57-13.41l-1.21-.36,2.84,14.82A3,3,0,0,0,539.73,1105.61Z"/><path class="cls-49" d="M542.71,1103l-1.89-9.92-1.1-.36,2.1,11.1C542.08,1103.62,542.33,1103.11,542.71,1103Z"/><polygon class="cls-49" points="537.05 1108.24 535.08 1098.98 534.85 1101.6 536.16 1109.05 537.05 1108.24"/><polygon class="cls-49" points="563.95 1069.26 560.98 1054.37 559.76 1054.16 562.76 1069.12 563.95 1069.26"/><polygon class="cls-49" points="560.44 1068.83 557.76 1056.31 557.57 1060.31 559.33 1068.66 560.44 1068.83"/><path class="cls-49" d="M577.61,1048.54l1.57,7.51,1.19.14-1.45-7.56C578.54,1048.65,578,1048.52,577.61,1048.54Z"/><path class="cls-49" d="M574.16,1048.27l1.58,7.33,1.1.17-1.52-7.45C575,1048.32,574.51,1048.3,574.16,1048.27Z"/><path class="cls-49" d="M545.88,1100.19l-1.21-6.42-1.25-.46,1.49,7.83C545.19,1100.92,545.46,1100.25,545.88,1100.19Z"/><path class="cls-49" d="M548.92,1097.67l-.63-3.21L547,1094l.86,4.36A2.11,2.11,0,0,1,548.92,1097.67Z"/><line class="cls-49" x1="556.27" y1="1144.35" x2="547.27" y2="1096.25"/><polygon class="cls-49" points="553.65 1155.79 548.93 1131.13 550.19 1131.68 553.73 1150.8 553.65 1155.79"/></g></g></svg>