<?xml version="1.0" encoding="UTF-8" standalone="no"?>
<!-- Generator: Adobe Illustrator 19.2.1, SVG Export Plug-In . SVG Version: 6.00 Build 0)  -->

<svg
   xmlns:dc="http://purl.org/dc/elements/1.1/"
   xmlns:cc="http://creativecommons.org/ns#"
   xmlns:rdf="http://www.w3.org/1999/02/22-rdf-syntax-ns#"
   xmlns:svg="http://www.w3.org/2000/svg"
   xmlns="http://www.w3.org/2000/svg"
   xmlns:sodipodi="http://sodipodi.sourceforge.net/DTD/sodipodi-0.dtd"
   xmlns:inkscape="http://www.inkscape.org/namespaces/inkscape"
   version="1.1"
   id="Layer_1"
   x="0px"
   y="0px"
   width="25"
   height="36"
   viewBox="0 0 24.999999 36"
   xml:space="preserve"
   inkscape:version="0.91 r13725"
   sodipodi:docname="Map_Pin_ICON2.svg"><metadata
     id="metadata11"><rdf:RDF><cc:Work
         rdf:about=""><dc:format>image/svg+xml</dc:format><dc:type
           rdf:resource="http://purl.org/dc/dcmitype/StillImage" /><dc:title></dc:title></cc:Work></rdf:RDF></metadata><defs
     id="defs9" /><sodipodi:namedview
     pagecolor="#ffffff"
     bordercolor="#666666"
     borderopacity="1"
     objecttolerance="10"
     gridtolerance="10"
     guidetolerance="10"
     inkscape:pageopacity="0"
     inkscape:pageshadow="2"
     inkscape:window-width="1092"
     inkscape:window-height="750"
     id="namedview7"
     showgrid="false"
     fit-margin-top="0.5"
     fit-margin-left="0"
     fit-margin-right="0"
     fit-margin-bottom="0.5"
     inkscape:zoom="9.8333333"
     inkscape:cx="14.444376"
     inkscape:cy="18"
     inkscape:window-x="71"
     inkscape:window-y="0"
     inkscape:window-maximized="0"
     inkscape:current-layer="Layer_1" /><style
     type="text/css"
     id="style3">
	.st0{fill:#231F20;}
</style><path
     class="st0"
     d="M 12.4269,0.5 C 5.5555544,0.5 -9.5367432e-7,6.0416667 -9.5367432e-7,12.895833 -9.5367432e-7,16.6875 2.0467825,19.75 3.9473675,22.666667 4.2397651,23.104167 4.5321628,23.6875 4.9707591,24.125 l 7.1637429,11.229167 c 0,0 0.146199,0.145833 0.292398,0.145833 0.146198,0 0.292397,-0.145833 0.438596,-0.291667 l 7.163743,-11.229166 c 0.292397,-0.4375 0.584795,-1.020834 1.023392,-1.458334 C 22.953215,19.604167 24.999999,16.6875 24.999999,12.75 24.8538,6.0416667 19.298245,0.5 12.4269,0.5 Z m 0,17.208333 C 9.6491217,17.708333 7.3099404,15.375 7.3099404,12.604167 7.3099404,9.8333333 9.6491217,7.5 12.4269,7.5 c 2.777777,0 5.116959,2.3333333 5.116959,5.104167 0,2.770833 -2.339182,5.104166 -5.116959,5.104166 z"
     id="path5"
     inkscape:connector-curvature="0"
     style="fill:#fc5158;fill-opacity:1;stroke:none;stroke-opacity:1" /></svg>