<?xml version="1.0" encoding="UTF-8" standalone="no"?>
<!-- Generator: Adobe Illustrator 19.2.1, SVG Export Plug-In . SVG Version: 6.00 Build 0)  -->

<svg
   xmlns:dc="http://purl.org/dc/elements/1.1/"
   xmlns:cc="http://creativecommons.org/ns#"
   xmlns:rdf="http://www.w3.org/1999/02/22-rdf-syntax-ns#"
   xmlns:svg="http://www.w3.org/2000/svg"
   xmlns="http://www.w3.org/2000/svg"
   xmlns:sodipodi="http://sodipodi.sourceforge.net/DTD/sodipodi-0.dtd"
   xmlns:inkscape="http://www.inkscape.org/namespaces/inkscape"
   version="1.1"
   id="Layer_1"
   x="0px"
   y="0px"
   width="25"
   height="21"
   viewBox="0 0 24.999999 21"
   xml:space="preserve"
   inkscape:version="0.91 r13725"
   sodipodi:docname="Bedroom_ICON2.svg"><metadata
     id="metadata11"><rdf:RDF><cc:Work
         rdf:about=""><dc:format>image/svg+xml</dc:format><dc:type
           rdf:resource="http://purl.org/dc/dcmitype/StillImage" /><dc:title></dc:title></cc:Work></rdf:RDF></metadata><defs
     id="defs9" /><sodipodi:namedview
     pagecolor="#ffffff"
     bordercolor="#666666"
     borderopacity="1"
     objecttolerance="10"
     gridtolerance="10"
     guidetolerance="10"
     inkscape:pageopacity="0"
     inkscape:pageshadow="2"
     inkscape:window-width="996"
     inkscape:window-height="709"
     id="namedview7"
     showgrid="false"
     fit-margin-top="0"
     fit-margin-left="0"
     fit-margin-right="0"
     fit-margin-bottom="0"
     inkscape:zoom="10.976744"
     inkscape:cx="-3.3516961"
     inkscape:cy="10.5"
     inkscape:window-x="0"
     inkscape:window-y="0"
     inkscape:window-maximized="0"
     inkscape:current-layer="Layer_1" /><style
     type="text/css"
     id="style3">
	.st0{fill:#221F1F;}
</style><path
     class="st0"
     d="m 24.513617,11.134883 c -0.291828,0 -0.486381,0.195349 -0.486381,0.488373 l 0,2.051163 -3.11284,-7.6186051 c 0,0 0,0 0,0 l 0,-2.6372093 C 20.914396,1.5627907 19.455252,0 17.509726,0 L 7.4902714,0 C 5.544746,0 4.0856021,1.5627907 4.0856021,3.4186046 l 0,2.539535 c 0,0 0,0 0,0 l -3.11284045,7.7162794 0,-2.148838 c 0,-0.293023 -0.1945525,-0.488371 -0.48638124,-0.488371 -0.29182886,0 -0.48638136367432,0.293022 -0.48638136367432,0.586046 l 0,8.888372 C -9.5367432e-7,20.804651 0.19455155,21 0.48638041,21 0.77820915,21 0.97276165,20.804651 0.97276165,20.511628 l 0,-0.781396 23.05447435,0 0,0.781396 c 0,0.293023 0.194553,0.488372 0.486381,0.488372 0.29183,0 0.486382,-0.195349 0.486382,-0.488372 l 0,-8.986047 c 0,-0.195349 -0.194552,-0.390698 -0.486382,-0.390698 z M 5.0583648,3.4186046 c 0,-1.3674418 1.0700389,-2.4418604 2.4319066,-2.4418604 l 10.0194546,0 c 1.361868,0 2.431907,1.0744186 2.431907,2.4418604 l 0,2.0511629 -0.486381,0 -0.194553,-0.7813954 C 19.066147,3.9069768 18.482489,3.4186046 17.801556,3.4186046 l -3.112841,0 c -0.680934,0 -1.264591,0.4883722 -1.459144,1.2697675 l -0.194553,0.7813954 -1.167314,0 -0.194553,-0.7813954 C 11.478598,3.9069768 10.894941,3.4186046 10.214007,3.4186046 l -3.0155644,0 c -0.6809338,0 -1.2645914,0.4883722 -1.4591439,1.2697675 l -0.1945527,0.7813954 -0.4863812,0 0,-2.0511629 z M 18.677042,7.9116279 c -0.09727,0.097675 -0.194553,0.1953489 -0.389106,0.1953489 l -4.085603,0 c -0.194552,0 -0.291828,-0.097674 -0.389104,-0.1953489 -0.09727,-0.1953489 -0.194553,-0.3906976 -0.09727,-0.6837208 l 0.194552,-0.7813954 0.194552,-0.9767442 0.09727,-0.5860465 c 0.09727,-0.2930234 0.29183,-0.4883722 0.486382,-0.4883722 l 3.112841,0 c 0.194552,0 0.48638,0.1953488 0.48638,0.4883722 l 0.09727,0.5860465 0.194554,0.9767442 0.194552,0.7813954 c 0.09727,0.2930232 0,0.4883719 -0.09727,0.6837208 z m -7.490273,0 c -0.09727,0.097675 -0.194552,0.1953489 -0.389104,0.1953489 l -4.0856037,0 c -0.1945525,0 -0.2918289,-0.097674 -0.3891051,-0.1953489 C 6.2256799,7.716279 6.1284037,7.5209303 6.2256799,7.2279071 L 6.4202324,6.4465117 6.614785,5.4697675 6.7120613,4.883721 C 6.8093375,4.5906976 7.00389,4.3953488 7.1984426,4.3953488 l 3.1128404,0 c 0.194552,0 0.486382,0.1953488 0.486382,0.4883722 l 0.09727,0.5860465 0.194552,0.9767442 0.194552,0.7813954 c 0.09727,0.2930232 0,0.4883719 -0.09727,0.6837208 z m -6.2256805,-1.4651162 0.389105,0 -0.097276,0.5860464 c -0.097276,0.4883722 0,1.0744187 0.2918288,1.4651163 0.2918288,0.3906977 0.6809338,0.5860466 1.1673152,0.5860466 l 4.0856035,0 c 0.389105,0 0.875486,-0.1953489 1.167315,-0.5860466 0.291828,-0.3906976 0.48638,-0.9767441 0.291828,-1.4651163 l -0.09727,-0.488372 0.778211,0 -0.09727,0.488372 c -0.09727,0.4883722 0,1.0744187 0.291828,1.4651163 0.29183,0.3906977 0.680934,0.5860466 1.167316,0.5860466 l 4.085603,0 c 0.389105,0 0.875486,-0.1953489 1.167315,-0.5860466 0.291829,-0.3906976 0.486381,-0.9767441 0.291829,-1.4651163 l -0.09727,-0.488372 0.389105,0 3.501945,8.6930239 -22.1789876,0 3.5019456,-8.7906983 z m 19.0661475,12.3069763 -23.05447435,0 0,-2.637209 23.05447435,0 0,2.637209 z"
     id="path5"
     style="fill:#4291c3;fill-opacity:1;stroke:none"
     inkscape:connector-curvature="0" /></svg>