<?xml version="1.0" encoding="UTF-8" standalone="no"?>
<!-- Generator: Adobe Illustrator 19.2.1, SVG Export Plug-In . SVG Version: 6.00 Build 0)  -->

<svg
   xmlns:dc="http://purl.org/dc/elements/1.1/"
   xmlns:cc="http://creativecommons.org/ns#"
   xmlns:rdf="http://www.w3.org/1999/02/22-rdf-syntax-ns#"
   xmlns:svg="http://www.w3.org/2000/svg"
   xmlns="http://www.w3.org/2000/svg"
   xmlns:sodipodi="http://sodipodi.sourceforge.net/DTD/sodipodi-0.dtd"
   xmlns:inkscape="http://www.inkscape.org/namespaces/inkscape"
   version="1.1"
   id="Layer_1"
   x="0px"
   y="0px"
   width="27.280001"
   height="31"
   viewBox="0 0 27.280002 31.000002"
   xml:space="preserve"
   inkscape:version="0.91 r13725"
   sodipodi:docname="Calendar_ICON2_TALL.svg"><metadata
     id="metadata9"><rdf:RDF><cc:Work
         rdf:about=""><dc:format>image/svg+xml</dc:format><dc:type
           rdf:resource="http://purl.org/dc/dcmitype/StillImage" /><dc:title></dc:title></cc:Work></rdf:RDF></metadata><defs
     id="defs7" /><sodipodi:namedview
     pagecolor="#ffffff"
     bordercolor="#666666"
     borderopacity="1"
     objecttolerance="10"
     gridtolerance="10"
     guidetolerance="10"
     inkscape:pageopacity="0"
     inkscape:pageshadow="2"
     inkscape:window-width="1069"
     inkscape:window-height="652"
     id="namedview5"
     showgrid="false"
     fit-margin-top="0"
     fit-margin-left="0"
     fit-margin-right="0"
     fit-margin-bottom="0"
     inkscape:zoom="9.5161293"
     inkscape:cx="12.273898"
     inkscape:cy="16.357437"
     inkscape:window-x="0"
     inkscape:window-y="0"
     inkscape:window-maximized="0"
     inkscape:current-layer="Layer_1" /><path
     d="m 24.151561,4.0000006 -4.129542,0 0,-3.3750004 C 20.022019,0.2500001 19.646607,0 19.396332,0 19.146055,0 18.770643,0.2500001 18.770643,0.6250002 l 0,3.3750004 -4.379817,0 0,-3.3750004 C 14.390826,0.2500001 14.140551,0 13.765137,0 13.389725,0 13.139449,0.2500001 13.139449,0.6250002 l 0,3.3750004 -4.5049543,0 0,-3.3750004 C 8.6344947,0.2500001 8.2590817,0 8.0088067,0 7.7585317,0 7.3831177,0.2500001 7.3831177,0.6250002 l 0,3.3750004 -4.2546788,0 c -1.751927,0 -3.1284408073489,1.3750001 -3.1284408073489,3.1250007 l 0,20.7500027 c 0,1.75 1.3765138073489,3.125 3.1284408073489,3.125 l 21.0231221,0 c 1.751927,0 3.128441,-1.375 3.128441,-3.125 l 0,-20.7500027 c 0,-1.7500006 -1.376514,-3.1250007 -3.128441,-3.1250007 z m 1.877064,23.7500024 c 0,1.000001 -0.875963,1.875001 -1.877064,1.875001 l -21.0231221,0 c -1.0011012,0 -1.8770646,-0.875 -1.8770646,-1.875001 l 0,-15.000002 24.7772507,0 0,15.000002 z m 0,-16.125002 -24.7772507,0 0,-4.4999997 c 0,-1.000001 0.8759634,-1.8750005 1.8770646,-1.8750005 l 4.2546788,0 0,3.1250005 c 0,0.375 0.250276,0.625 0.625689,0.625 0.375412,0 0.625688,-0.25 0.625688,-0.625 l 0,-3.1250005 4.3798173,0 0,3.1250005 c 0,0.375 0.250276,0.625 0.625688,0.625 0.375412,0 0.625688,-0.25 0.625688,-0.625 l 0,-3.1250005 4.504955,0 0,3.1250005 c 0,0.375 0.250275,0.625 0.625689,0.625 0.375412,0 0.625687,-0.375 0.625687,-0.75 l 0,-3.0000005 4.25468,0 c 1.0011,0 1.877064,0.8749995 1.877064,1.8750005 l 0,4.4999997 z"
     id="path3"
     style="fill:#4291c3;fill-opacity:1;stroke:none"
     inkscape:connector-curvature="0" /></svg>