<?xml version="1.0" encoding="utf-8"?>
<!-- Generator: Adobe Illustrator 19.2.1, SVG Export Plug-In . SVG Version: 6.00 Build 0)  -->
<svg version="1.1" xmlns="http://www.w3.org/2000/svg" xmlns:xlink="http://www.w3.org/1999/xlink" x="0px" y="0px" width="1536px"
	 height="2048px" viewBox="0 0 1536 2048" style="enable-background:new 0 0 1536 2048;" xml:space="preserve">
<style type="text/css">
	.st0{fill:#FFC757;}
	.st1{opacity:0.4;}
	.st2{fill:url(#SVGID_1_);}
	.st3{fill:#FFCF4A;}
	.st4{opacity:0.4;fill:url(#SVGID_2_);}
	.st5{opacity:0.4;fill:url(#SVGID_3_);}
	.st6{opacity:0.4;fill:url(#SVGID_4_);}
	.st7{opacity:0.4;fill:url(#SVGID_5_);}
	.st8{fill:#FBFF5A;}
	.st9{opacity:0.4;fill:url(#SVGID_6_);}
	.st10{opacity:0.33;fill:#0073a3;}
	.st11{fill:#FFFFFF;}
	.st12{opacity:0.34;fill:#FFFFFF;}
	.st13{fill:url(#SVGID_7_);}
	.st14{fill:url(#SVGID_8_);}
	.st15{fill:url(#SVGID_9_);}
	.st16{fill:url(#SVGID_10_);}
	.st17{fill:url(#SVGID_11_);}
	.st18{fill:url(#SVGID_12_);}
	.st19{fill:url(#SVGID_13_);}
	.st20{opacity:0.2;}
	.st21{fill:url(#SVGID_14_);}
	.st22{opacity:0.4;fill:#FFFFFF;}
	.st23{fill:url(#SVGID_15_);}
	.st24{opacity:0.2;fill:#0073a3;}
	.st25{opacity:0.4;fill:url(#SVGID_16_);}
	.st26{opacity:0.47;}
	.st27{opacity:0.4;fill:url(#SVGID_17_);}
	.st28{opacity:0.7;fill:#FFFFFF;}
	.st29{opacity:0.63;}
	.st30{fill:#0073a3;}
	.st31{opacity:0.5;}
	.st32{fill:url(#SVGID_18_);}
	.st33{fill:url(#SVGID_19_);}
</style>
<g id="Layer_4">
	<path class="st0" d="M1204.6,1093.9c1.8,1.1,2,1.7,1.2,3.7c-1.1,2.8-2.2,5.6-3,8.5c-1.9,6.8-2,13.6-0.9,20.5
		c0.9,5.1,2.5,9.9,4.9,14.4c2.9,5.4,6.7,10.1,11.4,14.1c6.2,5.3,13.3,8.8,21.3,10.5c7.5,1.6,14.9,1.4,22.3-0.6
		c2.9-0.8,5.8-1.8,8.5-3.1c1.9-0.9,2.6-0.7,3.7,0.9c0,0.4,0,0.7,0,1.1c-1.7,2.8-3.3,5.7-5.2,8.5c-2.4,3.5-5.3,6.5-8.5,9.2
		c-4.3,3.6-9,6.4-14.2,8.4c-4.2,1.7-8.6,2.8-13.1,3.3c-1.7,0.2-3.3,0.3-5,0.5c-1.1,0-2.1,0-3.2,0c-1.5-0.2-3.1-0.3-4.6-0.5
		c-8.4-1-16.1-3.9-23.1-8.6c-6.8-4.6-12.3-10.5-16.3-17.7c-3.3-5.9-5.5-12.2-6.3-19c-0.2-1.2-0.3-2.4-0.5-3.6c0-2,0-4,0-6.1
		c0-0.3,0.1-0.6,0.1-0.9c0.3-3.6,0.8-7.1,1.8-10.5c1.8-6.2,4.5-11.9,8.4-17c3.4-4.6,7.4-8.5,12.2-11.7c2.3-1.5,4.8-2.8,7.2-4.3
		C1204.1,1093.9,1204.3,1093.9,1204.6,1093.9z"/>
	<g class="st1">
		<linearGradient id="SVGID_1_" gradientUnits="userSpaceOnUse" x1="1175.1554" y1="1143.8711" x2="1273.1934" y2="1143.8711">
			<stop  offset="0" style="stop-color:#FFFFFF;stop-opacity:0"/>
			<stop  offset="0.2101" style="stop-color:#FFE8E1;stop-opacity:0.2101"/>
			<stop  offset="0.6656" style="stop-color:#FFAC93;stop-opacity:0.6656"/>
			<stop  offset="1" style="stop-color:#FF7E57"/>
		</linearGradient>
		<path class="st2" d="M1205.1,1094.9c1.8,1.1,1.9,1.7,1.2,3.6c-1.1,2.7-2.2,5.5-3,8.3c-1.8,6.6-2,13.4-0.9,20.2
			c0.8,5,2.5,9.7,4.9,14.1c2.8,5.3,6.6,9.9,11.2,13.8c6.1,5.2,13.1,8.6,20.9,10.3c7.3,1.5,14.6,1.4,21.8-0.6
			c2.9-0.8,5.7-1.8,8.4-3.1c1.9-0.9,2.5-0.7,3.7,0.9c0,0.4,0,0.7,0,1.1c-1.7,2.8-3.3,5.6-5.1,8.3c-2.3,3.4-5.2,6.4-8.4,9
			c-4.2,3.5-8.8,6.3-13.9,8.3c-4.1,1.6-8.4,2.7-12.8,3.2c-1.6,0.2-3.3,0.3-4.9,0.5c-1,0-2.1,0-3.1,0c-1.5-0.2-3-0.3-4.5-0.5
			c-8.2-1-15.8-3.8-22.6-8.5c-6.7-4.5-12-10.3-16-17.4c-3.3-5.8-5.4-12-6.2-18.7c-0.1-1.2-0.3-2.4-0.5-3.6c0-2,0-4,0-6
			c0-0.3,0.1-0.6,0.1-0.8c0.3-3.5,0.8-6.9,1.8-10.3c1.7-6.1,4.4-11.7,8.2-16.7c3.4-4.5,7.3-8.4,11.9-11.5c2.3-1.5,4.7-2.8,7-4.2
			C1204.5,1094.9,1204.8,1094.9,1205.1,1094.9z"/>
	</g>
	<g>
		<polygon class="st3" points="1383,580.9 1387.2,572.5 1391.3,581 1400.7,582.4 1393.8,588.9 1395.4,598.3 1387.1,593.8 
			1378.7,598.1 1380.3,588.8 1373.6,582.2 		"/>
		<linearGradient id="SVGID_2_" gradientUnits="userSpaceOnUse" x1="1387.1521" y1="572.4976" x2="1387.1521" y2="598.2549">
			<stop  offset="0" style="stop-color:#FFFFFF;stop-opacity:0"/>
			<stop  offset="1" style="stop-color:#ADAEB0"/>
		</linearGradient>
		<polygon class="st4" points="1383,580.9 1387.2,572.5 1391.3,581 1400.7,582.4 1393.8,588.9 1395.4,598.3 1387.1,593.8 
			1378.7,598.1 1380.3,588.8 1373.6,582.2 		"/>
	</g>
	<g>
		<g>
			<polygon class="st3" points="975.3,1324.4 979.5,1316 983.6,1324.5 992.9,1326 986.1,1332.5 987.6,1341.8 979.3,1337.3 
				971,1341.6 972.6,1332.4 965.9,1325.7 			"/>
			<linearGradient id="SVGID_3_" gradientUnits="userSpaceOnUse" x1="979.4412" y1="1316.0265" x2="979.4412" y2="1341.7838">
				<stop  offset="0" style="stop-color:#FFFFFF;stop-opacity:0"/>
				<stop  offset="1" style="stop-color:#ADAEB0"/>
			</linearGradient>
			<polygon class="st5" points="975.3,1324.4 979.5,1316 983.6,1324.5 992.9,1326 986.1,1332.5 987.6,1341.8 979.3,1337.3 
				971,1341.6 972.6,1332.4 965.9,1325.7 			"/>
		</g>
	</g>
	<g>
		<g>
			<polygon class="st3" points="104.1,385.6 108.4,377.2 112.5,385.7 121.8,387.1 115,393.6 116.5,402.9 108.2,398.5 99.8,402.8 
				101.5,393.5 94.8,386.9 			"/>
			<linearGradient id="SVGID_4_" gradientUnits="userSpaceOnUse" x1="108.2816" y1="377.1782" x2="108.2816" y2="402.9356">
				<stop  offset="0" style="stop-color:#FFFFFF;stop-opacity:0"/>
				<stop  offset="1" style="stop-color:#ADAEB0"/>
			</linearGradient>
			<polygon class="st6" points="104.1,385.6 108.4,377.2 112.5,385.7 121.8,387.1 115,393.6 116.5,402.9 108.2,398.5 99.8,402.8 
				101.5,393.5 94.8,386.9 			"/>
		</g>
	</g>
	<g>
		<g>
			<polygon class="st3" points="100.7,1175.2 104.9,1166.8 109,1175.3 118.3,1176.7 111.5,1183.2 113,1192.5 104.7,1188.1 
				96.3,1192.4 98,1183.1 91.3,1176.5 			"/>
			<linearGradient id="SVGID_5_" gradientUnits="userSpaceOnUse" x1="104.8297" y1="1166.7853" x2="104.8297" y2="1192.5426">
				<stop  offset="0" style="stop-color:#FFFFFF;stop-opacity:0"/>
				<stop  offset="1" style="stop-color:#ADAEB0"/>
			</linearGradient>
			<polygon class="st7" points="100.7,1175.2 104.9,1166.8 109,1175.3 118.3,1176.7 111.5,1183.2 113,1192.5 104.7,1188.1 
				96.3,1192.4 98,1183.1 91.3,1176.5 			"/>
		</g>
	</g>
	<circle class="st8" cx="403.4" cy="320.7" r="7.6"/>
	<circle class="st8" cx="340.1" cy="749.4" r="5"/>
	<circle class="st8" cx="769.9" cy="857.7" r="5"/>
	<circle class="st8" cx="685.5" cy="1088.3" r="5"/>
	<circle class="st8" cx="993.1" cy="464.5" r="5"/>
	<circle class="st8" cx="504.3" cy="408.6" r="5"/>
	<circle class="st8" cx="623.2" cy="460.3" r="5"/>
	<circle class="st8" cx="588.7" cy="177.9" r="5"/>
	<circle class="st8" cx="907.7" cy="1634.6" r="6.3"/>
	<circle class="st8" cx="458.3" cy="1271.5" r="5"/>
	<circle class="st8" cx="542.7" cy="1040.8" r="5"/>
</g>
<g id="Layer_3">
	<linearGradient id="SVGID_6_" gradientUnits="userSpaceOnUse" x1="768" y1="-5.2139" x2="768" y2="2049.9912">
		<stop  offset="0" style="stop-color:#F8C053;stop-opacity:0.5"/>
		<stop  offset="1" style="stop-color:#D81A1A;stop-opacity:0.8"/>
	</linearGradient>
	<rect y="-5.2" class="st9" width="1536" height="2050.6"/>
	<path class="st10" d="M1368,1687.8l-20.5-11.8v-268.7l-161.3,1.5v322.3l-65.1-59.8v-141.9l-162.9,42.2v126.3l-65.9,1.8l-0.4-152.9
		l-152.1-111.7v286.7h-82.7v-212.4H427.7v172.2h-60.3v-77.9l-102.5-70.5v72.1h-40.6v-230.2l-101.5,58.7l1.5,87.6l-39.9-1.1v-117.5
		l-32.4-0.3l0.6,47.5H0v597.2h1368V1687.8z M551.8,1575.4h-26.3v-42.4h26.3V1575.4z"/>
	<rect x="1210.4" y="1527.3" class="st11" width="22.5" height="47.5"/>
	<rect x="1280.4" y="1452.3" class="st11" width="22.5" height="47.5"/>
	<rect x="1280.4" y="1546.5" class="st11" width="22.5" height="47.5"/>
	<rect x="960.7" y="1735" class="st12" width="22.5" height="47.5"/>
	<rect x="25.3" y="1942.2" class="st11" width="22.5" height="47.5"/>
	<polygon class="st10" points="1537.3,1531.7 1464,1574.1 1465.2,1642.2 1434.1,1641.4 1434.1,1550 1408.9,1549.8 1409.4,1586.7 
		1368.5,1586.7 1368.5,2051.1 1537.3,2051.1 	"/>
	<rect x="1390.2" y="1969.4" class="st11" width="17.5" height="36.9"/>
</g>
<g id="Layer_1">
	<g class="st1">
		
			<linearGradient id="SVGID_7_" gradientUnits="userSpaceOnUse" x1="603.9227" y1="-3639.2756" x2="603.5311" y2="-3356.7063" gradientTransform="matrix(-1.2579 1.744209e-03 -3.426255e-03 -2.4722 2024.9644 -6889.666)">
			<stop  offset="0" style="stop-color:#FFFFFF;stop-opacity:0"/>
			<stop  offset="1" style="stop-color:#ADAEB0"/>
		</linearGradient>
		<polygon class="st13" points="1367.2,2043.3 1367.2,1688.4 1348.8,1677 1348.6,1410 1187.7,1409.9 1188,2043.3 		"/>
	</g>
	<g class="st1">
		
			<linearGradient id="SVGID_8_" gradientUnits="userSpaceOnUse" x1="1790.9382" y1="-15626.0586" x2="1788.016" y2="-13517.8643" gradientTransform="matrix(-0.8418 1.166606e-03 -3.370158e-04 -0.2429 1817.3602 -1750.0414)">
			<stop  offset="0" style="stop-color:#FFFFFF;stop-opacity:0"/>
			<stop  offset="1" style="stop-color:#ADAEB0"/>
		</linearGradient>
		<polygon class="st14" points="266.1,2048 266.8,1535.9 366.4,1604.7 364.2,2039.6 		"/>
	</g>
	<g class="st1">
		
			<linearGradient id="SVGID_9_" gradientUnits="userSpaceOnUse" x1="1293.2213" y1="-5223.0435" x2="1292.993" y2="-5058.3818" gradientTransform="matrix(-1.3372 1.853679e-03 -2.337203e-03 -1.6862 2116.6628 -6806.2881)">
			<stop  offset="0" style="stop-color:#FFFFFF;stop-opacity:0"/>
			<stop  offset="1" style="stop-color:#ADAEB0"/>
		</linearGradient>
		<polygon class="st15" points="311.8,2003.4 312.6,1726.1 487.4,1725.8 487.4,1996.6 		"/>
	</g>
	<g class="st1">
		
			<linearGradient id="SVGID_10_" gradientUnits="userSpaceOnUse" x1="78.5498" y1="1628.5929" x2="-28.46" y2="1521.5831" gradientTransform="matrix(-1 0 0 1 839.4969 0)">
			<stop  offset="0" style="stop-color:#FFFFFF;stop-opacity:0"/>
			<stop  offset="1" style="stop-color:#ADAEB0"/>
		</linearGradient>
		<polygon class="st16" points="891.4,1546.2 738.4,1434.5 738.4,1606 891.4,1714.9 		"/>
	</g>
	<g class="st1">
		
			<linearGradient id="SVGID_11_" gradientUnits="userSpaceOnUse" x1="1028.0961" y1="-5003.6226" x2="1027.8676" y2="-4838.8042" gradientTransform="matrix(-1.743 2.415622e-03 -1.386494e-03 -1 2327.5195 -3331.2759)">
			<stop  offset="0" style="stop-color:#FFFFFF;stop-opacity:0"/>
			<stop  offset="1" style="stop-color:#ADAEB0"/>
		</linearGradient>
		<polygon class="st17" points="428.8,1674.9 428.8,1510.3 656.6,1509.9 656.4,1670.7 		"/>
	</g>
	<g class="st1">
		
			<linearGradient id="SVGID_12_" gradientUnits="userSpaceOnUse" x1="1586.0703" y1="-3478.241" x2="1585.8975" y2="-3353.5647" gradientTransform="matrix(-1.2579 1.744209e-03 -3.426255e-03 -2.4722 2024.9644 -6889.666)">
			<stop  offset="0" style="stop-color:#FFFFFF;stop-opacity:0"/>
			<stop  offset="1" style="stop-color:#ADAEB0"/>
		</linearGradient>
		<polygon class="st18" points="0,1683.3 83.3,1520.3 83.3,1452.3 83.3,1403.9 52.3,1403.9 52.3,1452.3 0,1452.3 0.3,1683.3 		"/>
	</g>
	<g class="st1">
		
			<linearGradient id="SVGID_13_" gradientUnits="userSpaceOnUse" x1="774.7251" y1="-3627.7751" x2="774.531" y2="-3487.7236" gradientTransform="matrix(-1.2579 1.744209e-03 -3.426255e-03 -2.4722 2024.9644 -6889.666)">
			<stop  offset="0" style="stop-color:#FFFFFF;stop-opacity:0"/>
			<stop  offset="1" style="stop-color:#ADAEB0"/>
		</linearGradient>
		<polygon class="st19" points="998.7,2048 1126.8,2048 1126.8,1769.6 1126.8,1734.2 1079.2,1734.2 1079.2,1769.5 998.7,1769.5 
			999.2,1938.4 		"/>
	</g>
	<g class="st20">
		<linearGradient id="SVGID_14_" gradientUnits="userSpaceOnUse" x1="864.0381" y1="2152.0879" x2="864.0381" y2="1703.3973">
			<stop  offset="0" style="stop-color:#FFFFFF;stop-opacity:0"/>
			<stop  offset="1" style="stop-color:#ADAEB0"/>
		</linearGradient>
		<polygon class="st21" points="787.5,2040.2 941,2040.2 940.6,1742.6 836.2,1742.5 836.1,1703.4 804.5,1703.4 804.5,1728.5 
			787,1729.3 787.1,1744 		"/>
	</g>
	<rect x="175.9" y="1443.7" class="st22" width="20" height="42.2"/>
	<rect x="43.1" y="1658.7" class="st22" width="20" height="40.7"/>
	<rect x="101.8" y="1832.6" class="st22" width="20" height="42.2"/>
	<rect x="840.3" y="1581" class="st22" width="20" height="42.2"/>
	<rect x="797.8" y="1851.4" class="st22" width="20" height="42.2"/>
	<rect x="394.1" y="1769" class="st22" width="20" height="42.2"/>
	<rect x="588.1" y="1626.8" class="st22" width="20" height="42.2"/>
	<rect x="602.6" y="1544.5" class="st22" width="20" height="42.2"/>
	<g class="st1">
		
			<linearGradient id="SVGID_15_" gradientUnits="userSpaceOnUse" x1="1554.3085" y1="-3633.5254" x2="1554.0208" y2="-3425.978" gradientTransform="matrix(-1.2579 1.744209e-03 -3.426255e-03 -2.4722 2024.9644 -6889.666)">
			<stop  offset="0" style="stop-color:#FFFFFF;stop-opacity:0"/>
			<stop  offset="1" style="stop-color:#ADAEB0"/>
		</linearGradient>
		<polygon class="st23" points="164.1,2048 163.8,1582.9 0,1582.9 0.3,2048 		"/>
	</g>
	<rect x="546.1" y="1901.1" class="st22" width="20" height="42.2"/>
	<rect x="983.4" y="1584.7" class="st22" width="20" height="42.2"/>
	<g>
		<path class="st24" d="M1271.9,284.9h120.9c0,0,9.7-8.6,0.7-20.8c-9-12.3-19.5-6.1-19.5-6.1s4.9-7.1-2-14.8
			c-4.2-4.7-7.1-5.2-15.1-4.8c0,0-3.5-16.7-19.6-6.4c0,0-11.4-21.6-37.4-11.7c-16.1,6.1-16.6,20.7-15.7,30.4c0,0-19.6-4.9-22.9,13.1
			c0,0-21.2-4.9-19.6,21.2H1271.9z"/>
		<linearGradient id="SVGID_16_" gradientUnits="userSpaceOnUse" x1="1285.7994" y1="224.395" x2="1337.2292" y2="313.474">
			<stop  offset="0" style="stop-color:#FFFFFF;stop-opacity:0"/>
			<stop  offset="0.9949" style="stop-color:#ADAEB0;stop-opacity:0.5"/>
		</linearGradient>
		<path class="st25" d="M1268.2,283.6h120.9c0,0,9.7-8.6,0.7-20.8s-19.5-6.1-19.5-6.1s4.9-7.1-2-14.8c-4.2-4.7-7.1-5.2-15.1-4.8
			c0,0-3.5-16.7-19.6-6.4c0,0-11.4-21.6-37.4-11.7c-16.1,6.1-16.6,20.7-15.7,30.4c0,0-19.6-4.9-22.9,13.1c0,0-21.2-4.9-19.6,21.2
			H1268.2z"/>
	</g>
	<g class="st26">
		<path class="st24" d="M189.6,750.4c0,0-10.6-22.4-43-17.5c-18.7,2.8-23.9,29.1-23.9,29.1s-20.2-6.1-25.7,16.2
			c0,0-2.5,18.1,14.4,20.8c0,0,1,12.9,12.9,14.9c11.9,2,17.7-7.5,17.7-7.5s11.4,14.4,31.7,13.6c21.3-0.9,26.3-12,26.3-12
			s30.8-0.3,29.9-32.2C229,745.2,189.6,750.4,189.6,750.4z"/>
		<linearGradient id="SVGID_17_" gradientUnits="userSpaceOnUse" x1="96.8738" y1="776.091" x2="229.917" y2="776.091">
			<stop  offset="0" style="stop-color:#FFFFFF;stop-opacity:0"/>
			<stop  offset="0.9949" style="stop-color:#ADAEB0;stop-opacity:0.5"/>
		</linearGradient>
		<path class="st27" d="M189.6,750.4c0,0-10.6-22.4-43-17.5c-18.7,2.8-23.9,29.1-23.9,29.1s-20.2-6.1-25.7,16.2
			c0,0-2.5,18.1,14.4,20.8c0,0,1,12.9,12.9,14.9c11.9,2,17.7-7.5,17.7-7.5s11.4,14.4,31.7,13.6c21.3-0.9,26.3-12,26.3-12
			s30.8-0.3,29.9-32.2C229,745.2,189.6,750.4,189.6,750.4z"/>
	</g>
	<path class="st28" d="M527.7,1901.2h39.5v-3.4H456.6v3.4h19.7v13.4h-7.1v67.4h65.7v-67.4h-7.1V1901.2z M479.7,1901.2h44.6v13.4
		h-44.6V1901.2z"/>
	<g class="st29">
		<path class="st30" d="M513.8,1956.5c0,2.3-0.9,4.2-2.6,5.7s-4.1,2.4-7.2,2.8v5.9h-3.3v-5.6c-1.9,0-3.7-0.1-5.5-0.4
			c-1.8-0.3-3.2-0.7-4.4-1.2v-4c1.4,0.6,3,1.1,4.9,1.5c1.8,0.4,3.5,0.6,5,0.6v-11.1c-3.5-1.1-5.9-2.4-7.3-3.8
			c-1.4-1.5-2.1-3.3-2.1-5.6c0-2.2,0.9-4,2.6-5.4c1.7-1.4,4-2.3,6.8-2.6v-4.6h3.3v4.6c3.1,0.1,6.1,0.7,9,1.9l-1.3,3.3
			c-2.5-1-5.1-1.6-7.7-1.8v11c2.7,0.8,4.6,1.7,6,2.5c1.3,0.8,2.3,1.7,2.9,2.8S513.8,1955,513.8,1956.5z M495.7,1941.1
			c0,1.3,0.4,2.3,1.1,3.1c0.8,0.8,2.1,1.5,4,2.2v-9.8c-1.7,0.3-2.9,0.8-3.8,1.6C496.1,1939,495.7,1939.9,495.7,1941.1z
			 M509.5,1956.8c0-1.2-0.4-2.2-1.1-3s-2.2-1.5-4.4-2.2v9.9C507.7,1961,509.5,1959.4,509.5,1956.8z"/>
	</g>
	<path class="st28" d="M78.8,1672.7h-7.1v67.4h65.7v-67.4h-7.1v-13.4H150v-3.4H41.5v3.4h37.3V1672.7z M126.8,1672.7H82.2v-13.4h44.6
		V1672.7z"/>
	<g class="st29">
		<path class="st30" d="M115.8,1714.5c0,2.3-0.9,4.2-2.6,5.7s-4.1,2.4-7.2,2.8v5.9h-3.3v-5.6c-1.9,0-3.7-0.1-5.5-0.4
			c-1.8-0.3-3.2-0.7-4.4-1.2v-4c1.4,0.6,3,1.1,4.9,1.5c1.8,0.4,3.5,0.6,5,0.6v-11.1c-3.5-1.1-5.9-2.4-7.3-3.8
			c-1.4-1.5-2.1-3.3-2.1-5.6c0-2.2,0.9-4,2.6-5.4c1.7-1.4,4-2.3,6.8-2.6v-4.6h3.3v4.6c3.1,0.1,6.1,0.7,9,1.9l-1.3,3.3
			c-2.5-1-5.1-1.6-7.7-1.8v11c2.7,0.8,4.6,1.7,6,2.5c1.3,0.8,2.3,1.7,2.9,2.8C115.5,1711.8,115.8,1713,115.8,1714.5z M97.6,1699.1
			c0,1.3,0.4,2.3,1.1,3.1c0.8,0.8,2.1,1.5,4,2.2v-9.8c-1.7,0.3-2.9,0.8-3.8,1.6C98.1,1697,97.6,1698,97.6,1699.1z M111.5,1714.9
			c0-1.2-0.4-2.2-1.1-3s-2.2-1.5-4.4-2.2v9.9C109.7,1719,111.5,1717.5,111.5,1714.9z"/>
	</g>
	<path class="st28" d="M571.7,1626.1h37.3v-3.4H500.6v3.4h19.7v13.4h-7.1v67.4h65.7v-67.4h-7.1V1626.1z M523.7,1626.1h44.6v13.4
		h-44.6V1626.1z"/>
	<g class="st29">
		<path class="st30" d="M557.8,1681.4c0,2.3-0.9,4.2-2.6,5.7c-1.7,1.5-4.1,2.4-7.2,2.8v5.9h-3.3v-5.6c-1.9,0-3.7-0.1-5.5-0.4
			c-1.8-0.3-3.2-0.7-4.4-1.2v-4c1.4,0.6,3,1.1,4.9,1.5c1.8,0.4,3.5,0.6,5,0.6v-11.1c-3.5-1.1-5.9-2.4-7.3-3.8
			c-1.4-1.5-2.1-3.3-2.1-5.6c0-2.2,0.9-4,2.6-5.4c1.7-1.4,4-2.3,6.8-2.6v-4.6h3.3v4.6c3.1,0.1,6.1,0.7,9,1.9l-1.3,3.3
			c-2.5-1-5.1-1.6-7.7-1.8v11c2.7,0.8,4.6,1.7,6,2.5c1.3,0.8,2.3,1.7,2.9,2.8C557.5,1678.7,557.8,1679.9,557.8,1681.4z M539.7,1666
			c0,1.3,0.4,2.3,1.1,3.1c0.8,0.8,2.1,1.5,4,2.2v-9.8c-1.7,0.3-2.9,0.8-3.8,1.6S539.7,1664.8,539.7,1666z M553.5,1681.7
			c0-1.2-0.4-2.2-1.1-3s-2.2-1.5-4.4-2.2v9.9C551.7,1685.9,553.5,1684.3,553.5,1681.7z"/>
	</g>
	<path class="st28" d="M1019.6,1598.6h-7.1v67.4h65.7v-67.4h-7.1v-13.4h19.7v-3.4H982.2v3.4h37.3V1598.6z M1067.6,1598.6H1023v-13.4
		h44.6V1598.6z"/>
	<g class="st29">
		<path class="st30" d="M1056.6,1640.4c0,2.3-0.9,4.2-2.6,5.7s-4.1,2.4-7.2,2.8v5.9h-3.3v-5.6c-1.9,0-3.7-0.1-5.5-0.4
			c-1.8-0.3-3.2-0.7-4.4-1.2v-4c1.4,0.6,3,1.1,4.9,1.5c1.8,0.4,3.5,0.6,5,0.6v-11.1c-3.5-1.1-5.9-2.4-7.3-3.8s-2.1-3.3-2.1-5.6
			c0-2.2,0.9-4,2.6-5.4c1.7-1.4,4-2.3,6.8-2.6v-4.6h3.3v4.6c3.1,0.1,6.1,0.7,9,1.9l-1.3,3.3c-2.5-1-5.1-1.6-7.7-1.8v11
			c2.7,0.8,4.6,1.7,6,2.5s2.3,1.7,2.9,2.8C1056.3,1637.7,1056.6,1639,1056.6,1640.4z M1038.4,1625c0,1.3,0.4,2.3,1.1,3.1
			c0.8,0.8,2.1,1.5,4,2.2v-9.8c-1.7,0.3-2.9,0.8-3.8,1.6C1038.9,1622.9,1038.4,1623.9,1038.4,1625z M1052.3,1640.8
			c0-1.2-0.4-2.2-1.1-3s-2.2-1.5-4.4-2.2v9.9C1050.5,1644.9,1052.3,1643.4,1052.3,1640.8z"/>
	</g>
	<path class="st28" d="M1273.6,1775.2h52.3v-3.4h-123.5v3.4h19.7v13.4h-7.1v67.4h65.7v-67.4h-7.1V1775.2z M1225.6,1775.2h44.6v13.4
		h-44.6V1775.2z"/>
	<g class="st29">
		<path class="st30" d="M1259.7,1830.5c0,2.3-0.9,4.2-2.6,5.7c-1.7,1.5-4.1,2.4-7.2,2.8v5.9h-3.3v-5.6c-1.9,0-3.7-0.1-5.5-0.4
			s-3.2-0.7-4.4-1.2v-4c1.4,0.6,3,1.1,4.9,1.5c1.8,0.4,3.5,0.6,5,0.6v-11.1c-3.5-1.1-5.9-2.4-7.3-3.8s-2.1-3.3-2.1-5.6
			c0-2.2,0.9-4,2.6-5.4c1.7-1.4,4-2.3,6.8-2.6v-4.6h3.3v4.6c3.1,0.1,6.1,0.7,9,1.9l-1.3,3.3c-2.5-1-5.1-1.6-7.7-1.8v11
			c2.7,0.8,4.6,1.7,6,2.5s2.3,1.7,2.9,2.8C1259.4,1827.7,1259.7,1829,1259.7,1830.5z M1241.6,1815.1c0,1.3,0.4,2.3,1.1,3.1
			c0.8,0.8,2.1,1.5,4,2.2v-9.8c-1.7,0.3-2.9,0.8-3.8,1.6S1241.6,1813.9,1241.6,1815.1z M1255.4,1830.8c0-1.2-0.4-2.2-1.1-3
			s-2.2-1.5-4.4-2.2v9.9C1253.6,1835,1255.4,1833.4,1255.4,1830.8z"/>
	</g>
	<g class="st31">
		<path class="st11" d="M657.5,1928.5c0,1.7-0.6,3.1-1.9,4.3c-1.3,1.1-3.1,1.8-5.4,2.1v4.4h-2.4v-4.2c-1.4,0-2.8-0.1-4.1-0.3
			c-1.3-0.2-2.4-0.5-3.3-0.9v-3c1.1,0.5,2.3,0.9,3.6,1.1c1.4,0.3,2.6,0.4,3.7,0.4v-8.4c-2.6-0.8-4.4-1.8-5.5-2.9s-1.6-2.5-1.6-4.2
			c0-1.7,0.6-3,1.9-4.1c1.3-1.1,3-1.7,5.1-1.9v-3.5h2.4v3.4c2.3,0.1,4.6,0.5,6.7,1.4l-1,2.5c-1.9-0.7-3.8-1.2-5.8-1.3v8.2
			c2,0.6,3.5,1.2,4.5,1.9c1,0.6,1.7,1.3,2.2,2.1C657.2,1926.4,657.5,1927.3,657.5,1928.5z M643.9,1916.9c0,1,0.3,1.7,0.9,2.3
			s1.6,1.1,3,1.7v-7.3c-1.3,0.2-2.2,0.6-2.8,1.2C644.2,1915.3,643.9,1916,643.9,1916.9z M654.3,1928.7c0-0.9-0.3-1.6-0.8-2.2
			c-0.6-0.6-1.7-1.1-3.3-1.7v7.4C652.9,1931.8,654.3,1930.6,654.3,1928.7z"/>
	</g>
	<g class="st31">
		<path class="st11" d="M1228.2,1460.4c0,1.7-0.6,3.1-1.9,4.3c-1.3,1.1-3.1,1.8-5.4,2.1v4.4h-2.4v-4.2c-1.4,0-2.8-0.1-4.1-0.3
			s-2.4-0.5-3.3-0.9v-3c1.1,0.5,2.3,0.9,3.6,1.1c1.4,0.3,2.6,0.4,3.7,0.4v-8.4c-2.6-0.8-4.4-1.8-5.5-2.9c-1-1.1-1.6-2.5-1.6-4.2
			c0-1.7,0.6-3,1.9-4.1c1.3-1.1,3-1.7,5.1-1.9v-3.5h2.4v3.4c2.3,0.1,4.6,0.5,6.7,1.4l-1,2.5c-1.9-0.7-3.8-1.2-5.8-1.3v8.2
			c2,0.6,3.5,1.2,4.5,1.9c1,0.6,1.7,1.3,2.2,2.1S1228.2,1459.2,1228.2,1460.4z M1214.5,1448.8c0,1,0.3,1.7,0.9,2.3
			c0.6,0.6,1.6,1.1,3,1.7v-7.3c-1.3,0.2-2.2,0.6-2.8,1.2C1214.9,1447.2,1214.5,1447.9,1214.5,1448.8z M1224.9,1460.6
			c0-0.9-0.3-1.6-0.8-2.2s-1.7-1.1-3.3-1.7v7.4C1223.6,1463.7,1224.9,1462.6,1224.9,1460.6z"/>
	</g>
	<g class="st31">
		<path class="st11" d="M477.3,1551.8c0,1.7-0.6,3.1-1.9,4.3c-1.3,1.1-3.1,1.8-5.4,2.1v4.4h-2.4v-4.2c-1.4,0-2.8-0.1-4.1-0.3
			s-2.4-0.5-3.3-0.9v-3c1.1,0.5,2.3,0.9,3.6,1.1c1.4,0.3,2.6,0.4,3.7,0.4v-8.4c-2.6-0.8-4.4-1.8-5.5-2.9c-1-1.1-1.6-2.5-1.6-4.2
			c0-1.7,0.6-3,1.9-4.1c1.3-1.1,3-1.7,5.1-1.9v-3.5h2.4v3.4c2.3,0.1,4.6,0.5,6.7,1.4l-1,2.5c-1.9-0.7-3.8-1.2-5.8-1.3v8.2
			c2,0.6,3.5,1.2,4.5,1.9c1,0.6,1.7,1.3,2.2,2.1C477.1,1549.7,477.3,1550.6,477.3,1551.8z M463.7,1540.2c0,1,0.3,1.7,0.9,2.3
			c0.6,0.6,1.6,1.1,3,1.7v-7.3c-1.3,0.2-2.2,0.6-2.8,1.2C464,1538.6,463.7,1539.3,463.7,1540.2z M474.1,1552c0-0.9-0.3-1.6-0.8-2.2
			c-0.6-0.6-1.7-1.1-3.3-1.7v7.4C472.7,1555.1,474.1,1553.9,474.1,1552z"/>
	</g>
	<g class="st31">
		<path class="st11" d="M1317,1926c0,1.7-0.6,3.1-1.9,4.3c-1.3,1.1-3.1,1.8-5.4,2.1v4.4h-2.4v-4.2c-1.4,0-2.8-0.1-4.1-0.3
			c-1.3-0.2-2.4-0.5-3.3-0.9v-3c1.1,0.5,2.3,0.9,3.6,1.1c1.4,0.3,2.6,0.4,3.7,0.4v-8.4c-2.6-0.8-4.4-1.8-5.5-2.9
			c-1-1.1-1.6-2.5-1.6-4.2c0-1.7,0.6-3,1.9-4.1c1.3-1.1,3-1.7,5.1-1.9v-3.5h2.4v3.4c2.3,0.1,4.6,0.5,6.7,1.4l-1,2.5
			c-1.9-0.7-3.8-1.2-5.8-1.3v8.2c2,0.6,3.5,1.2,4.5,1.9c1,0.6,1.7,1.3,2.2,2.1C1316.8,1923.9,1317,1924.9,1317,1926z M1303.4,1914.4
			c0,1,0.3,1.7,0.9,2.3c0.6,0.6,1.6,1.1,3,1.7v-7.3c-1.3,0.2-2.2,0.6-2.8,1.2C1303.7,1912.8,1303.4,1913.6,1303.4,1914.4z
			 M1313.8,1926.2c0-0.9-0.3-1.6-0.8-2.2c-0.6-0.6-1.7-1.1-3.3-1.7v7.4C1312.4,1929.3,1313.8,1928.2,1313.8,1926.2z"/>
	</g>
	<rect x="1305.5" y="1776" class="st22" width="20" height="42.2"/>
	<g class="st1">
		
			<linearGradient id="SVGID_18_" gradientUnits="userSpaceOnUse" x1="505.6125" y1="-3510.7122" x2="505.4781" y2="-3413.7681" gradientTransform="matrix(-1.2579 1.744209e-03 -3.426255e-03 -2.4722 2024.9644 -6889.666)">
			<stop  offset="0" style="stop-color:#FFFFFF;stop-opacity:0"/>
			<stop  offset="1" style="stop-color:#ADAEB0"/>
		</linearGradient>
		<polygon class="st32" points="1368.5,1768.1 1433.3,1641.4 1433.3,1588.5 1433.3,1550.9 1409.2,1550.9 1409.2,1588.5 
			1368.5,1588.5 1368.8,1768.1 		"/>
	</g>
	<rect x="1505.2" y="1581.8" class="st22" width="15.5" height="32.8"/>
	<rect x="1404.1" y="1748.9" class="st22" width="15.5" height="31.7"/>
	<rect x="1447.6" y="1884.2" class="st22" width="15.5" height="32.8"/>
	<g class="st1">
		
			<linearGradient id="SVGID_19_" gradientUnits="userSpaceOnUse" x1="480.9155" y1="-3631.4565" x2="480.6918" y2="-3470.0742" gradientTransform="matrix(-1.2579 1.744209e-03 -3.426255e-03 -2.4722 2024.9644 -6889.666)">
			<stop  offset="0" style="stop-color:#FFFFFF;stop-opacity:0"/>
			<stop  offset="1" style="stop-color:#ADAEB0"/>
		</linearGradient>
		<polygon class="st33" points="1496.1,2051.7 1495.9,1690.1 1368.5,1690 1368.8,2051.7 		"/>
	</g>
</g>
<g id="Layer_2">
</g>
</svg>
