<?xml version="1.0" encoding="utf-8"?>
<!-- Generator: Adobe Illustrator 19.2.1, SVG Export Plug-In . SVG Version: 6.00 Build 0)  -->
<svg version="1.1" xmlns="http://www.w3.org/2000/svg" xmlns:xlink="http://www.w3.org/1999/xlink" x="0px" y="0px" width="640px"
	 height="1136px" viewBox="0 0 640 1136" style="enable-background:new 0 0 640 1136;" xml:space="preserve">
<style type="text/css">
	.st0{fill:#FFC757;}
	.st1{opacity:0.4;}
	.st2{fill:url(#SVGID_1_);}
	.st3{fill:#FFCF4A;}
	.st4{opacity:0.4;fill:url(#SVGID_2_);}
	.st5{opacity:0.4;fill:url(#SVGID_3_);}
	.st6{opacity:0.4;fill:url(#SVGID_4_);}
	.st7{opacity:0.4;fill:url(#SVGID_5_);}
	.st8{fill:#FBFF5A;}
	.st9{opacity:0.4;fill:url(#SVGID_6_);}
	.st10{opacity:0.33;fill:#0073a3;}
	.st11{fill:#FFFFFF;}
	.st12{opacity:0.34;fill:#FFFFFF;}
	.st13{fill:url(#SVGID_7_);}
	.st14{fill:url(#SVGID_8_);}
	.st15{fill:url(#SVGID_9_);}
	.st16{fill:url(#SVGID_10_);}
	.st17{fill:url(#SVGID_11_);}
	.st18{fill:url(#SVGID_12_);}
	.st19{fill:url(#SVGID_13_);}
	.st20{opacity:0.2;}
	.st21{fill:url(#SVGID_14_);}
	.st22{opacity:0.4;fill:#FFFFFF;}
	.st23{fill:url(#SVGID_15_);}
	.st24{opacity:0.2;fill:#0073a3;}
	.st25{opacity:0.4;fill:url(#SVGID_16_);}
	.st26{opacity:0.47;}
	.st27{opacity:0.4;fill:url(#SVGID_17_);}
	.st28{opacity:0.7;fill:#FFFFFF;}
	.st29{opacity:0.63;}
	.st30{fill:#0073a3;}
	.st31{opacity:0.5;}
</style>
<g id="Layer_4">
	<path class="st0" d="M496.1,572.1c1.1,0.6,1.2,1,0.7,2.2c-0.6,1.7-1.3,3.3-1.8,5c-1.1,4-1.2,8.1-0.5,12.1c0.5,3,1.5,5.8,2.9,8.5
		c1.7,3.2,4,6,6.7,8.3c3.7,3.1,7.9,5.2,12.6,6.2c4.4,0.9,8.8,0.8,13.2-0.3c1.7-0.5,3.4-1.1,5-1.8c1.1-0.5,1.5-0.4,2.2,0.6
		c0,0.2,0,0.4,0,0.7c-1,1.7-2,3.4-3.1,5c-1.4,2.1-3.1,3.8-5,5.4c-2.5,2.1-5.3,3.8-8.4,5c-2.5,1-5.1,1.7-7.7,1.9
		c-1,0.1-2,0.2-2.9,0.3c-0.6,0-1.3,0-1.9,0c-0.9-0.1-1.8-0.2-2.7-0.3c-5-0.6-9.5-2.3-13.6-5.1c-4-2.7-7.2-6.2-9.6-10.5
		c-2-3.5-3.2-7.2-3.7-11.2c-0.1-0.7-0.2-1.4-0.3-2.1c0-1.2,0-2.4,0-3.6c0-0.2,0.1-0.3,0.1-0.5c0.2-2.1,0.5-4.2,1.1-6.2
		c1-3.7,2.7-7,5-10.1c2-2.7,4.4-5,7.2-6.9c1.4-0.9,2.8-1.7,4.2-2.5C495.8,572.1,496,572.1,496.1,572.1z"/>
	<g class="st1">
		<linearGradient id="SVGID_1_" gradientUnits="userSpaceOnUse" x1="478.7071" y1="601.5879" x2="536.6553" y2="601.5879">
			<stop  offset="0" style="stop-color:#FFFFFF;stop-opacity:0"/>
			<stop  offset="0.2101" style="stop-color:#FFE8E1;stop-opacity:0.2101"/>
			<stop  offset="0.6656" style="stop-color:#FFAC93;stop-opacity:0.6656"/>
			<stop  offset="1" style="stop-color:#FF7E57"/>
		</linearGradient>
		<path class="st2" d="M496.4,572.6c1.1,0.6,1.1,1,0.7,2.2c-0.6,1.6-1.3,3.2-1.8,4.9c-1.1,3.9-1.2,7.9-0.5,11.9
			c0.5,2.9,1.5,5.7,2.9,8.4c1.7,3.1,3.9,5.9,6.6,8.2c3.6,3.1,7.7,5.1,12.4,6.1c4.3,0.9,8.6,0.8,12.9-0.3c1.7-0.5,3.3-1.1,4.9-1.8
			c1.1-0.5,1.5-0.4,2.2,0.5c0,0.2,0,0.4,0,0.6c-1,1.6-1.9,3.3-3,4.9c-1.4,2-3.1,3.8-5,5.3c-2.5,2.1-5.2,3.7-8.2,4.9
			c-2.4,1-5,1.6-7.6,1.9c-1,0.1-1.9,0.2-2.9,0.3c-0.6,0-1.2,0-1.9,0c-0.9-0.1-1.8-0.2-2.7-0.3c-4.9-0.6-9.3-2.3-13.4-5
			c-3.9-2.7-7.1-6.1-9.5-10.3c-1.9-3.4-3.2-7.1-3.7-11c-0.1-0.7-0.2-1.4-0.3-2.1c0-1.2,0-2.3,0-3.5c0-0.2,0.1-0.3,0.1-0.5
			c0.2-2.1,0.5-4.1,1.1-6.1c1-3.6,2.6-6.9,4.9-9.9c2-2.6,4.3-4.9,7.1-6.8c1.3-0.9,2.8-1.6,4.2-2.5
			C496.1,572.6,496.2,572.6,496.4,572.6z"/>
	</g>
	<polygon class="st3" points="601.6,268.8 604.1,263.9 606.5,268.9 612,269.7 608,273.6 608.9,279.1 604,276.4 599,279 600,273.5 
		596,269.6 	"/>
	<linearGradient id="SVGID_2_" gradientUnits="userSpaceOnUse" x1="604.0141" y1="263.8607" x2="604.0141" y2="279.0853">
		<stop  offset="0" style="stop-color:#FFFFFF;stop-opacity:0"/>
		<stop  offset="1" style="stop-color:#ADAEB0"/>
	</linearGradient>
	<polygon class="st4" points="601.6,268.8 604.1,263.9 606.5,268.9 612,269.7 608,273.6 608.9,279.1 604,276.4 599,279 600,273.5 
		596,269.6 	"/>
	<g>
		<g>
			<polygon class="st3" points="360.6,708.3 363.1,703.3 365.5,708.4 371,709.2 367,713.1 367.9,718.6 363,715.9 358,718.5 359,713 
				355,709.1 			"/>
			<linearGradient id="SVGID_3_" gradientUnits="userSpaceOnUse" x1="363.0245" y1="703.3454" x2="363.0245" y2="718.5701">
				<stop  offset="0" style="stop-color:#FFFFFF;stop-opacity:0"/>
				<stop  offset="1" style="stop-color:#ADAEB0"/>
			</linearGradient>
			<polygon class="st5" points="360.6,708.3 363.1,703.3 365.5,708.4 371,709.2 367,713.1 367.9,718.6 363,715.9 358,718.5 359,713 
				355,709.1 			"/>
		</g>
	</g>
	<g>
		<g>
			<polygon class="st3" points="58.6,153.4 61.1,148.4 63.5,153.4 69,154.3 65,158.1 65.9,163.6 61,161 56,163.6 57,158.1 
				53.1,154.1 			"/>
			<linearGradient id="SVGID_4_" gradientUnits="userSpaceOnUse" x1="61.0587" y1="148.4114" x2="61.0587" y2="163.6361">
				<stop  offset="0" style="stop-color:#FFFFFF;stop-opacity:0"/>
				<stop  offset="1" style="stop-color:#ADAEB0"/>
			</linearGradient>
			<polygon class="st6" points="58.6,153.4 61.1,148.4 63.5,153.4 69,154.3 65,158.1 65.9,163.6 61,161 56,163.6 57,158.1 
				53.1,154.1 			"/>
		</g>
	</g>
	<g>
		<g>
			<polygon class="st3" points="56.6,620.1 59.1,615.1 61.5,620.2 67,621 63,624.9 63.9,630.4 59,627.7 54,630.3 55,624.8 51,620.9 
							"/>
			<linearGradient id="SVGID_5_" gradientUnits="userSpaceOnUse" x1="59.0183" y1="615.132" x2="59.0183" y2="630.3566">
				<stop  offset="0" style="stop-color:#FFFFFF;stop-opacity:0"/>
				<stop  offset="1" style="stop-color:#ADAEB0"/>
			</linearGradient>
			<polygon class="st7" points="56.6,620.1 59.1,615.1 61.5,620.2 67,621 63,624.9 63.9,630.4 59,627.7 54,630.3 55,624.8 51,620.9 
							"/>
		</g>
	</g>
	<circle class="st8" cx="235.5" cy="115" r="4.5"/>
	<circle class="st8" cx="198.1" cy="368.4" r="3"/>
	<circle class="st8" cx="452.1" cy="432.5" r="3"/>
	<circle class="st8" cx="402.2" cy="568.8" r="3"/>
	<circle class="st8" cx="584" cy="200" r="3"/>
	<circle class="st8" cx="295.2" cy="167" r="3"/>
	<circle class="st8" cx="365.4" cy="197.6" r="3"/>
	<circle class="st8" cx="345.1" cy="30.6" r="3"/>
	<circle class="st8" cx="424.9" cy="942.5" r="3"/>
	<circle class="st8" cx="268" cy="677" r="3"/>
	<circle class="st8" cx="317.8" cy="540.7" r="3"/>
</g>
<g id="Layer_3">
	<linearGradient id="SVGID_6_" gradientUnits="userSpaceOnUse" x1="320" y1="1.0008" x2="320" y2="1137.0009">
		<stop  offset="0" style="stop-color:#F8C053;stop-opacity:0.5"/>
		<stop  offset="1" style="stop-color:#D81A1A;stop-opacity:0.8"/>
	</linearGradient>
	<rect y="1" class="st9" width="640" height="1133.5"/>
	<path class="st10" d="M640.4,967.4l-9.6-5.5V836.1l-75.5,0.7v150.9l-30.5-28v-66.4L448.5,913v59.1l-30.8,0.8l-0.2-71.6l-71.2-52.3
		v134.2h-38.7v-99.4H200.2v80.6H172V928l-48-33v33.8h-19V821l-47.5,27.5l0.7,41L39.5,889v-55l-15.2-0.2l0.3,22.2H0v279.6h640.4
		V967.4z M258.3,914.8H246V895h12.3V914.8z"/>
	<rect x="566.6" y="892.3" class="st11" width="10.5" height="22.2"/>
	<rect x="599.3" y="857.1" class="st11" width="10.5" height="22.2"/>
	<rect x="599.3" y="901.3" class="st11" width="10.5" height="22.2"/>
	<rect x="449.7" y="989.5" class="st12" width="10.5" height="22.2"/>
	<rect x="11.8" y="1086.5" class="st11" width="10.5" height="22.2"/>
</g>
<g id="Layer_1">
	<g class="st1">
		
			<linearGradient id="SVGID_7_" gradientUnits="userSpaceOnUse" x1="339.5277" y1="-3897.6829" x2="339.3444" y2="-3765.4102" gradientTransform="matrix(-1.2579 1.744209e-03 -3.426255e-03 -2.4722 1011.8651 -8472.2188)">
			<stop  offset="0" style="stop-color:#FFFFFF;stop-opacity:0"/>
			<stop  offset="1" style="stop-color:#ADAEB0"/>
		</linearGradient>
		<polygon class="st13" points="640,1133.8 640,967.7 631.4,962.3 631.3,837.4 556,837.3 556.1,1133.8 		"/>
	</g>
	<g class="st1">
		
			<linearGradient id="SVGID_8_" gradientUnits="userSpaceOnUse" x1="1009.0145" y1="-14206.6172" x2="1007.6465" y2="-13219.7568" gradientTransform="matrix(-0.8418 1.166606e-03 -3.370158e-04 -0.2429 992.0663 -2316.291)">
			<stop  offset="0" style="stop-color:#FFFFFF;stop-opacity:0"/>
			<stop  offset="1" style="stop-color:#ADAEB0"/>
		</linearGradient>
		<polygon class="st14" points="124.5,1136 124.9,896.3 171.5,928.5 170.5,1132.1 		"/>
	</g>
	<g class="st1">
		
			<linearGradient id="SVGID_9_" gradientUnits="userSpaceOnUse" x1="668.6954" y1="-5422.8638" x2="668.5886" y2="-5345.7847" gradientTransform="matrix(-1.3372 1.853679e-03 -2.337203e-03 -1.6862 1068.5466 -8030.3872)">
			<stop  offset="0" style="stop-color:#FFFFFF;stop-opacity:0"/>
			<stop  offset="1" style="stop-color:#ADAEB0"/>
		</linearGradient>
		<polygon class="st15" points="146,1115.1 146.3,985.3 228.1,985.2 228.2,1112 		"/>
	</g>
	<g class="st1">
		
			<linearGradient id="SVGID_10_" gradientUnits="userSpaceOnUse" x1="-412.7077" y1="939.6727" x2="-462.7997" y2="889.5806" gradientTransform="matrix(-1 0 0 1 -56.5031 0)">
			<stop  offset="0" style="stop-color:#FFFFFF;stop-opacity:0"/>
			<stop  offset="1" style="stop-color:#ADAEB0"/>
		</linearGradient>
		<polygon class="st16" points="417.3,901.1 345.6,848.8 345.6,929.1 417.3,980.1 		"/>
	</g>
	<g class="st1">
		
			<linearGradient id="SVGID_11_" gradientUnits="userSpaceOnUse" x1="488.4178" y1="-5202.3306" x2="488.3109" y2="-5125.1777" gradientTransform="matrix(-1.743 2.415622e-03 -1.386494e-03 -1 1098.0404 -4242.1938)">
			<stop  offset="0" style="stop-color:#FFFFFF;stop-opacity:0"/>
			<stop  offset="1" style="stop-color:#ADAEB0"/>
		</linearGradient>
		<polygon class="st17" points="200.7,961.3 200.7,884.3 307.4,884.1 307.3,959.4 		"/>
	</g>
	<g class="st1">
		
			<linearGradient id="SVGID_12_" gradientUnits="userSpaceOnUse" x1="799.2778" y1="-3822.3013" x2="799.1969" y2="-3763.9395" gradientTransform="matrix(-1.2579 1.744209e-03 -3.426255e-03 -2.4722 1011.8651 -8472.2188)">
			<stop  offset="0" style="stop-color:#FFFFFF;stop-opacity:0"/>
			<stop  offset="1" style="stop-color:#ADAEB0"/>
		</linearGradient>
		<polygon class="st18" points="0,965.3 39,889 39,857.1 39,834.5 24.5,834.5 24.5,857.1 0,857.1 0.2,965.3 		"/>
	</g>
	<g class="st1">
		
			<linearGradient id="SVGID_13_" gradientUnits="userSpaceOnUse" x1="419.4815" y1="-3892.2993" x2="419.3906" y2="-3826.7402" gradientTransform="matrix(-1.2579 1.744209e-03 -3.426255e-03 -2.4722 1011.8651 -8472.2188)">
			<stop  offset="0" style="stop-color:#FFFFFF;stop-opacity:0"/>
			<stop  offset="1" style="stop-color:#ADAEB0"/>
		</linearGradient>
		<polygon class="st19" points="467.5,1136 527.5,1136 527.5,1005.7 527.5,989.1 505.2,989.1 505.2,1005.7 467.5,1005.7 
			467.7,1084.7 		"/>
	</g>
	<g class="st20">
		<linearGradient id="SVGID_14_" gradientUnits="userSpaceOnUse" x1="404.4622" y1="1184.7242" x2="404.4622" y2="974.6891">
			<stop  offset="0" style="stop-color:#FFFFFF;stop-opacity:0"/>
			<stop  offset="1" style="stop-color:#ADAEB0"/>
		</linearGradient>
		<polygon class="st21" points="368.6,1132.3 440.5,1132.3 440.3,993.1 391.4,993 391.4,974.7 376.6,974.7 376.6,986.4 368.4,986.8 
			368.4,993.7 		"/>
	</g>
	<rect x="82.3" y="853.1" class="st22" width="9.4" height="19.8"/>
	<rect x="20.2" y="953.7" class="st22" width="9.4" height="19.1"/>
	<rect x="47.6" y="1035.2" class="st22" width="9.4" height="19.8"/>
	<rect x="393.4" y="917.4" class="st22" width="9.4" height="19.8"/>
	<rect x="373.5" y="1044" class="st22" width="9.4" height="19.8"/>
	<rect x="184.5" y="1005.4" class="st22" width="9.4" height="19.8"/>
	<rect x="275.3" y="938.8" class="st22" width="9.4" height="19.8"/>
	<rect x="282.1" y="900.3" class="st22" width="9.4" height="19.8"/>
	<g class="st1">
		
			<linearGradient id="SVGID_15_" gradientUnits="userSpaceOnUse" x1="784.4099" y1="-3894.991" x2="784.2751" y2="-3797.8367" gradientTransform="matrix(-1.2579 1.744209e-03 -3.426255e-03 -2.4722 1011.8651 -8472.2188)">
			<stop  offset="0" style="stop-color:#FFFFFF;stop-opacity:0"/>
			<stop  offset="1" style="stop-color:#ADAEB0"/>
		</linearGradient>
		<polygon class="st23" points="76.8,1136 76.7,918.3 0,918.3 0.2,1136 		"/>
	</g>
	<rect x="255.6" y="1067.2" class="st22" width="9.4" height="19.8"/>
	<rect x="460.3" y="919.1" class="st22" width="9.4" height="19.8"/>
	<g>
		<path class="st24" d="M535.9,179h71.4c0,0,5.7-5.1,0.4-12.3c-5.3-7.2-11.5-3.6-11.5-3.6s2.9-4.2-1.2-8.8c-2.5-2.8-4.2-3.1-8.9-2.8
			c0,0-2.1-9.9-11.6-3.8c0,0-6.7-12.8-22.1-6.9c-9.5,3.6-9.8,12.2-9.3,17.9c0,0-11.6-2.9-13.5,7.7c0,0-12.6-2.9-11.6,12.6H535.9z"/>
		<linearGradient id="SVGID_16_" gradientUnits="userSpaceOnUse" x1="544.1066" y1="143.2576" x2="574.5057" y2="195.9104">
			<stop  offset="0" style="stop-color:#FFFFFF;stop-opacity:0"/>
			<stop  offset="0.9949" style="stop-color:#ADAEB0;stop-opacity:0.5"/>
		</linearGradient>
		<path class="st25" d="M533.7,178.2h71.4c0,0,5.7-5.1,0.4-12.3c-5.3-7.2-11.5-3.6-11.5-3.6s2.9-4.2-1.2-8.8
			c-2.5-2.8-4.2-3.1-8.9-2.8c0,0-2.1-9.9-11.6-3.8c0,0-6.7-12.8-22.1-6.9c-9.5,3.6-9.8,12.2-9.3,17.9c0,0-11.6-2.9-13.5,7.7
			c0,0-12.6-2.9-11.6,12.6H533.7z"/>
	</g>
	<g class="st26">
		<path class="st24" d="M85.5,369c0,0-6.2-13.3-25.4-10.4c-11,1.7-14.2,17.2-14.2,17.2s-11.9-3.6-15.2,9.6c0,0-1.5,10.7,8.5,12.3
			c0,0,0.6,7.7,7.6,8.8s10.4-4.4,10.4-4.4s6.7,8.5,18.7,8c12.6-0.5,15.5-7.1,15.5-7.1s18.2-0.2,17.7-19
			C108.7,365.9,85.5,369,85.5,369z"/>
		<linearGradient id="SVGID_17_" gradientUnits="userSpaceOnUse" x1="30.6537" y1="384.2006" x2="109.2928" y2="384.2006">
			<stop  offset="0" style="stop-color:#FFFFFF;stop-opacity:0"/>
			<stop  offset="0.9949" style="stop-color:#ADAEB0;stop-opacity:0.5"/>
		</linearGradient>
		<path class="st27" d="M85.5,369c0,0-6.2-13.3-25.4-10.4c-11,1.7-14.2,17.2-14.2,17.2s-11.9-3.6-15.2,9.6c0,0-1.5,10.7,8.5,12.3
			c0,0,0.6,7.7,7.6,8.8s10.4-4.4,10.4-4.4s6.7,8.5,18.7,8c12.6-0.5,15.5-7.1,15.5-7.1s18.2-0.2,17.7-19
			C108.7,365.9,85.5,369,85.5,369z"/>
	</g>
	<path class="st28" d="M247,1067.3h18.5v-1.6h-51.8v1.6h9.2v6.3h-3.3v31.6h30.8v-31.6H247V1067.3z M224.6,1067.3h20.9v6.3h-20.9
		V1067.3z"/>
	<g class="st29">
		<path class="st30" d="M240.5,1093.2c0,1.1-0.4,2-1.2,2.7c-0.8,0.7-1.9,1.1-3.4,1.3v2.8h-1.5v-2.6c-0.9,0-1.7-0.1-2.6-0.2
			c-0.8-0.1-1.5-0.3-2-0.6v-1.8c0.7,0.3,1.4,0.5,2.3,0.7c0.9,0.2,1.6,0.3,2.3,0.3v-5.2c-1.6-0.5-2.8-1.1-3.4-1.8s-1-1.6-1-2.6
			c0-1,0.4-1.9,1.2-2.5c0.8-0.7,1.9-1.1,3.2-1.2v-2.2h1.5v2.1c1.5,0,2.9,0.3,4.2,0.9l-0.6,1.6c-1.2-0.5-2.4-0.7-3.6-0.8v5.1
			c1.2,0.4,2.2,0.8,2.8,1.2c0.6,0.4,1.1,0.8,1.4,1.3C240.4,1091.9,240.5,1092.5,240.5,1093.2z M232,1086c0,0.6,0.2,1.1,0.5,1.4
			c0.4,0.4,1,0.7,1.9,1v-4.6c-0.8,0.1-1.4,0.4-1.8,0.7C232.2,1085,232,1085.4,232,1086z M238.5,1093.3c0-0.6-0.2-1-0.5-1.4
			s-1-0.7-2-1v4.6C237.6,1095.3,238.5,1094.5,238.5,1093.3z"/>
	</g>
	<path class="st28" d="M36.9,960.3h-3.3v31.6h30.8v-31.6H61V954h9.2v-1.6H19.4v1.6h17.5V960.3z M59.4,960.3H38.5V954h20.9V960.3z"/>
	<g class="st29">
		<path class="st30" d="M54.2,979.9c0,1.1-0.4,2-1.2,2.7c-0.8,0.7-1.9,1.1-3.4,1.3v2.8h-1.5V984c-0.9,0-1.7-0.1-2.6-0.2
			c-0.8-0.1-1.5-0.3-2-0.6v-1.9c0.7,0.3,1.4,0.5,2.3,0.7c0.9,0.2,1.6,0.3,2.3,0.3v-5.2c-1.6-0.5-2.8-1.1-3.4-1.8
			c-0.7-0.7-1-1.6-1-2.6c0-1,0.4-1.9,1.2-2.5c0.8-0.7,1.9-1.1,3.2-1.2v-2.2h1.5v2.1c1.5,0,2.9,0.3,4.2,0.9l-0.6,1.6
			c-1.2-0.5-2.4-0.7-3.6-0.8v5.1c1.2,0.4,2.2,0.8,2.8,1.2s1.1,0.8,1.4,1.3C54.1,978.6,54.2,979.2,54.2,979.9z M45.7,972.7
			c0,0.6,0.2,1.1,0.5,1.4c0.4,0.4,1,0.7,1.9,1v-4.6c-0.8,0.1-1.4,0.4-1.8,0.7C45.9,971.7,45.7,972.1,45.7,972.7z M52.2,980.1
			c0-0.6-0.2-1-0.5-1.4c-0.4-0.4-1-0.7-2-1v4.6C51.3,982,52.2,981.3,52.2,980.1z"/>
	</g>
	<path class="st28" d="M267.6,938.5h17.5v-1.6h-50.8v1.6h9.2v6.3h-3.3v31.6H271v-31.6h-3.3V938.5z M245.2,938.5H266v6.3h-20.9V938.5
		z"/>
	<g class="st29">
		<path class="st30" d="M261.1,964.4c0,1.1-0.4,2-1.2,2.7s-1.9,1.1-3.4,1.3v2.8H255v-2.6c-0.9,0-1.7-0.1-2.6-0.2s-1.5-0.3-2-0.6
			v-1.9c0.7,0.3,1.4,0.5,2.3,0.7c0.9,0.2,1.6,0.3,2.3,0.3v-5.2c-1.6-0.5-2.8-1.1-3.4-1.8c-0.7-0.7-1-1.6-1-2.6c0-1,0.4-1.9,1.2-2.5
			c0.8-0.7,1.9-1.1,3.2-1.2v-2.2h1.5v2.1c1.5,0,2.9,0.3,4.2,0.9l-0.6,1.6c-1.2-0.5-2.4-0.7-3.6-0.8v5.1c1.2,0.4,2.2,0.8,2.8,1.2
			c0.6,0.4,1.1,0.8,1.4,1.3C261,963.1,261.1,963.7,261.1,964.4z M252.6,957.2c0,0.6,0.2,1.1,0.5,1.4c0.4,0.4,1,0.7,1.9,1v-4.6
			c-0.8,0.1-1.4,0.4-1.8,0.7C252.8,956.2,252.6,956.6,252.6,957.2z M259.1,964.6c0-0.6-0.2-1-0.5-1.4c-0.4-0.4-1-0.7-2-1v4.6
			C258.2,966.5,259.1,965.8,259.1,964.6z"/>
	</g>
	<path class="st28" d="M477.3,925.6h-3.3v31.6h30.8v-31.6h-3.3v-6.3h9.2v-1.6h-50.8v1.6h17.5V925.6z M499.8,925.6h-20.9v-6.3h20.9
		V925.6z"/>
	<g class="st29">
		<path class="st30" d="M494.6,945.2c0,1.1-0.4,2-1.2,2.7s-1.9,1.1-3.4,1.3v2.8h-1.5v-2.6c-0.9,0-1.7-0.1-2.6-0.2
			c-0.8-0.1-1.5-0.3-2-0.6v-1.9c0.7,0.3,1.4,0.5,2.3,0.7c0.9,0.2,1.6,0.3,2.3,0.3v-5.2c-1.6-0.5-2.8-1.1-3.4-1.8
			c-0.7-0.7-1-1.6-1-2.6c0-1,0.4-1.9,1.2-2.5s1.9-1.1,3.2-1.2v-2.2h1.5v2.1c1.5,0,2.9,0.3,4.2,0.9l-0.6,1.6
			c-1.2-0.5-2.4-0.7-3.6-0.8v5.1c1.2,0.4,2.2,0.8,2.8,1.2c0.6,0.4,1.1,0.8,1.4,1.3C494.5,943.9,494.6,944.5,494.6,945.2z M486.1,938
			c0,0.6,0.2,1.1,0.5,1.4c0.4,0.4,1,0.7,1.9,1v-4.6c-0.8,0.1-1.4,0.4-1.8,0.7C486.3,937,486.1,937.5,486.1,938z M492.6,945.4
			c0-0.6-0.2-1-0.5-1.4c-0.4-0.4-1-0.7-2-1v4.6C491.7,947.3,492.6,946.6,492.6,945.4z"/>
	</g>
	<path class="st28" d="M596.2,1008.3h24.5v-1.6h-57.8v1.6h9.2v6.3h-3.3v31.6h30.8v-31.6h-3.3V1008.3z M573.7,1008.3h20.9v6.3h-20.9
		V1008.3z"/>
	<g class="st29">
		<path class="st30" d="M589.7,1034.2c0,1.1-0.4,2-1.2,2.7c-0.8,0.7-1.9,1.1-3.4,1.3v2.8h-1.5v-2.6c-0.9,0-1.7-0.1-2.6-0.2
			c-0.8-0.1-1.5-0.3-2-0.6v-1.9c0.7,0.3,1.4,0.5,2.3,0.7c0.9,0.2,1.6,0.3,2.3,0.3v-5.2c-1.6-0.5-2.8-1.1-3.4-1.8
			c-0.7-0.7-1-1.6-1-2.6c0-1,0.4-1.9,1.2-2.5c0.8-0.7,1.9-1.1,3.2-1.2v-2.2h1.5v2.1c1.5,0,2.9,0.3,4.2,0.9l-0.6,1.6
			c-1.2-0.5-2.4-0.7-3.6-0.8v5.1c1.2,0.4,2.2,0.8,2.8,1.2s1.1,0.8,1.4,1.3C589.5,1032.9,589.7,1033.5,589.7,1034.2z M581.2,1027
			c0,0.6,0.2,1.1,0.5,1.4c0.4,0.4,1,0.7,1.9,1v-4.6c-0.8,0.1-1.4,0.4-1.8,0.7C581.4,1026,581.2,1026.4,581.2,1027z M587.7,1034.3
			c0-0.6-0.2-1-0.5-1.4c-0.4-0.4-1-0.7-2-1v4.6C586.8,1036.3,587.7,1035.6,587.7,1034.3z"/>
	</g>
	<g class="st31">
		<path class="st11" d="M307.8,1080c0,0.8-0.3,1.5-0.9,2c-0.6,0.5-1.4,0.9-2.5,1v2.1h-1.1v-2c-0.7,0-1.3-0.1-1.9-0.2
			c-0.6-0.1-1.1-0.2-1.5-0.4v-1.4c0.5,0.2,1.1,0.4,1.7,0.5c0.6,0.1,1.2,0.2,1.8,0.2v-3.9c-1.2-0.4-2.1-0.8-2.6-1.3
			c-0.5-0.5-0.7-1.2-0.7-2c0-0.8,0.3-1.4,0.9-1.9c0.6-0.5,1.4-0.8,2.4-0.9v-1.6h1.1v1.6c1.1,0,2.1,0.2,3.2,0.7l-0.5,1.2
			c-0.9-0.3-1.8-0.6-2.7-0.6v3.9c0.9,0.3,1.6,0.6,2.1,0.9c0.5,0.3,0.8,0.6,1,1C307.7,1079.1,307.8,1079.5,307.8,1080z M301.4,1074.6
			c0,0.5,0.1,0.8,0.4,1.1c0.3,0.3,0.7,0.5,1.4,0.8v-3.4c-0.6,0.1-1,0.3-1.3,0.6S301.4,1074.2,301.4,1074.6z M306.3,1080.2
			c0-0.4-0.1-0.8-0.4-1c-0.3-0.3-0.8-0.5-1.5-0.8v3.5C305.6,1081.6,306.3,1081.1,306.3,1080.2z"/>
	</g>
	<g class="st31">
		<path class="st11" d="M574.9,860.9c0,0.8-0.3,1.5-0.9,2c-0.6,0.5-1.4,0.9-2.5,1v2.1h-1.1v-2c-0.7,0-1.3-0.1-1.9-0.2
			c-0.6-0.1-1.1-0.2-1.5-0.4V862c0.5,0.2,1.1,0.4,1.7,0.5c0.6,0.1,1.2,0.2,1.8,0.2v-3.9c-1.2-0.4-2.1-0.8-2.6-1.3
			c-0.5-0.5-0.7-1.2-0.7-2c0-0.8,0.3-1.4,0.9-1.9c0.6-0.5,1.4-0.8,2.4-0.9v-1.6h1.1v1.6c1.1,0,2.1,0.2,3.2,0.7l-0.5,1.2
			c-0.9-0.3-1.8-0.6-2.7-0.6v3.9c0.9,0.3,1.6,0.6,2.1,0.9c0.5,0.3,0.8,0.6,1,1C574.8,860,574.9,860.4,574.9,860.9z M568.5,855.5
			c0,0.5,0.1,0.8,0.4,1.1s0.7,0.5,1.4,0.8v-3.4c-0.6,0.1-1,0.3-1.3,0.6C568.7,854.8,568.5,855.1,568.5,855.5z M573.4,861
			c0-0.4-0.1-0.8-0.4-1s-0.8-0.5-1.5-0.8v3.5C572.8,862.5,573.4,861.9,573.4,861z"/>
	</g>
	<g class="st31">
		<path class="st11" d="M223.4,903.7c0,0.8-0.3,1.5-0.9,2c-0.6,0.5-1.4,0.9-2.5,1v2.1h-1.1v-2c-0.7,0-1.3-0.1-1.9-0.2
			c-0.6-0.1-1.1-0.2-1.5-0.4v-1.4c0.5,0.2,1.1,0.4,1.7,0.5c0.6,0.1,1.2,0.2,1.8,0.2v-3.9c-1.2-0.4-2.1-0.8-2.6-1.3
			c-0.5-0.5-0.7-1.2-0.7-2c0-0.8,0.3-1.4,0.9-1.9c0.6-0.5,1.4-0.8,2.4-0.9v-1.6h1.1v1.6c1.1,0,2.1,0.2,3.2,0.7l-0.5,1.2
			c-0.9-0.3-1.8-0.6-2.7-0.6v3.9c0.9,0.3,1.6,0.6,2.1,0.9c0.5,0.3,0.8,0.6,1,1C223.3,902.7,223.4,903.2,223.4,903.7z M217.1,898.3
			c0,0.5,0.1,0.8,0.4,1.1c0.3,0.3,0.7,0.5,1.4,0.8v-3.4c-0.6,0.1-1,0.3-1.3,0.6C217.2,897.5,217.1,897.9,217.1,898.3z M221.9,903.8
			c0-0.4-0.1-0.8-0.4-1c-0.3-0.3-0.8-0.5-1.5-0.8v3.5C221.3,905.3,221.9,904.7,221.9,903.8z"/>
	</g>
	<g class="st31">
		<path class="st11" d="M616.5,1078.9c0,0.8-0.3,1.5-0.9,2c-0.6,0.5-1.4,0.9-2.5,1v2.1h-1.1v-2c-0.7,0-1.3-0.1-1.9-0.2
			c-0.6-0.1-1.1-0.2-1.5-0.4v-1.4c0.5,0.2,1.1,0.4,1.7,0.5c0.6,0.1,1.2,0.2,1.8,0.2v-3.9c-1.2-0.4-2.1-0.8-2.6-1.3s-0.7-1.2-0.7-2
			c0-0.8,0.3-1.4,0.9-1.9c0.6-0.5,1.4-0.8,2.4-0.9v-1.6h1.1v1.6c1.1,0,2.1,0.2,3.2,0.7l-0.5,1.2c-0.9-0.3-1.8-0.6-2.7-0.6v3.9
			c0.9,0.3,1.6,0.6,2.1,0.9s0.8,0.6,1,1C616.4,1077.9,616.5,1078.4,616.5,1078.9z M610.1,1073.5c0,0.5,0.1,0.8,0.4,1.1
			c0.3,0.3,0.7,0.5,1.4,0.8v-3.4c-0.6,0.1-1,0.3-1.3,0.6C610.3,1072.7,610.1,1073.1,610.1,1073.5z M615,1079c0-0.4-0.1-0.8-0.4-1
			c-0.3-0.3-0.8-0.5-1.5-0.8v3.5C614.4,1080.5,615,1079.9,615,1079z"/>
	</g>
	<rect x="611.1" y="1008.7" class="st22" width="9.4" height="19.8"/>
</g>
<g id="Layer_2">
</g>
</svg>
