<?xml version="1.0" encoding="UTF-8" standalone="no"?>
<!-- Generator: Adobe Illustrator 19.2.1, SVG Export Plug-In . SVG Version: 6.00 Build 0)  -->

<svg
   xmlns:dc="http://purl.org/dc/elements/1.1/"
   xmlns:cc="http://creativecommons.org/ns#"
   xmlns:rdf="http://www.w3.org/1999/02/22-rdf-syntax-ns#"
   xmlns:svg="http://www.w3.org/2000/svg"
   xmlns="http://www.w3.org/2000/svg"
   xmlns:sodipodi="http://sodipodi.sourceforge.net/DTD/sodipodi-0.dtd"
   xmlns:inkscape="http://www.inkscape.org/namespaces/inkscape"
   version="1.1"
   id="Layer_1"
   x="0px"
   y="0px"
   width="18.045628"
   height="25.045628"
   viewBox="0 0 18.045627 25.045628"
   xml:space="preserve"
   inkscape:version="0.91 r13725"
   sodipodi:docname="Location_ICON2.svg"><metadata
     id="metadata15"><rdf:RDF><cc:Work
         rdf:about=""><dc:format>image/svg+xml</dc:format><dc:type
           rdf:resource="http://purl.org/dc/dcmitype/StillImage" /><dc:title></dc:title></cc:Work></rdf:RDF></metadata><defs
     id="defs13" /><sodipodi:namedview
     pagecolor="#ffffff"
     bordercolor="#666666"
     borderopacity="1"
     objecttolerance="10"
     gridtolerance="10"
     guidetolerance="10"
     inkscape:pageopacity="0"
     inkscape:pageshadow="2"
     inkscape:window-width="963"
     inkscape:window-height="592"
     id="namedview11"
     showgrid="false"
     fit-margin-top="0.5"
     fit-margin-left="0.5"
     fit-margin-right="0.5"
     fit-margin-bottom="0.5"
     inkscape:zoom="9.44"
     inkscape:cx="-1.5646278"
     inkscape:cy="12.522813"
     inkscape:window-x="0"
     inkscape:window-y="0"
     inkscape:window-maximized="0"
     inkscape:current-layer="Layer_1" /><style
     type="text/css"
     id="style3">
	.st0{fill:#231F20;}
</style><g
     id="g5"
     style="fill:#4291c3;fill-opacity:1;stroke:none;stroke-opacity:1"
     transform="matrix(0.94697926,0,0,0.96182507,0.5,0.5)"><path
       class="st0"
       d="M 9,0 C 4,0 0,4 0,9 c 0,2.8 1.4,4.9 2.8,7 0.2,0.3 0.4,0.6 0.6,1 l 4.9,7.7 C 8.4,24.9 8.7,25 9,25 9.3,25 9.6,24.9 9.7,24.6 l 4.9,-7.7 c 0.2,-0.3 0.4,-0.6 0.7,-1 C 16.7,13.9 18,11.7 18,9 18,4 14,0 9,0 Z m 5.4,15.4 c -0.2,0.3 -0.4,0.6 -0.6,1 L 9,23.9 4.3,16.4 C 4.1,16.1 3.9,15.7 3.6,15.4 2.3,13.5 1,11.5 1,9 1,4.6 4.6,1 9,1 c 4.4,0 8,3.6 8,8 0,2.5 -1.3,4.5 -2.6,6.4 z"
       id="path7"
       style="fill:#4291c3;fill-opacity:1;stroke:none;stroke-opacity:1"
       inkscape:connector-curvature="0" /><path
       class="st0"
       d="m 9,4.8 c -2.2,0 -4,1.8 -4,4 0,2.2 1.8,4 4,4 2.2,0 4,-1.8 4,-4 0,-2.2 -1.8,-4 -4,-4 z m 0,7 c -1.7,0 -3,-1.3 -3,-3 0,-1.7 1.3,-3 3,-3 1.7,0 3,1.3 3,3 0,1.7 -1.3,3 -3,3 z"
       id="path9"
       style="fill:#4291c3;fill-opacity:1;stroke:none;stroke-opacity:1"
       inkscape:connector-curvature="0" /></g></svg>