<?xml version="1.0" encoding="UTF-8" standalone="no"?>
<!-- Generator: Adobe Illustrator 19.2.1, SVG Export Plug-In . SVG Version: 6.00 Build 0)  -->

<svg
   xmlns:dc="http://purl.org/dc/elements/1.1/"
   xmlns:cc="http://creativecommons.org/ns#"
   xmlns:rdf="http://www.w3.org/1999/02/22-rdf-syntax-ns#"
   xmlns:svg="http://www.w3.org/2000/svg"
   xmlns="http://www.w3.org/2000/svg"
   xmlns:sodipodi="http://sodipodi.sourceforge.net/DTD/sodipodi-0.dtd"
   xmlns:inkscape="http://www.inkscape.org/namespaces/inkscape"
   version="1.1"
   id="Layer_1"
   x="0px"
   y="0px"
   width="9.7380095"
   height="24.9"
   viewBox="0 0 9.7380097 24.9"
   xml:space="preserve"
   inkscape:version="0.91 r13725"
   sodipodi:docname="Money_ICON2.svg"><metadata
     id="metadata9"><rdf:RDF><cc:Work
         rdf:about=""><dc:format>image/svg+xml</dc:format><dc:type
           rdf:resource="http://purl.org/dc/dcmitype/StillImage" /><dc:title /></cc:Work></rdf:RDF></metadata><defs
     id="defs7" /><sodipodi:namedview
     pagecolor="#ffffff"
     bordercolor="#666666"
     borderopacity="1"
     objecttolerance="10"
     gridtolerance="10"
     guidetolerance="10"
     inkscape:pageopacity="0"
     inkscape:pageshadow="2"
     inkscape:window-width="1167"
     inkscape:window-height="753"
     id="namedview5"
     showgrid="false"
     fit-margin-top="0"
     fit-margin-left="0"
     fit-margin-right="0"
     fit-margin-bottom="0"
     inkscape:zoom="9.8333333"
     inkscape:cx="-12.806906"
     inkscape:cy="12.4"
     inkscape:window-x="84"
     inkscape:window-y="0"
     inkscape:window-maximized="0"
     inkscape:current-layer="Layer_1" /><path
     d="m 5.5380098,12.2 c 0,0 0,0 0,0 -0.1,0 -0.2,-0.1 -0.2,-0.1 l 0,-6.2 c 1.3,0.1 2.5,0.8 2.9,1.8 0.1,0.2 0.4,0.4 0.6,0.3 0.3,-0.1 0.4,-0.4 0.3,-0.6 -0.5,-1.4 -2,-2.4 -3.8,-2.5 l 0,-3.9 c 0,-0.3 -0.2,-0.5 -0.5,-0.5 -0.3,0 -0.4,0.2 -0.4,0.5 l 0,3.9 c -2.2,0.3 -3.90000002,1.8 -3.90000002,3.6 0,2 1.30000002,3.5 3.80000002,4.3 0,0 0,0 0,0 l 0,6.3 c -1.3,-0.1 -2.5,-0.8 -2.9,-1.8 -0.1,-0.3 -0.4,-0.4 -0.60000002,-0.3 -0.3,0.1 -0.4,0.4 -0.3,0.6 C 1.1380098,19 2.6380098,19.9 4.3380098,20 l 0,3.9 c 0,0.3 0.2,0.5 0.5,0.5 0.3,0 0.5,-0.2 0.5,-0.5 l 0,-3.9 c 2.2,-0.2 3.9,-1.7 3.9,-3.5 0,-2.1 -1.2,-3.5 -3.7,-4.3 z m -1.1,-0.4 c -2,-0.7 -2.9,-1.8 -2.9,-3.3 0,-1.3 1.2,-2.4 2.9,-2.6 l 0,5.9 z m 0.9,7.3 0,-5.9 c 2.5,0.9 2.9,2.2 2.9,3.3 0,1.3 -1.2,2.4 -2.9,2.6 z"
     id="path3"
     style="opacity:0.92000002;fill:#0073a3;fill-opacity:1;stroke:none;stroke-opacity:1"
     inkscape:connector-curvature="0" /></svg>