<?xml version="1.0" encoding="UTF-8" standalone="no"?>
<!-- Generator: Adobe Illustrator 19.2.1, SVG Export Plug-In . SVG Version: 6.00 Build 0)  -->

<svg
   xmlns:dc="http://purl.org/dc/elements/1.1/"
   xmlns:cc="http://creativecommons.org/ns#"
   xmlns:rdf="http://www.w3.org/1999/02/22-rdf-syntax-ns#"
   xmlns:svg="http://www.w3.org/2000/svg"
   xmlns="http://www.w3.org/2000/svg"
   xmlns:sodipodi="http://sodipodi.sourceforge.net/DTD/sodipodi-0.dtd"
   xmlns:inkscape="http://www.inkscape.org/namespaces/inkscape"
   version="1.1"
   id="Layer_1"
   x="0px"
   y="0px"
   width="22"
   height="25"
   viewBox="0 0 22.000001 25.000001"
   xml:space="preserve"
   inkscape:version="0.91 r13725"
   sodipodi:docname="People_ICON2.svg"><metadata
     id="metadata17"><rdf:RDF><cc:Work
         rdf:about=""><dc:format>image/svg+xml</dc:format><dc:type
           rdf:resource="http://purl.org/dc/dcmitype/StillImage" /><dc:title></dc:title></cc:Work></rdf:RDF></metadata><defs
     id="defs15" /><sodipodi:namedview
     pagecolor="#ffffff"
     bordercolor="#666666"
     borderopacity="1"
     objecttolerance="10"
     gridtolerance="10"
     guidetolerance="10"
     inkscape:pageopacity="0"
     inkscape:pageshadow="2"
     inkscape:window-width="866"
     inkscape:window-height="618"
     id="namedview13"
     showgrid="false"
     fit-margin-top="0"
     fit-margin-left="0"
     fit-margin-right="0"
     fit-margin-bottom="0"
     inkscape:zoom="9.5161293"
     inkscape:cx="11"
     inkscape:cy="12.550001"
     inkscape:window-x="62"
     inkscape:window-y="6"
     inkscape:window-maximized="0"
     inkscape:current-layer="Layer_1" /><g
     id="g3"
     transform="scale(0.98654709,1.0040161)"
     style="fill:#4291c3;fill-opacity:1;stroke:none"><path
       d="m 17.7,5.9 c 1.6,0 2.9,-1.3 2.9,-2.9 0,-1.6 -1.3,-3 -2.9,-3 -1.6,0 -2.9,1.3 -2.9,2.9 0,1.6 1.2,3 2.9,3 z m 0,-4.9 c 1.1,0 1.9,0.9 1.9,1.9 0,1.1 -0.9,1.9 -1.9,1.9 C 16.6,4.8 15.8,3.9 15.8,2.9 15.7,1.9 16.6,1 17.7,1 Z"
       id="path5"
       inkscape:connector-curvature="0"
       style="fill:#4291c3;fill-opacity:1;stroke:none" /><path
       d="M 17.7,6.2 C 15.1,6.2 13,8.3 13,10.9 l 0,5.5 1,0 0,-5.5 c 0,-1 0.4,-1.8 1,-2.5 l 0,16.5 1,0 0,-10.1 3.3,0 0,10.1 1,0 0,-16.6 c 0.6,0.7 1,1.5 1,2.5 l 0,5.5 1,0 0,-5.5 c 0,-2.5 -2.1,-4.6 -4.6,-4.6 z m 1.6,7.6 -3.3,0 0,-6.2 c 0.5,-0.3 1.1,-0.4 1.7,-0.4 0.6,0 1.2,0.2 1.7,0.4 l 0,6.2 z"
       id="path7"
       inkscape:connector-curvature="0"
       style="fill:#4291c3;fill-opacity:1;stroke:none" /><path
       d="M 4.7,5.9 C 6.3,5.9 7.6,4.6 7.6,3 7.6,1.4 6.3,0 4.7,0 c -1.6,0 -3,1.3 -3,2.9 0,1.6 1.3,3 3,3 z M 4.7,1 C 5.8,1 6.6,1.9 6.6,2.9 6.6,4 5.7,4.8 4.7,4.8 3.6,4.9 2.7,4 2.7,2.9 2.7,1.9 3.6,1 4.7,1 Z"
       id="path9"
       inkscape:connector-curvature="0"
       style="fill:#4291c3;fill-opacity:1;stroke:none" /><path
       d="M 4.7,6.2 C 2.1,6.2 0,8.3 0,10.8 l 0,5.5 1,0 0,-5.5 C 1,9.8 1.4,9 2,8.3 l 0,16.5 1,0 0,-10 3.3,0 0,10.1 1,0 0,-16.6 c 0.6,0.7 1,1.5 1,2.5 l 0,5.5 1,0 0,-5.5 C 9.3,8.3 7.2,6.2 4.7,6.2 Z M 6.3,13.8 3,13.8 3,7.6 C 3.5,7.3 4.1,7.2 4.7,7.2 c 0.6,0 1.2,0.2 1.7,0.4 l 0,6.2 z"
       id="path11"
       inkscape:connector-curvature="0"
       style="fill:#4291c3;fill-opacity:1;stroke:none" /></g></svg>