<?xml version="1.0" encoding="UTF-8" standalone="no"?>
<!-- Generator: Adobe Illustrator 19.2.1, SVG Export Plug-In . SVG Version: 6.00 Build 0)  -->

<svg
   xmlns:dc="http://purl.org/dc/elements/1.1/"
   xmlns:cc="http://creativecommons.org/ns#"
   xmlns:rdf="http://www.w3.org/1999/02/22-rdf-syntax-ns#"
   xmlns:svg="http://www.w3.org/2000/svg"
   xmlns="http://www.w3.org/2000/svg"
   xmlns:sodipodi="http://sodipodi.sourceforge.net/DTD/sodipodi-0.dtd"
   xmlns:inkscape="http://www.inkscape.org/namespaces/inkscape"
   version="1.1"
   id="Layer_1"
   x="0px"
   y="0px"
   width="40.76236"
   height="43.753654"
   viewBox="0 0 40.76236 43.753654"
   xml:space="preserve"
   inkscape:version="0.91 r13725"
   sodipodi:docname="Stepper_Plus_ICON2.svg"><metadata
     id="metadata11"><rdf:RDF><cc:Work
         rdf:about=""><dc:format>image/svg+xml</dc:format><dc:type
           rdf:resource="http://purl.org/dc/dcmitype/StillImage" /><dc:title /></cc:Work></rdf:RDF></metadata><defs
     id="defs9" /><sodipodi:namedview
     pagecolor="#ffffff"
     bordercolor="#666666"
     borderopacity="1"
     objecttolerance="10"
     gridtolerance="10"
     guidetolerance="10"
     inkscape:pageopacity="0"
     inkscape:pageshadow="2"
     inkscape:window-width="1178"
     inkscape:window-height="765"
     id="namedview7"
     showgrid="true"
     inkscape:zoom="10.363388"
     inkscape:cx="11.212239"
     inkscape:cy="25.271069"
     inkscape:window-x="684"
     inkscape:window-y="38"
     inkscape:window-maximized="0"
     inkscape:current-layer="Layer_1"
     showguides="false"
     fit-margin-top="0"
     fit-margin-left="0"
     fit-margin-right="0"
     fit-margin-bottom="0"><inkscape:grid
       type="xygrid"
       id="grid4195"
       originx="11.310784"
       originy="12.372213" /></sodipodi:namedview><style
     type="text/css"
     id="style3">
	.st0{fill:#221F1F;}
</style><path
     class="st0"
     d="m 25.103388,21.561037 -4.444445,0 0,-5.368422 c 0,-0.189473 -0.11111,-0.315789 -0.277777,-0.315789 -0.166667,0 -0.277778,0.126316 -0.277778,0.315789 l 0,5.368422 -4.444445,0 c -0.166666,0 -0.277777,0.126315 -0.277777,0.315789 0,0.189474 0.111111,0.315789 0.277777,0.315789 l 4.444445,0 0,5.368422 c 0,0.189473 0.111111,0.315789 0.277778,0.315789 0.166667,0 0.277777,-0.126316 0.277777,-0.315789 l 0,-5.368422 4.444445,0 c 0.166667,0 0.277778,-0.126315 0.277778,-0.315789 0,-0.189474 -0.111111,-0.315789 -0.277778,-0.315789 z"
     id="path5"
     style="fill:#0073a3;fill-opacity:1;stroke-width:0.2;stroke-miterlimit:4;stroke-dasharray:none;stroke:#0073a3;stroke-opacity:1"
     inkscape:connector-curvature="0" /><g
     inkscape:groupmode="layer"
     id="layer1"
     inkscape:label="Layer 1"
     style="display:inline"
     transform="translate(11.310784,12.381439)"><path
       style="fill:none;fill-opacity:1;stroke:#0073a3;stroke-width:1.1549958;stroke-miterlimit:4;stroke-dasharray:none;stroke-opacity:1"
       d="m -6.5785024,-7.4271151 29.1365154,0 c 1.240109,0 2.238464,0.998355 2.238464,2.2384634 l 0,29.3680777 c 0,1.240109 -0.998355,2.238463 -2.238464,2.238463 l -26.9752409,0 -2.1612745,0 -0.077186,-31.6065407 z"
       id="rect4152"
       inkscape:connector-curvature="0"
       sodipodi:nodetypes="csssscccc" /></g></svg>