<?xml version="1.0" encoding="utf-8"?>
<!-- Generator: Adobe Illustrator 20.0.0, SVG Export Plug-In . SVG Version: 6.00 Build 0)  -->
<svg version="1.1" xmlns="http://www.w3.org/2000/svg" xmlns:xlink="http://www.w3.org/1999/xlink" x="0px" y="0px" width="217px"
	 height="195px" viewBox="0 0 217 195" style="enable-background:new 0 0 217 195;" xml:space="preserve">
<style type="text/css">
	.st0{display:none;}
	.st1{display:inline;}
	.st2{display:inline;clip-path:url(#SVGID_2_);fill:#D1CDC7;}
	.st3{fill:url(#SVGID_3_);}
	.st4{fill:url(#SVGID_4_);}
	.st5{fill:url(#SVGID_5_);}
	.st6{fill:url(#SVGID_6_);}
	.st7{fill:url(#SVGID_7_);}
	.st8{fill:#E0E2E2;}
	.st9{display:inline;fill:none;stroke:#C7C7C7;stroke-linecap:round;stroke-linejoin:round;stroke-miterlimit:10;}
	.st10{fill:none;stroke:#C7C7C7;stroke-linecap:round;stroke-linejoin:round;stroke-miterlimit:10;}
	.st11{fill:#D8D4D1;}
	.st12{fill:#E7E4E0;}
	.st13{fill:#F7F3F0;}
	.st14{fill:url(#SVGID_8_);}
	.st15{fill:url(#SVGID_9_);}
	.st16{fill:#0070A0;}
	.st17{fill:#FFFFFF;stroke:#000000;stroke-miterlimit:10;}
	.st18{fill:url(#SVGID_10_);}
	.st19{fill:url(#SVGID_11_);}
	.st20{fill:#FFEEB7;}
	.st21{fill:url(#SVGID_12_);}
	.st22{fill:url(#SVGID_13_);}
	.st23{fill:#31FEEF;}
	.st24{fill:none;}
	.st25{fill:url(#SVGID_14_);}
	.st26{fill:url(#SVGID_15_);}
	.st27{fill:#FFA188;}
</style>
<g id="Layer_1" class="st0">
</g>
<g id="Layer_6">
</g>
<g id="Layer_5">
</g>
<g id="Layer_3" class="st0">
</g>
<g id="Layer_4">
</g>
<g id="Layer_2">
	<polygon class="st8" points="135.5,195 0,167.6 87.9,127.3 217.2,149.4 	"/>
	<g>
		<polygon class="st11" points="77.2,135.8 77.2,11.2 113.8,13.3 113.8,157 		"/>
		<polygon class="st12" points="113.8,157 133.9,122.8 133.9,5.2 113.8,13.3 		"/>
		<polygon class="st13" points="77.2,11.2 101,0 135.3,5.4 112.2,16.2 		"/>
	</g>
	<g>
		<linearGradient id="SVGID_2_" gradientUnits="userSpaceOnUse" x1="62.7868" y1="167.7269" x2="62.7868" y2="49.8287">
			<stop  offset="0" style="stop-color:#FF926C"/>
			<stop  offset="1" style="stop-color:#FF926C"/>
		</linearGradient>
		<polygon style="fill:url(#SVGID_2_);" points="40.6,158 39.3,49.8 86.3,57.4 86.3,167.7 		"/>
		<linearGradient id="SVGID_3_" gradientUnits="userSpaceOnUse" x1="95.5123" y1="167.7269" x2="95.5123" y2="48.5802">
			<stop  offset="0" style="stop-color:#F97653"/>
			<stop  offset="1" style="stop-color:#FC8465"/>
		</linearGradient>
		<polygon class="st3" points="86.3,167.7 104.7,156 104,48.6 86.3,57.4 		"/>
		<polygon class="st27" points="39.3,49.8 59.8,42 104,48.6 86.3,57.4 		"/>
	</g>
	<g>
		<polygon class="st11" points="97.1,158.3 97.1,40.3 131.7,45.8 131.7,165.6 		"/>
		<polygon class="st12" points="131.7,156.6 147.7,146.9 147.3,38.5 131.7,45.8 		"/>
		<polygon class="st13" points="97.1,40.3 113.9,32.1 147.9,38.6 131.7,45.8 		"/>
	</g>
	<g>
		<polygon class="st11" points="21.2,163.1 21.4,101 51.6,106.3 51.6,170 		"/>
		<polygon class="st12" points="51.6,170 65.2,161.3 65.2,99.8 51.6,106.3 		"/>
		<polygon class="st13" points="21.4,101 37.9,94.9 65.2,99.8 51.6,106.3 		"/>
	</g>
	<g>
		<polygon class="st11" points="109.5,150.7 113.8,84.6 166.8,91.3 168.3,162.3 		"/>
		<polygon class="st12" points="168.4,160.9 191.4,149.3 191.4,81.9 166.8,92.6 		"/>
		<polygon class="st13" points="113.8,84.6 136.8,72.5 191.4,81.9 166.8,92.6 		"/>
	</g>
	<g>
		<polygon class="st11" points="96.7,166.1 96.9,110.7 123.8,115.5 123.8,172.1 		"/>
		<polygon class="st12" points="123.8,172.1 135.9,164.4 135.9,109.6 123.8,115.5 		"/>
		<polygon class="st13" points="96.9,110.7 111.6,105.3 135.9,109.6 123.8,115.5 		"/>
	</g>
</g>
</svg>
