<?xml version="1.0" encoding="utf-8"?>
<!-- Generator: Adobe Illustrator 20.0.0, SVG Export Plug-In . SVG Version: 6.00 Build 0)  -->
<svg version="1.1" xmlns="http://www.w3.org/2000/svg" xmlns:xlink="http://www.w3.org/1999/xlink" x="0px" y="0px" width="217px"
	 height="195px" viewBox="0 0 217 195" style="enable-background:new 0 0 217 195;" xml:space="preserve">
<style type="text/css">
	.st0{display:none;}
	.st1{display:inline;}
	.st2{display:inline;clip-path:url(#SVGID_2_);fill:#D1CDC7;}
	.st3{fill:url(#SVGID_3_);}
	.st4{fill:url(#SVGID_4_);}
	.st5{fill:url(#SVGID_5_);}
	.st6{fill:url(#SVGID_6_);}
	.st7{fill:url(#SVGID_7_);}
	.st8{fill:#E0E2E2;}
	.st9{display:inline;fill:none;stroke:#C7C7C7;stroke-linecap:round;stroke-linejoin:round;stroke-miterlimit:10;}
	.st10{fill:none;stroke:#C7C7C7;stroke-linecap:round;stroke-linejoin:round;stroke-miterlimit:10;}
	.st11{fill:#D8D4D1;}
	.st12{fill:#E7E4E0;}
	.st13{fill:#F7F3F0;}
	.st14{fill:url(#SVGID_8_);}
	.st15{fill:url(#SVGID_9_);}
	.st16{fill:#0070A0;}
	.st17{fill:#FFFFFF;stroke:#000000;stroke-miterlimit:10;}
	.st18{fill:url(#SVGID_10_);}
	.st19{fill:url(#SVGID_11_);}
	.st20{fill:#FFEEB7;}
	.st21{fill:url(#SVGID_12_);}
	.st22{fill:url(#SVGID_13_);}
	.st23{fill:#31FEEF;}
	.st24{fill:none;}
	.st25{fill:url(#SVGID_14_);}
	.st26{fill:url(#SVGID_15_);}
	.st27{fill:#FFA188;}
</style>
<g id="Layer_1" class="st0">
	
		<image style="display:inline;overflow:visible;" width="556" height="297" xlink:href="../../../../../../../../../Desktop/Screen Shot 2016-10-06 at 10.37.23 AM.png"  transform="matrix(1.3489 0 0 1.3489 -399.0812 -283.3707)">
	</image>
</g>
<g id="Layer_6">
</g>
<g id="Layer_5">
</g>
<g id="Layer_3" class="st0">
	<g class="st1">
		<linearGradient id="SVGID_2_" gradientUnits="userSpaceOnUse" x1="6.2948" y1="-14.7162" x2="247.6474" y2="-14.7162">
			<stop  offset="0" style="stop-color:#8C8C8C;stop-opacity:0"/>
			<stop  offset="0.5235" style="stop-color:#8C8C8C"/>
			<stop  offset="0.9902" style="stop-color:#8C8C8C;stop-opacity:2.052921e-02"/>
			<stop  offset="1" style="stop-color:#8C8C8C;stop-opacity:0"/>
		</linearGradient>
		<path style="fill:url(#SVGID_2_);" d="M11.8-41.3C10.2-40.2,8.6-39.1,7-38c-0.2,0.2-0.5,0.3-0.7,0.5l237,49.3
			c1.5-1.2,2.9-2.5,4.3-3.8L11.8-41.3z"/>
		<linearGradient id="SVGID_3_" gradientUnits="userSpaceOnUse" x1="-28.826" y1="10.7094" x2="217.468" y2="10.7094">
			<stop  offset="0" style="stop-color:#8C8C8C;stop-opacity:0"/>
			<stop  offset="0.5235" style="stop-color:#8C8C8C"/>
			<stop  offset="0.9902" style="stop-color:#8C8C8C;stop-opacity:2.052921e-02"/>
			<stop  offset="1" style="stop-color:#8C8C8C;stop-opacity:0"/>
		</linearGradient>
		<path class="st3" d="M-23.4-16.4c-1.8,1.3-3.6,2.6-5.4,3.9l242,50.3c1.4-1.3,2.9-2.5,4.3-3.8L-23.4-16.4z"/>
		<linearGradient id="SVGID_4_" gradientUnits="userSpaceOnUse" x1="1.1046" y1="-19.2367" x2="149.866" y2="-19.2367">
			<stop  offset="0" style="stop-color:#8C8C8C;stop-opacity:0"/>
			<stop  offset="0.5235" style="stop-color:#8C8C8C"/>
			<stop  offset="0.9902" style="stop-color:#8C8C8C;stop-opacity:2.052921e-02"/>
			<stop  offset="1" style="stop-color:#8C8C8C;stop-opacity:0"/>
		</linearGradient>
		<path class="st4" d="M14.2,27.1l135.6-92.8h-16.2L1.1,24.8C5.5,25.7,9.8,26.5,14.2,27.1z"/>
		<linearGradient id="SVGID_5_" gradientUnits="userSpaceOnUse" x1="198.2201" y1="-37.8503" x2="198.2201" y2="57.9691">
			<stop  offset="0" style="stop-color:#8C8C8C;stop-opacity:0"/>
			<stop  offset="0.5235" style="stop-color:#8C8C8C"/>
			<stop  offset="0.9902" style="stop-color:#8C8C8C;stop-opacity:2.052921e-02"/>
			<stop  offset="1" style="stop-color:#8C8C8C;stop-opacity:0"/>
		</linearGradient>
		<path class="st5" d="M144.2,58l119.4-94.1l-13.1-1.7L132.8,54.4C136.7,55.4,140.5,56.7,144.2,58z"/>
	</g>
</g>
<g id="Layer_4">
</g>
<g id="Layer_2">
	<polygon class="st8" points="135.5,195 0,167.6 87.9,127.3 217.2,149.4 	"/>
	<g class="st0">
		<path class="st9" d="M134,25.5l-25.3,18.4c-0.4,0.3-0.3,1,0.2,1.1l21.6,4.6c0.9,0.2,1.8,0,2.4-0.6l21.7-17.6
			c0.9-0.7,0.5-2.1-0.5-2.3l-17.5-4.1C135.8,24.7,134.8,24.9,134,25.5z"/>
		<path class="st9" d="M126.3,30.9l-9.4-1.9c-0.1,0-0.3,0-0.4,0.1l-9.1,7c-0.1,0.1-0.3,0.1-0.4,0.1l-6.7-1.6c-0.1,0-0.3,0-0.4,0.1
			l-7.2,5.1c-0.3,0.2-0.2,0.8,0.2,0.9l15.3,3.8"/>
		<line class="st9" x1="116.9" y1="29" x2="126" y2="22.5"/>
		<line class="st9" x1="112" y1="32.6" x2="64" y2="21.2"/>
		<line class="st9" x1="115.3" y1="20.1" x2="102.5" y2="30.4"/>
		<line class="st9" x1="97.9" y1="16.5" x2="85.5" y2="26.2"/>
		<line class="st9" x1="90.6" y1="14.7" x2="78.9" y2="24.7"/>
		<line class="st9" x1="83.9" y1="13.2" x2="72.2" y2="23.1"/>
		<polyline class="st9" points="92,40.2 85.8,38.7 90.9,34.3 57.5,26.2 		"/>
		<path class="st9" d="M136.7,24.8l-86-18.9L20,26.6l28.5,6.3c0.6,0.1,1.1,0,1.6-0.4l25.5-21.1"/>
	</g>
	<g>
		<polygon class="st11" points="120.9,123.5 119.6,34.4 164.5,41.6 164.5,142.6 		"/>
		<polygon class="st12" points="164.5,142.6 181.4,119.7 181.4,33.2 164.5,41.6 		"/>
		<polygon class="st13" points="119.6,34.4 139.2,26.9 181.4,33.2 164.5,41.6 		"/>
	</g>
	<g>
		<polygon class="st11" points="60.6,122.1 60.6,10 93.5,11.9 93.5,141.2 		"/>
		<polygon class="st12" points="93.5,141.2 111.6,110.4 111.6,4.7 93.5,11.9 		"/>
		<polygon class="st13" points="60.6,10 82,0 112.8,4.9 92.1,14.6 		"/>
	</g>
	<g>
		<polygon class="st11" points="53.6,152.1 53.6,102.2 97.4,110.7 97.4,161.8 		"/>
		<polygon class="st12" points="97.4,161.8 114.4,148.3 114.4,98.4 97.4,110.7 		"/>
		<polygon class="st13" points="53.6,102.2 74,91.5 114.4,98.4 97.4,110.7 		"/>
	</g>
	<g>
		<polygon class="st11" points="137.6,156.3 137.6,111.3 170.4,116.6 170.4,163.2 		"/>
		<polygon class="st12" points="170.4,163.2 185.6,154 185.2,109.6 170.4,116.6 		"/>
		<polygon class="st13" points="137.6,111.3 153.6,103.6 185.8,109.7 170.4,116.6 		"/>
	</g>
	<g>
		<linearGradient id="SVGID_6_" gradientUnits="userSpaceOnUse" x1="103.2515" y1="50.0546" x2="103.2515" y2="180.4221">
			<stop  offset="0" style="stop-color:#1588B8"/>
			<stop  offset="1" style="stop-color:#006090"/>
		</linearGradient>
		<polygon class="st6" points="134.4,180.4 72.1,168 72.1,50.1 134.4,58.5 		"/>
		<linearGradient id="SVGID_7_" gradientUnits="userSpaceOnUse" x1="144.9792" y1="48.1427" x2="144.9792" y2="180.4221">
			<stop  offset="0" style="stop-color:#004272"/>
			<stop  offset="1" style="stop-color:#001647"/>
		</linearGradient>
		<polygon class="st7" points="155.5,48.1 134.4,58.5 134.4,180.4 155.5,166.2 		"/>
		<polygon class="st16" points="155.5,48.1 98.5,40.5 72.1,50.1 134.4,58.5 		"/>
	</g>
	<g>
		<polygon class="st11" points="109.1,181.2 109.2,134.4 132,138.4 132,186.3 		"/>
		<polygon class="st12" points="132,186.3 142.2,179.7 142.2,133.5 132,138.4 		"/>
		<polygon class="st13" points="109.2,134.4 121.6,129.8 142.2,133.5 132,138.4 		"/>
	</g>
</g>
</svg>
