<?xml version="1.0" encoding="utf-8"?>
<!-- Generator: Adobe Illustrator 20.0.0, SVG Export Plug-In . SVG Version: 6.00 Build 0)  -->
<svg version="1.1" xmlns="http://www.w3.org/2000/svg" xmlns:xlink="http://www.w3.org/1999/xlink" x="0px" y="0px" width="217.2px"
	 height="195px" viewBox="0 0 217.2 195" style="enable-background:new 0 0 217.2 195;" xml:space="preserve">
<style type="text/css">
	.st0{display:none;}
	.st1{display:inline;}
	.st2{display:inline;clip-path:url(#SVGID_2_);fill:#D1CDC7;}
	.st3{fill:url(#SVGID_3_);}
	.st4{fill:url(#SVGID_4_);}
	.st5{fill:url(#SVGID_5_);}
	.st6{fill:url(#SVGID_6_);}
	.st7{fill:url(#SVGID_7_);}
	.st8{fill:#E0E2E2;}
	.st9{display:inline;fill:none;stroke:#C7C7C7;stroke-linecap:round;stroke-linejoin:round;stroke-miterlimit:10;}
	.st10{fill:none;stroke:#C7C7C7;stroke-linecap:round;stroke-linejoin:round;stroke-miterlimit:10;}
	.st11{fill:#D8D4D1;}
	.st12{fill:#E7E4E0;}
	.st13{fill:#F7F3F0;}
	.st14{fill:url(#SVGID_8_);}
	.st15{fill:url(#SVGID_9_);}
	.st16{fill:#0070A0;}
	.st17{fill:#FFFFFF;stroke:#000000;stroke-miterlimit:10;}
	.st18{fill:url(#SVGID_10_);}
	.st19{fill:url(#SVGID_11_);}
	.st20{fill:#FFEEB7;}
	.st21{fill:url(#SVGID_12_);}
	.st22{fill:url(#SVGID_13_);}
	.st23{fill:#31FEEF;}
	.st24{fill:none;}
	.st25{fill:url(#SVGID_14_);}
	.st26{fill:url(#SVGID_15_);}
	.st27{fill:#FFA188;}
</style>
<g id="Layer_1" class="st0">
	
		<image style="display:inline;overflow:visible;" width="556" height="297" xlink:href="../../../../../../../../../Desktop/Screen Shot 2016-10-06 at 10.37.23 AM.png"  transform="matrix(1.3489 0 0 1.3489 -111.1703 -278.9901)">
	</image>
</g>
<g id="Layer_6">
</g>
<g id="Layer_5">
</g>
<g id="Layer_3" class="st0">
</g>
<g id="Layer_4">
</g>
<g id="Layer_2">
	<polygon class="st8" points="135.5,195 0,167.6 87.9,127.3 217.2,149.4 	"/>
	<g>
		<polygon class="st11" points="88.3,136.5 88.3,57.9 147.5,71.2 147.5,151.8 		"/>
		<polygon class="st12" points="147.5,151.8 170.5,133.5 170.5,54.3 147.5,71.2 		"/>
		<polygon class="st13" points="88.3,57.9 115.1,44.3 170.5,54.3 147.5,71.2 		"/>
	</g>
	<g>
		<polygon class="st11" points="101.2,140.7 101.2,6.3 135.8,11.8 135.8,146.5 		"/>
		<polygon class="st12" points="135.8,85.6 154.7,72.1 154.7,4.4 135.8,11.8 		"/>
		<polygon class="st13" points="101.2,6.3 123.2,0 154.7,4.4 135.8,11.8 		"/>
	</g>
	<g>
		<linearGradient id="SVGID_2_" gradientUnits="userSpaceOnUse" x1="80.2841" y1="28.1966" x2="80.2841" y2="170.2073">
			<stop  offset="0" style="stop-color:#14E2D3"/>
			<stop  offset="1" style="stop-color:#018375"/>
		</linearGradient>
		<polygon style="fill:url(#SVGID_2_);" points="120.8,170.2 39.8,156.7 39.8,28.2 120.8,37.3 		"/>
		<linearGradient id="SVGID_3_" gradientUnits="userSpaceOnUse" x1="134.4318" y1="26.1139" x2="134.4318" y2="170.2073">
			<stop  offset="0" style="stop-color:#33FFF1"/>
			<stop  offset="1" style="stop-color:#00AC9D"/>
		</linearGradient>
		<polygon class="st3" points="148.1,26.1 120.8,37.3 120.8,170.2 148.1,154.8 		"/>
		<polygon class="st23" points="148.1,26.1 74.2,17.8 39.8,28.2 120.8,37.3 		"/>
	</g>
	<g>
		<polygon class="st11" points="44.2,168.8 44.6,110.9 79.2,117.5 79.2,176 		"/>
		<polygon class="st12" points="79.2,176 92.6,168.6 92.6,107.9 79.2,117.5 		"/>
		<polygon class="st13" points="44.6,110.9 60.7,101.8 92.6,107.9 79.2,117.5 		"/>
	</g>
	<g>
		<polygon class="st11" points="125.9,167.7 125.9,94.2 160.5,99.7 160.5,173.5 		"/>
		<polygon class="st12" points="160.5,173.5 179.7,162.6 178.9,89.5 160.5,99.7 		"/>
		<polygon class="st13" points="125.9,94.2 145.2,84.2 178.9,89.2 160.5,99.7 		"/>
	</g>
	<line class="st24" x1="120.8" y1="37.3" x2="149.2" y2="25.5"/>
</g>
</svg>
