<?xml version="1.0" encoding="utf-8"?>
<!-- Generator: Adobe Illustrator 19.2.1, SVG Export Plug-In . SVG Version: 6.00 Build 0)  -->
<svg version="1.1" xmlns="http://www.w3.org/2000/svg" xmlns:xlink="http://www.w3.org/1999/xlink" x="0px" y="0px" width="2538px"
	 height="1878px" viewBox="0 0 2538 1878" style="enable-background:new 0 0 2538 1878;" xml:space="preserve">
<style type="text/css">
	.st0{fill:#FFC757;}
	.st1{opacity:0.4;}
	.st2{fill:url(#SVGID_1_);}
	.st3{fill:#FFCF4A;}
	.st4{opacity:0.4;fill:url(#SVGID_2_);}
	.st5{opacity:0.4;fill:url(#SVGID_3_);}
	.st6{opacity:0.4;fill:url(#SVGID_4_);}
	.st7{opacity:0.4;fill:url(#SVGID_5_);}
	.st8{fill:#FBFF5A;}
	.st9{opacity:0.4;fill:url(#SVGID_6_);}
	.st10{opacity:0.33;fill:#4291C3;}
	.st11{fill:#FFFFFF;}
	.st12{opacity:0.34;fill:#FFFFFF;}
	.st13{fill:url(#SVGID_7_);}
	.st14{fill:url(#SVGID_8_);}
	.st15{fill:url(#SVGID_9_);}
	.st16{fill:url(#SVGID_10_);}
	.st17{fill:url(#SVGID_11_);}
	.st18{fill:url(#SVGID_12_);}
	.st19{fill:url(#SVGID_13_);}
	.st20{opacity:0.2;}
	.st21{fill:url(#SVGID_14_);}
	.st22{opacity:0.4;fill:#FFFFFF;}
	.st23{fill:url(#SVGID_15_);}
	.st24{opacity:0.2;fill:#4291C3;}
	.st25{opacity:0.4;fill:url(#SVGID_16_);}
	.st26{opacity:0.47;}
	.st27{opacity:0.4;fill:url(#SVGID_17_);}
	.st28{opacity:0.7;fill:#FFFFFF;}
	.st29{opacity:0.63;}
	.st30{fill:#4291C3;}
	.st31{opacity:0.5;}
	.st32{fill:url(#SVGID_18_);}
	.st33{fill:url(#SVGID_19_);}
	.st34{fill:url(#SVGID_20_);}
	.st35{fill:url(#SVGID_21_);}
	.st36{fill:url(#SVGID_22_);}
</style>
<g id="Layer_4">
	<path class="st0" d="M2323.7,714.8c2.2,1.3,2.4,2.1,1.5,4.6c-1.3,3.5-2.8,6.9-3.8,10.4c-2.3,8.4-2.5,16.8-1.1,25.4
		c1.1,6.3,3.1,12.2,6.1,17.8c3.6,6.7,8.3,12.5,14.1,17.4c7.7,6.5,16.5,10.9,26.3,12.9c9.2,1.9,18.4,1.7,27.5-0.7
		c3.6-1,7.1-2.3,10.5-3.9c2.4-1.1,3.2-0.9,4.6,1.2c0,0.5,0,0.9,0,1.4c-2.1,3.5-4.1,7.1-6.4,10.5c-2.9,4.3-6.6,8-10.6,11.3
		c-5.3,4.4-11.1,7.9-17.5,10.4c-5.2,2.1-10.6,3.5-16.2,4.1c-2,0.2-4.1,0.4-6.2,0.6c-1.3,0-2.6,0-3.9,0c-1.9-0.2-3.8-0.4-5.7-0.6
		c-10.4-1.2-19.9-4.8-28.5-10.7c-8.4-5.7-15.1-13-20.2-21.9c-4.1-7.3-6.8-15.1-7.8-23.5c-0.2-1.5-0.4-3-0.6-4.5c0-2.5,0-5,0-7.5
		c0.1-0.4,0.1-0.7,0.2-1.1c0.4-4.4,1-8.7,2.3-13c2.2-7.6,5.6-14.7,10.4-21.1c4.2-5.6,9.2-10.5,15-14.5c2.8-1.9,5.9-3.5,8.9-5.3
		C2323,714.8,2323.4,714.8,2323.7,714.8z"/>
	<g class="st1">
		<linearGradient id="SVGID_1_" gradientUnits="userSpaceOnUse" x1="2287.2913" y1="776.5473" x2="2408.4946" y2="776.5473">
			<stop  offset="0" style="stop-color:#FFFFFF;stop-opacity:0"/>
			<stop  offset="0.2101" style="stop-color:#FFE8E1;stop-opacity:0.2101"/>
			<stop  offset="0.6656" style="stop-color:#FFAC93;stop-opacity:0.6656"/>
			<stop  offset="1" style="stop-color:#FF7E57"/>
		</linearGradient>
		<path class="st2" d="M2324.3,715.9c2.2,1.3,2.4,2.1,1.5,4.5c-1.3,3.4-2.7,6.8-3.7,10.3c-2.3,8.2-2.5,16.5-1.1,24.9
			c1,6.2,3.1,12,6,17.5c3.5,6.6,8.1,12.3,13.8,17.1c7.5,6.4,16.2,10.7,25.8,12.7c9,1.9,18.1,1.7,27-0.7c3.6-0.9,7-2.2,10.3-3.8
			c2.3-1.1,3.1-0.9,4.5,1.2c0,0.5,0,0.9,0,1.4c-2.1,3.4-4,6.9-6.3,10.3c-2.9,4.2-6.4,7.9-10.4,11.1c-5.2,4.3-10.9,7.7-17.2,10.2
			c-5.1,2-10.4,3.4-15.9,4c-2,0.2-4,0.4-6,0.6c-1.3,0-2.6,0-3.9,0c-1.9-0.2-3.7-0.4-5.6-0.6c-10.2-1.2-19.5-4.7-28-10.5
			c-8.3-5.6-14.9-12.8-19.8-21.5c-4.1-7.2-6.6-14.9-7.7-23.1c-0.2-1.5-0.4-2.9-0.6-4.4c0-2.5,0-4.9,0-7.4c0.1-0.3,0.1-0.7,0.2-1
			c0.4-4.3,1-8.6,2.2-12.7c2.2-7.5,5.5-14.4,10.2-20.7c4.1-5.5,9-10.3,14.8-14.2c2.8-1.9,5.8-3.5,8.7-5.2
			C2323.6,715.9,2323.9,715.9,2324.3,715.9z"/>
	</g>
	<g>
		<polygon class="st3" points="2343.2,485.3 2347.5,476.9 2351.6,485.4 2360.9,486.8 2354.1,493.3 2355.6,502.6 2347.3,498.2 
			2338.9,502.5 2340.6,493.2 2333.9,486.6 		"/>
		<linearGradient id="SVGID_2_" gradientUnits="userSpaceOnUse" x1="2347.3904" y1="476.8857" x2="2347.3904" y2="502.6431">
			<stop  offset="0" style="stop-color:#FFFFFF;stop-opacity:0"/>
			<stop  offset="1" style="stop-color:#ADAEB0"/>
		</linearGradient>
		<polygon class="st4" points="2343.2,485.3 2347.5,476.9 2351.6,485.4 2360.9,486.8 2354.1,493.3 2355.6,502.6 2347.3,498.2 
			2338.9,502.5 2340.6,493.2 2333.9,486.6 		"/>
	</g>
	<g>
		<g>
			<polygon class="st3" points="1313.1,905.7 1318.8,894.4 1324.3,905.8 1336.9,907.7 1327.7,916.5 1329.8,929.1 1318.6,923.1 
				1307.3,928.9 1309.5,916.4 1300.5,907.4 			"/>
			<linearGradient id="SVGID_3_" gradientUnits="userSpaceOnUse" x1="1318.7048" y1="894.3587" x2="1318.7048" y2="929.0795">
				<stop  offset="0" style="stop-color:#FFFFFF;stop-opacity:0"/>
				<stop  offset="1" style="stop-color:#ADAEB0"/>
			</linearGradient>
			<polygon class="st5" points="1313.1,905.7 1318.8,894.4 1324.3,905.8 1336.9,907.7 1327.7,916.5 1329.8,929.1 1318.6,923.1 
				1307.3,928.9 1309.5,916.4 1300.5,907.4 			"/>
		</g>
	</g>
	<g>
		<g>
			<polygon class="st3" points="217.8,312.2 222,303.8 226.1,312.3 235.4,313.7 228.6,320.2 230.1,329.5 221.8,325.1 213.4,329.4 
				215.1,320.1 208.4,313.5 			"/>
			<linearGradient id="SVGID_4_" gradientUnits="userSpaceOnUse" x1="221.9151" y1="303.7872" x2="221.9151" y2="329.5446">
				<stop  offset="0" style="stop-color:#FFFFFF;stop-opacity:0"/>
				<stop  offset="1" style="stop-color:#ADAEB0"/>
			</linearGradient>
			<polygon class="st6" points="217.8,312.2 222,303.8 226.1,312.3 235.4,313.7 228.6,320.2 230.1,329.5 221.8,325.1 213.4,329.4 
				215.1,320.1 208.4,313.5 			"/>
		</g>
	</g>
	<g>
		<g>
			<polygon class="st3" points="99.1,875.7 103.3,867.3 107.4,875.8 116.8,877.2 109.9,883.7 111.5,893.1 103.2,888.6 94.8,892.9 
				96.4,883.6 89.8,877 			"/>
			<linearGradient id="SVGID_5_" gradientUnits="userSpaceOnUse" x1="103.255" y1="867.2936" x2="103.255" y2="893.051">
				<stop  offset="0" style="stop-color:#FFFFFF;stop-opacity:0"/>
				<stop  offset="1" style="stop-color:#ADAEB0"/>
			</linearGradient>
			<polygon class="st7" points="99.1,875.7 103.3,867.3 107.4,875.8 116.8,877.2 109.9,883.7 111.5,893.1 103.2,888.6 94.8,892.9 
				96.4,883.6 89.8,877 			"/>
		</g>
	</g>
	<circle class="st8" cx="401.8" cy="155" r="7.6"/>
	<circle class="st8" cx="338.5" cy="583.8" r="5"/>
	<circle class="st8" cx="768.3" cy="692.1" r="5"/>
	<circle class="st8" cx="683.9" cy="922.7" r="5"/>
	<circle class="st8" cx="991.5" cy="298.8" r="5"/>
	<circle class="st8" cx="502.8" cy="242.9" r="5"/>
	<circle class="st8" cx="621.6" cy="294.7" r="5"/>
	<circle class="st8" cx="2066" cy="1447.9" r="5"/>
	<circle class="st8" cx="2093.5" cy="219" r="8.5"/>
	<circle class="st8" cx="456.7" cy="1178.8" r="5"/>
	<circle class="st8" cx="541.1" cy="875.2" r="5"/>
</g>
<g id="Layer_3">
	<linearGradient id="SVGID_6_" gradientUnits="userSpaceOnUse" x1="1267.3171" y1="2" x2="1267.3171" y2="1893.4065">
		<stop  offset="0" style="stop-color:#F8C053;stop-opacity:0.5"/>
		<stop  offset="1" style="stop-color:#D81A1A;stop-opacity:0.8"/>
	</linearGradient>
	<rect x="-1.6" y="2" class="st9" width="2537.8" height="1878.5"/>
	<path class="st10" d="M-1.6,1877.3h1844v-408.8l-27.6-15.9v-362.2l-217.5,2V1527l-87.7-80.6V1255l-219.6,56.9v170.3l-88.8,2.4
		l-0.5-206.1l-205-150.6v386.5H884.2v-286.3H574.9v232.1h-81.2v-105l-138.2-95v97.2h-54.7V1047L164,1126.2l2,118.1l-53.8-1.4v-158.4
		l-43.7-0.5l0.8,64H-1.6V1877.3z M706.7,1260h35.5v57.1h-35.5V1260z"/>
	<rect x="1630" y="1252.2" class="st11" width="30.3" height="64"/>
	<rect x="1724.4" y="1151.1" class="st11" width="30.3" height="64"/>
	<rect x="1724.4" y="1278.1" class="st11" width="30.3" height="64"/>
	<rect x="1293.5" y="1532.2" class="st12" width="30.3" height="64"/>
	<polygon class="st10" points="1843.2,1877.3 2070.7,1877.3 2070.7,1258.1 1971.9,1315.3 1973.5,1407.1 1931.6,1406 1931.6,1282.8 
		1897.7,1282.5 1898.3,1332.3 1843.2,1332.3 	"/>
	<polygon class="st10" points="2535.3,1877.3 2535.3,1084.4 2526.4,1084.5 2526.4,1242.8 2472.6,1244.3 2474.6,1126.2 2337.8,1047 
		2337.8,1357.3 2283.1,1446.3 2283.1,1404.8 2144.9,1355.1 2144.9,1460.2 2071.2,1460.2 2071.2,1877.3 	"/>
</g>
<g id="Layer_1">
	<g class="st1">
		
			<linearGradient id="SVGID_7_" gradientUnits="userSpaceOnUse" x1="1150.9523" y1="-3695.4548" x2="1150.4243" y2="-3314.5532" gradientTransform="matrix(-1.2579 1.744209e-03 -3.426255e-03 -2.4722 3155.9607 -7102.3452)">
			<stop  offset="0" style="stop-color:#FFFFFF;stop-opacity:0"/>
			<stop  offset="1" style="stop-color:#ADAEB0"/>
		</linearGradient>
		<polygon class="st13" points="1841.4,1877.3 1841.4,1469.4 1816.6,1454 1816.4,1094.1 1599.4,1094 1599.8,1877.3 		"/>
	</g>
	<g class="st1">
		
			<linearGradient id="SVGID_8_" gradientUnits="userSpaceOnUse" x1="2758.2507" y1="-15233.7285" x2="2754.7493" y2="-12707.5312" gradientTransform="matrix(-0.8418 1.166606e-03 -3.370158e-04 -0.2429 2740.0969 -1826.4441)">
			<stop  offset="0" style="stop-color:#FFFFFF;stop-opacity:0"/>
			<stop  offset="1" style="stop-color:#ADAEB0"/>
		</linearGradient>
		<polygon class="st14" points="489.7,1877.3 492.3,1356.6 358.1,1263.8 357.2,1877.3 		"/>
	</g>
	<g class="st1">
		
			<linearGradient id="SVGID_9_" gradientUnits="userSpaceOnUse" x1="2066.0022" y1="-5255.0498" x2="2065.6943" y2="-5033.0869" gradientTransform="matrix(-1.3372 1.853679e-03 -2.337203e-03 -1.6862 3287.4404 -6971.0781)">
			<stop  offset="0" style="stop-color:#FFFFFF;stop-opacity:0"/>
			<stop  offset="1" style="stop-color:#ADAEB0"/>
		</linearGradient>
		<polygon class="st15" points="655.5,1877.3 655.4,1519.8 419.8,1520.2 418.8,1877.3 		"/>
	</g>
	<g class="st1">
		
			<image style="overflow:visible;" width="1287" height="357" xlink:href="8EF56EE8EF4BFBAB.png"  transform="matrix(0.24 0 0 0.24 382.7141 1844.5244)">
		</image>
	</g>
	<g class="st1">
		
			<linearGradient id="SVGID_10_" gradientUnits="userSpaceOnUse" x1="817.3205" y1="1388.7544" x2="673.0721" y2="1244.506" gradientTransform="matrix(-1 0 0 1 1841.4969 0)">
			<stop  offset="0" style="stop-color:#FFFFFF;stop-opacity:0"/>
			<stop  offset="1" style="stop-color:#ADAEB0"/>
		</linearGradient>
		<polygon class="st16" points="1200,1277.7 993.7,1127.1 993.7,1358.3 1200,1505 		"/>
	</g>
	<g class="st1">
		
			<linearGradient id="SVGID_11_" gradientUnits="userSpaceOnUse" x1="1708.9932" y1="-4901.4399" x2="1708.6852" y2="-4679.2656" gradientTransform="matrix(-1.743 2.415622e-03 -1.386494e-03 -1 3701.6592 -3454.4861)">
			<stop  offset="0" style="stop-color:#FFFFFF;stop-opacity:0"/>
			<stop  offset="1" style="stop-color:#ADAEB0"/>
		</linearGradient>
		<polygon class="st17" points="576.4,1451.2 576.4,1229.2 883.5,1228.8 883.3,1445.5 		"/>
	</g>
	<g class="st1">
		
			<linearGradient id="SVGID_12_" gradientUnits="userSpaceOnUse" x1="2474.8848" y1="-3478.3811" x2="2474.6519" y2="-3310.3184" gradientTransform="matrix(-1.2579 1.744209e-03 -3.426255e-03 -2.4722 3155.9607 -7102.3452)">
			<stop  offset="0" style="stop-color:#FFFFFF;stop-opacity:0"/>
			<stop  offset="1" style="stop-color:#ADAEB0"/>
		</linearGradient>
		<polygon class="st18" points="-1.6,1462.5 110.7,1242.8 110.7,1151.1 110.7,1085.9 69,1085.9 69,1151.1 -1.6,1151.1 -1.1,1462.5 
					"/>
	</g>
	<g class="st1">
		
			<linearGradient id="SVGID_13_" gradientUnits="userSpaceOnUse" x1="1381.0959" y1="-3679.9524" x2="1380.8342" y2="-3491.1638" gradientTransform="matrix(-1.2579 1.744209e-03 -3.426255e-03 -2.4722 3155.9607 -7102.3452)">
			<stop  offset="0" style="stop-color:#FFFFFF;stop-opacity:0"/>
			<stop  offset="1" style="stop-color:#ADAEB0"/>
		</linearGradient>
		<polygon class="st19" points="1345,1877.3 1517.4,1877.3 1517.4,1578.8 1517.4,1531.1 1453.1,1531.1 1453.1,1578.8 1344.6,1578.8 
			1345.3,1806.3 		"/>
	</g>
	<g class="st20">
		<linearGradient id="SVGID_14_" gradientUnits="userSpaceOnUse" x1="1163.0963" y1="2094.4219" x2="1163.0963" y2="1489.5902">
			<stop  offset="0" style="stop-color:#FFFFFF;stop-opacity:0"/>
			<stop  offset="1" style="stop-color:#ADAEB0"/>
		</linearGradient>
		<polygon class="st21" points="1059.9,1877.3 1266.8,1877.3 1266.4,1542.5 1125.6,1542.3 1125.5,1489.7 1082.8,1489.6 
			1082.8,1523.4 1059.4,1524.5 1059.4,1544.4 		"/>
	</g>
	<rect x="235.5" y="1139.5" class="st22" width="26.9" height="56.9"/>
	<rect x="56.6" y="1429.3" class="st22" width="26.9" height="54.9"/>
	<rect x="135.6" y="1663.8" class="st22" width="26.9" height="56.9"/>
	<rect x="1131.2" y="1324.5" class="st22" width="26.9" height="56.9"/>
	<rect x="1073.8" y="1689.1" class="st22" width="26.9" height="56.9"/>
	<rect x="529.7" y="1578" class="st22" width="26.9" height="56.9"/>
	<rect x="791.1" y="1386.3" class="st22" width="26.9" height="56.9"/>
	<rect x="810.8" y="1275.4" class="st22" width="26.9" height="56.9"/>
	<g class="st1">
		
			<linearGradient id="SVGID_15_" gradientUnits="userSpaceOnUse" x1="2425.9417" y1="-3687.7078" x2="2425.554" y2="-3407.9353" gradientTransform="matrix(-1.2579 1.744209e-03 -3.426255e-03 -2.4722 3155.9607 -7102.3452)">
			<stop  offset="0" style="stop-color:#FFFFFF;stop-opacity:0"/>
			<stop  offset="1" style="stop-color:#ADAEB0"/>
		</linearGradient>
		<polygon class="st23" points="227.3,1877.3 227,1327.2 6.1,1327.1 6.5,1877.3 		"/>
	</g>
	<rect x="734.5" y="1615.9" class="st22" width="26.9" height="56.9"/>
	<rect x="1324" y="1329.6" class="st22" width="26.9" height="56.9"/>
	<g>
		<path class="st24" d="M2245.8,356.4h157.8c0,0,12.6-11.2,0.9-27.2s-25.4-8-25.4-8s6.4-9.2-2.7-19.4c-5.5-6.2-9.3-6.7-19.7-6.2
			c0,0-4.6-21.9-25.6-8.4c0,0-14.9-28.2-48.9-15.3c-21,8-21.7,27-20.4,39.6c0,0-25.6-6.4-29.9,17.1c0,0-27.7-6.4-25.6,27.7H2245.8z"
			/>
		<linearGradient id="SVGID_16_" gradientUnits="userSpaceOnUse" x1="2264.0024" y1="277.3629" x2="2331.145" y2="393.6571">
			<stop  offset="0" style="stop-color:#FFFFFF;stop-opacity:0"/>
			<stop  offset="0.9949" style="stop-color:#ADAEB0;stop-opacity:0.5"/>
		</linearGradient>
		<path class="st25" d="M2241,354.6h157.8c0,0,12.6-11.2,0.9-27.2c-11.7-16-25.4-8-25.4-8s6.4-9.2-2.7-19.4
			c-5.5-6.2-9.3-6.7-19.7-6.2c0,0-4.6-21.9-25.6-8.4c0,0-14.9-28.2-48.9-15.3c-21,8-21.7,27-20.4,39.6c0,0-25.6-6.4-29.9,17.1
			c0,0-27.7-6.4-25.6,27.7H2241z"/>
	</g>
	<g class="st26">
		<path class="st24" d="M188,584.7c0,0-10.6-22.4-43-17.5c-18.7,2.8-23.9,29.1-23.9,29.1s-20.2-6.1-25.7,16.2
			c0,0-2.5,18.1,14.4,20.8c0,0,1,12.9,12.9,14.9c11.9,2,17.7-7.5,17.7-7.5s11.4,14.4,31.7,13.6c21.3-0.9,26.3-12,26.3-12
			s30.8-0.3,29.9-32.2C227.4,579.5,188,584.7,188,584.7z"/>
		<linearGradient id="SVGID_17_" gradientUnits="userSpaceOnUse" x1="95.2991" y1="610.4232" x2="228.3423" y2="610.4232">
			<stop  offset="0" style="stop-color:#FFFFFF;stop-opacity:0"/>
			<stop  offset="0.9949" style="stop-color:#ADAEB0;stop-opacity:0.5"/>
		</linearGradient>
		<path class="st27" d="M188,584.7c0,0-10.6-22.4-43-17.5c-18.7,2.8-23.9,29.1-23.9,29.1s-20.2-6.1-25.7,16.2
			c0,0-2.5,18.1,14.4,20.8c0,0,1,12.9,12.9,14.9c11.9,2,17.7-7.5,17.7-7.5s11.4,14.4,31.7,13.6c21.3-0.9,26.3-12,26.3-12
			s30.8-0.3,29.9-32.2C227.4,579.5,188,584.7,188,584.7z"/>
	</g>
	<g>
		<path class="st28" d="M715,1617.7h47.3v-4.1H629.7v4.1h23.6v16.1h-8.6v80.8h78.8v-80.8H715V1617.7z M657.5,1617.7h53.5v16.1h-53.5
			V1617.7z"/>
		<g class="st29">
			<path class="st30" d="M698.3,1684c0,2.8-1,5-3.1,6.8c-2.1,1.8-5,2.9-8.7,3.4v7h-3.9v-6.8c-2.3,0-4.5-0.2-6.6-0.5
				c-2.1-0.4-3.9-0.8-5.2-1.5v-4.7c1.7,0.7,3.6,1.4,5.8,1.8c2.2,0.5,4.2,0.7,6,0.7v-13.4c-4.2-1.3-7.1-2.8-8.7-4.6s-2.5-4-2.5-6.7
				c0-2.7,1-4.8,3.1-6.5c2.1-1.7,4.8-2.7,8.2-3.1v-5.5h3.9v5.5c3.7,0.1,7.3,0.9,10.8,2.2l-1.6,4c-3-1.2-6.1-1.9-9.2-2.1v13.2
				c3.2,1,5.6,2,7.1,3c1.6,1,2.7,2.1,3.5,3.3C698,1680.7,698.3,1682.2,698.3,1684z M676.6,1665.5c0,1.5,0.5,2.8,1.4,3.7
				c0.9,0.9,2.5,1.8,4.7,2.6v-11.8c-2,0.3-3.5,1-4.6,1.9C677.1,1662.9,676.6,1664.1,676.6,1665.5z M693.2,1684.4
				c0-1.5-0.5-2.6-1.4-3.5c-0.9-0.9-2.6-1.8-5.2-2.7v11.8C691,1689.3,693.2,1687.5,693.2,1684.4z"/>
		</g>
	</g>
	<g>
		<path class="st28" d="M101.3,1447.9h-8.6v80.8h78.8v-80.8H163v-16.1h23.6v-4.1H56.6v4.1h44.8V1447.9z M158.9,1447.9h-53.5v-16.1
			h53.5V1447.9z"/>
		<g class="st29">
			<path class="st30" d="M145.7,1498.1c0,2.8-1,5-3.1,6.8c-2.1,1.8-5,2.9-8.7,3.4v7H130v-6.8c-2.3,0-4.5-0.2-6.6-0.5
				c-2.1-0.4-3.9-0.8-5.2-1.5v-4.7c1.7,0.7,3.6,1.4,5.8,1.8c2.2,0.5,4.2,0.7,6,0.7V1491c-4.2-1.3-7.1-2.8-8.7-4.6
				c-1.7-1.7-2.5-4-2.5-6.7c0-2.7,1-4.8,3.1-6.5c2.1-1.7,4.8-2.7,8.2-3.1v-5.5h3.9v5.5c3.7,0.1,7.3,0.9,10.8,2.2l-1.6,4
				c-3-1.2-6.1-1.9-9.2-2.1v13.2c3.2,1,5.6,2,7.1,3c1.6,1,2.7,2.1,3.5,3.3C145.3,1494.8,145.7,1496.3,145.7,1498.1z M123.9,1479.7
				c0,1.5,0.5,2.8,1.4,3.7c0.9,0.9,2.5,1.8,4.7,2.6v-11.8c-2,0.3-3.5,1-4.6,1.9C124.5,1477.1,123.9,1478.3,123.9,1479.7z
				 M140.6,1498.5c0-1.5-0.5-2.6-1.4-3.5s-2.6-1.8-5.2-2.7v11.8C138.4,1503.5,140.6,1501.6,140.6,1498.5z"/>
		</g>
	</g>
	<g>
		<path class="st28" d="M1113.4,1329.6h44.8v-4.1h-130.1v4.1h23.6v16.1h-8.6v80.8h78.8v-80.8h-8.6V1329.6z M1055.8,1329.6h53.5v16.1
			h-53.5V1329.6z"/>
		<g class="st29">
			<path class="st30" d="M1096.7,1395.9c0,2.8-1,5-3.1,6.8c-2.1,1.8-5,2.9-8.7,3.4v7h-3.9v-6.8c-2.3,0-4.5-0.2-6.6-0.5
				c-2.1-0.4-3.9-0.8-5.2-1.5v-4.7c1.7,0.7,3.6,1.4,5.8,1.8c2.2,0.5,4.2,0.7,6,0.7v-13.4c-4.2-1.3-7.1-2.8-8.7-4.6
				c-1.7-1.7-2.5-4-2.5-6.7c0-2.7,1-4.8,3.1-6.5s4.8-2.7,8.2-3.1v-5.5h3.9v5.5c3.7,0.1,7.3,0.9,10.8,2.2l-1.6,4
				c-3-1.2-6.1-1.9-9.2-2.1v13.2c3.2,1,5.6,2,7.1,3s2.7,2.1,3.5,3.3S1096.7,1394.2,1096.7,1395.9z M1074.9,1377.5
				c0,1.5,0.5,2.8,1.4,3.7c0.9,0.9,2.5,1.8,4.7,2.6v-11.8c-2,0.3-3.5,1-4.6,1.9C1075.4,1374.9,1074.9,1376.1,1074.9,1377.5z
				 M1091.5,1396.3c0-1.5-0.5-2.6-1.4-3.5s-2.6-1.8-5.2-2.7v11.8C1089.3,1401.3,1091.5,1399.4,1091.5,1396.3z"/>
		</g>
	</g>
	<g>
		<path class="st28" d="M1341.3,1547.7h-8.6v80.8h78.8v-80.8h-8.6v-16.1h23.6v-4.1h-130.1v4.1h44.8V1547.7z M1398.9,1547.7h-53.5
			v-16.1h53.5V1547.7z"/>
		<g class="st29">
			<path class="st30" d="M1385.7,1597.9c0,2.8-1,5-3.1,6.8c-2.1,1.8-5,2.9-8.7,3.4v7h-3.9v-6.8c-2.3,0-4.5-0.2-6.6-0.5
				c-2.1-0.4-3.9-0.8-5.2-1.5v-4.7c1.7,0.7,3.6,1.4,5.8,1.8s4.2,0.7,6,0.7v-13.4c-4.2-1.3-7.1-2.8-8.7-4.6c-1.7-1.7-2.5-4-2.5-6.7
				c0-2.7,1-4.8,3.1-6.5s4.8-2.7,8.2-3.1v-5.5h3.9v5.5c3.7,0.1,7.3,0.9,10.8,2.2l-1.6,4c-3-1.2-6.1-1.9-9.2-2.1v13.2
				c3.2,1,5.6,2,7.1,3s2.7,2.1,3.5,3.3S1385.7,1596.1,1385.7,1597.9z M1363.9,1579.4c0,1.5,0.5,2.8,1.4,3.7c0.9,0.9,2.5,1.8,4.7,2.6
				V1574c-2,0.3-3.5,1-4.6,1.9C1364.4,1576.8,1363.9,1578,1363.9,1579.4z M1380.5,1598.3c0-1.5-0.5-2.6-1.4-3.5
				c-0.9-0.9-2.6-1.8-5.2-2.7v11.8C1378.3,1603.2,1380.5,1601.4,1380.5,1598.3z"/>
		</g>
	</g>
	<g>
		<path class="st28" d="M1914.2,1643h62.7v-4.1h-148v4.1h23.6v16.1h-8.6v80.8h78.8v-80.8h-8.6V1643z M1856.7,1643h53.5v16.1h-53.5
			V1643z"/>
		<g class="st29">
			<path class="st30" d="M1897.6,1709.3c0,2.8-1,5-3.1,6.8c-2.1,1.8-5,2.9-8.7,3.4v7h-3.9v-6.8c-2.3,0-4.5-0.2-6.6-0.5
				c-2.1-0.4-3.9-0.8-5.2-1.5v-4.7c1.7,0.7,3.6,1.4,5.8,1.8c2.2,0.5,4.2,0.7,6,0.7v-13.4c-4.2-1.3-7.1-2.8-8.7-4.6
				c-1.7-1.7-2.5-4-2.5-6.7c0-2.7,1-4.8,3.1-6.5c2.1-1.7,4.8-2.7,8.2-3.1v-5.5h3.9v5.5c3.7,0.1,7.3,0.9,10.8,2.2l-1.6,4
				c-3-1.2-6.1-1.9-9.2-2.1v13.2c3.2,1,5.6,2,7.1,3c1.6,1,2.7,2.1,3.5,3.3C1897.2,1706,1897.6,1707.5,1897.6,1709.3z M1875.8,1690.8
				c0,1.5,0.5,2.8,1.4,3.7c0.9,0.9,2.5,1.8,4.7,2.6v-11.8c-2,0.3-3.5,1-4.6,1.9C1876.3,1688.2,1875.8,1689.4,1875.8,1690.8z
				 M1892.4,1709.7c0-1.5-0.5-2.6-1.4-3.5c-0.9-0.9-2.6-1.8-5.2-2.7v11.8C1890.2,1714.6,1892.4,1712.8,1892.4,1709.7z"/>
		</g>
	</g>
	<g class="st31">
		<path class="st11" d="M884.7,1793c0,2.3-0.9,4.2-2.6,5.7c-1.7,1.5-4.2,2.5-7.3,2.9v5.9h-3.3v-5.7c-1.9,0-3.8-0.1-5.6-0.4
			c-1.8-0.3-3.3-0.7-4.4-1.2v-4c1.4,0.6,3,1.1,4.9,1.5c1.9,0.4,3.5,0.6,5.1,0.6V1787c-3.5-1.1-5.9-2.4-7.4-3.9s-2.1-3.4-2.1-5.7
			c0-2.2,0.9-4.1,2.6-5.5c1.7-1.4,4-2.3,6.9-2.6v-4.7h3.3v4.6c3.1,0.1,6.2,0.7,9.1,1.9l-1.3,3.4c-2.5-1-5.1-1.6-7.8-1.8v11.1
			c2.7,0.9,4.7,1.7,6,2.5c1.3,0.8,2.3,1.7,2.9,2.8S884.7,1791.5,884.7,1793z M866.4,1777.4c0,1.3,0.4,2.3,1.2,3.1s2.1,1.5,4,2.2
			v-9.9c-1.7,0.3-3,0.8-3.8,1.6C866.8,1775.2,866.4,1776.2,866.4,1777.4z M880.4,1793.3c0-1.2-0.4-2.2-1.1-3
			c-0.8-0.8-2.2-1.5-4.4-2.3v10C878.5,1797.5,880.4,1795.9,880.4,1793.3z"/>
	</g>
	<g class="st31">
		<path class="st11" d="M1654,1162c0,2.3-0.9,4.2-2.6,5.7c-1.7,1.5-4.2,2.5-7.3,2.9v5.9h-3.3v-5.7c-1.9,0-3.8-0.1-5.6-0.4
			c-1.8-0.3-3.3-0.7-4.4-1.2v-4c1.4,0.6,3,1.1,4.9,1.5c1.9,0.4,3.5,0.6,5.1,0.6V1156c-3.5-1.1-5.9-2.4-7.4-3.9s-2.1-3.4-2.1-5.7
			c0-2.2,0.9-4.1,2.6-5.5c1.7-1.4,4-2.3,6.9-2.6v-4.7h3.3v4.6c3.1,0.1,6.2,0.7,9.1,1.9l-1.3,3.4c-2.5-1-5.1-1.6-7.8-1.8v11.1
			c2.7,0.9,4.7,1.7,6,2.5c1.3,0.8,2.3,1.7,2.9,2.8C1653.6,1159.2,1654,1160.5,1654,1162z M1635.6,1146.4c0,1.3,0.4,2.3,1.2,3.1
			c0.8,0.8,2.1,1.5,4,2.2v-9.9c-1.7,0.3-3,0.8-3.8,1.6C1636.1,1144.3,1635.6,1145.2,1635.6,1146.4z M1649.6,1162.3
			c0-1.2-0.4-2.2-1.1-3s-2.2-1.5-4.4-2.3v10C1647.8,1166.5,1649.6,1164.9,1649.6,1162.3z"/>
	</g>
	<g class="st31">
		<path class="st11" d="M641.9,1285.2c0,2.3-0.9,4.2-2.6,5.7c-1.7,1.5-4.2,2.5-7.3,2.9v5.9h-3.3v-5.7c-1.9,0-3.8-0.1-5.6-0.4
			c-1.8-0.3-3.3-0.7-4.4-1.2v-4c1.4,0.6,3,1.1,4.9,1.5c1.9,0.4,3.5,0.6,5.1,0.6v-11.3c-3.5-1.1-5.9-2.4-7.4-3.9s-2.1-3.4-2.1-5.7
			c0-2.2,0.9-4.1,2.6-5.5s4-2.3,6.9-2.6v-4.7h3.3v4.6c3.1,0.1,6.2,0.7,9.1,1.9l-1.3,3.4c-2.5-1-5.1-1.6-7.8-1.8v11.1
			c2.7,0.9,4.7,1.7,6,2.5c1.3,0.8,2.3,1.7,2.9,2.8S641.9,1283.7,641.9,1285.2z M623.5,1269.6c0,1.3,0.4,2.3,1.2,3.1s2.1,1.5,4,2.2
			v-9.9c-1.7,0.3-3,0.8-3.8,1.6C623.9,1267.5,623.5,1268.4,623.5,1269.6z M637.5,1285.5c0-1.2-0.4-2.2-1.1-3
			c-0.8-0.8-2.2-1.5-4.4-2.3v10C635.7,1289.7,637.5,1288.1,637.5,1285.5z"/>
	</g>
	<g class="st31">
		<path class="st11" d="M1773.8,1789.6c0,2.3-0.9,4.2-2.6,5.7c-1.7,1.5-4.2,2.5-7.3,2.9v5.9h-3.3v-5.7c-1.9,0-3.8-0.1-5.6-0.4
			c-1.8-0.3-3.3-0.7-4.4-1.2v-4c1.4,0.6,3,1.1,4.9,1.5s3.5,0.6,5.1,0.6v-11.3c-3.5-1.1-5.9-2.4-7.4-3.9s-2.1-3.4-2.1-5.7
			c0-2.2,0.9-4.1,2.6-5.5c1.7-1.4,4-2.3,6.9-2.6v-4.7h3.3v4.6c3.1,0.1,6.2,0.7,9.1,1.9l-1.3,3.4c-2.5-1-5.1-1.6-7.8-1.8v11.1
			c2.7,0.9,4.7,1.7,6,2.5c1.3,0.8,2.3,1.7,2.9,2.8S1773.8,1788.1,1773.8,1789.6z M1755.4,1774.1c0,1.3,0.4,2.3,1.2,3.1
			s2.1,1.5,4,2.2v-9.9c-1.7,0.3-3,0.8-3.8,1.6C1755.9,1771.9,1755.4,1772.9,1755.4,1774.1z M1769.4,1790c0-1.2-0.4-2.2-1.1-3
			c-0.8-0.8-2.2-1.5-4.4-2.3v10C1767.6,1794.2,1769.4,1792.6,1769.4,1790z"/>
	</g>
	<rect x="1758.2" y="1587.4" class="st22" width="26.9" height="56.9"/>
	<g class="st1">
		
			<linearGradient id="SVGID_18_" gradientUnits="userSpaceOnUse" x1="1018.4355" y1="-3522.1521" x2="1018.2544" y2="-3391.4722" gradientTransform="matrix(-1.2579 1.744209e-03 -3.426255e-03 -2.4722 3155.9607 -7102.3452)">
			<stop  offset="0" style="stop-color:#FFFFFF;stop-opacity:0"/>
			<stop  offset="1" style="stop-color:#ADAEB0"/>
		</linearGradient>
		<polygon class="st32" points="1843.2,1576.8 1930.5,1406 1930.5,1334.7 1930.5,1284 1898,1284 1898,1334.7 1843.2,1334.7 
			1843.5,1576.8 		"/>
	</g>
	<rect x="2027.5" y="1325.7" class="st22" width="21" height="44.2"/>
	<rect x="1891.1" y="1551" class="st22" width="21" height="42.7"/>
	<rect x="1949.8" y="1643.2" class="st22" width="21" height="44.2"/>
	<g class="st1">
		
			<linearGradient id="SVGID_19_" gradientUnits="userSpaceOnUse" x1="1000.2928" y1="-3687.0706" x2="999.9913" y2="-3469.5286" gradientTransform="matrix(-1.2579 1.744209e-03 -3.426255e-03 -2.4722 3155.9607 -7102.3452)">
			<stop  offset="0" style="stop-color:#FFFFFF;stop-opacity:0"/>
			<stop  offset="1" style="stop-color:#ADAEB0"/>
		</linearGradient>
		<polygon class="st33" points="1996.1,1877.3 1995.8,1477 1824.1,1476.9 1824.4,1877.3 		"/>
	</g>
	<g class="st1">
		
			<linearGradient id="SVGID_20_" gradientUnits="userSpaceOnUse" x1="-1922.9485" y1="-15256.21" x2="-1925.9198" y2="-13112.6299" gradientTransform="matrix(0.8418 1.166606e-03 3.370158e-04 -0.2429 3839.4773 -1826.4441)">
			<stop  offset="0" style="stop-color:#FFFFFF;stop-opacity:0"/>
			<stop  offset="1" style="stop-color:#ADAEB0"/>
		</linearGradient>
		<polygon class="st34" points="2281.4,1877.3 2281.4,1403 2146.3,1356.6 2148.9,1877.3 		"/>
	</g>
	<g class="st1">
		
			<linearGradient id="SVGID_21_" gradientUnits="userSpaceOnUse" x1="-848.3644" y1="-5258.2441" x2="-848.6719" y2="-5036.3726" gradientTransform="matrix(1.3372 1.853680e-03 2.337203e-03 -1.6862 3292.1335 -6971.0781)">
			<stop  offset="0" style="stop-color:#FFFFFF;stop-opacity:0"/>
			<stop  offset="1" style="stop-color:#ADAEB0"/>
		</linearGradient>
		<polygon class="st35" points="2219.8,1877.3 2218.8,1520.2 2071.2,1520 2071.2,1877.3 		"/>
	</g>
	<g class="st1">
		
			<image style="overflow:visible;" width="920" height="357" xlink:href="8EF56EE8EF4BFBA9.png"  transform="matrix(0.24 0 0 0.24 2035.16 1844.5244)">
		</image>
	</g>
	
		<rect x="2377.2" y="1139.5" transform="matrix(-1 -4.489132e-11 4.489132e-11 -1 4781.2773 2335.925)" class="st22" width="26.9" height="56.9"/>
	<rect x="2417.2" y="1494.6" class="st22" width="26.9" height="54.9"/>
	
		<rect x="2476" y="1663.8" transform="matrix(-1 -4.489132e-11 4.489132e-11 -1 4979.0176 3384.415)" class="st22" width="26.9" height="56.9"/>
	
		<rect x="2084" y="1578" transform="matrix(-1 -4.529633e-11 4.529633e-11 -1 4194.8745 3212.8015)" class="st22" width="26.9" height="56.9"/>
	<g class="st1">
		
			<linearGradient id="SVGID_22_" gradientUnits="userSpaceOnUse" x1="-747.2319" y1="-3691.3997" x2="-747.6196" y2="-3411.6843" gradientTransform="matrix(1.2579 1.744209e-03 3.426255e-03 -2.4722 3423.6133 -7102.3452)">
			<stop  offset="0" style="stop-color:#FFFFFF;stop-opacity:0"/>
			<stop  offset="1" style="stop-color:#ADAEB0"/>
		</linearGradient>
		<polygon class="st36" points="2533.7,1877.3 2533.9,1330.8 2408.9,1330.9 2408.7,1877.3 		"/>
	</g>
	<g>
		<path class="st28" d="M2399.4,1493h44.8v-4.1h-130.1v4.1h23.6v16.1h-8.6v80.8h78.8v-80.8h-8.6V1493z M2341.8,1493h53.5v16.1h-53.5
			V1493z"/>
		<g class="st29">
			<path class="st30" d="M2382.5,1559.3c0,2.8-1,5-3.1,6.8c-2.1,1.8-5,2.9-8.7,3.4v7h-3.9v-6.8c-2.3,0-4.5-0.2-6.6-0.5
				c-2.1-0.4-3.9-0.8-5.2-1.5v-4.7c1.7,0.7,3.6,1.4,5.8,1.8c2.2,0.5,4.2,0.7,6,0.7v-13.4c-4.2-1.3-7.1-2.8-8.7-4.6
				c-1.7-1.7-2.5-4-2.5-6.7c0-2.7,1-4.8,3.1-6.5c2.1-1.7,4.8-2.7,8.2-3.1v-5.5h3.9v5.5c3.7,0.1,7.3,0.9,10.8,2.2l-1.6,4
				c-3-1.2-6.1-1.9-9.2-2.1v13.2c3.2,1,5.6,2,7.1,3c1.6,1,2.7,2.1,3.5,3.3C2382.2,1556,2382.5,1557.5,2382.5,1559.3z M2360.8,1540.8
				c0,1.5,0.5,2.8,1.4,3.7c0.9,0.9,2.5,1.8,4.7,2.6v-11.8c-2,0.3-3.5,1-4.6,1.9C2361.3,1538.3,2360.8,1539.4,2360.8,1540.8z
				 M2377.4,1559.7c0-1.5-0.5-2.6-1.4-3.5c-0.9-0.9-2.6-1.8-5.2-2.7v11.8C2375.2,1564.7,2377.4,1562.8,2377.4,1559.7z"/>
		</g>
	</g>
	<g class="st31">
		<path class="st11" d="M2237.1,1454.8c0,2.3-0.9,4.2-2.6,5.7c-1.7,1.5-4.2,2.5-7.3,2.9v5.9h-3.3v-5.7c-1.9,0-3.8-0.1-5.6-0.4
			c-1.8-0.3-3.3-0.7-4.4-1.2v-4c1.4,0.6,3,1.1,4.9,1.5c1.9,0.4,3.5,0.6,5.1,0.6v-11.3c-3.5-1.1-5.9-2.4-7.4-3.9
			c-1.4-1.5-2.1-3.4-2.1-5.7c0-2.2,0.9-4.1,2.6-5.5c1.7-1.4,4-2.3,6.9-2.6v-4.7h3.3v4.6c3.1,0.1,6.2,0.7,9.1,1.9l-1.3,3.4
			c-2.5-1-5.1-1.6-7.8-1.8v11.1c2.7,0.9,4.7,1.7,6,2.5c1.3,0.8,2.3,1.7,2.9,2.8C2236.8,1452,2237.1,1453.3,2237.1,1454.8z
			 M2218.7,1439.3c0,1.3,0.4,2.3,1.2,3.1c0.8,0.8,2.1,1.5,4,2.2v-9.9c-1.7,0.3-3,0.8-3.8,1.6S2218.7,1438.1,2218.7,1439.3z
			 M2232.7,1455.2c0-1.2-0.4-2.2-1.1-3c-0.8-0.8-2.2-1.5-4.4-2.3v10C2230.9,1459.3,2232.7,1457.8,2232.7,1455.2z"/>
	</g>
</g>
<g id="Layer_2">
</g>
</svg>
